<svg width="111" height="110" viewBox="0 0 111 110" fill="none" xmlns="http://www.w3.org/2000/svg">
<path d="M96.4866 62.4019L96.2166 63.2019C95.4566 65.4119 93.7366 66.8419 91.8266 66.8419H81.5766C79.2166 66.8419 77.5366 63.9619 78.2166 61.1219C79.3066 57.5519 92.3566 55.7119 92.3566 55.7119C95.3466 55.0919 97.6966 58.8919 96.4866 62.3919M29.7566 66.8319H19.5066C17.5966 66.8319 15.8666 65.4019 15.1166 63.1919L14.8466 62.3919C13.6366 58.8919 15.9866 55.0919 18.9766 55.7119C18.9766 55.7119 32.0166 57.5519 33.1166 61.1219C33.8066 63.9619 32.1166 66.8419 29.7566 66.8419M25.2866 32.7019C26.9666 28.7719 30.0466 26.1719 33.5166 25.7219C40.8466 24.7819 48.2966 24.3019 55.6666 24.3019C63.0366 24.3019 70.4766 24.7819 77.8066 25.7219C81.2766 26.1719 84.3566 28.7819 86.0466 32.7019L90.9966 44.2219C84.1866 43.7219 70.6166 43.0819 56.5666 43.0819C42.5166 43.0819 27.5566 43.7419 20.3266 44.2419L25.2866 32.7019ZM98.9666 46.3219L103.207 44.4419C104.917 43.6819 105.787 41.4719 104.937 39.6919C104.487 38.7619 103.667 38.0519 102.547 37.8819C102.547 37.8819 99.1166 36.7619 96.2066 37.2219C95.3466 37.3519 94.5666 37.8919 94.0666 38.6719L94.0466 38.6919L93.1266 40.1119L89.0366 30.5819C86.8066 25.3919 82.7366 21.9519 78.1566 21.3619C63.2066 19.4419 48.1366 19.4419 33.1866 21.3619C28.5966 21.9519 24.5366 25.4019 22.3066 30.5819L18.2166 40.1119L17.2966 38.6919L17.2766 38.6719C16.7766 37.8919 15.9966 37.3519 15.1366 37.2219C12.2266 36.7619 8.7866 37.8819 8.7866 37.8819C7.6766 38.0419 6.8466 38.7619 6.4066 39.6919C5.5466 41.4719 6.4266 43.6919 8.1366 44.4419L12.3766 46.3219C8.0366 49.2619 5.3466 55.0119 5.7066 61.2419C6.0266 66.5219 7.2766 71.9419 8.7866 75.4419V83.7819C8.7866 87.2619 11.3666 90.0819 14.5466 90.0819H23.8766C27.0566 90.0819 29.6366 87.2619 29.6366 83.7819V81.7919L44.8666 82.2619H66.4966L81.7266 81.7919V83.7819C81.7266 87.2619 84.3066 90.0819 87.4866 90.0819H96.8166C99.9966 90.0819 102.577 87.2619 102.577 83.7819V75.4419C104.087 71.9419 105.337 66.5219 105.657 61.2419C106.027 55.0119 103.327 49.2619 98.9866 46.3219" fill="black"/>
</svg>
