<svg width="111" height="110" viewBox="0 0 111 110" fill="none" xmlns="http://www.w3.org/2000/svg">
<path d="M55.3334 105.002C47.8034 105.002 22.5034 88.9217 18.7834 51.5617C18.7034 50.7617 19.2834 50.0517 20.0934 49.9717C20.8934 49.8817 21.6034 50.4717 21.6834 51.2717C25.4234 88.8517 50.2834 102.092 55.3334 102.092C60.3834 102.092 85.2534 88.8517 88.9934 51.2717C89.0734 50.4717 89.7934 49.8817 90.5834 49.9717C91.3834 50.0517 91.9633 50.7617 91.8933 51.5617C88.1733 88.9217 62.8633 105.002 55.3334 105.002ZM64.1133 87.4517H46.5634C45.7634 87.4517 45.1034 86.8017 45.1034 85.9917C45.1034 85.1817 45.7534 84.5317 46.5634 84.5317H64.1133C64.9133 84.5317 65.5733 85.1817 65.5733 85.9917C65.5733 86.8017 64.9234 87.4517 64.1133 87.4517ZM56.6234 76.4817H54.0534C51.6634 76.4817 49.4134 75.5517 47.7234 73.8617C47.1534 73.2917 47.1534 72.3717 47.7234 71.8017C48.2934 71.2317 49.2134 71.2317 49.7834 71.8017C50.9234 72.9417 52.4334 73.5717 54.0534 73.5717H56.6234C58.2334 73.5717 59.7534 72.9417 60.8934 71.8017C61.4634 71.2317 62.3834 71.2317 62.9534 71.8017C63.5233 72.3717 63.5233 73.2917 62.9534 73.8617C61.2634 75.5517 59.0134 76.4817 56.6234 76.4817ZM75.0834 58.9317H64.1133C63.3134 58.9317 62.6534 58.2817 62.6534 57.4717C62.6534 56.6617 63.3033 56.0117 64.1133 56.0117H75.0834C75.8834 56.0117 76.5434 56.6617 76.5434 57.4717C76.5434 58.2817 75.8934 58.9317 75.0834 58.9317ZM46.5634 58.9317H35.5934C34.7934 58.9317 34.1334 58.2817 34.1334 57.4717C34.1334 56.6617 34.7834 56.0117 35.5934 56.0117H46.5634C47.3634 56.0117 48.0234 56.6617 48.0234 57.4717C48.0234 58.2817 47.3734 58.9317 46.5634 58.9317ZM61.9234 52.3517C61.3934 52.3517 60.8734 52.0617 60.6234 51.5417C60.2634 50.8217 60.5533 49.9517 61.2733 49.5917L64.0834 48.1917C65.3134 47.5717 66.7034 47.2417 68.0834 47.2417H74.1833C76.5733 47.2417 78.8134 48.1717 80.5134 49.8617C81.0834 50.4317 81.0834 51.3517 80.5134 51.9217C79.9434 52.4917 79.0234 52.4917 78.4534 51.9217C77.3134 50.7817 75.7934 50.1517 74.1833 50.1517H68.0834C67.1534 50.1517 66.2134 50.3717 65.3834 50.7917L62.5734 52.1917C62.3634 52.2917 62.1434 52.3417 61.9234 52.3417V52.3517ZM48.7534 52.3517C48.5334 52.3517 48.3134 52.3017 48.1034 52.2017L45.2934 50.8017C44.4534 50.3817 43.5234 50.1617 42.5934 50.1617H36.4934C34.8834 50.1617 33.3634 50.7917 32.2234 51.9317C31.6534 52.5017 30.7334 52.5017 30.1634 51.9317C29.5934 51.3617 29.5934 50.4417 30.1634 49.8717C31.8534 48.1817 34.1034 47.2517 36.4934 47.2517H42.5934C43.9734 47.2517 45.3634 47.5817 46.5934 48.2017L49.3934 49.6017C50.1134 49.9617 50.4034 50.8317 50.0434 51.5517C49.7834 52.0617 49.2734 52.3617 48.7434 52.3617L48.7534 52.3517ZM70.6934 39.2517C70.4934 39.2517 70.2934 39.2117 70.0934 39.1217L69.4233 38.8217C62.4033 35.6617 54.3334 32.0217 49.1034 27.9117C45.7334 29.3817 38.9034 33.2017 34.3434 37.2017C33.7334 37.7317 32.8134 37.6717 32.2834 37.0717C31.7534 36.4717 31.8134 35.5517 32.4134 35.0117C36.7534 31.2017 42.8734 27.6417 46.7134 25.8017C44.7934 23.8317 43.6134 21.7717 43.5534 19.6017C43.5334 18.8017 44.1634 18.1317 44.9634 18.1017C45.7634 18.0717 46.4334 18.7117 46.4634 19.5117C46.5134 21.2017 47.7534 22.9517 49.7334 24.6817C50.2734 24.7317 50.7634 25.0917 50.9634 25.6317C50.9634 25.6517 50.9834 25.6817 50.9834 25.7017C56.0534 29.5917 64.3734 33.3417 70.6133 36.1517L71.2833 36.4517C72.0133 36.7817 72.3434 37.6417 72.0134 38.3817C71.7733 38.9217 71.2434 39.2417 70.6833 39.2417L70.6934 39.2517ZM90.4333 38.6417C89.7334 38.6417 89.1234 38.1417 89.0033 37.4317C87.8334 30.5517 84.5434 23.6117 79.9834 18.4017C70.8034 7.93172 60.3734 7.93172 55.3534 7.93172H55.3334C50.2634 7.93172 39.8434 7.94172 30.6834 18.4017C26.1234 23.6117 22.8334 30.5517 21.6634 37.4317C21.5334 38.2217 20.7734 38.7617 19.9834 38.6217C19.1934 38.4917 18.6534 37.7317 18.7934 36.9417C20.0634 29.4317 23.5134 22.1617 28.4934 16.4817C38.5234 5.03172 50.2634 5.01172 55.2834 5.01172H55.3034C60.3734 5.01172 72.1233 5.01172 82.1733 16.4817C87.1534 22.1717 90.6034 29.4317 91.8734 36.9417C92.0033 37.7317 91.4734 38.4817 90.6833 38.6217C90.6033 38.6317 90.5233 38.6417 90.4333 38.6417Z" fill="black"/>
</svg>
