<svg width="110" height="110" viewBox="0 0 110 110" fill="none" xmlns="http://www.w3.org/2000/svg">
<path d="M13.6901 18.1586V81.0486C13.6901 81.5886 14.1301 82.0286 14.6701 82.0386C21.3601 82.1686 27.9201 82.7886 34.3601 84.1986C40.3201 85.5086 46.1601 87.4786 51.9101 90.3586C52.5801 90.6886 53.3601 90.2186 53.3601 89.4686V27.2586C53.3601 26.8886 53.1601 26.5486 52.8401 26.3686C46.2601 22.7586 39.7101 20.4786 33.1601 19.0886C27.0301 17.7786 20.8801 17.2586 14.7101 17.1486C14.1501 17.1386 13.6901 17.5886 13.6901 18.1486V18.1586Z" fill="black"/>
<path d="M56.6401 27.2603V89.4803C56.6401 90.2303 57.4301 90.7003 58.0901 90.3703C63.8401 87.4903 69.6901 85.5203 75.6401 84.2103C82.0801 82.8003 88.6301 82.1703 95.3301 82.0503C95.8701 82.0503 96.3101 81.6003 96.3101 81.0603V18.1603C96.3101 17.6003 95.8501 17.1503 95.2901 17.1603C89.1201 17.2703 82.9701 17.7903 76.8401 19.0903C70.2901 20.4803 63.7401 22.7603 57.1601 26.3803C56.8401 26.5603 56.6401 26.9003 56.6401 27.2603Z" fill="black"/>
<path d="M33.6701 87.4092C26.2101 85.7692 18.9901 85.3292 11.4101 85.2992C10.8601 85.2992 10.4101 84.8492 10.4101 84.2992V28.9492C10.4101 28.3992 9.96005 27.9492 9.41005 27.9492H5.99005C5.44005 27.9492 4.99005 28.3992 4.99005 28.9492V91.8392C4.99005 92.3892 5.44005 92.8392 5.99005 92.8392H44.7601C45.8701 92.8392 46.1501 91.3092 45.1201 90.8992C41.3501 89.3892 37.5301 88.2492 33.6501 87.3992" fill="black"/>
<path d="M76.3301 87.4092C72.4601 88.2592 68.6301 89.3992 64.8601 90.9092C63.8301 91.3192 64.1201 92.8492 65.2201 92.8492H104C104.55 92.8492 105 92.3992 105 91.8492V28.9492C105 28.3992 104.55 27.9492 104 27.9492H100.58C100.03 27.9492 99.5801 28.3992 99.5801 28.9492V84.2992C99.5801 84.8492 99.1301 85.2892 98.5801 85.2992C91.0101 85.3292 83.7901 85.7692 76.3201 87.4092" fill="black"/>
</svg>
