<svg width="150" height="95" viewBox="0 0 150 95" fill="none" xmlns="http://www.w3.org/2000/svg">
<mask id="mask0_805_448" style="mask-type:luminance" maskUnits="userSpaceOnUse" x="0" y="0" width="150" height="95">
<path d="M150 0H0V94.5006H150V0Z" fill="white"/>
</mask>
<g mask="url(#mask0_805_448)">
<path d="M1.6321 90.0765L0.917443 92.2421H0L2.33692 85.3672H3.40793L5.75272 92.2421H4.80575L4.06943 90.0765H1.6321ZM3.88634 89.3835L3.21302 87.4049C3.05946 86.956 2.95708 86.5485 2.85667 86.1488H2.83305C2.73067 86.5583 2.61845 86.9737 2.48458 87.393L1.81126 89.3815H3.8824L3.88634 89.3835Z" fill="#231F20"/>
<path d="M6.70344 88.6469C6.70344 88.1369 6.70344 87.7195 6.66406 87.31H7.45157L7.50276 88.1251H7.52441C7.6862 87.8364 7.92367 87.5973 8.21127 87.4336C8.49886 87.2698 8.82568 87.1877 9.15652 87.1959C9.83968 87.1959 10.9008 87.6054 10.9008 89.2985V92.2516H10.011V89.4048C10.011 88.6173 9.71565 87.9459 8.86908 87.9459C8.59701 87.9508 8.33361 88.0425 8.11724 88.2075C7.90088 88.3726 7.74285 88.6023 7.66616 88.8634C7.62305 88.9989 7.60243 89.1406 7.60513 89.2828V92.2575H6.70344V88.6567V88.6469Z" fill="#231F20"/>
<path d="M15.6731 90.0765L14.9585 92.2421H14.0391L16.376 85.3672H17.445L19.7918 92.2421H18.8428L18.1065 90.0765H15.6731ZM17.9274 89.3835L17.2481 87.4147C17.0946 86.9658 16.9922 86.5583 16.8918 86.1586H16.8701C16.7678 86.5681 16.6556 86.9835 16.5217 87.4029L15.8484 89.3913H17.9195L17.9274 89.3835Z" fill="#231F20"/>
<path d="M20.5877 91.3231C20.943 91.5444 21.3506 91.6674 21.769 91.6794C22.4226 91.6794 22.7258 91.3526 22.7258 90.9431C22.7258 90.5336 22.4699 90.2816 21.8084 90.0355C20.9224 89.7186 20.5031 89.2283 20.5031 88.6377C20.5119 88.428 20.564 88.2224 20.6561 88.0338C20.7481 87.8452 20.8782 87.6777 21.0382 87.5418C21.1981 87.4059 21.3844 87.3046 21.5854 87.2441C21.7864 87.1837 21.9977 87.1655 22.2061 87.1907C22.6299 87.1863 23.0476 87.2914 23.4188 87.4958L23.1944 88.1495C22.8909 87.9621 22.5411 87.8633 22.1844 87.864C21.6548 87.864 21.3595 88.1691 21.3595 88.5373C21.3595 88.9448 21.6548 89.1279 22.2986 89.374C23.155 89.7009 23.594 90.1281 23.594 90.8644C23.594 91.7326 22.9207 92.3429 21.7474 92.3429C21.2635 92.3514 20.7856 92.2355 20.3594 92.0062L20.5838 91.3231H20.5877Z" fill="#231F20"/>
<path d="M25.8255 85.8867V87.3062H27.1111V87.9894H25.8255V90.6531C25.8255 91.2654 25.9988 91.6099 26.4988 91.6099C26.674 91.6126 26.8488 91.5921 27.0186 91.5489L27.058 92.2222C26.8051 92.3105 26.5382 92.3519 26.2704 92.3443C26.0913 92.355 25.9119 92.3267 25.7447 92.2615C25.5775 92.1962 25.4264 92.0955 25.3018 91.9663C25.0285 91.5974 24.9041 91.1391 24.9533 90.6826V87.9894H24.1875V87.3062H24.9533V86.1249L25.8314 85.8907L25.8255 85.8867Z" fill="#231F20"/>
<path d="M28.5764 89.9398C28.5553 90.1684 28.5844 90.3988 28.6617 90.615C28.7391 90.8311 28.8627 91.0278 29.024 91.1911C29.1853 91.3545 29.3803 91.4806 29.5955 91.5607C29.8106 91.6407 30.0407 91.6728 30.2695 91.6546C30.7382 91.6699 31.2045 91.5825 31.6358 91.3986L31.7894 92.0424C31.2695 92.2581 30.7101 92.3621 30.1475 92.3476C29.8177 92.3684 29.4874 92.3178 29.1791 92.1992C28.8707 92.0805 28.5916 91.8966 28.3609 91.6601C28.1302 91.4236 27.9533 91.1401 27.8424 90.8289C27.7314 90.5177 27.689 90.1862 27.718 89.8571C27.6811 89.5276 27.713 89.1939 27.8117 88.8774C27.9104 88.5608 28.0737 88.2681 28.2913 88.018C28.5089 87.7678 28.7761 87.5655 29.076 87.4239C29.3758 87.2823 29.7018 87.2044 30.0333 87.1953C30.3246 87.2003 30.6116 87.2662 30.8759 87.3887C31.1403 87.5111 31.3762 87.6874 31.5684 87.9063C31.7606 88.1252 31.905 88.3819 31.9922 88.6599C32.0794 88.9378 32.1076 89.2309 32.0749 89.5204C32.0727 89.6607 32.0622 89.8008 32.0434 89.9398H28.5764ZM31.2086 89.296C31.2344 89.1165 31.2216 88.9335 31.1711 88.7592C31.1207 88.585 31.0337 88.4236 30.916 88.2856C30.7983 88.1476 30.6525 88.0362 30.4885 87.9589C30.3244 87.8816 30.1457 87.8401 29.9644 87.8372C29.5939 87.8642 29.247 88.0289 28.9919 88.2989C28.7369 88.5689 28.5921 88.9246 28.5862 89.296H31.2086Z" fill="#231F20"/>
<path d="M33.1797 85.0039H34.0774V92.247H33.1797V85.0039Z" fill="#231F20"/>
<path d="M35.5938 85.0039H36.4915V92.247H35.5938V85.0039Z" fill="#231F20"/>
<path d="M40.728 92.2493L40.6571 91.6272H40.6256C40.4508 91.861 40.2229 92.0496 39.9606 92.1777C39.6983 92.3057 39.4094 92.3694 39.1176 92.3636C38.9234 92.3777 38.7283 92.3514 38.5448 92.2863C38.3613 92.2212 38.1934 92.1186 38.0516 91.9852C37.9098 91.8517 37.7973 91.6903 37.7212 91.511C37.6451 91.3318 37.6071 91.1388 37.6095 90.9441C37.6095 89.749 38.6707 89.0973 40.5764 89.1092V89.0068C40.5962 88.8537 40.5809 88.6981 40.5317 88.5518C40.4825 88.4055 40.4006 88.2722 40.2923 88.1622C40.184 88.0522 40.0521 87.9683 39.9065 87.9168C39.761 87.8653 39.6057 87.8475 39.4523 87.8649C38.9982 87.8662 38.5533 87.993 38.1667 88.2311L37.9698 87.6405C38.4594 87.3468 39.0212 87.1955 39.592 87.2034C41.1001 87.2034 41.4702 88.2351 41.4702 89.2234V91.07C41.4639 91.4654 41.4916 91.8607 41.5529 92.2513H40.7379L40.728 92.2493ZM40.5961 89.7313C39.6117 89.7096 38.5053 89.8849 38.5053 90.8437C38.4949 90.9579 38.5096 91.073 38.5483 91.181C38.587 91.2889 38.6488 91.3871 38.7295 91.4686C38.8101 91.5502 38.9076 91.6132 39.0151 91.6531C39.1226 91.6931 39.2375 91.7091 39.3518 91.7001C39.6127 91.7068 39.869 91.6306 40.0837 91.4823C40.2985 91.3341 40.4607 91.1215 40.5469 90.8751C40.5787 90.7832 40.5959 90.6869 40.5981 90.5897V89.7333L40.5961 89.7313Z" fill="#231F20"/>
<path d="M42.7987 91.3231C43.1539 91.5444 43.5616 91.6674 43.98 91.6794C44.6336 91.6794 44.9368 91.3526 44.9368 90.9431C44.9368 90.5336 44.6808 90.2816 44.0193 90.0355C43.1334 89.7186 42.7141 89.2283 42.7141 88.6377C42.7229 88.428 42.7749 88.2224 42.867 88.0338C42.9591 87.8452 43.0892 87.6777 43.2491 87.5418C43.4091 87.4059 43.5954 87.3046 43.7964 87.2441C43.9974 87.1837 44.2087 87.1655 44.417 87.1907C44.8408 87.1863 45.2585 87.2914 45.6298 87.4958L45.4053 88.1495C45.1018 87.9621 44.752 87.8633 44.3954 87.864C43.8658 87.864 43.5705 88.1691 43.5705 88.5373C43.5705 88.9448 43.8658 89.1279 44.5095 89.374C45.366 89.7009 45.805 90.1281 45.805 90.8644C45.805 91.7326 45.1317 92.3429 43.9583 92.3429C43.4744 92.3514 42.9965 92.2355 42.5703 92.0062L42.7948 91.3231H42.7987Z" fill="#231F20"/>
<path d="M53.9494 92.0245C53.3741 92.2602 52.7555 92.3716 52.1342 92.3512C51.6738 92.3792 51.2127 92.3077 50.7824 92.1416C50.3521 91.9754 49.9627 91.7187 49.6405 91.3886C49.3183 91.0586 49.0709 90.663 48.9152 90.2288C48.7595 89.7947 48.6991 89.332 48.7381 88.8724C48.7022 88.391 48.7703 87.9074 48.9377 87.4546C49.1051 87.0017 49.3679 86.5901 49.7082 86.2477C50.0486 85.9053 50.4586 85.64 50.9104 85.4699C51.3623 85.2998 51.8454 85.2288 52.3271 85.2618C52.8872 85.2391 53.4451 85.3434 53.9592 85.5669L53.7446 86.2914C53.3118 86.0962 52.8412 85.9987 52.3665 86.0059C51.9958 85.986 51.6251 86.047 51.2803 86.1846C50.9355 86.3222 50.6248 86.5332 50.3697 86.8029C50.1146 87.0726 49.9212 87.3946 49.803 87.7466C49.6848 88.0985 49.6445 88.4719 49.685 88.841C49.6468 89.2025 49.6879 89.568 49.8055 89.912C49.9231 90.256 50.1144 90.5702 50.366 90.8327C50.6175 91.0951 50.9234 91.2995 51.2621 91.4316C51.6008 91.5636 51.9643 91.6201 52.3271 91.5972C52.8248 91.6053 53.3186 91.508 53.7761 91.3118L53.9612 92.0166L53.9494 92.0245Z" fill="#231F20"/>
<path d="M59.3854 89.7354C59.4148 90.0733 59.3727 90.4136 59.2617 90.7342C59.1508 91.0547 58.9735 91.3483 58.7415 91.5957C58.5095 91.8431 58.228 92.0389 57.9152 92.1702C57.6025 92.3015 57.2656 92.3654 56.9265 92.3578C56.6 92.3611 56.2765 92.2963 55.9765 92.1674C55.6766 92.0386 55.4068 91.8485 55.1845 91.6095C54.9621 91.3705 54.7921 91.0877 54.6852 90.7792C54.5784 90.4708 54.5371 90.1435 54.5639 89.8181C54.5343 89.4811 54.5759 89.1417 54.6861 88.8218C54.7962 88.502 54.9724 88.2089 55.2032 87.9616C55.4339 87.7143 55.7142 87.5183 56.0257 87.3863C56.3372 87.2544 56.6729 87.1895 57.0111 87.1957C57.338 87.1929 57.6619 87.2579 57.9624 87.3867C58.2628 87.5155 58.5333 87.7053 58.7567 87.944C58.98 88.1827 59.1514 88.4652 59.26 88.7735C59.3685 89.0819 59.4119 89.4094 59.3874 89.7354H59.3854ZM55.4696 89.7866C55.4696 90.8674 56.0917 91.6825 56.9698 91.6825C57.8478 91.6825 58.47 90.8753 58.47 89.7649C58.47 88.9282 58.0506 87.869 56.9914 87.869C55.9322 87.869 55.4696 88.8534 55.4696 89.7866Z" fill="#231F20"/>
<path d="M60.5238 88.6457C60.5238 88.1358 60.5238 87.7184 60.4844 87.3089H61.2719L61.3113 88.0964H61.3428C61.4914 87.8158 61.7152 87.5822 61.9893 87.4219C62.2634 87.2616 62.5767 87.1809 62.8941 87.1888C63.201 87.1853 63.5012 87.2785 63.7521 87.4552C64.003 87.6319 64.1919 87.8831 64.2919 88.1732H64.3136C64.4505 87.9225 64.6382 87.7032 64.8649 87.5294C65.1771 87.289 65.5637 87.1656 65.9575 87.181C66.6112 87.181 67.5798 87.6081 67.5798 89.3229V92.2289H66.7017V89.4332C66.7017 88.4842 66.3533 87.9133 65.6307 87.9133C65.3916 87.9237 65.1614 88.0076 64.9715 88.1534C64.7817 88.2992 64.6413 88.5 64.5696 88.7284C64.5233 88.8735 64.4994 89.0249 64.4987 89.1772V92.2269H63.6206V89.2737C63.6206 88.4862 63.2721 87.9173 62.589 87.9173C62.2617 87.9556 61.9601 88.1135 61.7421 88.3605C61.5241 88.6076 61.405 88.9265 61.4077 89.256V92.2347H60.5296V88.6339L60.5238 88.6457Z" fill="#231F20"/>
<path d="M69.0237 88.9196C69.0237 88.2877 69.0021 87.7778 68.9844 87.3072H69.7916L69.8309 88.1538H69.8526C70.0307 87.8503 70.2881 87.6009 70.5971 87.4324C70.9061 87.2638 71.2551 87.1824 71.6068 87.197C71.9114 87.2147 72.2092 87.2946 72.4819 87.4317C72.7545 87.5688 72.9962 87.7603 73.192 87.9944C73.3879 88.2284 73.5338 88.5 73.6207 88.7926C73.7077 89.0851 73.7338 89.3923 73.6976 89.6953C73.7422 90.0201 73.718 90.3506 73.6265 90.6654C73.5351 90.9801 73.3785 91.2722 73.1668 91.5224C72.9551 91.7727 72.6931 91.9757 72.3979 92.1182C72.1027 92.2606 71.7808 92.3393 71.4532 92.3492C71.1545 92.3621 70.8575 92.2974 70.5911 92.1615C70.3248 92.0255 70.0982 91.823 69.9333 91.5736H69.9097V94.255H69.0237V88.9196ZM69.9097 90.2348C69.9123 90.3577 69.9254 90.4803 69.949 90.601C70.0229 90.9014 70.1956 91.1683 70.4396 91.3587C70.6835 91.549 70.9843 91.6518 71.2937 91.6504C72.2427 91.6504 72.7939 90.8746 72.7939 89.7426C72.7939 88.7582 72.2742 87.9077 71.3252 87.9077C71.0079 87.9167 70.7024 88.0308 70.4569 88.2321C70.2114 88.4334 70.0397 88.7106 69.9688 89.0201C69.9328 89.139 69.9122 89.2621 69.9077 89.3862V90.2328L69.9097 90.2348Z" fill="#231F20"/>
<path d="M77.5639 92.2493L77.4931 91.6272H77.4615C77.2865 91.8607 77.0585 92.0492 76.7963 92.1772C76.5341 92.3053 76.2452 92.3691 75.9535 92.3636C75.7593 92.3777 75.5643 92.3514 75.3808 92.2863C75.1973 92.2212 75.0293 92.1186 74.8875 91.9852C74.7457 91.8517 74.6332 91.6903 74.5571 91.511C74.481 91.3318 74.443 91.1388 74.4454 90.9441C74.4454 89.749 75.5066 89.0973 77.4123 89.1092V89.0068C77.4321 88.8537 77.4168 88.6981 77.3676 88.5518C77.3184 88.4055 77.2365 88.2722 77.1282 88.1622C77.0199 88.0522 76.888 87.9683 76.7425 87.9168C76.5969 87.8653 76.4416 87.8475 76.2882 87.8649C75.8341 87.8662 75.3892 87.993 75.0026 88.2311L74.8057 87.6405C75.2953 87.3468 75.8571 87.1955 76.4279 87.2034C77.936 87.2034 78.3062 88.2351 78.3062 89.2234V91.07C78.3005 91.4654 78.3274 91.8605 78.3869 92.2513H77.5639V92.2493ZM77.432 89.7313C76.4476 89.7096 75.3412 89.8849 75.3412 90.8437C75.3308 90.9579 75.3455 91.073 75.3842 91.181C75.4229 91.2889 75.4848 91.3871 75.5654 91.4686C75.646 91.5502 75.7435 91.6132 75.851 91.6531C75.9585 91.6931 76.0734 91.7091 76.1877 91.7001C76.4486 91.7068 76.7049 91.6306 76.9197 91.4823C77.1344 91.3341 77.2966 91.1215 77.3828 90.8751C77.414 90.7831 77.4306 90.6868 77.432 90.5897V89.7313Z" fill="#231F20"/>
<path d="M79.7504 88.6469C79.7504 88.1369 79.7503 87.7195 79.7109 87.31H80.4985L80.5497 88.1251H80.5713C80.7331 87.8364 80.9706 87.5973 81.2582 87.4336C81.5458 87.2698 81.8726 87.1877 82.2034 87.1959C82.8866 87.1959 83.9477 87.6054 83.9477 89.2985V92.2516H83.05V89.4048C83.05 88.6173 82.7547 87.9459 81.9081 87.9459C81.6361 87.9508 81.3726 88.0425 81.1563 88.2075C80.9399 88.3726 80.7819 88.6023 80.7052 88.8634C80.6621 88.9989 80.6414 89.1406 80.6441 89.2828V92.2575H79.7504V88.6567V88.6469Z" fill="#231F20"/>
<path d="M85.6015 87.3086L86.6823 90.2263C86.7926 90.5531 86.9166 90.941 86.9993 91.2363H87.021C87.1135 90.941 87.2178 90.563 87.3379 90.2047L88.3223 87.3086H89.2712L87.9187 90.8327C87.6074 91.9827 87.027 93.0421 86.2256 93.9237C85.9159 94.2133 85.5358 94.4169 85.1231 94.5143L84.8987 93.7602C85.1865 93.6657 85.4537 93.5174 85.6862 93.3232C86.0122 93.0534 86.2705 92.7108 86.4402 92.323C86.476 92.2561 86.5 92.1836 86.5111 92.1085C86.5029 92.0277 86.4823 91.9486 86.45 91.8742L84.625 87.3243L85.6015 87.3086Z" fill="#231F20"/>
<path d="M0 1.33307C0.0078442 1.1053 0.101836 0.888988 0.26299 0.727834C0.424145 0.566679 0.640452 0.472688 0.868224 0.464844H3.88043C4.1082 0.472688 4.32451 0.566679 4.48566 0.727834C4.64682 0.888988 4.74081 1.1053 4.74865 1.33307V31.5634C4.74081 31.7912 4.64682 32.0075 4.48566 32.1686C4.32451 32.3298 4.1082 32.4238 3.88043 32.4316H0.868224C0.640452 32.4238 0.424145 32.3298 0.26299 32.1686C0.101836 32.0075 0.0078442 31.7912 0 31.5634V1.33307Z" fill="#231F20"/>
<path d="M11.1805 1.64873C11.1126 1.52117 11.0802 1.37765 11.0868 1.23326C11.0934 1.08886 11.1387 0.948906 11.2181 0.828081C11.2974 0.707255 11.4078 0.610015 11.5377 0.546566C11.6676 0.483116 11.8121 0.455798 11.9562 0.467477H15.1988C15.3614 0.472987 15.5195 0.522611 15.6562 0.61104C15.7928 0.69947 15.9028 0.823378 15.9745 0.969511L26.0152 23.5748H26.2888L36.3295 0.973449C36.3958 0.82331 36.5046 0.695817 36.6424 0.606631C36.7802 0.517445 36.941 0.470448 37.1052 0.471414H40.3596C40.5036 0.459735 40.6482 0.487054 40.7781 0.550503C40.9079 0.613952 41.0183 0.711192 41.0977 0.832018C41.177 0.952844 41.2224 1.0928 41.229 1.2372C41.2356 1.38159 41.2032 1.5251 41.1352 1.65267L27.1177 32.3851C27.0482 32.5328 26.9387 32.6582 26.8016 32.7469C26.6645 32.8357 26.5053 32.8842 26.342 32.8871H25.8852C25.7233 32.8785 25.5665 32.8277 25.4304 32.7396C25.2943 32.6515 25.1836 32.5292 25.1095 32.3851L11.1805 1.64873Z" fill="#231F20"/>
<path d="M47.5938 1.33307C47.5938 1.1028 47.6852 0.881965 47.848 0.719141C48.0109 0.556317 48.2317 0.464844 48.462 0.464844H66.7282C66.9584 0.464844 67.1793 0.556317 67.3421 0.719141C67.5049 0.881965 67.5964 1.1028 67.5964 1.33307V3.89246C67.5966 4.00655 67.5744 4.11957 67.5308 4.22502C67.4873 4.33048 67.4233 4.42629 67.3427 4.50697C67.262 4.58764 67.1662 4.65158 67.0607 4.69512C66.9553 4.73866 66.8423 4.76094 66.7282 4.76068H52.2991V14.0769H64.4917C64.7194 14.0847 64.9357 14.1787 65.0969 14.3399C65.258 14.501 65.352 14.7173 65.3599 14.9451V17.5045C65.3599 17.7347 65.2684 17.9556 65.1056 18.1184C64.9427 18.2812 64.7219 18.3727 64.4917 18.3727H52.2991V28.1909H66.7282C66.9584 28.1909 67.1793 28.2824 67.3421 28.4452C67.5049 28.608 67.5964 28.8289 67.5964 29.0591V31.5713C67.5966 31.6854 67.5744 31.7984 67.5308 31.9039C67.4873 32.0093 67.4233 32.1051 67.3427 32.1858C67.262 32.2665 67.1662 32.3304 67.0607 32.3739C66.9553 32.4175 66.8423 32.4398 66.7282 32.4395H48.462C48.2317 32.4395 48.0109 32.348 47.848 32.1852C47.6852 32.0224 47.5938 31.8016 47.5938 31.5713V1.33307Z" fill="#231F20"/>
<path d="M76.3203 1.33358C76.3203 1.10332 76.4118 0.88248 76.5746 0.719656C76.7375 0.556832 76.9583 0.465359 77.1886 0.465359H89.6114C90.9072 0.452112 92.1928 0.694522 93.3948 1.17871C94.5968 1.66291 95.6915 2.37937 96.6162 3.28712C97.541 4.19486 98.2776 5.27605 98.784 6.46882C99.2904 7.66159 99.5567 8.94252 99.5675 10.2383C99.5089 12.2851 98.8317 14.2662 97.6253 15.9208C96.4188 17.5753 94.7396 18.8256 92.8087 19.5072L99.0654 31.1072C99.1501 31.2411 99.1964 31.3958 99.1991 31.5543C99.2018 31.7128 99.1608 31.8689 99.0808 32.0057C99.0007 32.1425 98.8845 32.2546 98.745 32.3298C98.6055 32.405 98.448 32.4404 98.2897 32.4322H94.7283C94.581 32.4341 94.436 32.397 94.3077 32.3248C94.1794 32.2525 94.0725 32.1476 93.9978 32.0207L87.9164 19.9207H81.0257V31.5639C81.0178 31.7917 80.9239 32.008 80.7627 32.1692C80.6016 32.3303 80.3852 32.4243 80.1574 32.4322H77.1905C76.9603 32.4322 76.7394 32.3407 76.5766 32.1779C76.4138 32.015 76.3223 31.7942 76.3223 31.5639V1.33358H76.3203ZM89.2433 15.993C90.7284 15.9667 92.144 15.3589 93.1858 14.3001C94.2276 13.2414 94.8125 11.8162 94.8149 10.3308C94.773 8.87912 94.1683 7.50058 93.1286 6.48658C92.0889 5.47257 90.6956 4.90257 89.2433 4.89704H81.1162V15.995L89.2433 15.993Z" fill="#231F20"/>
<path d="M108.516 1.33307C108.523 1.1053 108.617 0.888988 108.779 0.727834C108.94 0.566679 109.156 0.472688 109.384 0.464844H112.396C112.624 0.472688 112.84 0.566679 113.001 0.727834C113.162 0.888988 113.256 1.1053 113.264 1.33307V31.5634C113.256 31.7912 113.162 32.0075 113.001 32.1686C112.84 32.3298 112.624 32.4238 112.396 32.4316H109.384C109.156 32.4238 108.94 32.3298 108.779 32.1686C108.617 32.0075 108.523 31.7912 108.516 31.5634V1.33307Z" fill="#231F20"/>
<path d="M138.109 0.00194555C142.203 -0.062148 146.164 1.45951 149.162 4.24857C149.256 4.32497 149.332 4.42064 149.387 4.52914C149.441 4.63765 149.471 4.75649 149.476 4.87769C149.48 4.99889 149.459 5.11964 149.413 5.23185C149.367 5.34405 149.297 5.44512 149.209 5.52826L147.199 7.58365C146.878 7.99512 146.468 7.99512 146.057 7.58365C143.866 5.67036 141.072 4.58932 138.164 4.5301C136.631 4.55417 135.118 4.88072 133.711 5.49102C132.304 6.10132 131.032 6.98336 129.967 8.08653C128.902 9.18969 128.066 10.4923 127.505 11.9195C126.945 13.3468 126.672 14.8707 126.702 16.4037C126.678 17.9366 126.957 19.4592 127.523 20.884C128.089 22.3089 128.93 23.608 130 24.7067C131.069 25.8055 132.344 26.6824 133.753 27.287C135.162 27.8916 136.676 28.2121 138.209 28.2301C141.102 28.1863 143.885 27.1183 146.065 25.2159C146.212 25.0778 146.403 24.9973 146.605 24.989C146.806 24.9806 147.004 25.0451 147.161 25.1706L149.262 27.226C149.34 27.3098 149.402 27.4083 149.442 27.5159C149.482 27.6234 149.501 27.7379 149.496 27.8526C149.492 27.9674 149.465 28.0802 149.417 28.1845C149.369 28.2888 149.301 28.3826 149.217 28.4604C146.247 31.344 142.258 32.9363 138.119 32.8901C133.759 32.8901 129.577 31.1581 126.495 28.0752C123.412 24.9923 121.68 20.8109 121.68 16.451C121.68 12.091 123.412 7.90965 126.495 4.82671C129.577 1.74377 133.759 0.0117894 138.119 0.0117894L138.109 0.00194555Z" fill="#231F20"/>
<path d="M5.50871e-05 43.6672C5.50871e-05 43.5513 0.0228688 43.4366 0.0671938 43.3296C0.111519 43.2226 0.176487 43.1254 0.258389 43.0435C0.34029 42.9616 0.437522 42.8966 0.544532 42.8523C0.651541 42.808 0.766234 42.7852 0.882061 42.7852H11.0507C16.7168 42.7852 20.5716 46.4549 20.5716 51.3296C20.5255 52.8572 20.0814 54.3463 19.2835 55.6497C18.4856 56.9531 17.3613 58.0258 16.0218 58.7616C17.6139 59.3014 19.0019 60.3167 19.9986 61.6704C20.9953 63.0241 21.5527 64.651 21.5954 66.3315C21.5954 71.531 17.461 75.2933 11.472 75.2933H0.882061C0.765494 75.2936 0.650035 75.2707 0.54239 75.226C0.434744 75.1813 0.337055 75.1156 0.254997 75.0328C0.172939 74.95 0.108146 74.8518 0.0643813 74.7437C0.0206162 74.6357 -0.0012491 74.52 5.50871e-05 74.4035V43.6672ZM11.8422 72.1807C12.62 72.1983 13.3933 72.057 14.1148 71.7657C14.8362 71.4744 15.4907 71.0391 16.0383 70.4863C16.5859 69.9336 17.0151 69.275 17.2996 68.5508C17.5842 67.8267 17.7181 67.0521 17.6933 66.2745C17.64 65.4607 17.4249 64.6658 17.0606 63.9362C16.6964 63.2066 16.1903 62.557 15.5719 62.0253C14.9535 61.4937 14.2354 61.0907 13.4594 60.84C12.6834 60.5892 11.8652 60.4957 11.0527 60.565H3.38829V72.1807H11.8422ZM11.0547 57.3658C11.8141 57.3961 12.5713 57.2649 13.2764 56.981C13.9814 56.6971 14.6182 56.2669 15.1448 55.7188C15.6713 55.1706 16.0756 54.5171 16.331 53.8012C16.5864 53.0854 16.687 52.3234 16.6262 51.5658C16.6832 50.8194 16.5781 50.0694 16.3181 49.3674C16.0582 48.6653 15.6495 48.0278 15.1201 47.4984C14.5908 46.969 13.9532 46.5604 13.2512 46.3004C12.5491 46.0404 11.7992 45.9353 11.0527 45.9923H3.4828V57.3717H11.0527L11.0547 57.3658Z" fill="#231F20"/>
<path d="M30.8906 43.6672C30.8985 43.4357 30.9939 43.2159 31.1577 43.0522C31.3214 42.8885 31.5412 42.793 31.7726 42.7852H33.6292C33.8607 42.7925 34.0808 42.8878 34.2446 43.0517C34.4085 43.2155 34.5038 43.4356 34.5112 43.6672V74.4035C34.5038 74.635 34.4085 74.8551 34.2446 75.019C34.0808 75.1828 33.8607 75.2781 33.6292 75.2855H31.7726C31.541 75.2781 31.321 75.1828 31.1571 75.019C30.9933 74.8551 30.898 74.635 30.8906 74.4035V43.6672Z" fill="#231F20"/>
<path d="M59.1825 45.864H59.3085C61.4912 45.881 63.6479 46.34 65.6483 47.2133C67.6487 48.0867 69.4515 49.3562 70.9479 50.9454C73.9552 54.1064 75.6448 58.2946 75.6729 62.6576C75.9337 61.3096 76 59.9313 75.8698 58.5645C75.7937 56.3331 75.2725 54.1394 74.3368 52.1123C73.4011 50.0852 72.0696 48.2655 70.4207 46.7602C68.7718 45.2549 66.8387 44.0943 64.735 43.3465C62.6312 42.5988 60.3993 42.279 58.1702 42.406C55.9411 42.533 53.7599 43.1042 51.7547 44.0861C49.7495 45.0679 47.9608 46.4406 46.4935 48.1234C45.0263 49.8063 43.9101 51.7654 43.2107 53.8857C42.5112 56.006 42.2426 58.2447 42.4205 60.4703C42.4654 61.1817 42.5529 61.8897 42.6823 62.5906C42.6537 60.4048 43.0592 58.235 43.8753 56.2071C44.6915 54.1791 45.902 52.3334 47.4369 50.7768C48.9717 49.2202 50.8002 47.9837 52.8164 47.139C54.8327 46.2944 56.9965 45.8583 59.1825 45.8561V45.864Z" fill="#231F20"/>
<path d="M74.6013 61.4402V61.389C74.479 62.1043 74.2932 62.8073 74.0461 63.4896C73.9752 63.6865 73.8925 63.8834 73.8118 64.0625C73.7567 64.1905 73.7094 64.3205 73.6543 64.4563C72.7459 66.3997 71.3849 68.0969 69.6853 69.4058L69.5947 69.4786C69.4254 69.6086 69.2423 69.7267 69.0651 69.8468C68.8879 69.9669 68.7639 70.0574 68.6083 70.1539C68.5512 70.1894 68.4922 70.2208 68.4351 70.2523C66.5043 71.4123 64.3128 72.0684 62.0622 72.1601C61.6055 72.1798 61.1566 72.1739 60.7097 72.1601H60.6644C60.249 72.1365 59.8395 72.0912 59.432 72.0301C59.1484 71.9868 58.8709 71.9258 58.5933 71.8647C58.4555 71.8332 58.3137 71.8136 58.1798 71.7801C55.3449 71.0791 52.8196 69.4642 50.9938 67.185C50.9564 67.1378 50.9131 67.0945 50.8757 67.0472C50.7733 66.9173 50.6788 66.7755 50.5942 66.6436C49.211 64.7129 48.4202 62.4211 48.3183 60.0482C48.2984 59.4568 48.3208 58.8646 48.3852 58.2764C48.6206 56.3264 49.2964 54.4555 50.3616 52.8053C51.4269 51.1551 52.8536 49.7688 54.5337 48.7515C55.7335 48.0363 57.0373 47.5122 58.3984 47.1981C58.5559 47.1627 58.7114 47.1174 58.8689 47.0898C57.8648 47.1369 56.8667 47.2719 55.8862 47.4934C55.7917 47.5151 55.6893 47.5289 55.5968 47.5525C55.1637 47.6568 54.7463 47.7848 54.3289 47.9207L54.1183 47.9896C53.6969 48.1366 53.2855 48.3 52.8838 48.4798L52.687 48.5743C52.4271 48.6944 52.1593 48.8007 51.8995 48.9365C51.8739 48.9602 51.8502 48.9878 51.8247 49.0114C49.3883 50.283 47.3592 52.215 45.9696 54.586C44.58 56.9571 43.8861 59.6716 43.9673 62.4186C44.2706 66.2587 46.006 69.8446 48.8293 72.4651C51.6527 75.0856 55.3578 76.5493 59.2098 76.5659C63.0618 76.5825 66.7794 75.1508 69.6253 72.5547C72.4711 69.9587 74.2373 66.3879 74.5737 62.5506C74.6022 62.1812 74.6114 61.8105 74.6013 61.4402Z" fill="#231F20"/>
</g>
</svg>
