<?xml version="1.0" standalone="no"?>
<!DOCTYPE svg PUBLIC "-//W3C//DTD SVG 20010904//EN"
 "http://www.w3.org/TR/2001/REC-SVG-20010904/DTD/svg10.dtd">
<svg version="1.0" xmlns="http://www.w3.org/2000/svg"
 width="260.000000pt" height="260.000000pt" viewBox="0 0 260.000000 260.000000"
 preserveAspectRatio="xMidYMid meet">
<metadata>
Created by potrace 1.14, written by Peter Selinger 2001-2017
</metadata>
<g transform="translate(0.000000,260.000000) scale(0.100000,-0.100000)"
fill="#000000" stroke="none">
<path d="M1095 2584 c-261 -46 -491 -163 -673 -342 -109 -107 -148 -156 -218
-274 -119 -201 -177 -412 -178 -643 -1 -147 4 -238 13 -230 3 3 6 20 7 38 22
285 122 547 283 737 223 265 510 414 876 456 44 5 217 5 240 0 11 -2 41 -7 67
-10 119 -16 313 -90 453 -173 84 -50 216 -166 298 -261 38 -44 118 -165 154
-232 79 -146 149 -402 146 -533 -1 -19 3 -25 9 -19 12 12 15 218 4 322 -37
367 -222 695 -521 925 -123 95 -344 199 -467 220 -18 4 -53 11 -78 17 -72 17
-324 18 -415 2z"/>
<path d="M1123 2225 c-336 -62 -621 -243 -796 -506 -85 -128 -152 -293 -174
-426 -14 -87 -8 -322 10 -401 106 -449 450 -775 918 -871 68 -14 124 -18 236
-15 161 3 176 4 275 28 228 54 415 159 582 329 168 171 279 402 301 627 4 36
8 78 10 93 4 42 -4 27 -36 -68 -49 -145 -116 -256 -221 -366 -336 -353 -866
-423 -1285 -170 -205 124 -347 301 -422 526 -35 107 -45 170 -44 290 0 198 51
358 169 531 49 73 166 195 224 234 19 13 37 27 40 30 16 19 158 87 245 116
105 35 94 42 -32 19z"/>
<path d="M1202 2028 c-17 -17 -17 -1439 0 -1456 7 -7 44 -12 98 -12 54 0 91 5
98 12 17 17 17 1439 0 1456 -7 7 -44 12 -98 12 -54 0 -91 -5 -98 -12z"/>
</g>
</svg>
