<svg width="54" height="54" viewBox="0 0 54 54" fill="none" xmlns="http://www.w3.org/2000/svg">
<path d="M20.9663 33.2021V30.9852C20.9663 29.1473 21.1965 27.6438 21.661 26.4713C22.1239 25.2997 22.8238 24.3294 23.7622 23.5578C24.6989 22.788 25.8935 22.0863 27.3469 21.4529C28.5886 20.8616 29.5211 20.3167 30.1428 19.8223C30.7628 19.3261 31.1736 18.8393 31.3753 18.3651C31.5752 17.89 31.6744 17.388 31.6744 16.8591C31.6744 15.8677 31.2795 15.049 30.4906 14.4063C29.7001 13.7619 28.6222 13.4393 27.2537 13.4393C25.4416 13.4393 24.036 13.9144 23.0355 14.8654C22.0357 15.8146 21.5451 16.9862 21.5661 18.3794H11.1428C11.3117 14.0728 12.7323 10.648 15.4081 8.10341C18.0822 5.55884 21.8618 4.28613 26.7471 4.28613C30.0529 4.28613 32.9068 4.82941 35.3078 5.91681C37.7072 7.0059 39.5664 8.49339 40.8828 10.3835C42.1976 12.2736 42.8571 14.4316 42.8571 16.8591C42.8571 19.097 42.3035 21.0032 41.1979 22.5757C40.0923 24.15 38.4137 25.4538 36.1597 26.4873C34.8542 27.0997 33.8334 27.6809 33.0958 28.2292C32.359 28.7792 31.8474 29.3537 31.5635 29.9542C31.2795 30.5565 31.1384 31.269 31.1384 32.0928V33.2013H20.9671L20.9663 33.2021Z" stroke="white" stroke-width="2.75" stroke-linecap="round" stroke-linejoin="round"/>
<path d="M27.0012 49.0593C30.0921 49.0593 32.5978 46.7624 32.5978 43.9291C32.5978 41.0957 30.0921 38.7988 27.0012 38.7988C23.9102 38.7988 21.4045 41.0957 21.4045 43.9291C21.4045 46.7624 23.9102 49.0593 27.0012 49.0593Z" fill="white" stroke="white" stroke-width="2.75" stroke-linecap="round" stroke-linejoin="round"/>
<path d="M47.7669 14.3178L51.3667 15.3128" stroke="#66CCFF" stroke-width="2.75" stroke-miterlimit="22.93" stroke-linecap="round"/>
<path d="M46.9856 8.62293L50.1941 6.77051" stroke="#66CCFF" stroke-width="2.75" stroke-miterlimit="22.93" stroke-linecap="round"/>
<path d="M42.4475 5.09747L43.3857 1.48242" stroke="#66CCFF" stroke-width="2.75" stroke-miterlimit="22.93" stroke-linecap="round"/>
</svg>
