<svg width="112" height="112" viewBox="0 0 112 112" fill="none" xmlns="http://www.w3.org/2000/svg">
<path d="M56.7433 9.86614H55.0938C38.0189 9.86614 26.3505 18.6225 23.5913 34.0174C23.0415 36.8989 25.2407 39.4443 28.2138 39.4443H40.88C42.8655 39.4443 44.7389 38.1105 45.2887 36.2269C46.6124 31.6858 51.0211 29.0283 56.4175 29.0283H56.7433C59.6044 29.0283 61.9156 29.6901 63.5753 31.024C66.1105 33.0196 66.6604 36.4509 65.4487 39.3323C63.7993 42.4378 60.928 43.8734 56.9673 45.869C46.1745 50.5221 43.8633 55.949 43.5273 65.8152C43.4153 68.4727 45.6247 70.5803 48.1498 70.5803H60.3782C62.6895 70.5803 64.6749 68.8087 65.0007 66.477C65.3265 64.0436 66.3244 61.936 68.9615 60.0523C70.4989 58.9425 72.5964 57.7207 75.3455 56.397C84.3767 52.1818 89.3353 46.093 89.3353 36.1149C89.3353 18.9381 73.0342 9.85596 56.7331 9.85596L56.7433 9.86614ZM73.9302 53.5258C70.9571 54.8596 68.7578 56.1832 66.9862 57.517C63.9011 59.7367 62.1396 62.5061 61.7018 66.1614C61.5898 66.8232 61.04 67.3832 60.3782 67.3832H48.1498C47.712 67.3832 47.376 67.1592 47.1622 66.9352C47.0502 66.8232 46.7244 66.4872 46.8364 65.9374C47.0604 57.405 48.7098 53.088 58.1789 48.9847C58.2909 48.9847 58.2909 48.8727 58.4029 48.8727L58.9527 48.6487C62.8116 46.653 66.2225 44.9934 68.32 41.0021C68.32 40.8901 68.432 40.8901 68.432 40.7781C70.3055 36.349 69.0938 31.36 65.5709 28.5905C63.3716 26.8189 60.3985 25.821 56.7636 25.821H56.3258C49.3818 25.821 43.8836 29.5883 42.112 35.3512C42 35.901 41.4502 36.237 40.9004 36.237H28.2342C27.6844 36.237 27.3484 35.901 27.2465 35.789C27.1345 35.565 26.9207 35.2392 26.9207 34.6792C29.344 21.0458 39.5869 13.2974 55.1142 13.2974H56.8756C66.2429 13.2974 74.9382 16.5149 80.2225 21.9418C84.0815 25.933 86.0567 30.8101 86.0567 36.461C86.0567 44.2196 82.3098 49.5345 73.9404 53.5258H73.9302Z" fill="white"/>
<path d="M54.208 101.503C50.5731 101.503 47.6 100.393 45.4008 98.1833C43.2015 95.9636 41.9899 93.0822 41.9899 89.8749C41.9899 86.4436 43.0895 83.6742 45.4008 81.4545C47.6 79.2349 50.5731 78.1353 54.208 78.1353C57.843 78.1353 60.816 79.2451 63.1273 81.4545C65.4386 83.6742 66.6502 86.5556 66.6502 89.9869C66.6502 93.4182 65.4386 96.0858 63.1273 98.2953C60.704 100.403 57.731 101.513 54.208 101.513V101.503ZM54.208 81.3323C51.459 81.3323 49.2495 82.1062 47.712 83.7658C46.0626 85.3134 45.2888 87.3091 45.2888 89.8647C45.2888 92.4203 46.0626 94.1818 47.712 95.8516C49.3615 97.5214 51.459 98.2851 54.208 98.2851C56.9571 98.2851 59.1666 97.5113 60.816 95.8516C62.4655 94.192 63.3513 92.3083 63.3513 89.8647C63.3513 87.4211 62.5775 85.4356 60.816 83.7658C59.0546 82.1062 56.9571 81.3323 54.208 81.3323Z" fill="white"/>
<path d="M98.4989 62.3126L90.6589 54.4318C90.1498 53.9227 90.1498 53.0267 90.6589 52.5075C91.168 51.9882 92.064 51.9984 92.5731 52.5075L100.413 60.3882C100.922 60.8973 100.922 61.7933 100.413 62.3126C99.904 62.8318 99.0793 62.8929 98.4989 62.3126Z" fill="#66CCFF"/>
<path d="M97.1549 38.6705C96.9004 38.4159 96.7069 38.0901 96.7069 37.7134C96.7069 36.9396 97.2771 36.3694 98.0407 36.3694H109.129C109.892 36.3694 110.463 36.9497 110.463 37.7134C110.463 38.477 109.892 39.0574 109.129 39.0574H98.0407C97.7251 39.1185 97.3993 38.925 97.1447 38.6705H97.1549Z" fill="#66CCFF"/>
<path d="M90.6589 20.2617C90.1498 19.7526 90.1498 18.8566 90.6589 18.3373L99.8022 11.7803C100.311 11.2712 101.207 11.2712 101.716 11.7803C102.225 12.2893 102.225 13.1853 101.716 13.7046L92.5731 20.2617C92.064 20.7708 91.168 20.7708 90.6589 20.2617Z" fill="#66CCFF"/>
<path d="M13.5011 62.3126L21.3411 54.4318C21.8502 53.9227 21.8502 53.0267 21.3411 52.5075C20.832 51.9882 19.936 51.9984 19.4269 52.5075L11.5869 60.3882C11.0778 60.8973 11.0778 61.7933 11.5869 62.3126C12.096 62.8318 12.9207 62.8929 13.5011 62.3126Z" fill="#66CCFF"/>
<path d="M14.845 38.6705C15.0996 38.4159 15.293 38.0901 15.293 37.7134C15.293 36.9396 14.7229 36.3694 13.9592 36.3694H2.86104C2.0974 36.3694 1.52722 36.9497 1.52722 37.7134C1.52722 38.477 2.0974 39.0574 2.86104 39.0574H13.949C14.2647 39.1185 14.5905 38.925 14.845 38.6705Z" fill="#66CCFF"/>
<path d="M21.341 20.2617C21.8501 19.7526 21.8501 18.8566 21.341 18.3373L12.1977 11.7803C11.6886 11.2712 10.7926 11.2712 10.2836 11.7803C9.77446 12.2893 9.77446 13.1853 10.2836 13.7046L19.4268 20.2617C19.9359 20.7708 20.8319 20.7708 21.341 20.2617Z" fill="#66CCFF"/>
</svg>
