<svg width="97" height="103" viewBox="0 0 97 103" fill="none" xmlns="http://www.w3.org/2000/svg">
<path d="M96.4291 39.4718C96.4291 39.37 96.4291 39.1765 96.3273 39.0747C96.3273 38.9729 96.2255 38.8812 96.2255 38.7794C96.2255 38.7794 96.2255 38.6776 96.1237 38.6776C96.0218 38.5758 96.0218 38.4841 95.9302 38.4841L86.2269 30.3692V16.6034C86.2269 13.2332 83.4575 10.5656 80.1891 10.5656H62.6662L52.3724 1.95179C50.0917 0.0681534 46.8233 0.0681534 44.5527 1.95179L34.3506 10.5656H17.0211C13.6509 10.5656 10.9833 13.3351 10.9833 16.6034V30.2674L1.28003 38.3823C1.17821 38.4842 1.08657 38.5758 1.08657 38.6776V38.7794C0.984753 38.8812 0.984753 38.9729 0.984753 39.0747C0.984753 39.1765 0.882935 39.2682 0.882935 39.4718V96.3067C0.882935 99.6769 3.65239 102.345 6.92075 102.345H90.3913C93.7615 102.345 96.4291 99.5751 96.4291 96.3067V39.4718ZM61.1797 69.9663L93.456 42.7402V96.4085C93.456 96.8056 93.3542 97.1009 93.2626 97.3962L61.1797 69.9663ZM92.672 39.5634L86.2371 45.0107V34.218L92.672 39.5634ZM46.4262 4.12052C47.6175 3.13288 49.2975 3.13288 50.4888 4.12052L58.0131 10.4536H39.0037L46.4262 4.12052ZM17.0211 13.4267H80.1993C81.8793 13.4267 83.264 14.8114 83.264 16.4914V47.3831L58.1149 68.6732C58.0131 68.7751 57.9215 68.7751 57.8197 68.8667L50.6924 74.9045C49.5011 75.8922 47.8211 75.8922 46.6298 74.9045L13.9564 47.3729V16.5729C13.9564 14.7911 15.3411 13.4063 17.0211 13.4063V13.4267ZM3.94766 97.3962C3.84584 97.1009 3.75421 96.8056 3.75421 96.4085V42.7402L36.1324 69.8747L3.94766 97.4063V97.3962ZM10.9731 44.9191L4.53821 39.5736L10.9731 34.1263V44.9191ZM6.81893 99.4834C6.52366 99.4834 6.32002 99.4834 6.12657 99.3816L38.4029 71.7583L44.8378 77.1038C47.1186 78.9874 50.3869 78.9874 52.6575 77.1038L58.8989 71.8602L91.0837 99.3918C90.8902 99.4936 90.5847 99.4936 90.2895 99.4936H6.81893V99.4834Z" fill="white"/>
<path d="M48.4015 20.7577C37.3135 20.7577 28.3026 29.7686 28.3026 40.8566C28.3026 51.9446 37.3135 60.9556 48.4015 60.9556C51.8633 60.9556 55.3353 60.0596 58.3084 58.2777C59.1026 57.7788 59.3978 56.7912 58.8989 55.997C58.4 55.2028 57.4124 54.9076 56.6182 55.4065C54.144 56.7912 51.2727 57.5854 48.4015 57.5854C39.1971 57.5854 31.7644 50.1628 31.7644 40.9483C31.7644 31.7337 39.1869 24.3112 48.4015 24.3112C57.616 24.3112 65.0385 31.7337 65.0385 40.9483C65.0385 46.7926 62.3607 48.9716 60.6807 49.0632C59.296 49.165 58.3084 48.0756 58.2066 46.2937V32.8232C58.2066 31.8356 57.4124 31.1432 56.5266 31.1432C55.5389 31.1432 54.8465 31.9374 54.8465 32.8232V33.5156C53.1665 32.029 50.8858 31.1432 48.5135 31.1432C43.0662 31.1432 38.7084 35.501 38.7084 40.9483C38.7084 46.3956 43.0662 50.7534 48.5135 50.7534C51.0895 50.7534 53.4618 49.7657 55.152 48.0756C55.9462 50.7534 58.1251 52.5352 60.8946 52.4334C64.56 52.3316 68.6226 48.6661 68.6226 40.9483C68.5207 29.7585 59.5098 20.7476 48.4218 20.7476L48.4015 20.7577ZM48.4015 46.8028C45.1331 46.8028 42.4553 44.125 42.4553 40.8566C42.4553 37.5883 45.1331 34.9105 48.4015 34.9105C51.6698 34.9105 54.3476 37.5883 54.3476 40.8566C54.3476 44.125 51.6698 46.8028 48.4015 46.8028Z" fill="#71C8F0"/>
</svg>
