<svg width="112" height="112" viewBox="0 0 112 112" fill="none" xmlns="http://www.w3.org/2000/svg">
<path d="M73.4313 27.8474C73.0342 27.8474 72.6371 27.7456 72.3418 27.4503C71.7513 26.8598 71.7513 25.9638 72.3418 25.3732L80.9455 16.7696C81.536 16.179 82.432 16.179 83.0226 16.7696C83.6131 17.3601 83.6131 18.2561 83.0226 18.8467L74.4189 27.4503C74.2255 27.6438 73.8284 27.8474 73.4313 27.8474Z" fill="white"/>
<path d="M56.2138 20.72C55.4197 20.72 54.7273 20.0276 54.7273 19.2334V7.06614C54.7273 6.27195 55.4197 5.57959 56.2138 5.57959C57.008 5.57959 57.7004 6.27195 57.7004 7.06614V19.2334C57.7004 20.0276 57.008 20.72 56.2138 20.72Z" fill="white"/>
<path d="M39.0982 27.8474C38.7011 27.8474 38.304 27.7456 38.0087 27.4503L29.4051 18.8467C28.8145 18.2561 28.8145 17.3601 29.4051 16.7696C29.9956 16.179 30.8916 16.179 31.4822 16.7696L40.0858 25.3732C40.6763 25.9638 40.6763 26.8598 40.0858 27.4503C39.7905 27.6438 39.3934 27.8474 39.0982 27.8474Z" fill="white"/>
<path d="M55.9999 67.5362C50.1352 67.5362 45.2479 62.7508 45.2479 56.7842C45.2479 50.8177 50.0334 46.0322 55.9999 46.0322C61.9665 46.0322 66.7519 50.8177 66.7519 56.7842C66.7519 62.7508 61.9665 67.5362 55.9999 67.5362ZM55.9999 49.2802C51.8661 49.2802 48.5061 52.6504 48.5061 56.774C48.5061 60.8977 51.8763 64.2679 55.9999 64.2679C60.1236 64.2679 63.4937 60.8977 63.4937 56.774C63.4937 52.6504 60.1236 49.2802 55.9999 49.2802Z" fill="#54C8F3"/>
<path d="M74.9076 94.5996H37.0923C36.2269 94.5996 35.4633 93.836 35.4633 92.9705C35.4633 81.5669 44.6982 72.3218 56 72.3218C67.3018 72.3218 76.5367 81.5567 76.5367 92.8585C76.5367 93.724 75.7731 94.5996 74.9076 94.5996ZM38.8334 91.3414H73.1665C72.4029 82.5443 65.0211 75.5901 56 75.5901C46.9789 75.5901 39.5971 82.5443 38.8334 91.3414Z" fill="#54C8F3"/>
<path d="M98.7738 37.2553C101.584 37.2553 103.855 39.5258 103.855 42.336V98.2851C103.855 101.095 101.584 103.366 98.7738 103.366H13.2262C10.416 103.366 8.14549 101.095 8.14549 98.2851V42.336C8.14549 39.5258 10.416 37.2553 13.2262 37.2553H98.784M98.784 34.2109H13.2262C8.74621 34.2109 5.09094 37.856 5.09094 42.3462V98.2953C5.09094 102.775 8.73603 106.431 13.2262 106.431H98.784C103.264 106.431 106.919 102.785 106.919 98.2953V42.3462C106.919 37.8662 103.274 34.2109 98.784 34.2109Z" fill="white"/>
</svg>
