<svg width="112" height="112" viewBox="0 0 112 112" fill="none" xmlns="http://www.w3.org/2000/svg">
<path d="M55.898 67.5662C55.1039 67.5662 54.4115 66.8739 54.4115 66.0797V38.4055C54.4115 37.6113 55.1039 36.9189 55.898 36.9189C56.6922 36.9189 57.3846 37.6113 57.3846 38.4055V66.0797C57.3846 66.9655 56.6922 67.5662 55.898 67.5662Z" fill="#71C8F0"/>
<path d="M55.8981 68.157C55.501 68.157 55.1039 67.9635 54.8087 67.7599L46.5003 59.4515C45.9097 58.861 45.9097 57.965 46.5003 57.3744C47.0908 56.7839 47.9868 56.7839 48.5774 57.3744L55.7963 64.5933L63.3105 57.0791C63.901 56.4886 64.797 56.4886 65.3876 57.0791C65.9781 57.6697 65.9781 58.5657 65.3876 59.1562L56.8857 67.658C56.6923 67.9533 56.2952 68.157 55.8981 68.157Z" fill="#71C8F0"/>
<path d="M71.6189 74.9785H40.4829C39.6887 74.9785 38.9963 74.2861 38.9963 73.492V66.6701C38.9963 65.876 39.6887 65.1836 40.4829 65.1836C41.2771 65.1836 41.9694 65.876 41.9694 66.6701V72.0054H70.1425V66.6701C70.1425 65.876 70.8349 65.1836 71.6291 65.1836C72.4232 65.1836 73.1156 65.876 73.1156 66.6701V73.492C73.1156 74.2861 72.4232 74.9785 71.6291 74.9785H71.6189Z" fill="#71C8F0"/>
<path d="M95.0473 32.2761C95.0473 32.0827 95.0473 31.879 94.9455 31.7772C94.8437 31.5838 94.752 31.3801 94.6502 31.2783C85.9549 22.583 69.3484 6.06813 68.8495 5.5794L68.7477 5.47759L68.6458 5.37577L68.544 5.27395C68.544 5.27395 68.4422 5.27395 68.4422 5.17213C68.3743 5.17213 68.3098 5.13819 68.2488 5.07031H23.3775C19.8138 5.07031 16.9528 7.94159 16.9528 11.495V100.464C16.9528 104.027 19.824 106.888 23.3775 106.888H88.6226C92.1862 106.888 95.0473 104.017 95.0473 100.464V32.2761ZM70.7331 11.6172L89.9055 30.7896H72.6066C70.7331 30.7896 69.1448 29.2114 69.1448 27.3278V10.1307C69.6437 10.6296 70.1324 11.1183 70.7229 11.6172H70.7331ZM92.0844 100.484C92.0844 102.358 90.5062 103.946 88.6226 103.946H23.3775C21.504 103.946 19.9157 102.368 19.9157 100.484V11.5154C19.9157 9.64195 21.4938 8.05359 23.3775 8.05359H66.2837V27.3278C66.2837 30.8914 69.1549 33.7525 72.7084 33.7525H92.0844V100.474V100.484Z" fill="white"/>
</svg>
