<svg width="112" height="112" viewBox="0 0 112 112" fill="none" xmlns="http://www.w3.org/2000/svg">
<path d="M97.1956 69.8472C96.9004 69.8472 96.6051 69.7454 96.4015 69.552C95.7091 69.0531 95.5157 68.1672 96.0044 67.4749L103.722 56L96.0044 44.5251C95.7091 44.0262 95.7091 43.3338 96.0044 42.8451L103.722 31.3702L96.0044 19.8953C95.5055 19.2029 95.7091 18.3171 96.4015 17.8182C97.0938 17.3193 97.9797 17.5229 98.4786 18.2152L106.685 30.4742C106.98 30.9731 106.98 31.6654 106.685 32.1542L98.9673 43.6291L106.685 55.104C106.98 55.6029 106.98 56.2952 106.685 56.784L98.4786 69.0429C98.0815 69.5418 97.6844 69.8371 97.1956 69.8371V69.8472Z" fill="#73C7F0"/>
<path d="M83.6437 63.5143C83.3484 63.5143 83.0531 63.4124 82.7578 63.219C82.0655 62.7201 81.9636 61.8343 82.4626 61.1419L88.6938 52.8335L82.4626 44.5252C82.0655 44.0263 82.0655 43.2423 82.4626 42.7433L88.6938 34.435L82.4626 26.1266C81.9636 25.4343 82.0655 24.5484 82.7578 24.0495C83.4502 23.5506 84.336 23.6524 84.8349 24.3448L91.7586 33.539C92.1557 34.0379 92.1557 34.8219 91.7586 35.3208L85.5273 43.6292L91.7586 51.9375C92.1557 52.4364 92.1557 53.2204 91.7586 53.7193L84.8349 62.9135C84.5396 63.3106 84.1426 63.5041 83.6437 63.5041V63.5143Z" fill="#73C7F0"/>
<path d="M14.7127 69.8472C14.2138 69.8472 13.7251 69.6538 13.5214 69.1549L5.3149 56.896C5.01963 56.3971 5.01963 55.7047 5.3149 55.216L13.0327 43.7411L5.3149 32.2661C5.01963 31.7672 5.01963 31.0749 5.3149 30.5861L13.5214 18.3272C14.0204 17.6349 14.9062 17.4414 15.5985 17.9301C16.2909 18.4189 16.4844 19.3149 15.9956 20.0072L8.27781 31.4821L15.9956 42.9571C16.2909 43.456 16.2909 44.1483 15.9956 44.6371L8.27781 56.112L15.9956 67.5869C16.4945 68.2792 16.2909 69.1651 15.5985 69.664C15.3033 69.7658 15.008 69.8574 14.7127 69.8574V69.8472Z" fill="#73C7F0"/>
<path d="M28.2545 63.5141C27.7556 63.5141 27.3687 63.3206 27.0633 62.9235L20.1396 53.7294C19.7425 53.2304 19.7425 52.4465 20.1396 51.9475L26.3709 43.6392L20.1396 35.3308C19.7425 34.8319 19.7425 34.0479 20.1396 33.549L27.0633 24.3548C27.5622 23.6625 28.448 23.5606 29.1403 24.0595C29.8327 24.5584 29.9345 25.4443 29.4356 26.1366L23.2043 34.445L29.4356 42.7534C29.8327 43.2523 29.8327 44.0363 29.4356 44.5352L23.2043 52.8435L29.4356 61.1519C29.9345 61.8443 29.8327 62.7301 29.1403 63.229C28.8451 63.4225 28.5498 63.5243 28.2545 63.5243V63.5141Z" fill="#73C7F0"/>
<path d="M55.9491 104.954C48.7302 104.954 42.896 99.1199 42.896 91.901C42.896 84.6821 48.7302 78.8479 55.9491 78.8479C63.168 78.8479 69.0022 84.6821 69.0022 91.901C69.0022 99.1199 63.168 104.954 55.9491 104.954ZM55.9491 81.8108C50.4102 81.8108 45.8589 86.3621 45.8589 91.901C45.8589 97.4399 50.4102 101.991 55.9491 101.991C61.488 101.991 66.0393 97.4399 66.0393 91.901C66.0393 86.3621 61.488 81.8108 55.9491 81.8108Z" fill="white"/>
<path d="M64.3593 69.8473H47.5491C46.7549 69.8473 46.0625 69.2567 46.0625 68.4626L43.3949 8.62401C43.3949 8.22692 43.4967 7.82983 43.792 7.53455C44.0873 7.23928 44.4844 7.03564 44.8814 7.03564H67.0371C67.4342 7.03564 67.8313 7.2291 68.1265 7.53455C68.4218 7.84001 68.5236 8.22692 68.5236 8.62401L65.856 68.4626C65.7542 69.1549 65.1636 69.8473 64.3694 69.8473H64.3593ZM48.9338 66.8844H62.8829L65.4589 10.0189H46.4698L48.944 66.8844H48.9338Z" fill="white"/>
</svg>
