<svg width="54" height="54" viewBox="0 0 54 54" fill="none" xmlns="http://www.w3.org/2000/svg">
<path fill-rule="evenodd" clip-rule="evenodd" d="M27 22.2314C32.3577 22.2314 36.7065 26.5784 36.7065 31.9352C36.7065 37.292 32.3577 41.6417 27 41.6417C21.6423 41.6417 17.2944 37.2947 17.2944 31.9352C17.2944 26.5757 21.6414 22.2314 27 22.2314Z" stroke="white" stroke-width="2.5" stroke-miterlimit="10" stroke-linecap="round"/>
<path fill-rule="evenodd" clip-rule="evenodd" d="M3.2265 34.0017C19.0755 18.6216 34.9236 17.7243 50.7735 33.9882V34.5372C34.9236 50.8011 19.0755 49.9038 3.2265 34.5237V34.0026V34.0017Z" stroke="white" stroke-width="2.5" stroke-miterlimit="10" stroke-linecap="round"/>
<path fill-rule="evenodd" clip-rule="evenodd" d="M27 27.8398C29.2635 27.8398 31.0977 29.6758 31.0977 31.9366C31.0977 34.1974 29.2626 36.0343 27 36.0343C24.7374 36.0343 22.9023 34.2001 22.9023 31.9366C22.9023 29.6731 24.7365 27.8398 27 27.8398Z" stroke="white" stroke-width="2.5" stroke-miterlimit="10" stroke-linecap="round"/>
<path fill-rule="evenodd" clip-rule="evenodd" d="M27 21.4287C21.4099 21.4287 16.875 26.0361 16.875 31.7135C16.875 37.3908 21.4099 42.0001 27 42.0001C32.5901 42.0001 37.125 37.3928 37.125 31.7135C37.125 26.0341 32.5891 21.4287 27 21.4287ZM27 36.0565C24.6391 36.0565 22.7262 34.113 22.7262 31.7135C22.7262 29.3139 24.6391 27.3724 27 27.3724C29.3609 27.3724 31.2747 29.3178 31.2747 31.7135C31.2747 34.1091 29.3609 36.0565 27 36.0565Z" fill="white"/>
<path d="M35.9208 17.604L40.3812 13.1436" stroke="#66CCFF" stroke-width="2.5" stroke-miterlimit="22.93" stroke-linecap="round"/>
<path d="M27 13.9088V7.60156" stroke="#66CCFF" stroke-width="2.5" stroke-miterlimit="22.93" stroke-linecap="round"/>
<path d="M18.0801 17.604L13.6197 13.1436" stroke="#66CCFF" stroke-width="2.5" stroke-miterlimit="22.93" stroke-linecap="round"/>
</svg>
