<svg width="112" height="112" viewBox="0 0 112 112" fill="none" xmlns="http://www.w3.org/2000/svg">
<path d="M56 83.8064C28.5906 83.8064 6.8524 58.0566 5.87494 56.9774L5.09094 55.9999L5.87494 55.0224C6.76076 53.9432 28.5906 28.1934 56 28.1934C83.4095 28.1934 105.148 53.9432 106.125 55.0224L106.909 55.9999L106.125 56.9774C106.023 57.0792 100.444 63.7279 91.5346 70.3868C83.216 76.4552 70.3869 83.7963 56 83.7963V83.8064ZM9.01094 55.9999C10.8742 58.0566 15.6699 63.0457 22.3288 68.045C30.2604 73.9199 42.4989 80.8741 56.0102 80.8741C69.5215 80.8741 81.8517 73.9199 89.6917 68.045C96.4422 63.0559 101.146 58.0566 103.009 55.9999C101.146 53.9432 96.3506 48.9541 89.6917 43.9548C81.76 38.0799 69.5215 31.1257 56.0102 31.1257C42.4989 31.1257 30.2604 38.0799 22.3288 43.9548C15.6699 48.9439 10.8742 53.9432 9.01094 55.9999Z" fill="white"/>
<path d="M56 37.7949C45.92 37.7949 37.7949 45.92 37.7949 56C37.7949 66.08 45.92 74.2051 56 74.2051C66.08 74.2051 74.2051 66.08 74.2051 56C74.2051 45.92 66.08 37.7949 56 37.7949ZM56 66.6807C50.0233 66.6807 45.2276 61.8851 45.2276 55.9084C45.2276 49.9317 50.0233 45.136 56 45.136C61.9767 45.136 66.7724 49.9317 66.7724 55.9084C66.7724 61.8851 61.9767 66.6807 56 66.6807Z" fill="#66CCFF"/>
<path d="M56.0001 23.1432C55.0124 23.1432 54.2183 22.349 54.2183 21.3613V11.1795C54.2183 10.1919 55.0124 9.39771 56.0001 9.39771C56.9877 9.39771 57.7819 10.1919 57.7819 11.1795V21.3613C57.7819 22.349 56.9877 23.1432 56.0001 23.1432Z" fill="white"/>
<path d="M82.6968 30.077C82.3913 30.077 82.0859 29.9956 81.8109 29.8429C80.9557 29.3541 80.6706 28.2647 81.1593 27.4094L85.568 19.773C86.0568 18.9178 87.1462 18.6327 88.0015 19.1214C88.8568 19.6101 89.1419 20.6996 88.6531 21.5549L84.2444 29.1912C83.9186 29.7614 83.3179 30.0872 82.6968 30.0872V30.077Z" fill="white"/>
<path d="M102.47 44.016C102.012 44.016 101.554 43.8429 101.207 43.4967C100.515 42.8043 100.515 41.6741 101.207 40.9818L104.262 37.9272C104.954 37.2349 106.084 37.2349 106.777 37.9272C107.469 38.6196 107.469 39.7498 106.777 40.4421L103.722 43.4967C103.376 43.8429 102.918 44.016 102.46 44.016H102.47Z" fill="white"/>
<path d="M29.3034 30.077C28.6924 30.077 28.0917 29.7613 27.7557 29.181L23.347 21.5446C22.8583 20.6893 23.1434 19.5999 23.9986 19.1112C24.8539 18.6224 25.9434 18.9075 26.4321 19.7628L30.8408 27.3992C31.3295 28.2544 31.0444 29.3439 30.1892 29.8326C29.9041 29.9955 29.5986 30.0668 29.3034 30.0668V30.077Z" fill="white"/>
<path d="M9.53021 44.016C9.07203 44.016 8.61385 43.8429 8.26767 43.4967L5.21312 40.4421C4.52076 39.7498 4.52076 38.6196 5.21312 37.9272C5.90548 37.2349 7.03567 37.2349 7.72803 37.9272L10.7826 40.9818C11.4749 41.6741 11.4749 42.8043 10.7826 43.4967C10.4364 43.8429 9.97821 44.016 9.52003 44.016H9.53021Z" fill="white"/>
<path d="M56.0001 102.602C55.0124 102.602 54.2183 101.808 54.2183 100.82V90.6385C54.2183 89.6509 55.0124 88.8567 56.0001 88.8567C56.9877 88.8567 57.7819 89.6509 57.7819 90.6385V100.82C57.7819 101.808 56.9877 102.602 56.0001 102.602Z" fill="white"/>
<path d="M24.8946 93.1227C24.5891 93.1227 24.2837 93.0413 24.0088 92.8885C23.1535 92.3998 22.8684 91.3103 23.3571 90.4551L27.7659 82.8187C28.2546 81.9634 29.344 81.6783 30.1993 82.1671C31.0546 82.6558 31.3397 83.7452 30.8509 84.6005L26.4422 92.2369C26.1164 92.8071 25.5157 93.1329 24.8946 93.1329V93.1227Z" fill="white"/>
<path d="M6.47567 74.6021C6.01748 74.6021 5.5593 74.4291 5.21312 74.0829C4.52076 73.3905 4.52076 72.2603 5.21312 71.568L8.26767 68.5134C8.96003 67.821 10.0902 67.821 10.7826 68.5134C11.4749 69.2058 11.4749 70.336 10.7826 71.0283L7.72803 74.0829C7.38185 74.4291 6.92367 74.6021 6.46548 74.6021H6.47567Z" fill="white"/>
<path d="M87.1055 93.1229C86.4946 93.1229 85.8938 92.8072 85.5578 92.2269L81.1491 84.5905C80.6604 83.7352 80.9455 82.6458 81.8008 82.1571C82.656 81.6683 83.7455 81.9534 84.2342 82.8087L88.6429 90.4451C89.1317 91.3003 88.8466 92.3898 87.9913 92.8785C87.7062 93.0414 87.4008 93.1127 87.1055 93.1127V93.1229Z" fill="white"/>
<path d="M105.524 74.6021C105.066 74.6021 104.608 74.4291 104.262 74.0829L101.207 71.0283C100.515 70.336 100.515 69.2058 101.207 68.5134C101.9 67.821 103.03 67.821 103.722 68.5134L106.777 71.568C107.469 72.2603 107.469 73.3905 106.777 74.0829C106.431 74.4291 105.972 74.6021 105.514 74.6021H105.524Z" fill="white"/>
</svg>
