<svg width="112" height="112" viewBox="0 0 112 112" fill="none" xmlns="http://www.w3.org/2000/svg">
<path d="M76.0887 44.6679H57.0894C56.2953 44.6679 55.6029 43.9756 55.6029 43.1814C55.6029 42.3872 56.2953 41.6948 57.0894 41.6948H76.0887C76.8829 41.6948 77.5753 42.3872 77.5753 43.1814C77.5753 43.9756 76.9847 44.6679 76.0887 44.6679Z" fill="white"/>
<path d="M76.0887 89.1928H57.0894C56.2953 89.1928 55.6029 88.5005 55.6029 87.7063C55.6029 86.9121 56.2953 86.2197 57.0894 86.2197H76.0887C76.8829 86.2197 77.5753 86.9121 77.5753 87.7063C77.5753 88.5005 76.9847 89.1928 76.0887 89.1928Z" fill="white"/>
<path d="M40.0655 49.3208C39.6684 49.3208 39.2713 49.1273 38.976 48.8219L34.3229 43.5782C33.824 42.9877 33.824 42.0001 34.4247 41.5012C35.0255 41.0022 36.0029 41.0023 36.5018 41.603L39.8618 45.4619L45.7978 37.5506C46.2967 36.8583 47.1825 36.7564 47.8749 37.2553C48.5673 37.7543 48.6691 38.6401 48.1702 39.3324L41.1447 48.7303C41.0429 49.1273 40.5542 49.3208 40.0553 49.3208C40.1232 49.3208 40.1232 49.3208 40.0553 49.3208H40.0655Z" fill="#66CCFF"/>
<path d="M76.0887 66.9355H57.0894C56.2953 66.9355 55.6029 66.2431 55.6029 65.4489C55.6029 64.6548 56.2953 63.9624 57.0894 63.9624H76.0887C76.8829 63.9624 77.5753 64.6548 77.5753 65.4489C77.5753 66.2431 76.9847 66.9355 76.0887 66.9355Z" fill="white"/>
<path d="M40.0655 71.5884C39.6684 71.5884 39.2713 71.3949 38.976 71.0895L34.3229 65.8458C33.824 65.2553 33.824 64.2676 34.4247 63.7687C35.0255 63.2698 36.0029 63.2698 36.5018 63.8706L39.8618 67.7295L45.7978 59.8182C46.2967 59.1258 47.1825 59.024 47.8749 59.5229C48.5673 60.0218 48.6691 60.9076 48.1702 61.6L41.1447 70.9978C41.0429 71.3949 40.5542 71.5884 40.0553 71.5884C40.1232 71.5884 40.1232 71.5884 40.0553 71.5884H40.0655Z" fill="#66CCFF"/>
<path d="M40.0655 93.8457C39.6684 93.8457 39.2713 93.6522 38.976 93.3468L34.3229 88.1032C33.824 87.5126 33.824 86.525 34.4247 86.0261C35.0255 85.5272 36.0029 85.5271 36.5018 86.1279L39.8618 89.9868L45.7978 82.0755C46.2967 81.3832 47.1825 81.2813 47.8749 81.7802C48.5673 82.2792 48.6691 83.165 48.1702 83.8573L41.1447 93.2551C41.0429 93.6522 40.5542 93.8457 40.0553 93.8457C40.1232 93.8457 40.1232 93.8457 40.0553 93.8457H40.0655Z" fill="#66CCFF"/>
<path d="M84.7942 18.6427H76.0887V16.8609C76.0887 14.8857 74.5106 13.2973 72.5251 13.2973H65.2044C64.512 8.6442 60.3578 5.08057 55.7047 5.08057C51.0516 5.08057 46.8975 8.54239 46.2051 13.2973H39.2815C37.3062 13.2973 35.7178 14.8755 35.7178 16.8609V18.6427H27.0124C23.9477 18.6427 21.5753 21.1169 21.5753 24.0798V101.462C21.5753 104.526 24.0495 106.899 27.0124 106.899H84.9978C88.0626 106.899 90.4349 104.425 90.4349 101.462V24.09C90.3331 21.1169 87.8589 18.6529 84.7942 18.6529V18.6427ZM38.4873 16.8609C38.4873 16.5657 38.7826 16.2704 39.0778 16.2704H46.1033C47.5898 16.2704 48.7709 15.2827 48.9746 13.7962C49.4735 10.5278 52.3346 8.05366 55.6029 8.05366C58.8713 8.05366 61.7426 10.5278 62.2313 13.7962C62.4247 15.1809 63.616 16.2704 65.1026 16.2704H72.5251C72.8204 16.2704 73.1156 16.5657 73.1156 16.8609V23.3875C73.1156 23.6827 72.8204 23.978 72.5251 23.978H39.0778C38.7826 23.978 38.4873 23.6827 38.4873 23.3875V16.8609ZM87.3702 101.563C87.3702 102.948 86.2807 104.038 84.896 104.038H26.9106C25.5258 104.038 24.4364 102.948 24.4364 101.563V24.1918C24.4364 22.8071 25.5258 21.7177 26.9106 21.7177H35.616V23.4995C35.616 25.4747 37.1942 27.0631 39.1796 27.0631H72.6269C74.6022 27.0631 76.1906 25.4849 76.1906 23.4995V21.7177H84.896C86.2807 21.7177 87.3702 22.8071 87.3702 24.1918V101.574V101.563Z" fill="white"/>
<path d="M55.6029 17.5531C57.1324 17.5531 58.3724 16.3131 58.3724 14.7836C58.3724 13.2541 57.1324 12.0142 55.6029 12.0142C54.0734 12.0142 52.8335 13.2541 52.8335 14.7836C52.8335 16.3131 54.0734 17.5531 55.6029 17.5531Z" fill="white"/>
</svg>
