<svg width="163" height="86" viewBox="0 0 163 86" fill="none" xmlns="http://www.w3.org/2000/svg">
<g clip-path="url(#clip0_375_1566)">
<path d="M26.712 11.0347C26.712 5.95162 22.5343 1.81543 17.3984 1.81543C12.2625 1.81543 8.08472 5.95162 8.08472 11.0347C8.08472 16.1177 12.2625 20.2539 17.3984 20.2539C22.5343 20.2539 26.712 16.1177 26.712 11.0347Z" fill="#66CCFF"/>
<path d="M27.0193 54.2553H28.9822C31.2008 54.2553 32.9396 52.5303 32.9396 50.3294V26.0764C32.9396 23.8918 31.202 22.1807 28.9822 22.1807H5.74654C3.52798 22.1807 1.79041 23.8918 1.79041 26.0764V50.3294C1.79041 52.5303 3.52798 54.2553 5.7478 54.2553H9.72534L11.5976 84.8871H23.1349L25.5751 54.2239" fill="#66CCFF"/>
<path d="M10.6634 86C10.365 86 10.0842 85.8879 9.86893 85.6827C9.65488 85.4787 9.52897 85.2017 9.51512 84.9058L8.11247 56.4423H6.11426C2.74361 56.4423 0 53.7138 0 50.3583V26.9564C0 23.6185 2.74235 20.9025 6.11426 20.9025H12.124L10.4192 19.554C7.74859 17.4425 6.21624 14.3098 6.21624 10.9581C6.21499 4.91684 11.1986 0 17.3241 0C23.4497 0 28.4333 4.91684 28.4333 10.9606C28.4333 14.3123 26.901 17.445 24.2304 19.5566L22.5243 20.9051H28.534C31.9047 20.9051 34.647 23.621 34.647 26.9589V50.3608C34.647 53.7151 31.9047 56.4448 28.534 56.4448H26.5358L25.1332 84.9058C25.1193 85.2042 24.9934 85.48 24.7781 85.6852C24.5641 85.8892 24.2833 86.0013 23.9861 86.0013H10.6622L10.6634 86ZM8.61486 41.8038C8.89816 41.8038 9.17013 41.9083 9.3804 42.0972C9.6083 42.3012 9.7468 42.5946 9.76065 42.9005L11.7589 83.7046H22.8919L24.8902 42.903C24.9128 42.4989 25.1533 42.1312 25.5197 41.9461C25.6796 41.8655 25.8597 41.8227 26.0385 41.8227C26.2626 41.8227 26.4792 41.8869 26.6668 42.0091C27.0093 42.2332 27.2094 42.6248 27.1868 43.034L26.6416 54.1482H28.5353C30.6758 54.1482 32.3529 52.4849 32.3529 50.3595V26.9576C32.3529 24.8499 30.6758 23.1992 28.5353 23.1992H6.11426C3.97376 23.1992 2.29662 24.8499 2.29662 26.9576V50.3595C2.29662 52.4836 3.97376 54.1482 6.11426 54.1482H8.00796L7.46403 43.0378C7.44388 42.7243 7.54839 42.4195 7.74859 42.1929C7.94879 41.9663 8.23712 41.8252 8.53931 41.8064C8.56575 41.8051 8.59093 41.8038 8.61486 41.8038ZM17.3241 2.23619C12.464 2.23619 8.51035 6.14951 8.51035 10.9606C8.51035 15.7717 12.464 19.685 17.3241 19.685C22.1843 19.685 26.1379 15.7717 26.1379 10.9606C26.1379 6.14951 22.1843 2.23619 17.3241 2.23619Z" fill="black"/>
</g>
<g clip-path="url(#clip1_375_1566)">
<path d="M53.3105 86C53.0121 86 52.7313 85.8879 52.516 85.6827C52.302 85.4787 52.1761 85.2017 52.1622 84.9058L50.7596 56.4423H48.7614C45.3907 56.4423 42.6471 53.7138 42.6471 50.3583V26.9564C42.6471 23.6185 45.3894 20.9025 48.7614 20.9025H54.7711L53.0663 19.554C50.3957 17.4425 48.8633 14.3098 48.8633 10.9581C48.8621 4.91684 53.8457 0 59.9712 0C66.0968 0 71.0804 4.91684 71.0804 10.9606C71.0804 14.3123 69.5481 17.445 66.8775 19.5566L65.1714 20.9051H71.1811C74.5518 20.9051 77.2941 23.621 77.2941 26.9589V50.3608C77.2941 53.7151 74.5518 56.4448 71.1811 56.4448H69.1829L67.7803 84.9058C67.7664 85.2042 67.6405 85.48 67.4252 85.6852C67.2111 85.8892 66.9304 86.0013 66.6332 86.0013H53.3093L53.3105 86ZM51.262 41.8038C51.5453 41.8038 51.8172 41.9083 52.0275 42.0972C52.2554 42.3012 52.3939 42.5946 52.4077 42.9005L54.406 83.7046H65.539L67.5373 42.903C67.5599 42.4989 67.8004 42.1312 68.1668 41.9461C68.3267 41.8655 68.5068 41.8227 68.6856 41.8227C68.9097 41.8227 69.1263 41.8869 69.3139 42.0091C69.6563 42.2332 69.8565 42.6248 69.8339 43.034L69.2887 54.1482H71.1824C73.3229 54.1482 75 52.4849 75 50.3595V26.9576C75 24.8499 73.3229 23.1992 71.1824 23.1992H48.7614C46.6209 23.1992 44.9437 24.8499 44.9437 26.9576V50.3595C44.9437 52.4836 46.6209 54.1482 48.7614 54.1482H50.6551L50.1111 43.0378C50.091 42.7243 50.1955 42.4195 50.3957 42.1929C50.5959 41.9663 50.8842 41.8252 51.1864 41.8064C51.2128 41.8051 51.238 41.8038 51.262 41.8038ZM59.9712 2.23619C55.1111 2.23619 51.1574 6.14951 51.1574 10.9606C51.1574 15.7717 55.1111 19.685 59.9712 19.685C64.8314 19.685 68.785 15.7717 68.785 10.9606C68.785 6.14951 64.8314 2.23619 59.9712 2.23619Z" fill="black"/>
</g>
<g clip-path="url(#clip2_375_1566)">
<path d="M95.9575 86C95.6591 86 95.3783 85.8879 95.163 85.6827C94.949 85.4787 94.823 85.2017 94.8092 84.9058L93.4065 56.4423H91.4083C88.0377 56.4423 85.2941 53.7138 85.2941 50.3583V26.9564C85.2941 23.6185 88.0364 20.9025 91.4083 20.9025H97.4181L95.7132 19.554C93.0427 17.4425 91.5103 14.3098 91.5103 10.9581C91.5091 4.91684 96.4926 0 102.618 0C108.744 0 113.727 4.91684 113.727 10.9606C113.727 14.3123 112.195 17.445 109.524 19.5566L107.818 20.9051H113.828C117.199 20.9051 119.941 23.621 119.941 26.9589V50.3608C119.941 53.7151 117.199 56.4448 113.828 56.4448H111.83L110.427 84.9058C110.413 85.2042 110.287 85.48 110.072 85.6852C109.858 85.8892 109.577 86.0013 109.28 86.0013H95.9562L95.9575 86ZM93.9089 41.8038C94.1922 41.8038 94.4642 41.9083 94.6745 42.0972C94.9024 42.3012 95.0409 42.5946 95.0547 42.9005L97.0529 83.7046H108.186L110.184 42.903C110.207 42.4989 110.447 42.1312 110.814 41.9461C110.974 41.8655 111.154 41.8227 111.333 41.8227C111.557 41.8227 111.773 41.8869 111.961 42.0091C112.303 42.2332 112.504 42.6248 112.481 43.034L111.936 54.1482H113.829C115.97 54.1482 117.647 52.4849 117.647 50.3595V26.9576C117.647 24.8499 115.97 23.1992 113.829 23.1992H91.4083C89.2678 23.1992 87.5907 24.8499 87.5907 26.9576V50.3595C87.5907 52.4836 89.2678 54.1482 91.4083 54.1482H93.302L92.7581 43.0378C92.7379 42.7243 92.8425 42.4195 93.0427 42.1929C93.2429 41.9663 93.5312 41.8252 93.8334 41.8064C93.8598 41.8051 93.885 41.8038 93.9089 41.8038ZM102.618 2.23619C97.758 2.23619 93.8044 6.14951 93.8044 10.9606C93.8044 15.7717 97.758 19.685 102.618 19.685C107.478 19.685 111.432 15.7717 111.432 10.9606C111.432 6.14951 107.478 2.23619 102.618 2.23619Z" fill="black"/>
</g>
<g clip-path="url(#clip3_375_1566)">
<path d="M138.605 86C138.306 86 138.025 85.8879 137.81 85.6827C137.596 85.4787 137.47 85.2017 137.456 84.9058L136.054 56.4423H134.055C130.685 56.4423 127.941 53.7138 127.941 50.3583V26.9564C127.941 23.6185 130.684 20.9025 134.055 20.9025H140.065L138.36 19.554C135.69 17.4425 134.157 14.3098 134.157 10.9581C134.156 4.91684 139.14 0 145.265 0C151.391 0 156.374 4.91684 156.374 10.9606C156.374 14.3123 154.842 17.445 152.172 19.5566L150.465 20.9051H156.475C159.846 20.9051 162.588 23.621 162.588 26.9589V50.3608C162.588 53.7151 159.846 56.4448 156.475 56.4448H154.477L153.074 84.9058C153.06 85.2042 152.935 85.48 152.719 85.6852C152.505 85.8892 152.224 86.0013 151.927 86.0013H138.603L138.605 86ZM136.556 41.8038C136.839 41.8038 137.111 41.9083 137.322 42.0972C137.549 42.3012 137.688 42.5946 137.702 42.9005L139.7 83.7046H150.833L152.831 42.903C152.854 42.4989 153.094 42.1312 153.461 41.9461C153.621 41.8655 153.801 41.8227 153.98 41.8227C154.204 41.8227 154.42 41.8869 154.608 42.0091C154.95 42.2332 155.151 42.6248 155.128 43.034L154.583 54.1482H156.476C158.617 54.1482 160.294 52.4849 160.294 50.3595V26.9576C160.294 24.8499 158.617 23.1992 156.476 23.1992H134.055C131.915 23.1992 130.238 24.8499 130.238 26.9576V50.3595C130.238 52.4836 131.915 54.1482 134.055 54.1482H135.949L135.405 43.0378C135.385 42.7243 135.49 42.4195 135.69 42.1929C135.89 41.9663 136.178 41.8252 136.48 41.8064C136.507 41.8051 136.532 41.8038 136.556 41.8038ZM145.265 2.23619C140.405 2.23619 136.452 6.14951 136.452 10.9606C136.452 15.7717 140.405 19.685 145.265 19.685C150.125 19.685 154.079 15.7717 154.079 10.9606C154.079 6.14951 150.125 2.23619 145.265 2.23619Z" fill="black"/>
</g>
<defs>
<clipPath id="clip0_375_1566">
<rect width="34.647" height="86" fill="white"/>
</clipPath>
<clipPath id="clip1_375_1566">
<rect width="34.647" height="86" fill="white" transform="translate(42.6471)"/>
</clipPath>
<clipPath id="clip2_375_1566">
<rect width="34.647" height="86" fill="white" transform="translate(85.2941)"/>
</clipPath>
<clipPath id="clip3_375_1566">
<rect width="34.647" height="86" fill="white" transform="translate(127.941)"/>
</clipPath>
</defs>
</svg>
