<?xml version="1.0" encoding="UTF-8"?>
<svg id="Art" xmlns="http://www.w3.org/2000/svg" viewBox="0 0 110 110">
  <defs>
    <style>
      .cls-1 {
        fill: #6cf;
      }

      .cls-2 {
        fill: #406782;
      }
    </style>
  </defs>
  <path class="cls-1" d="m55,40.66c-7.91,0-14.24,6.33-14.24,14.24s6.33,14.24,14.24,14.24,14.24-6.33,14.24-14.24-6.33-14.24-14.24-14.24Zm0,20.49c-3.46,0-6.24-2.79-6.24-6.24s2.79-6.24,6.24-6.24,6.24,2.79,6.24,6.24-2.79,6.24-6.24,6.24Z"/>
  <g>
    <g>
      <path class="cls-2" d="m74.69,54.9c0-2.21,1.79-4,4-4h18c2.21,0,4,1.79,4,4s-1.79,4-4,4h-18c-2.21,0-4-1.79-4-4Z"/>
      <path class="cls-2" d="m9.31,54.9c0-2.21,1.79-4,4-4h18c2.21,0,4,1.79,4,4s-1.79,4-4,4H13.31c-2.21,0-4-1.79-4-4Z"/>
    </g>
    <g>
      <path class="cls-2" d="m55,35.21c-2.21,0-4-1.79-4-4V13.21c0-2.21,1.79-4,4-4s4,1.79,4,4v18c0,2.21-1.79,4-4,4Z"/>
      <path class="cls-2" d="m55,100.59c-2.21,0-4-1.79-4-4v-18c0-2.21,1.79-4,4-4s4,1.79,4,4v18c0,2.21-1.79,4-4,4Z"/>
    </g>
    <g>
      <path class="cls-2" d="m68.93,68.83c1.56-1.56,4.09-1.56,5.66,0l12.73,12.73c1.56,1.56,1.56,4.09,0,5.66s-4.09,1.56-5.66,0l-12.73-12.73c-1.56-1.56-1.56-4.09,0-5.66Z"/>
      <path class="cls-2" d="m22.69,22.59c1.56-1.56,4.09-1.56,5.66,0l12.73,12.73c1.56,1.56,1.56,4.09,0,5.66s-4.09,1.56-5.66,0l-12.73-12.73c-1.56-1.56-1.56-4.09,0-5.66Z"/>
    </g>
    <g>
      <path class="cls-2" d="m68.93,40.98c-1.56-1.56-1.56-4.09,0-5.66l12.73-12.73c1.56-1.56,4.09-1.56,5.66,0s1.56,4.09,0,5.66l-12.73,12.73c-1.56,1.56-4.09,1.56-5.66,0Z"/>
      <path class="cls-2" d="m22.69,87.21c-1.56-1.56-1.56-4.09,0-5.66l12.73-12.73c1.56-1.56,4.09-1.56,5.66,0s1.56,4.09,0,5.66l-12.73,12.73c-1.56,1.56-4.09,1.56-5.66,0Z"/>
    </g>
  </g>
  <g>
    <g>
      <circle class="cls-1" cx="55" cy="31.21" r="4"/>
      <circle class="cls-1" cx="55" cy="78.59" r="4"/>
    </g>
    <g>
      <circle class="cls-1" cx="78.69" cy="54.9" r="4"/>
      <circle class="cls-1" cx="31.31" cy="54.9" r="4"/>
    </g>
  </g>
  <g>
    <g>
      <circle class="cls-1" cx="71.75" cy="38.15" r="4"/>
      <circle class="cls-1" cx="38.25" cy="71.66" r="4"/>
    </g>
    <g>
      <circle class="cls-1" cx="71.75" cy="71.66" r="4"/>
      <circle class="cls-1" cx="38.25" cy="38.15" r="4"/>
    </g>
  </g>
</svg>