<?xml version="1.0" encoding="UTF-8"?>
<svg id="Art" xmlns="http://www.w3.org/2000/svg" viewBox="0 0 110 110">
  <defs>
    <style>
      .cls-1 {
        fill: #6cf;
      }

      .cls-2 {
        fill: #406782;
      }
    </style>
  </defs>
  <g>
    <path class="cls-1" d="m100,53.86c-8.02.71-31.09,15-39.93,28l-.65-21.71c-1.47.14-2.95.29-4.42.29h0c-1.47,0-2.95-.14-4.42-.29l-.65,21.71c-8.67-13-31.91-27.29-39.93-28,.33,8.71,23.07,39.71,39.6,40.43v2.29c0,2.29,2.78,3.43,5.4,3.43,2.78,0,5.4-1.14,5.4-3.43v-2.29c16.53-.71,39.27-31.71,39.6-40.43Z"/>
    <path class="cls-2" d="m100,53.86c-8.02.71-31.09,15-39.93,28l-.65-21.71c-1.47.14-2.95.29-4.42.29v39.57c2.78,0,5.4-1.14,5.4-3.43v-2.29c16.53-.71,39.27-31.71,39.6-40.43Z"/>
  </g>
  <g>
    <path class="cls-1" d="m68.71,32.14c-.71-8.71-5.14-16.57-13.71-22.14-8.57,5.57-13,13.29-13.71,22.14-3.57-5-11-8.57-16.71-7.71.71,18.14,14,32.71,30.43,32.71s29.71-14.43,30.43-32.71c-5.71-.86-13.14,2.57-16.71,7.71Z"/>
    <path class="cls-2" d="m68.71,32.14c-.71-8.71-5.14-16.57-13.71-22.14v47.14c16.43,0,29.71-14.43,30.43-32.71-5.71-.86-13.14,2.57-16.71,7.71Z"/>
  </g>
</svg>