<?xml version="1.0" encoding="UTF-8"?>
<svg id="Art" xmlns="http://www.w3.org/2000/svg" viewBox="0 0 110 110">
  <defs>
    <style>
      .cls-1 {
        fill: #fff;
      }
    </style>
  </defs>
  <path class="cls-1" d="m96.34,84.28c-9.83,7.22-22.27,7.06-40.54-.61-17.66-7.53-34.09-6.6-45,2.46-.92.77-1.08,2.3-.31,3.23.77.92,2.3,1.07,3.22.31,9.68-7.99,23.96-8.6,40.24-1.84,7.22,2.92,16.43,6.14,25.65,6.14,6.76,0,13.36-1.54,19.5-5.99.92-.77,1.23-2.15.46-3.23-.77-.92-2.15-1.23-3.23-.46Z"/>
  <path class="cls-1" d="m13.72,27.09c9.68-7.99,23.96-8.6,40.24-1.84,7.22,2.92,16.43,6.14,25.65,6.14,6.76,0,13.36-1.54,19.5-5.99.92-.77,1.23-2.15.46-3.23-.77-.92-2.15-1.23-3.23-.46-9.83,7.22-22.42,7.06-40.54-.61-17.66-7.53-34.09-6.6-45,2.46-.92.77-1.08,2.3-.31,3.23.77.92,2.3,1.08,3.22.31Z"/>
  <path class="cls-1" d="m13.72,58.37c9.68-7.99,23.96-8.6,40.24-1.84,7.22,2.92,16.43,6.14,25.65,6.14,6.76,0,13.36-1.54,19.5-5.99.92-.77,1.23-2.15.46-3.23-.77-.92-2.15-1.23-3.23-.46-9.83,7.22-22.42,7.06-40.54-.61-17.66-7.53-34.09-6.6-45,2.46-.92.77-1.08,2.3-.31,3.23.77.92,2.3,1.08,3.22.31Z"/>
</svg>