<svg width="664" height="420" viewBox="0 0 664 420" fill="none" xmlns="http://www.w3.org/2000/svg">
<path d="M576.16 348.122C576.16 348.122 539.92 326.826 526.59 318.402C523.66 316.546 520.89 314.801 518.35 313.197C505.58 305.106 497.41 294.796 494.08 282.549C491.51 273.086 492.26 264.431 493.35 257.742L493.19 257.702C496.04 244.719 497.48 231.332 497.48 217.914C497.48 116.801 415.94 34.542 315.71 34.542C262.79 34.542 213.08 57.8456 178.93 97.139C177.96 98.3193 176.63 99.9334 174.99 101.951C173.2 104.191 171 106.894 168.72 110.092C168.43 110.496 168.15 110.899 167.87 111.313C167.58 111.726 167.32 112.15 167.04 112.584L166.94 112.745L166.89 112.816L166.84 112.907C166.77 113.018 166.7 113.139 166.63 113.25C166.49 113.482 166.35 113.714 166.2 113.946C165.92 114.41 165.63 114.884 165.35 115.358C164.18 117.295 162.91 119.383 161.34 121.472C160.97 121.966 160.58 122.46 160.17 122.944C159.08 124.76 158.02 126.596 156.99 128.453L156.45 129.411L156.38 129.371C153.02 133.91 142.3 142.969 141.03 144.029L140.96 144.089L140.88 144.14C132.46 149.739 125.25 159.534 120.01 172.457C114.6 185.804 111.74 201.521 111.74 217.894C111.74 234.267 114.68 250.418 120.23 263.886C125.61 276.93 133 286.695 141.59 292.123L141.69 292.183L141.78 292.264C143.02 293.303 153.59 302.231 156.5 306.569L156.53 306.549C188.58 364.979 249.56 401.267 315.69 401.267C316.38 401.267 317.08 401.266 317.77 401.256C318.02 401.236 318.27 401.206 318.5 401.196C319.55 401.125 320.37 401.095 320.94 401.085C321.22 401.085 321.44 401.085 321.59 401.085C321.75 401.085 321.83 401.085 321.83 401.085V401.166C364.69 399.723 405.53 383.128 437.45 354.064C437.6 353.893 437.79 353.721 438.03 353.56L438.06 353.6C438.47 353.388 438.9 353.166 439.33 352.944C443.2 350.927 447.58 348.647 452.99 347.698C459.27 346.589 465.67 347.527 472.57 350.543C486.82 356.788 509.79 379.325 537.38 404.727" fill="#F1F2F2"/>
<path d="M571.95 343.31C557.02 333.676 540.85 323.446 527.58 315.053C524.65 313.207 521.9 311.461 519.37 309.857C493.25 293.323 493.65 271.724 496.22 256.915L496.11 256.885C498.81 244.103 500.18 230.958 500.18 217.773C500.18 192.603 495.29 168.189 485.66 145.199C481.03 134.152 475.29 123.499 468.62 113.532C462.01 103.656 454.42 94.3745 446.05 85.9408C437.69 77.5071 428.48 69.8401 418.7 63.1718C411.59 58.3295 404.13 53.9815 396.43 50.1783C396.43 50.1783 396.42 50.1783 396.41 50.1783C393.41 48.6953 390.37 47.3032 387.3 45.9917C366.26 37.0133 344.01 32.1205 321.07 31.4244C321.02 31.4244 308.97 31.1117 294.62 32.6653C283.95 33.8254 271.23 36.5694 265.3 38.2541C263.84 38.6677 262.39 39.1015 260.94 39.5454L249.47 43.5302C239.42 47.4041 229.71 52.1556 220.46 57.7545C204.65 67.3181 190.39 79.1918 178.12 92.9117L178.03 92.831C178.03 92.831 177.5 93.4666 176.51 94.6166C175.51 95.7868 174.03 97.4917 172.16 99.701C171.23 100.811 170.2 102.041 169.1 103.403C168 104.765 166.82 106.258 165.61 107.923C165.3 108.336 165 108.76 164.7 109.204C164.39 109.638 164.09 110.102 163.78 110.556L163.66 110.727L163.6 110.828L163.55 110.909C163.48 111.02 163.41 111.131 163.33 111.252C163.18 111.484 163.04 111.706 162.89 111.938C162.6 112.412 162.3 112.886 162 113.37C160.82 115.277 159.6 117.234 158.17 119.08C157.47 120.019 156.68 120.896 155.87 121.764C155.66 121.976 155.45 122.177 155.23 122.389C155.12 122.49 155.02 122.601 154.91 122.702C154.8 122.803 154.68 122.904 154.57 122.995C154.34 123.196 154.12 123.398 153.89 123.59C153.65 123.771 153.41 123.963 153.17 124.155C152.7 124.548 152.18 124.871 151.67 125.224L151.48 125.355L151.28 125.476C151.15 125.557 151.01 125.638 150.88 125.718C150.61 125.88 150.35 126.051 150.07 126.203C149.79 126.344 149.51 126.495 149.22 126.636C149.08 126.707 148.94 126.778 148.8 126.858L148.75 126.889C148.75 126.889 148.75 126.889 148.72 126.899L148.6 126.949L148.36 127.06C148.2 127.131 148.04 127.211 147.89 127.272L147.47 127.443L147.26 127.534L147.04 127.615C146.89 127.675 146.74 127.726 146.59 127.786C145.99 127.988 145.39 128.17 144.8 128.311C144.21 128.442 143.62 128.523 143.07 128.533C142.52 128.543 142.02 128.493 141.64 128.351C141.44 128.291 141.29 128.21 141.17 128.129C141.14 128.109 141.1 128.089 141.08 128.069C141.06 128.049 141.03 128.029 141.01 128.008C140.97 127.958 140.93 127.918 140.9 127.867C140.63 127.544 140.54 126.717 141.02 125.617L141.23 125.093L141.43 124.649C141.55 124.367 141.73 124.034 141.88 123.711C142.04 123.388 142.22 123.065 142.39 122.742C142.57 122.42 142.75 122.097 142.93 121.764C143.67 120.462 144.47 119.121 145.26 117.769C146.06 116.407 146.86 115.025 147.65 113.623C148.43 112.21 149.2 110.778 149.94 109.315C150.13 108.952 150.3 108.579 150.49 108.215L150.76 107.661L150.83 107.519L150.91 107.338L151.04 107.065L151.29 106.511L151.54 105.905L151.79 105.3L152.02 104.725C152.63 103.181 153.2 101.648 153.77 100.115C154.34 98.5913 154.92 97.0579 155.49 95.5245C156.65 92.4678 157.83 89.4111 159.08 86.3948C160.33 83.3784 161.64 80.3822 163.01 77.4365C163.69 75.9636 164.41 74.5109 165.12 73.0582C165.49 72.342 165.85 71.6257 166.22 70.9094C166.58 70.1932 166.97 69.487 167.34 68.7808C168.86 65.9663 170.42 63.2021 172.08 60.5388C172.28 60.2059 172.49 59.873 172.69 59.5401C172.9 59.2173 173.11 58.8844 173.32 58.5615C173.74 57.9058 174.16 57.2602 174.59 56.6145C175.46 55.3434 176.31 54.0723 177.22 52.8517C177.44 52.549 177.67 52.2363 177.89 51.9336L178.22 51.4797C178.33 51.3283 178.45 51.177 178.56 51.0358C179.02 50.4406 179.48 49.8454 179.93 49.2603L180.27 48.8164L180.62 48.3826C180.85 48.1001 181.09 47.8076 181.32 47.5251C181.55 47.2426 181.79 46.9602 182.02 46.6777L182.37 46.254L182.73 45.8404C183.21 45.2956 183.69 44.7509 184.16 44.2061L184.52 43.8026C184.64 43.6714 184.76 43.5403 184.89 43.4091C185.14 43.1468 185.38 42.8946 185.62 42.6324C185.86 42.3701 186.11 42.1179 186.35 41.8556C186.59 41.6034 186.83 41.3411 187.08 41.099C187.58 40.6046 188.08 40.1204 188.57 39.6362C188.82 39.3941 189.06 39.1519 189.31 38.9098C189.56 38.6778 189.82 38.4458 190.07 38.2238C190.57 37.7699 191.07 37.3058 191.57 36.8619C191.69 36.751 191.82 36.64 191.95 36.529L192.33 36.2062C192.59 35.9944 192.84 35.7825 193.09 35.5706C193.34 35.3588 193.6 35.1469 193.85 34.9351C194.1 34.7232 194.35 34.5114 194.61 34.3096C195.57 33.5328 196.52 32.7762 197.45 32.0297C197.52 31.9692 197.59 31.9187 197.66 31.8582C198.65 31.0512 199.63 30.2542 200.58 29.4774C204.39 26.3602 207.86 23.4548 210.89 20.8319C211.52 20.277 214.92 17.2203 216.36 15.9088C216.62 15.6667 216.74 15.2834 216.61 14.9505C216.39 14.3754 215.72 14.2039 215.27 14.5469C213.53 15.8685 211.54 17.301 209.37 18.8949C206.14 21.2556 202.51 23.9289 198.58 26.8948C197.6 27.6414 196.6 28.398 195.58 29.1748C194.56 29.9515 193.53 30.7485 192.48 31.5556C192.22 31.7573 191.95 31.9692 191.69 32.181C191.54 32.3021 191.38 32.4332 191.22 32.5543C191.11 32.6451 191 32.7359 190.88 32.8267C190.61 33.0486 190.34 33.2605 190.07 33.4824C189.93 33.5934 189.8 33.7043 189.66 33.8153C189.52 33.9263 189.39 34.0372 189.26 34.1482C188.73 34.6123 188.21 35.0763 187.67 35.5505C187.4 35.7825 187.14 36.0246 186.87 36.2566C186.61 36.4988 186.35 36.751 186.09 36.9931C185.57 37.4874 185.04 37.9918 184.52 38.4962C184.25 38.7484 184 39.0107 183.75 39.273C183.49 39.5353 183.24 39.7976 182.98 40.07C182.72 40.3323 182.46 40.6046 182.21 40.8669C182.08 40.9981 181.95 41.1292 181.82 41.2705L181.44 41.6841C180.94 42.2389 180.43 42.7938 179.93 43.3587L179.55 43.7824L179.18 44.2162C178.93 44.5088 178.69 44.8013 178.44 45.0838C178.19 45.3763 177.95 45.6689 177.7 45.9614L177.33 46.4053L176.97 46.8593C176.49 47.4646 176.01 48.0699 175.53 48.6852L175.17 49.1392L174.82 49.6033C174.59 49.916 174.35 50.2287 174.12 50.5415C173.17 51.7924 172.28 53.0938 171.36 54.3951C170.91 55.0509 170.48 55.7167 170.03 56.3825C169.81 56.7154 169.59 57.0483 169.36 57.3812C169.15 57.7242 168.93 58.0571 168.72 58.4001C166.98 61.1138 165.35 63.9385 163.78 66.8137C163.39 67.54 162.99 68.2563 162.61 68.9826C162.23 69.709 161.85 70.4454 161.47 71.1818C160.73 72.6547 159.99 74.1377 159.28 75.6408C157.86 78.637 156.5 81.6735 155.21 84.7403C153.92 87.8071 152.69 90.8941 151.51 93.971C150.93 95.5144 150.35 97.0478 149.77 98.5812C149.2 100.105 148.63 101.628 148.04 103.101L147.82 103.656L147.6 104.17L147.38 104.685L147.13 105.239L147 105.512L146.97 105.582L146.96 105.613L146.89 105.744L146.69 106.147C142.1 109.971 132.22 114.944 119.8 117.729C108.07 120.351 89.66 122.046 68.55 115.156C66.64 114.531 65.37 117.123 67.02 118.273C76.28 124.71 88.39 129.259 101.14 131.085C105.17 131.66 109.14 131.943 113.01 131.943C121.39 131.943 129.33 130.601 136.47 127.968C136.51 128.21 136.56 128.462 136.63 128.704C136.8 129.29 137.08 129.865 137.45 130.369C137.63 130.621 137.84 130.853 138.06 131.075C138.17 131.176 138.29 131.277 138.4 131.378C138.52 131.479 138.64 131.559 138.76 131.64C139.25 131.973 139.76 132.215 140.26 132.377C141.27 132.709 142.23 132.78 143.13 132.76C144.03 132.73 144.86 132.609 145.66 132.427C146.46 132.245 147.21 132.013 147.94 131.751C148.12 131.68 148.3 131.61 148.48 131.549L148.75 131.448L149.02 131.337C149.2 131.257 149.38 131.186 149.56 131.105C149.73 131.035 149.88 130.954 150.04 130.884L150.28 130.773L150.4 130.722C150.4 130.722 150.5 130.672 150.49 130.682L150.55 130.651C150.62 130.611 150.69 130.581 150.76 130.541C147.08 134.283 141.5 139.136 138.93 141.294C129.98 147.287 122.36 157.587 116.89 171.095C111.33 184.835 108.39 200.966 108.39 217.753C108.39 234.539 111.41 251.124 117.13 264.985C122.76 278.625 130.56 288.904 139.71 294.725C141.84 296.521 146.11 300.243 149.46 303.522C148.65 303.179 147.78 302.886 146.87 302.685C146.65 302.644 146.43 302.604 146.21 302.554C146.1 302.533 145.99 302.513 145.88 302.493L145.71 302.463C145.71 302.463 145.74 302.463 145.61 302.453H145.57L145.5 302.443C145.4 302.433 145.3 302.422 145.2 302.402L145.05 302.382H144.85C144.58 302.352 144.29 302.332 144.03 302.342H143.94C143.74 302.362 143.41 302.382 143.2 302.392L142.99 302.412C142.92 302.422 142.84 302.443 142.77 302.453C142.62 302.483 142.48 302.513 142.33 302.543C141.73 302.705 141.11 302.957 140.53 303.361C139.95 303.764 139.46 304.309 139.09 304.894L138.96 305.116L138.9 305.227L138.85 305.338C138.78 305.489 138.71 305.641 138.64 305.792C138.56 306.014 138.47 306.246 138.41 306.468C130.53 302.11 122.32 299.376 113.97 298.337C106.05 297.348 98.03 297.883 90.14 299.921C76.44 303.451 65.42 311.018 60.58 316.939L60.23 317.363L59.92 317.746C58.71 319.229 60.59 321.227 62.12 320.097L62.95 319.481C84.97 303.108 124.42 308.758 140.78 320.48L141.39 321.257L141.54 321.61C141.59 321.731 141.64 321.862 141.68 321.973L141.92 322.599C142.01 322.821 142.09 323.083 142.18 323.325C142.35 323.799 142.5 324.283 142.65 324.768C142.95 325.746 143.24 326.745 143.51 327.764C144.06 329.802 144.57 331.92 145.11 334.079C145.64 336.238 146.19 338.427 146.79 340.636C147.98 345.055 149.38 349.534 151.15 353.872C152.9 358.22 154.99 362.437 157.34 366.402C157.64 366.896 157.94 367.38 158.24 367.874L158.47 368.248L158.7 368.601C158.85 368.833 159 369.075 159.15 369.307C159.75 370.255 160.35 371.193 160.94 372.121C161.54 373.06 162.14 373.988 162.73 374.906C163.33 375.824 163.93 376.732 164.52 377.63C166.9 381.231 169.26 384.681 171.59 387.879C172.75 389.473 173.91 390.996 175.05 392.459C175.42 392.933 176.1 393.085 176.6 392.752C177.17 392.378 177.29 391.632 176.92 391.107C175.87 389.594 174.81 388.01 173.73 386.366C171.58 383.087 169.39 379.567 167.16 375.915C166.6 374.997 166.04 374.079 165.48 373.14C164.92 372.212 164.35 371.264 163.78 370.326C162.65 368.429 161.47 366.492 160.38 364.596C158.2 360.742 156.28 356.666 154.67 352.46C153.07 348.253 151.75 343.925 150.63 339.597C150.07 337.428 149.55 335.259 149.04 333.111C148.53 330.952 148.01 328.813 147.45 326.695C147.17 325.635 146.87 324.576 146.54 323.537C146.37 323.012 146.21 322.498 146.03 321.973C145.92 321.661 145.83 321.358 145.69 321.025L145.5 320.5C145.44 320.319 145.38 320.178 145.32 320.036L145.17 319.683C145.07 319.441 144.97 319.189 144.87 318.947C144.77 318.715 144.68 318.493 144.58 318.261C144.49 318.029 144.4 317.807 144.31 317.575C143.95 316.667 143.62 315.769 143.32 314.871C143.03 313.983 142.77 313.106 142.56 312.248C142.36 311.391 142.21 310.553 142.14 309.767C142.08 308.99 142.1 308.243 142.24 307.699C142.27 307.557 142.32 307.446 142.35 307.325C142.38 307.275 142.4 307.224 142.42 307.174L142.44 307.134L142.46 307.103C142.46 307.103 142.49 307.063 142.5 307.043C142.6 306.881 142.69 306.77 142.82 306.68C142.95 306.589 143.11 306.508 143.32 306.448C143.38 306.438 143.44 306.427 143.49 306.407C143.52 306.407 143.55 306.397 143.58 306.387H143.68L143.88 306.347H144.09C144.24 306.327 144.36 306.347 144.49 306.347C144.52 306.347 144.55 306.347 144.59 306.347L144.74 306.367C144.84 306.377 144.94 306.387 145.04 306.397H145.11L145.24 306.417C145.32 306.427 145.41 306.448 145.49 306.458C145.66 306.488 145.83 306.518 145.99 306.548C147.3 306.821 148.47 307.305 149.51 307.92C150.55 308.536 151.46 309.282 152.28 310.039C152.7 310.412 153.07 310.806 153.45 311.179C153.63 311.371 153.81 311.562 153.98 311.744C154.07 311.835 154.15 311.925 154.24 312.016C154.32 312.107 154.41 312.198 154.49 312.289C155.79 313.731 156.81 314.942 157.51 315.759C158.21 316.576 158.59 317.01 158.59 317.01L158.75 316.869C174.17 341.595 195.2 362.447 220.08 377.559C229.63 383.36 239.66 388.263 250.05 392.217C257.8 394.991 258.13 395.133 260.88 395.96C262.27 396.394 263.66 396.807 265.06 397.201C278.98 401.155 293.36 403.445 307.91 404.02C314.32 404.01 317.95 404.172 319.98 404.111C341.68 403.566 362.82 399.269 382.91 391.299C403.63 383.077 422.54 371.254 439.14 356.122C439.5 355.94 439.86 355.748 440.23 355.557C447.82 351.612 456.41 347.133 470.4 353.257C481.25 358.008 498.35 372.313 518.53 390.522C523.46 394.971 529.53 400.237 534.79 405.079C535.5 405.735 536.6 405.685 537.25 404.968C537.9 404.252 537.85 403.143 537.14 402.487C510.16 377.66 485.79 356.172 471.79 350.039C464.91 347.022 458.52 346.094 452.26 347.204C446.87 348.152 442.49 350.432 438.63 352.439C438.2 352.661 437.77 352.883 437.36 353.095L437.33 353.055C437.09 353.216 436.9 353.388 436.75 353.559C404.91 382.553 364.17 399.107 321.41 400.55V400.469C321.41 400.469 321.33 400.469 321.17 400.469C321.02 400.469 320.81 400.469 320.52 400.469C319.96 400.469 319.13 400.499 318.09 400.58C317.86 400.6 317.62 400.621 317.37 400.641C316.68 400.641 315.99 400.651 315.3 400.651C249.34 400.651 188.5 364.444 156.53 306.155L156.5 306.175C153.6 301.847 143.05 292.94 141.82 291.911L141.73 291.83L141.63 291.769C133.06 286.352 125.69 276.617 120.32 263.603C114.78 250.166 111.85 234.297 111.85 217.722C111.85 201.147 114.7 185.713 120.1 172.396C125.32 159.504 132.52 149.728 140.92 144.139L141 144.089L141.07 144.028C142.34 142.959 153.03 133.94 156.38 129.401L156.45 129.441L156.99 128.493C158.02 126.636 159.08 124.8 160.17 122.995C160.58 122.51 160.97 122.016 161.33 121.522C162.9 119.444 164.16 117.355 165.33 115.428C165.62 114.954 165.9 114.48 166.18 114.016C166.32 113.784 166.46 113.552 166.61 113.32C166.68 113.209 166.75 113.088 166.82 112.977L166.87 112.896L166.92 112.826L167.02 112.664C167.3 112.231 167.56 111.807 167.85 111.393C168.13 110.98 168.41 110.566 168.69 110.173C170.96 106.975 173.15 104.281 174.94 102.052C176.57 100.044 177.9 98.4299 178.87 97.2496C212.94 58.0471 262.52 34.8039 315.32 34.8039C415.31 34.8039 496.65 116.871 496.65 217.732C496.65 231.119 495.21 244.476 492.37 257.429L492.53 257.47C491.44 264.148 490.7 272.783 493.26 282.216C496.58 294.433 504.72 304.712 517.47 312.783C520 314.387 522.76 316.132 525.69 317.978C538.98 326.382 555.2 336.641 570.14 346.286C571.34 347.063 572.53 347.829 573.71 348.596C574.52 349.12 575.6 348.888 576.12 348.071C576.64 347.254 576.41 346.165 575.6 345.64C574.38 344.853 573.15 344.056 571.92 343.259L571.95 343.31Z" fill="black"/>
<path d="M315.79 45.1445C247.24 45.1445 185.44 86.1932 158.34 149.718C157.55 151.988 156.86 154.278 156.27 156.598C156.15 157.405 156.01 158.031 155.94 158.354L155.84 158.334C153.85 166.707 152.9 175.393 151.92 184.452C151.67 186.802 151.4 189.224 151.12 191.635C150.69 195.438 151.51 197.385 152.42 197.93C153 198.273 153.58 198.02 153.96 197.748C155.34 196.78 156.14 192.865 156.32 190.626V190.555C157 186.197 157.52 181.879 158.02 177.703C159.1 168.644 160.13 160.099 162.6 151.696L163.54 151.978L162.64 151.585C168.97 136.745 177.39 122.914 187.68 110.455C190.25 107.338 192.94 104.322 195.72 101.406C196.61 100.397 197.54 99.3784 198.52 98.3696L198.61 98.4604C206.1 90.9851 214.27 84.2361 223.04 78.3043C250.5 59.7118 282.58 49.886 315.79 49.886C338.29 49.886 360.11 54.3348 380.66 63.1014C390.53 67.3183 400.06 72.5339 408.97 78.5968C417.79 84.6094 426.09 91.5198 433.63 99.1262C441.17 106.733 448.02 115.106 453.98 124.004C460 132.992 465.17 142.596 469.34 152.563C478.03 173.294 482.44 195.307 482.44 218.005C482.44 230.908 480.99 243.74 478.12 256.199H478.18C476.08 264.703 475.35 271.472 476.08 275.78C476.78 279.896 478.85 283.992 481.1 287.27C479.14 280.067 479.27 271.462 481.56 261.838C485.25 247.604 487.12 232.855 487.12 218.005C487.12 122.702 410.26 45.1647 315.79 45.1647V45.1445Z" fill="#F1F2F2"/>
<path d="M154.09 278.746C151.96 270.06 150.99 261.092 149.97 251.74C149.72 249.399 149.45 246.978 149.17 244.577C148.71 240.481 149.52 237.485 151.42 236.345C152.54 235.669 153.92 235.77 155.1 236.608C155.64 236.991 156.1 237.566 156.48 238.242C156.11 236.355 155.84 234.6 155.62 233.087C155.5 232.27 155.4 231.543 155.3 230.867C154.49 225.309 154.32 224.159 154.32 217.995C154.32 211.831 154.49 210.681 155.3 205.122C155.4 204.457 155.51 203.72 155.62 202.903C155.84 201.38 156.12 199.635 156.48 197.748C156.1 198.424 155.65 198.999 155.11 199.382C154.45 199.846 153.73 200.088 153.03 200.088C152.47 200.088 151.93 199.937 151.44 199.645C149.55 198.505 148.73 195.508 149.19 191.413C149.47 189.012 149.73 186.591 149.99 184.24C150.98 175.12 151.93 166.374 153.95 157.89L153.61 157.809C154.37 154.53 154.4 150.495 152.93 149.466C151.88 148.73 149.72 149.385 146.84 151.322C146.75 151.383 146.66 151.443 146.57 151.504L146.54 151.464C139.22 156.064 132.66 164.871 128.03 176.321C123.12 188.467 120.52 202.873 120.52 217.985C120.52 233.097 123.16 247.735 128.15 259.941C132.83 271.402 139.45 280.168 146.82 284.678L146.84 284.647C149.83 286.665 152.08 287.351 153.17 286.584C154.59 285.596 154.6 281.823 153.89 278.786L154.11 278.736L154.09 278.746Z" fill="white"/>
<path d="M187.19 324.909C177.07 312.531 168.78 298.811 162.54 284.122L162.49 284.143C162.45 284.001 162.41 283.87 162.37 283.729C162.32 283.618 162.28 283.517 162.23 283.406L162.27 283.386C159.99 275.336 159.04 267.184 158.04 258.569C157.54 254.302 157.03 249.893 156.34 245.424V245.354C156.15 243.114 155.34 239.2 153.97 238.231C153.58 237.959 153 237.707 152.43 238.05C151.52 238.595 150.7 240.542 151.13 244.345C151.41 246.746 151.67 249.177 151.93 251.528C152.94 260.819 153.9 269.717 156.01 278.302L156.23 278.251C156.33 278.665 156.53 279.603 156.65 280.773C157.15 282.609 157.72 284.435 158.35 286.251C185.46 349.847 247.06 390.835 315.8 390.835C363.48 390.835 409.38 370.548 441.74 335.189L441.8 335.249C446.24 330.215 451.14 327.703 456.6 327.703C444.16 324.263 437.36 332.344 433.35 337.105C433.24 337.237 433.14 337.358 433.03 337.479L433.01 337.499C432.59 337.993 432.21 338.437 431.85 338.82L431.75 338.73C416.76 353.388 399.45 364.929 380.26 373.06C359.83 381.715 338.14 386.104 315.8 386.104C282.4 386.104 250.18 376.177 222.62 357.383C209.33 348.323 197.42 337.398 187.2 324.909H187.19Z" fill="#F1F2F2"/>
<path d="M179.13 262.988C179.15 263.16 179.16 263.341 179.17 263.533C179.2 263.997 179.21 264.532 179.21 265.107C179.21 265.389 179.21 265.692 179.19 265.995C179.19 266.297 179.16 266.6 179.15 266.902C179.13 267.205 179.11 267.508 179.08 267.81C179.05 268.113 179.02 268.406 178.99 268.688C178.92 269.253 178.84 269.788 178.75 270.242C178.67 270.696 178.58 271.069 178.51 271.341C178.51 271.372 178.5 271.392 178.49 271.412C178.9 271.513 179.3 271.634 179.69 271.785C179.88 271.866 180.08 271.947 180.26 272.027C180.88 269.878 182.45 264.411 183.58 260.729C182.22 261.798 180.73 262.544 179.12 262.978L179.13 262.988Z" fill="#F1F2F2"/>
<path d="M160.38 251.185C159.62 249.501 158.98 247.765 158.43 246.03C159.06 250.217 159.54 254.333 160 258.328C161 266.943 161.95 275.084 164.23 283.054C164.59 283.911 164.96 284.769 165.33 285.616L165.45 285.535C165.6 285.768 165.74 285.949 165.85 286.11C165.88 285.798 165.88 285.344 165.88 284.819C165.88 282.196 165.89 277.304 169.8 273.601C170.04 273.369 170.3 273.157 170.56 272.956C169.91 271.14 167.85 265.672 163.49 256.663C162.35 255.1 161.31 253.274 160.37 251.175L160.38 251.185Z" fill="#F1F2F2"/>
<path d="M567.9 359.34L567.55 359.884C557.96 353.67 549.94 348.374 543.03 343.683C527.42 333.1 515.45 324.445 506.44 317.222C496.25 309.04 489.39 302.362 485.48 296.773C484.58 295.492 483.79 294.12 483.1 292.677L483.01 292.768C479.45 289.025 475.25 282.67 474.14 276.082C473.32 271.21 474.32 264.42 475.56 258.761L475.48 258.741C478.79 245.485 480.47 231.775 480.47 217.974C480.47 126.374 406.59 51.8428 315.79 51.8428C284.43 51.8428 254.54 60.7809 229.01 76.7403C230.81 76.4276 232.77 76.3469 235 76.5487C241.47 77.1539 242.35 76.9925 246.25 75.3885L246.27 75.449C256.81 70.2032 267.95 66.168 279.37 63.4341C291.23 60.5993 303.48 59.1668 315.79 59.1668C336.58 59.1668 356.78 63.1919 375.82 71.1212C394.22 78.7882 410.84 89.7843 425.21 103.807C439.56 117.809 451 134.172 459.22 152.432C467.62 171.105 472.28 191.009 473.08 211.609C473.32 212.991 474.73 214.575 477.06 216.058C477.94 216.623 478.36 217.722 477.99 218.792C477.84 219.235 477.53 219.619 477.14 219.881C475.6 220.95 473.66 222.635 473.07 224.633C472.38 241.46 469.12 257.823 463.35 273.419C462.56 277.303 463.99 283.336 467.31 289.731C471.86 298.508 479.48 307.154 488.75 314.064C501.89 323.86 534.74 347.93 561.9 367.794L561.65 368.147C561.65 368.147 561.72 368.197 561.75 368.217L567.97 359.37C567.97 359.37 567.92 359.34 567.89 359.33L567.9 359.34Z" fill="#66CCFF"/>
<path d="M550.46 383.228L550.57 383.107C528.69 365.039 511.03 346.881 499.99 338.195C476.42 319.663 462.29 313.469 449.58 316.092C438.56 318.362 435.65 321.459 430.82 326.573C429.92 327.522 429 328.51 427.93 329.58L427.86 329.509C426.9 330.487 425.94 331.456 424.95 332.404C410.59 346.346 394 357.282 375.65 364.898C356.65 372.787 336.51 376.782 315.79 376.782C303.41 376.782 291.08 375.329 279.15 372.454C267.58 369.67 256.31 365.544 245.65 360.187C242.24 358.815 241.13 358.694 235 359.269C232.62 359.491 230.53 359.38 228.63 359.007C254.22 375.087 284.23 384.096 315.79 384.096C359.42 384.096 400.53 367.057 431.56 336.117C431.65 336.006 431.74 335.895 431.84 335.784C436.8 329.892 447.13 317.625 467.43 330.548C476.09 334.876 517.09 362.649 547.19 388.757L546.86 389.15C546.86 389.15 546.93 389.201 546.97 389.231L550.87 383.692C550.82 383.652 550.52 383.259 550.47 383.218L550.46 383.228Z" fill="#66CCFF"/>
<path d="M165.85 149.536C165.74 149.688 165.6 149.879 165.45 150.111C165.12 150.838 164.8 151.574 164.49 152.311C162.08 160.533 161.07 168.986 160 177.935C159.53 181.839 159.05 185.854 158.44 189.929C158.99 188.194 159.63 186.459 160.39 184.774C161.2 182.969 162.08 181.375 163.04 179.962H163.01C167.69 170.389 169.89 164.578 170.57 162.661C170.31 162.469 170.06 162.258 169.82 162.036C165.92 158.333 165.91 153.451 165.9 150.818C165.9 150.303 165.9 149.839 165.87 149.526L165.85 149.536Z" fill="#F1F2F2"/>
<path d="M170.73 172.709C170.76 172.427 170.82 172.034 170.91 171.57C171 171.105 171.12 170.561 171.26 169.986C171.33 169.703 171.41 169.401 171.5 169.108C171.58 168.805 171.68 168.513 171.77 168.21C171.87 167.908 171.96 167.615 172.07 167.322C172.17 167.03 172.27 166.747 172.38 166.465C172.59 165.91 172.8 165.406 173 164.972C173.16 164.629 173.3 164.326 173.42 164.094C172.84 163.923 172.28 163.691 171.74 163.408C171.08 165.234 169.44 169.501 166.35 176.119C169.21 173.587 172.52 172.387 176.28 172.548C177.16 172.588 178 172.699 178.82 172.901C178.77 172.679 178.71 172.407 178.65 172.104C178.57 171.65 178.48 171.116 178.41 170.551C178.38 170.268 178.34 169.976 178.32 169.673C178.29 169.37 178.27 169.068 178.25 168.765C178.23 168.462 178.22 168.16 178.21 167.857C178.2 167.554 178.19 167.262 178.19 166.969C178.19 166.394 178.2 165.86 178.23 165.396C178.26 164.932 178.3 164.548 178.33 164.276C177.63 164.427 176.92 164.508 176.21 164.508C176.15 164.508 176.09 164.508 176.03 164.508C176.03 164.508 176.03 164.518 176.03 164.528C176.06 164.76 176.1 165.083 176.12 165.476C176.14 165.87 176.15 166.324 176.14 166.808C176.14 167.05 176.13 167.302 176.11 167.554C176.1 167.807 176.07 168.069 176.05 168.321C176.02 168.573 176 168.836 175.97 169.088C175.94 169.34 175.9 169.592 175.86 169.824C175.78 170.308 175.69 170.752 175.6 171.126C175.51 171.509 175.42 171.822 175.34 172.044C175.31 172.155 175.27 172.235 175.25 172.296C175.23 172.356 175.22 172.387 175.22 172.387C175.22 172.387 175.22 172.356 175.2 172.296C175.2 172.235 175.17 172.145 175.16 172.034C175.13 171.802 175.09 171.479 175.07 171.085C175.05 170.692 175.04 170.238 175.05 169.754C175.05 169.512 175.06 169.259 175.08 169.007C175.09 168.755 175.12 168.493 175.14 168.24C175.17 167.988 175.19 167.726 175.22 167.474C175.25 167.222 175.29 166.969 175.33 166.737C175.41 166.253 175.5 165.809 175.59 165.436C175.68 165.053 175.77 164.74 175.85 164.518C175.1 164.488 174.36 164.377 173.64 164.185C173.61 164.447 173.55 164.77 173.48 165.153C173.39 165.618 173.27 166.162 173.13 166.737C173.06 167.02 172.98 167.322 172.89 167.615C172.81 167.918 172.71 168.21 172.62 168.513C172.52 168.815 172.43 169.108 172.33 169.401C172.23 169.693 172.13 169.976 172.02 170.258C171.81 170.813 171.6 171.317 171.4 171.751C171.2 172.185 171.03 172.538 170.89 172.79C170.83 172.911 170.77 173.012 170.73 173.073C170.69 173.133 170.67 173.174 170.67 173.174C170.67 173.174 170.67 173.133 170.67 173.063C170.67 172.992 170.69 172.881 170.7 172.74L170.73 172.709Z" fill="#F1F2F2"/>
<path d="M186.36 115.197C178.78 124.912 172.21 135.575 166.84 147.045C167.55 147.448 167.69 148.488 167.79 149.133C167.85 149.577 167.85 150.132 167.86 150.818C167.86 153.31 167.87 157.476 171.16 160.593C173.16 162.49 176.31 163.055 179 162.006C181.39 161.078 182.87 159.1 183.07 156.578C183.28 153.905 183.04 150.858 182.76 147.337C182.35 142.142 181.84 135.676 182.66 127.817C183.1 123.64 184.34 119.424 186.37 115.187L186.36 115.197Z" fill="#F1F2F2"/>
<path d="M183.06 279.058C182.86 276.536 181.38 274.559 178.99 273.631C176.3 272.582 173.15 273.157 171.15 275.043C167.86 278.16 167.86 282.327 167.85 284.818C167.85 285.515 167.85 286.059 167.78 286.503C167.68 287.189 167.52 288.299 166.71 288.652C172.22 300.475 178.99 311.431 186.82 321.388C184.51 316.838 183.11 312.299 182.64 307.809C181.82 299.951 182.33 293.484 182.74 288.289C183.02 284.768 183.26 281.721 183.05 279.048L183.06 279.058Z" fill="#F1F2F2"/>
<path d="M179.09 172.972C180.77 173.415 182.32 174.212 183.73 175.342C182.61 171.7 180.93 165.88 180.28 163.6C180.09 163.69 179.9 163.771 179.7 163.852C179.31 164.003 178.91 164.124 178.51 164.225C178.51 164.235 178.51 164.245 178.51 164.255C178.58 164.518 178.67 164.901 178.75 165.355C178.83 165.809 178.92 166.344 178.99 166.909C179.02 167.191 179.06 167.484 179.08 167.786C179.11 168.089 179.13 168.391 179.15 168.694C179.17 168.997 179.18 169.299 179.19 169.602C179.2 169.905 179.21 170.197 179.21 170.49C179.21 171.065 179.2 171.6 179.17 172.064C179.15 172.417 179.12 172.719 179.09 172.972Z" fill="#F1F2F2"/>
<path d="M175.17 263.573C175.17 263.523 175.18 263.472 175.19 263.432C173.63 263.392 172.16 263.099 170.76 262.564C170.8 262.625 170.85 262.716 170.91 262.837C171.04 263.079 171.22 263.442 171.42 263.876C171.62 264.31 171.83 264.814 172.04 265.369C172.14 265.641 172.25 265.934 172.35 266.226C172.45 266.519 172.55 266.822 172.64 267.114C172.73 267.417 172.83 267.72 172.91 268.012C173 268.315 173.07 268.607 173.15 268.89C173.3 269.465 173.41 269.999 173.5 270.474C173.58 270.867 173.63 271.21 173.66 271.482C174.38 271.291 175.13 271.17 175.88 271.149C175.88 271.129 175.88 271.119 175.87 271.099C175.8 270.877 175.7 270.564 175.61 270.181C175.52 269.798 175.43 269.354 175.35 268.88C175.31 268.638 175.27 268.395 175.24 268.143C175.21 267.891 175.18 267.629 175.16 267.377C175.14 267.114 175.12 266.862 175.1 266.61C175.08 266.358 175.08 266.105 175.07 265.863C175.06 265.379 175.07 264.925 175.09 264.532C175.11 264.138 175.14 263.815 175.18 263.583L175.17 263.573Z" fill="#F1F2F2"/>
<path d="M178.25 266.842C178.27 266.539 178.29 266.236 178.32 265.934C178.35 265.631 178.38 265.339 178.41 265.056C178.48 264.491 178.56 263.956 178.65 263.502C178.68 263.361 178.7 263.22 178.73 263.089C177.94 263.27 177.12 263.381 176.28 263.422C176.06 263.422 175.84 263.432 175.62 263.432C175.52 263.432 175.41 263.432 175.31 263.432C175.32 263.472 175.34 263.513 175.35 263.563C175.42 263.785 175.52 264.098 175.61 264.481C175.7 264.864 175.79 265.308 175.87 265.782C175.91 266.025 175.95 266.267 175.98 266.519C176.01 266.771 176.04 267.033 176.06 267.286C176.08 267.548 176.1 267.8 176.12 268.052C176.14 268.304 176.15 268.557 176.15 268.799C176.16 269.283 176.15 269.737 176.13 270.13C176.11 270.524 176.08 270.847 176.04 271.079C176.04 271.099 176.04 271.119 176.04 271.139C176.81 271.129 177.59 271.2 178.35 271.371C178.35 271.351 178.35 271.341 178.35 271.321C178.31 271.048 178.27 270.665 178.25 270.201C178.22 269.737 178.21 269.202 178.21 268.627C178.21 268.345 178.21 268.042 178.23 267.739C178.23 267.437 178.26 267.134 178.27 266.832L178.25 266.842Z" fill="#F1F2F2"/>
<path d="M170.7 262.564C170.7 262.564 170.7 262.554 170.7 262.544C169.26 261.989 167.9 261.172 166.63 260.103C169.56 266.408 171.12 270.483 171.75 272.229C172.29 271.946 172.85 271.714 173.43 271.543C173.31 271.311 173.15 270.998 172.99 270.635C172.79 270.201 172.58 269.696 172.37 269.142C172.27 268.869 172.16 268.577 172.06 268.284C171.96 267.991 171.86 267.689 171.76 267.396C171.67 267.094 171.57 266.791 171.49 266.498C171.4 266.206 171.33 265.903 171.25 265.621C171.1 265.046 170.99 264.511 170.9 264.037C170.81 263.573 170.75 263.179 170.72 262.897C170.7 262.756 170.69 262.645 170.69 262.574L170.7 262.564Z" fill="#F1F2F2"/>
<path d="M563.3 365.847C536.14 345.973 503.52 322.276 490.39 312.481C481.12 305.57 471.88 298.509 467.32 289.732C464 283.336 462.57 277.303 463.36 273.419C468.57 259.387 472.37 241.51 473.08 224.633C473.67 222.636 475.62 220.951 477.15 219.881C477.78 219.448 478.14 218.721 478.13 217.955C478.11 217.178 477.72 216.472 477.07 216.058C474.74 214.575 473.33 212.991 473.09 211.609C472.29 191.009 467.62 171.105 459.23 152.432C451.02 134.162 439.57 117.81 425.22 103.807C410.85 89.7847 394.23 78.7886 375.83 71.1216C356.78 63.1923 336.58 59.1671 315.8 59.1671C303.5 59.1671 291.24 60.5996 279.38 63.4344C267.96 66.1683 256.82 70.2036 246.28 75.4494L246.26 75.3889C242.36 76.9929 241.49 77.1543 235.01 76.549C232.78 76.3372 230.82 76.4179 229.02 76.7407C254.55 60.7812 284.44 51.8431 315.8 51.8431C406.6 51.8431 480.48 126.374 480.48 217.975C480.48 231.775 478.8 245.485 475.49 258.741L475.57 258.761C474.33 264.431 473.33 271.22 474.15 276.083C475.26 282.67 479.47 289.016 483.02 292.768L483.11 292.678C483.8 294.12 484.59 295.482 485.49 296.773C489.4 302.352 496.25 309.041 506.45 317.222C515.46 324.445 527.43 333.111 543.04 343.683C549.95 348.364 556.88 354.336 566.46 360.551L567.52 358.886C557.95 352.682 551.03 346.72 544.13 342.039C511.84 320.148 494.25 305.843 487.1 295.633C481.48 287.613 480.21 276.153 483.43 262.484C487.19 248.038 489.09 233.067 489.09 217.985C489.09 194.389 484.51 171.489 475.47 149.94C471.13 139.58 465.75 129.593 459.49 120.241C453.29 110.98 446.17 102.284 438.33 94.3647C430.49 86.4556 421.86 79.2728 412.68 73.0182C403.42 66.703 393.51 61.2856 383.24 56.8973C361.87 47.7776 339.18 43.1572 315.79 43.1572C281.25 43.1572 247.89 53.3765 219.33 72.7256C205.56 82.047 193.19 93.3054 182.56 106.178C171.86 119.141 163.1 133.537 156.52 148.962L157.42 149.355L156.49 149.022C156.35 149.406 156.22 149.799 156.09 150.182C155.76 149.063 155.19 148.084 154.27 147.449C152.29 146.056 149.45 146.631 145.61 149.184L145.59 149.153C129.13 159.181 118.07 186.843 118.07 217.975C118.07 233.531 120.77 248.36 125.88 260.86C128.35 266.902 131.31 272.209 134.69 276.637C138.14 281.157 141.94 284.657 146 287.038C148.4 288.562 150.4 289.328 152.04 289.328C152.98 289.328 153.79 289.076 154.5 288.582C155.31 288.017 155.85 287.19 156.19 286.251C162.63 301.545 171.2 315.84 181.69 328.743C192.31 341.807 204.72 353.247 218.57 362.73C247.3 382.402 280.91 392.792 315.77 392.792C328.14 392.792 340.49 391.471 352.47 388.868C364.14 386.326 375.58 382.553 386.48 377.63C397.18 372.798 407.44 366.836 416.98 359.905C426.3 353.126 434.99 345.388 442.81 336.884L442.88 336.944C449.57 329.096 457.07 327.623 466.49 332.304C474.98 336.531 515.4 362.77 545.44 388.818L546.72 387.315C516.62 361.206 476.06 334.886 467.4 330.548C447.1 317.636 436.77 329.893 431.81 335.784C431.71 335.895 431.62 336.006 431.53 336.117C400.5 367.058 359.4 384.096 315.76 384.096C284.21 384.096 254.19 375.088 228.6 359.007C230.5 359.38 232.58 359.491 234.97 359.269C241.1 358.694 242.22 358.816 245.62 360.187C256.28 365.544 267.55 369.68 279.12 372.455C291.05 375.32 303.38 376.782 315.76 376.782C336.48 376.782 356.62 372.788 375.62 364.899C393.97 357.282 410.56 346.347 424.92 332.405C425.9 331.446 426.87 330.478 427.83 329.509L427.9 329.58C428.96 328.511 429.89 327.522 430.79 326.574C435.61 321.449 438.53 318.362 449.55 316.092C462.26 313.469 472.82 323.951 496.39 342.473C507.44 351.159 529.4 364.858 551.28 382.926L563.28 365.847H563.3ZM153.15 286.594C152.06 287.351 149.81 286.665 146.82 284.658L146.8 284.688C139.43 280.168 132.81 271.412 128.13 259.952C123.14 247.745 120.5 233.238 120.5 217.995C120.5 202.752 123.1 188.477 128.01 176.331C132.64 164.881 139.21 156.074 146.52 151.474L146.55 151.514C146.64 151.454 146.73 151.393 146.82 151.332C149.7 149.396 151.86 148.74 152.91 149.476C154.37 150.505 154.35 154.541 153.59 157.819L153.93 157.9C151.91 166.384 150.96 175.13 149.97 184.25C149.72 186.591 149.45 189.012 149.17 191.423C148.71 195.519 149.53 198.515 151.42 199.655C151.91 199.947 152.46 200.099 153.01 200.099C153.71 200.099 154.43 199.867 155.09 199.392C155.63 199.009 156.09 198.434 156.46 197.758C156.09 199.645 155.82 201.4 155.6 202.913C155.48 203.73 155.38 204.457 155.28 205.133C154.47 210.691 154.3 211.841 154.3 218.005C154.3 224.169 154.47 225.319 155.28 230.878C155.38 231.543 155.49 232.28 155.6 233.097C155.82 234.62 156.1 236.366 156.46 238.252C156.08 237.576 155.63 237.001 155.08 236.618C153.9 235.78 152.52 235.69 151.4 236.355C149.51 237.495 148.69 240.492 149.15 244.587C149.43 246.988 149.69 249.409 149.95 251.75C150.96 261.112 151.94 270.07 154.07 278.756L153.85 278.806C154.56 281.843 154.55 285.616 153.13 286.605L153.15 286.594ZM182.76 147.338C183.04 150.858 183.28 153.905 183.07 156.578C182.87 159.1 181.39 161.078 179 162.006C176.31 163.055 173.16 162.48 171.16 160.593C167.87 157.476 167.87 153.31 167.86 150.818C167.86 150.122 167.86 149.577 167.79 149.133C167.7 148.488 167.55 147.449 166.84 147.045C172.21 135.575 178.78 124.912 186.36 115.197C184.33 119.434 183.09 123.651 182.65 127.827C181.83 135.686 182.34 142.152 182.75 147.348L182.76 147.338ZM179.2 169.602C179.2 169.299 179.17 168.997 179.16 168.694C179.14 168.392 179.12 168.089 179.09 167.786C179.06 167.484 179.03 167.191 179 166.909C178.93 166.344 178.85 165.809 178.76 165.355C178.68 164.901 178.59 164.528 178.52 164.255C178.52 164.245 178.52 164.235 178.52 164.225C178.92 164.124 179.32 164.003 179.71 163.852C179.91 163.771 180.1 163.69 180.29 163.6C180.94 165.87 182.62 171.69 183.74 175.342C182.33 174.202 180.78 173.415 179.1 172.972C179.13 172.729 179.16 172.417 179.18 172.064C179.21 171.6 179.22 171.065 179.22 170.49C179.22 170.207 179.22 169.905 179.2 169.602ZM170.75 173.042C170.79 172.972 170.84 172.881 170.91 172.76C171.04 172.518 171.22 172.154 171.42 171.721C171.62 171.287 171.83 170.782 172.04 170.228C172.14 169.955 172.25 169.663 172.35 169.37C172.45 169.078 172.55 168.775 172.64 168.482C172.73 168.18 172.83 167.877 172.91 167.584C173 167.282 173.07 166.989 173.15 166.707C173.3 166.132 173.41 165.597 173.5 165.123C173.57 164.75 173.62 164.417 173.66 164.155C174.38 164.346 175.12 164.467 175.87 164.487C175.8 164.709 175.7 165.022 175.61 165.405C175.52 165.789 175.43 166.233 175.35 166.707C175.31 166.949 175.27 167.191 175.24 167.443C175.21 167.695 175.18 167.958 175.16 168.21C175.14 168.472 175.12 168.724 175.1 168.977C175.08 169.229 175.08 169.481 175.07 169.723C175.06 170.207 175.07 170.661 175.09 171.055C175.11 171.448 175.14 171.771 175.18 172.003C175.19 172.114 175.21 172.205 175.22 172.265C175.23 172.326 175.24 172.356 175.24 172.356C175.24 172.356 175.25 172.326 175.27 172.265C175.29 172.205 175.32 172.124 175.36 172.013C175.43 171.791 175.53 171.479 175.62 171.095C175.71 170.712 175.8 170.268 175.88 169.794C175.92 169.552 175.96 169.31 175.99 169.057C176.02 168.805 176.05 168.543 176.07 168.291C176.09 168.028 176.11 167.776 176.13 167.524C176.15 167.272 176.16 167.02 176.16 166.777C176.17 166.293 176.16 165.839 176.14 165.446C176.12 165.052 176.09 164.73 176.05 164.498C176.05 164.498 176.05 164.487 176.05 164.477C176.11 164.477 176.17 164.477 176.23 164.477C176.94 164.477 177.65 164.397 178.35 164.245C178.31 164.518 178.27 164.901 178.25 165.365C178.22 165.829 178.21 166.364 178.21 166.939C178.21 167.221 178.21 167.524 178.23 167.827C178.23 168.129 178.26 168.432 178.27 168.735C178.29 169.037 178.31 169.34 178.34 169.642C178.37 169.945 178.4 170.238 178.43 170.52C178.5 171.085 178.58 171.62 178.67 172.074C178.73 172.376 178.78 172.649 178.84 172.871C178.02 172.669 177.18 172.558 176.3 172.518C172.54 172.356 169.23 173.557 166.37 176.089C169.46 169.471 171.1 165.214 171.76 163.378C172.29 163.66 172.86 163.892 173.44 164.064C173.32 164.296 173.18 164.588 173.02 164.941C172.82 165.375 172.61 165.89 172.4 166.434C172.3 166.707 172.19 166.999 172.09 167.292C171.99 167.584 171.89 167.887 171.79 168.18C171.7 168.482 171.6 168.785 171.52 169.078C171.43 169.37 171.36 169.673 171.28 169.955C171.13 170.53 171.02 171.065 170.93 171.539C170.84 172.003 170.78 172.397 170.75 172.679C170.73 172.82 170.72 172.931 170.72 173.002C170.72 173.072 170.72 173.113 170.72 173.113C170.72 173.113 170.74 173.083 170.78 173.012L170.75 173.042ZM169.81 162.026C170.05 162.248 170.3 162.46 170.56 162.651C169.88 164.568 167.68 170.379 163 179.942H163.03C162.08 181.365 161.19 182.959 160.38 184.765C159.62 186.449 158.98 188.184 158.43 189.92C159.04 185.844 159.53 181.819 159.99 177.925C161.06 168.977 162.08 160.523 164.48 152.301C164.8 151.565 165.12 150.828 165.44 150.092C165.59 149.87 165.73 149.678 165.84 149.527C165.87 149.839 165.87 150.293 165.87 150.818C165.87 153.441 165.88 158.334 169.79 162.036L169.81 162.026ZM182.66 307.81C183.13 312.299 184.53 316.829 186.84 321.388C179 311.431 172.23 300.476 166.73 288.652C167.54 288.299 167.7 287.19 167.8 286.504C167.86 286.06 167.86 285.505 167.87 284.819C167.87 282.327 167.88 278.161 171.17 275.043C173.17 273.147 176.32 272.582 179.01 273.631C181.4 274.559 182.88 276.537 183.08 279.059C183.29 281.732 183.05 284.779 182.77 288.299C182.36 293.495 181.85 299.961 182.67 307.82L182.66 307.81ZM175.07 265.843C175.07 266.085 175.08 266.337 175.1 266.59C175.11 266.842 175.14 267.104 175.16 267.356C175.19 267.609 175.21 267.871 175.24 268.123C175.27 268.375 175.31 268.627 175.35 268.859C175.43 269.344 175.52 269.788 175.61 270.161C175.7 270.544 175.79 270.857 175.87 271.079C175.87 271.099 175.87 271.109 175.88 271.129C175.13 271.16 174.38 271.271 173.66 271.462C173.63 271.2 173.57 270.857 173.5 270.453C173.41 269.989 173.29 269.445 173.15 268.87C173.08 268.587 173 268.284 172.91 267.992C172.83 267.689 172.73 267.397 172.64 267.094C172.54 266.791 172.45 266.499 172.35 266.206C172.25 265.914 172.15 265.631 172.04 265.349C171.83 264.794 171.62 264.29 171.42 263.856C171.22 263.422 171.05 263.069 170.91 262.817C170.85 262.706 170.8 262.615 170.76 262.544C172.16 263.079 173.63 263.361 175.19 263.412C175.19 263.452 175.18 263.503 175.17 263.553C175.14 263.785 175.1 264.108 175.08 264.501C175.06 264.895 175.05 265.349 175.06 265.833L175.07 265.843ZM178.24 270.201C178.27 270.665 178.31 271.049 178.34 271.321C178.34 271.341 178.34 271.351 178.34 271.371C177.58 271.2 176.8 271.129 176.03 271.139C176.03 271.119 176.03 271.099 176.03 271.079C176.06 270.847 176.1 270.524 176.12 270.131C176.14 269.737 176.15 269.283 176.14 268.799C176.14 268.557 176.13 268.305 176.11 268.052C176.1 267.8 176.07 267.538 176.05 267.286C176.02 267.034 176 266.771 175.97 266.519C175.94 266.267 175.9 266.015 175.86 265.783C175.78 265.298 175.69 264.854 175.6 264.481C175.51 264.098 175.42 263.785 175.34 263.563C175.33 263.513 175.31 263.472 175.3 263.432C175.4 263.432 175.51 263.432 175.61 263.432C175.83 263.432 176.05 263.432 176.27 263.422C177.12 263.382 177.93 263.271 178.72 263.089C178.69 263.22 178.67 263.351 178.64 263.503C178.56 263.957 178.47 264.491 178.4 265.056C178.37 265.339 178.33 265.631 178.31 265.934C178.28 266.237 178.26 266.539 178.24 266.842C178.22 267.144 178.21 267.447 178.2 267.75C178.19 268.052 178.18 268.345 178.18 268.638C178.18 269.213 178.19 269.747 178.22 270.211L178.24 270.201ZM170.92 264.017C171.01 264.481 171.13 265.026 171.27 265.601C171.34 265.883 171.42 266.186 171.51 266.479C171.59 266.781 171.69 267.074 171.78 267.376C171.88 267.679 171.97 267.972 172.08 268.264C172.18 268.557 172.28 268.839 172.39 269.122C172.6 269.677 172.81 270.181 173.01 270.615C173.17 270.978 173.33 271.291 173.45 271.523C172.87 271.694 172.3 271.926 171.77 272.209C171.14 270.453 169.58 266.388 166.65 260.083C167.92 261.152 169.27 261.969 170.72 262.524C170.72 262.524 170.72 262.534 170.72 262.544C170.72 262.615 170.74 262.726 170.75 262.867C170.78 263.15 170.84 263.543 170.93 264.007L170.92 264.017ZM170.57 272.955C170.3 273.157 170.05 273.369 169.81 273.601C165.91 277.303 165.9 282.186 165.89 284.819C165.89 285.333 165.89 285.797 165.86 286.11C165.75 285.959 165.61 285.767 165.46 285.535L165.34 285.616C164.97 284.768 164.6 283.911 164.24 283.053C161.96 275.084 161.01 266.943 160.01 258.327C159.55 254.333 159.06 250.217 158.44 246.03C158.99 247.765 159.63 249.5 160.39 251.185C161.33 253.283 162.38 255.109 163.51 256.673C167.87 265.672 169.93 271.149 170.58 272.965L170.57 272.955ZM180.27 272.017C180.08 271.926 179.89 271.846 179.7 271.775C179.31 271.624 178.9 271.492 178.5 271.402C178.5 271.381 178.51 271.351 178.52 271.331C178.59 271.069 178.68 270.685 178.76 270.231C178.84 269.777 178.93 269.243 179 268.678C179.03 268.395 179.07 268.103 179.09 267.8C179.12 267.498 179.14 267.195 179.16 266.892C179.18 266.59 179.19 266.287 179.2 265.984C179.21 265.682 179.22 265.389 179.22 265.097C179.22 264.522 179.21 263.987 179.18 263.523C179.17 263.321 179.15 263.139 179.14 262.978C180.75 262.544 182.24 261.798 183.6 260.728C182.48 264.411 180.9 269.868 180.28 272.027L180.27 272.017ZM315.8 386.084C338.15 386.084 359.83 381.695 380.26 373.04C399.45 364.909 416.76 353.368 431.75 338.71L431.85 338.801C432.21 338.417 432.59 337.973 433.01 337.479C433.01 337.479 433.03 337.469 433.03 337.459C433.13 337.338 433.24 337.207 433.35 337.076C437.36 332.314 444.16 324.233 456.6 327.673C451.14 327.673 446.24 330.185 441.8 335.219L441.74 335.159C409.39 370.528 363.48 390.805 315.8 390.805C247.06 390.805 185.46 349.817 158.35 286.221C157.72 284.405 157.15 282.579 156.65 280.743C156.52 279.573 156.32 278.635 156.23 278.221L156.01 278.272C153.91 269.697 152.94 260.789 151.93 251.498C151.68 249.147 151.41 246.726 151.13 244.315C150.7 240.502 151.52 238.565 152.43 238.02C153.01 237.677 153.59 237.929 153.97 238.202C155.34 239.17 156.15 243.084 156.33 245.324V245.394C157.03 249.863 157.54 254.272 158.04 258.539C159.04 267.155 159.99 275.306 162.27 283.356L162.23 283.376C162.28 283.487 162.32 283.588 162.37 283.699C162.41 283.84 162.45 283.972 162.49 284.113L162.54 284.093C168.78 298.781 177.07 312.501 187.19 324.879C197.41 337.368 209.32 348.294 222.61 357.353C250.17 376.137 282.39 386.074 315.79 386.074L315.8 386.084ZM481.57 261.808C479.28 271.432 479.14 280.037 481.11 287.24C478.86 283.961 476.78 279.866 476.09 275.75C475.36 271.442 476.09 264.673 478.19 256.179H478.13C481 243.71 482.45 230.878 482.45 217.965C482.45 195.266 478.04 173.254 469.35 152.523C465.17 142.566 460 132.952 453.99 123.963C448.03 115.066 441.18 106.692 433.64 99.0859C426.1 91.4795 417.8 84.5691 408.98 78.5566C400.07 72.4835 390.55 67.2679 380.67 63.0611C360.12 54.2945 338.3 49.8457 315.8 49.8457C282.59 49.8457 250.52 59.6715 223.05 78.264C214.28 84.1958 206.11 90.9448 198.62 98.4201L198.53 98.3293C197.55 99.3381 196.62 100.357 195.73 101.366C192.95 104.281 190.27 107.298 187.69 110.415C177.4 122.874 168.98 136.715 162.65 151.544L163.55 151.938L162.61 151.655C160.14 160.049 159.12 168.603 158.03 177.663C157.53 181.839 157.01 186.157 156.34 190.515V190.585C156.15 192.825 155.34 196.739 153.97 197.708C153.58 197.98 153 198.232 152.43 197.889C151.52 197.345 150.7 195.398 151.13 191.594C151.41 189.183 151.67 186.762 151.93 184.412C152.91 175.352 153.85 166.677 155.85 158.293L155.95 158.313C156.03 157.991 156.16 157.355 156.28 156.558C156.88 154.248 157.56 151.948 158.35 149.678C185.45 86.1529 247.25 45.1042 315.8 45.1042C410.27 45.1042 487.13 122.642 487.13 217.945C487.13 232.804 485.26 247.543 481.57 261.788V261.808Z" fill="black"/>
<path d="M563.4 365.696L563 365.666C535.37 345.449 501.69 322.418 488.31 312.451C478.68 305.268 469.72 297.914 464.97 288.754C462.67 284.315 460.25 277.828 462.42 271.342C462.45 271.271 462.47 271.231 462.47 271.231C462.56 270.978 462.65 270.726 462.73 270.474C462.73 270.454 462.74 270.434 462.75 270.423C462.75 270.423 462.75 270.444 462.74 270.454C467.77 256.008 470.78 240.573 471.42 224.472L471.45 224.28C472.15 221.768 474.42 219.771 476.2 218.53C476.44 218.359 476.46 218.116 476.46 218.016C476.46 217.915 476.43 217.662 476.17 217.501C474.34 216.331 472.11 214.515 471.53 212.306H471.45C468.45 127.384 400.08 60.8623 315.79 60.8623C291.53 60.8623 268.29 66.3301 246.72 77.1143L246.68 77.0437C242.56 78.7284 241.26 78.8495 234.85 78.2442C229.66 77.76 226.1 78.9201 222.48 81.0588C213.67 87.1621 205.44 94.1431 197.93 101.901C189.98 110.718 185.5 119.495 184.6 128.039C183.8 135.716 184.28 141.81 184.7 147.197C184.98 150.798 185.23 153.915 185.01 156.75C184.81 159.323 183.53 161.522 181.49 162.914C182.2 165.406 184.88 174.697 185.78 177.29H185.74C188.06 179.993 189.93 183.817 191.33 188.76C193.39 196.064 194.44 205.9 194.44 217.985C194.44 230.071 193.39 239.917 191.33 247.211C189.91 252.235 188 256.108 185.62 258.802C184.59 261.939 182.15 270.413 181.49 272.724C183.53 274.126 184.82 276.325 185.02 278.898C185.24 281.732 185 284.85 184.71 288.451C184.29 293.838 183.81 299.931 184.61 307.608C185.57 316.849 190.73 326.362 199.94 335.896L199.82 336.017C206.34 342.544 213.38 348.496 220.86 353.812L220.88 353.782C225.09 356.566 228.9 358.17 234.86 357.615C241.09 357.03 242.49 357.131 246.34 358.675C246.52 358.745 246.69 358.816 246.88 358.897L246.86 358.937C268.39 369.681 291.58 375.128 315.79 375.128C359.26 375.128 398.56 357.353 426.81 328.471L426.75 328.41C427.8 327.351 428.72 326.372 429.61 325.434C430.3 324.698 430.96 324.002 431.61 323.336C431.67 323.265 431.73 323.195 431.8 323.124C437.07 317.737 439.09 317.767 444.11 316.728C457.59 313.944 472.43 320.965 496.85 340.163C508.1 349 528.59 364.183 550.86 382.573L550.3 383.643C550.3 383.643 551.52 383.159 551.55 383.189L563.88 365.918C563.88 365.918 563.43 365.726 563.39 365.706L563.4 365.696Z" fill="#F1F2F2"/>
<path d="M563.66 364.545C562.78 364.545 561.93 364.283 561.2 363.789C548.02 354.931 494.94 317.625 490.81 314.538C479.41 306.044 470.29 298.751 465.14 288.824C462.45 283.649 460.65 275.669 460.44 268.002C460.32 263.624 461.12 256.34 462.05 247.896C462.6 242.892 463.17 237.717 463.6 232.663C464.06 227.649 468.05 225.107 471.25 223.069C473.74 221.485 475.88 220.113 475.88 218.126C475.88 216.038 473.59 214.514 470.93 212.749C467.71 210.61 464.06 208.189 463.63 203.871C462.11 187.468 457.92 171.549 451.18 156.568C443.49 139.459 432.77 124.135 419.32 111.02C405.85 97.8854 390.29 87.5854 373.06 80.4026C355.23 72.9777 336.31 69.2048 316.84 69.2048C305.31 69.2048 293.83 70.5465 282.72 73.1997C271.18 75.9537 259.85 80.0294 252.41 84.105L252.3 84.1655C247 86.9801 242.32 88.2915 237.57 88.2915C233.64 88.2915 230.49 87.3836 227.71 86.5867L227.1 86.4152C226.98 86.3748 226.85 86.3445 226.73 86.3042C225.12 85.7796 223.97 84.3975 223.73 82.6926C223.48 80.9676 224.22 79.2828 225.64 78.3043L229.4 75.7217L229.51 75.6612C255.82 59.2579 286.02 50.6123 316.92 50.6123C347.82 50.6123 379.61 59.7421 406.3 77.0029C432.28 93.8098 453.1 117.477 466.51 145.441C470.55 153.905 473.9 162.762 476.47 171.781C478.53 179.034 480.12 186.51 481.19 193.985C482.31 201.864 482.88 209.914 482.88 217.934C482.88 224.27 482.52 230.656 481.82 236.93C481.02 244.113 479.74 251.286 478.03 258.267L477.92 259.023C476.34 266.236 475.85 272.098 476.51 275.971C476.89 278.221 477.67 280.582 478.83 282.983C480.33 286.14 485.19 292.839 487.01 295.361C487.37 295.865 487.64 296.239 487.78 296.43C491.64 301.938 498.44 308.566 508.57 316.697C517.57 323.92 529.54 332.576 545.15 343.159C545.68 343.522 553.08 348.142 566 356.182C567.04 356.828 567.76 357.857 568.02 359.068C568.28 360.278 568.04 361.509 567.34 362.538C566.51 363.769 565.13 364.505 563.65 364.505L563.66 364.545Z" fill="#939598"/>
<path d="M316.92 51.7122C382.26 51.7122 438.85 90.2288 465.56 145.946C469.55 154.309 472.88 163.055 475.45 172.114C477.49 179.287 479.06 186.651 480.14 194.177C481.25 201.945 481.82 209.894 481.82 217.975C481.82 224.3 481.47 230.605 480.77 236.85C479.94 244.265 478.62 251.609 476.82 258.812L476.9 258.832C475.66 264.512 474.65 271.311 475.48 276.184C475.91 278.696 476.78 281.177 477.89 283.488C479.71 287.321 486.03 295.795 486.93 297.086C490.85 302.675 497.71 309.374 507.92 317.565C516.94 324.809 528.93 333.474 544.57 344.077C545.34 344.602 559.19 353.227 565.45 357.121C567.1 358.15 567.57 360.359 566.47 361.973C565.81 362.952 564.74 363.476 563.65 363.476C563 363.476 562.35 363.295 561.77 362.901C548.68 354.105 495.39 316.637 491.42 313.681C481.03 305.934 471.25 298.347 466.06 288.33C463.53 283.457 461.7 275.78 461.48 267.972C461.29 261.082 463.49 246.262 464.63 232.754C465.39 224.472 476.91 223.735 476.91 218.136C476.91 212.538 465.39 211.065 464.66 203.771C463.13 187.247 458.92 171.247 452.12 156.135C444.37 138.904 433.58 123.469 420.04 110.264C406.48 97.0383 390.8 86.6576 373.45 79.4345C355.49 71.9491 336.44 68.1559 316.82 68.1559C305.21 68.1559 293.65 69.5078 282.46 72.1811C270.83 74.9554 259.4 79.0713 251.89 83.1873C251.86 83.2075 251.82 83.2276 251.79 83.2377C246.64 85.9716 242.12 87.2427 237.55 87.2427C233.77 87.2427 230.69 86.355 227.98 85.5782C227.78 85.5176 227.58 85.4672 227.37 85.4067C227.26 85.3764 227.15 85.3461 227.04 85.3058C224.36 84.4382 223.89 80.7964 226.22 79.2025C227.55 78.2844 228.82 77.4169 229.96 76.63C230.02 76.5997 230.07 76.5594 230.13 76.5291C255.67 60.61 285.55 51.6921 316.9 51.6921M316.9 49.5635C285.81 49.5635 255.42 58.2595 229.02 74.7132L228.95 74.7536L228.85 74.8141L228.81 74.8343L228.77 74.8646L226.56 76.3778L225.03 77.4269C223.27 78.6375 222.37 80.7056 222.67 82.8443C222.97 84.9527 224.4 86.6576 226.39 87.3133C226.52 87.3537 226.66 87.394 226.8 87.4344L227.35 87.5958L227.4 87.616C230.25 88.4331 233.47 89.3612 237.55 89.3612C242.47 89.3612 247.31 88.0094 252.77 85.1141L252.89 85.0435C260.25 81.0183 271.49 76.973 282.94 74.2391C293.97 71.6061 305.37 70.2644 316.81 70.2644C336.14 70.2644 354.93 74.0071 372.63 81.3815C389.74 88.5037 405.19 98.7331 418.56 111.777C431.91 124.801 442.55 140.014 450.19 157.002C456.88 171.882 461.04 187.68 462.55 203.963C463.04 208.805 467.08 211.488 470.32 213.637C472.62 215.16 474.79 216.603 474.79 218.126C474.79 219.428 473.22 220.527 470.65 222.172C467.25 224.341 463.03 227.034 462.52 232.552C462.09 237.607 461.52 242.772 460.98 247.775C460.05 256.26 459.24 263.573 459.37 268.032C459.59 275.851 461.44 284.012 464.19 289.318C469.44 299.447 478.66 306.811 490.17 315.386C494.3 318.473 547.41 355.799 560.6 364.667C561.51 365.272 562.56 365.595 563.64 365.595C565.47 365.595 567.17 364.687 568.2 363.164C569.06 361.893 569.35 360.369 569.04 358.876C568.72 357.383 567.84 356.112 566.55 355.305C554.04 347.517 546.26 342.655 545.73 342.301C530.14 331.729 518.19 323.094 509.21 315.891C499.16 307.83 492.43 301.273 488.63 295.845C488.49 295.644 488.22 295.27 487.85 294.756C486.04 292.254 481.23 285.616 479.77 282.549C478.65 280.219 477.9 277.959 477.53 275.81C476.9 272.068 477.38 266.348 478.93 259.266L479.37 257.248H479.34C480.9 250.62 482.08 243.851 482.84 237.062C483.55 230.747 483.91 224.32 483.91 217.945C483.91 209.884 483.34 201.773 482.21 193.844C481.14 186.318 479.54 178.793 477.46 171.499C474.88 162.43 471.51 153.512 467.44 144.997C453.95 116.851 433 93.0333 406.85 76.1256C379.99 58.7538 348.89 49.5635 316.9 49.5635Z" fill="black"/>
<path d="M547.49 388.293C546.56 388.293 545.67 387.991 544.92 387.416C533.23 378.417 486.05 342.937 467.41 331.204C461.94 327.906 457 326.302 452.33 326.302C452.04 326.302 451.75 326.302 451.46 326.322C443.99 326.544 438.3 331.991 435.58 335.209C426.29 345.408 414.67 354.599 400.01 363.345C375.58 377.882 347.03 385.569 317.46 385.569C282.78 385.569 248.67 374.805 221.43 355.255L220.32 354.458L221.37 353.57C224.42 351.007 228.94 348.001 236.9 347.527C237.13 347.517 237.36 347.507 237.6 347.507C242.9 347.507 250.15 350.896 255.45 353.368C256.52 353.862 257.52 354.336 258.42 354.73C277.76 363.345 299.63 367.895 321.66 367.895C362.68 367.895 400.12 352.44 424.37 325.484C430.25 318.957 437.52 315.648 446 315.648C457.44 315.648 470.9 321.611 485.99 333.373C502.9 346.548 527.15 364.031 541.64 374.483C545.22 377.065 548.1 379.143 549.98 380.515C551.79 381.837 552.28 384.359 551.09 386.265C550.3 387.537 548.95 388.293 547.47 388.293H547.49Z" fill="#939598"/>
<path d="M446.01 316.718C457.79 316.718 471.34 323.295 485.35 334.221C506.59 350.775 540.13 374.644 549.37 381.383C550.74 382.382 551.1 384.268 550.21 385.711C549.6 386.699 548.55 387.234 547.49 387.234C546.82 387.234 546.14 387.022 545.56 386.578C533.6 377.378 486.45 341.938 467.97 330.307C463.24 327.452 457.9 325.242 452.33 325.242C452.03 325.242 451.72 325.242 451.42 325.262C444.75 325.464 438.98 329.56 434.78 334.523C424.54 345.772 412.33 354.76 399.48 362.427C374.61 377.227 346.06 384.5 317.47 384.5C283.68 384.5 249.85 374.331 222.05 354.377C224.47 352.339 228.87 349.06 236.97 348.576C237.18 348.566 237.39 348.556 237.61 348.556C243.7 348.556 252.61 353.297 258 355.698C277.75 364.495 299.74 368.954 321.68 368.954C360.57 368.954 399.32 354.932 425.17 326.201C431.07 319.653 438.15 316.708 446.02 316.708M446.02 314.579C437.23 314.579 429.7 318.009 423.61 324.768C399.56 351.492 362.4 366.826 321.68 366.826C299.79 366.826 278.06 362.306 258.86 353.741C257.96 353.338 256.97 352.874 255.91 352.379C250.22 349.726 243.15 346.417 237.62 346.417C237.36 346.417 237.11 346.417 236.86 346.438C228.49 346.932 223.64 350.261 220.71 352.722L218.61 354.488L220.84 356.082C248.26 375.764 282.58 386.598 317.48 386.598C347.24 386.598 375.97 378.861 400.56 364.233C415.3 355.436 427.01 346.185 436.34 335.936L436.37 335.905L436.4 335.875C439.01 332.788 444.45 327.563 451.5 327.361C451.8 327.351 452.08 327.341 452.35 327.341C456.83 327.341 461.59 328.904 466.91 332.112C485.49 343.804 532.63 379.264 544.31 388.243C545.24 388.959 546.35 389.342 547.52 389.342C549.37 389.342 551.05 388.394 552.03 386.82C553.5 384.44 552.89 381.282 550.64 379.648C548.76 378.276 545.88 376.198 542.31 373.625C528.77 363.87 503.58 345.701 486.68 332.526C471.4 320.622 457.73 314.579 446.05 314.579H446.02Z" fill="black"/>
<path d="M164.55 254.039L165.31 255.603C168.22 259.527 171.88 261.505 176.18 261.303C179.09 261.182 181.64 259.961 183.78 257.681L184.04 256.945L184.35 257.036C186.38 254.594 188.05 251.104 189.31 246.635C191.32 239.523 192.34 229.878 192.34 217.984C192.34 206.091 191.32 196.446 189.31 189.334C186.63 179.851 182.22 174.918 176.18 174.656C170.39 174.424 165.68 178.106 162.28 185.652C159.24 192.401 158.07 200.532 157.69 203.195L157.37 205.425C156.58 210.852 156.41 211.982 156.41 217.984C156.41 223.987 156.58 225.117 157.37 230.544L157.69 232.764C158.08 235.437 159.25 243.558 162.29 250.317C162.92 251.719 163.61 253.01 164.33 254.15L164.55 254.039Z" fill="white"/>
<path d="M558.56 371.143C558.56 371.143 452.62 295.078 444.19 285.434C439.34 279.895 433.34 273.207 434.49 252.667C435.63 232.138 447.12 224.037 434.91 214.655C418.06 201.702 435.23 166.545 414.12 148.8" stroke="#BCBEC0" stroke-width="3.29" stroke-linecap="round" stroke-linejoin="round"/>
<path d="M314.34 338.518C314.34 338.518 321.8 338.77 324.25 332.586C326.7 326.402 328.71 317.776 341.78 316.364C354.85 314.952 372.71 321.106 386.26 315.083C399.81 309.06 400.85 294.604 413.35 286.594C423.49 280.097 435.29 279.986 440.65 281.126" stroke="#BCBEC0" stroke-width="3.29" stroke-linecap="round" stroke-linejoin="round"/>
<path d="M294.63 311.26C294.63 311.26 321.95 307.487 333.7 318.735" stroke="#BCBEC0" stroke-width="3.29" stroke-linecap="round" stroke-linejoin="round"/>
<path d="M343.42 284.97C343.42 284.97 352.24 291.749 368.14 289.701C384.05 287.653 395.13 281.832 410.26 288.309" stroke="#BCBEC0" stroke-width="3.29" stroke-linecap="round" stroke-linejoin="round"/>
<path d="M381.29 182.595C385.29 194.327 389.6 197.495 397.3 201.318C405 205.142 409.21 207.512 412.26 213.969C415.31 220.425 417.05 228.587 437.21 233.419" stroke="#BCBEC0" stroke-width="3.29" stroke-linecap="round" stroke-linejoin="round"/>
<path d="M399.18 153.521C399.18 153.521 400.22 160.371 409.23 164.054C418.24 167.736 425.77 175.171 425.93 179.377" stroke="#BCBEC0" stroke-width="3.29" stroke-linecap="round" stroke-linejoin="round"/>
<path d="M554.75 376.449C554.75 376.449 478.56 319.895 437.67 290.73C431.74 286.493 427.57 274.791 429.16 243.82C430.04 226.761 417.41 207.513 413.69 202.499C409.98 197.485 408.49 190.545 409.25 175.029C410.01 159.513 408.88 145.763 396.28 134.354" stroke="#939598" stroke-width="3.29" stroke-linecap="round" stroke-linejoin="round"/>
<path d="M386.96 173.112C386.96 173.112 396.23 170.973 401 181.667C405.77 192.37 393.56 229.868 428.98 248.44" stroke="#939598" stroke-width="3.29" stroke-linecap="round" stroke-linejoin="round"/>
<path d="M359.97 279.522C359.97 279.522 374.48 279.28 383.89 282.357C393.29 285.434 397.78 298.478 412.75 301.998" stroke="#939598" stroke-width="3.29" stroke-linecap="round" stroke-linejoin="round"/>
<path d="M315.94 348.616C315.94 348.616 326.61 346.74 330.43 336.117C334.26 325.494 343.37 324.495 354.44 325.444C365.51 326.392 393.16 334.362 405.85 311.784C419.63 287.27 437.66 290.72 437.66 290.72" stroke="#939598" stroke-width="3.29" stroke-linecap="round" stroke-linejoin="round"/>
<path d="M311.49 296.591C311.49 296.591 329.35 293.907 342.2 307.769C355.04 321.63 364.48 326.896 375.39 327.572" stroke="#939598" stroke-width="3.29" stroke-linecap="round" stroke-linejoin="round"/>
<path d="M293.91 336.762C293.91 336.762 306.15 326.735 320.96 325.867C335.77 325.01 341.87 325.544 344.67 325.363" stroke="#939598" stroke-width="3.29" stroke-linecap="round" stroke-linejoin="round"/>
<path d="M469 177.56C468.448 177.56 468 178.007 468 178.56C468 179.112 468.448 179.56 469 179.56L469 177.56ZM521.667 178.56C521.667 181.505 524.054 183.893 527 183.893C529.946 183.893 532.333 181.505 532.333 178.56C532.333 175.614 529.946 173.226 527 173.226C524.054 173.226 521.667 175.614 521.667 178.56ZM469 179.56L527 179.56L527 177.56L469 177.56L469 179.56Z" fill="black"/>
<path d="M475.5 218.903C476.052 218.903 476.5 218.456 476.5 217.903C476.5 217.351 476.052 216.903 475.5 216.903L475.5 218.903ZM384.833 217.903C384.833 214.958 382.446 212.57 379.5 212.57C376.554 212.57 374.167 214.958 374.167 217.903C374.167 220.849 376.554 223.237 379.5 223.237C382.446 223.237 384.833 220.849 384.833 217.903ZM475.5 216.903L379.5 216.903L379.5 218.903L475.5 218.903L475.5 216.903Z" fill="black"/>
<path d="M543.722 185.48V171.664H548.54C550.117 171.664 551.308 172.042 552.115 172.797C552.929 173.545 553.336 174.532 553.336 175.756C553.336 176.966 552.929 177.949 552.115 178.704C551.308 179.452 550.117 179.826 548.54 179.826H545.438V185.48H543.722ZM551.466 185.48L547.506 179.21H549.376L553.688 185.48H551.466ZM545.438 178.616H548.408C549.442 178.616 550.227 178.363 550.762 177.857C551.305 177.344 551.576 176.68 551.576 175.866C551.576 175.03 551.316 174.367 550.795 173.875C550.282 173.384 549.53 173.138 548.54 173.138H545.438V178.616ZM560.845 185.744C559.935 185.744 559.121 185.513 558.403 185.051C557.691 184.582 557.127 183.933 556.709 183.104C556.298 182.276 556.093 181.322 556.093 180.244C556.093 179.093 556.298 178.103 556.709 177.274C557.119 176.446 557.68 175.811 558.392 175.371C559.11 174.924 559.928 174.7 560.845 174.7C561.644 174.7 562.326 174.862 562.891 175.184C563.455 175.507 563.91 175.943 564.255 176.493C564.599 177.043 564.838 177.667 564.97 178.363C565.109 179.053 565.149 179.768 565.091 180.508H557.479V179.452H563.958L563.452 179.782C563.474 179.35 563.448 178.917 563.375 178.484C563.309 178.052 563.18 177.656 562.99 177.296C562.799 176.93 562.531 176.636 562.187 176.416C561.842 176.196 561.402 176.086 560.867 176.086C560.192 176.086 559.627 176.259 559.173 176.603C558.718 176.948 558.377 177.403 558.15 177.967C557.922 178.525 557.809 179.13 557.809 179.782V180.486C557.809 181.22 557.919 181.876 558.139 182.455C558.366 183.035 558.703 183.493 559.151 183.83C559.598 184.168 560.163 184.336 560.845 184.336C561.527 184.336 562.088 184.171 562.528 183.841C562.968 183.511 563.235 183.024 563.331 182.378H565.113C565.003 183.075 564.753 183.676 564.365 184.182C563.976 184.681 563.481 185.066 562.88 185.337C562.278 185.609 561.6 185.744 560.845 185.744ZM571.727 185.744C571.155 185.744 570.642 185.634 570.187 185.414C569.733 185.194 569.373 184.864 569.109 184.424C568.845 183.984 568.713 183.434 568.713 182.774V172.038H570.407V182.73C570.407 183.816 570.913 184.358 571.925 184.358C572.226 184.358 572.516 184.325 572.794 184.259C573.08 184.193 573.399 184.094 573.751 183.962L573.993 185.194C573.619 185.356 573.245 185.488 572.871 185.59C572.505 185.693 572.123 185.744 571.727 185.744ZM567.019 176.152V174.964H573.729V176.152H567.019ZM577.733 172.478C577.381 172.478 577.102 172.379 576.897 172.181C576.692 171.976 576.589 171.708 576.589 171.378C576.589 171.056 576.692 170.799 576.897 170.608C577.102 170.418 577.381 170.322 577.733 170.322C578.085 170.322 578.364 170.418 578.569 170.608C578.774 170.799 578.877 171.056 578.877 171.378C578.877 171.708 578.774 171.976 578.569 172.181C578.364 172.379 578.085 172.478 577.733 172.478ZM576.875 185.48V174.942H578.591V185.48H576.875ZM590.798 185.48V179.298C590.798 178.294 590.556 177.531 590.072 177.01C589.595 176.482 588.942 176.218 588.114 176.218C587.483 176.218 586.937 176.391 586.475 176.735C586.013 177.08 585.657 177.575 585.408 178.22C585.158 178.858 585.034 179.621 585.034 180.508H584.374C584.374 179.284 584.535 178.239 584.858 177.373C585.18 176.508 585.65 175.848 586.266 175.393C586.889 174.931 587.644 174.7 588.532 174.7C589.36 174.7 590.068 174.887 590.655 175.261C591.249 175.628 591.703 176.156 592.019 176.845C592.334 177.535 592.492 178.352 592.492 179.298V185.48H590.798ZM583.318 185.48V174.964H584.792L585.034 177.384V185.48H583.318ZM603.107 185.48L602.887 183.17V178.66C602.887 177.714 602.685 177.036 602.282 176.625C601.879 176.207 601.274 175.998 600.467 175.998C600.012 175.998 599.598 176.064 599.224 176.196C598.857 176.328 598.564 176.534 598.344 176.812C598.131 177.084 598.025 177.436 598.025 177.868H596.111C596.111 177.106 596.298 176.493 596.672 176.031C597.046 175.562 597.559 175.225 598.212 175.019C598.872 174.807 599.624 174.7 600.467 174.7C601.274 174.7 601.989 174.836 602.612 175.107C603.235 175.379 603.723 175.811 604.075 176.405C604.427 176.992 604.603 177.758 604.603 178.704V185.48H603.107ZM599.521 185.744C598.656 185.744 597.941 185.59 597.376 185.282C596.811 184.974 596.39 184.575 596.111 184.083C595.832 183.592 595.693 183.075 595.693 182.532C595.693 181.821 595.869 181.242 596.221 180.794C596.58 180.347 597.068 180.021 597.684 179.815C598.3 179.603 598.993 179.496 599.763 179.496C600.313 179.496 600.863 179.551 601.413 179.661C601.97 179.771 602.513 179.922 603.041 180.112V181.19C602.601 181.014 602.102 180.875 601.545 180.772C600.995 180.67 600.489 180.618 600.027 180.618C599.323 180.618 598.729 180.765 598.245 181.058C597.761 181.344 597.519 181.836 597.519 182.532C597.519 183.046 597.702 183.486 598.069 183.852C598.443 184.219 599.037 184.402 599.851 184.402C600.423 184.402 600.936 184.27 601.391 184.006C601.853 183.735 602.216 183.398 602.48 182.994C602.751 182.591 602.887 182.188 602.887 181.784H603.305C603.305 182.488 603.151 183.141 602.843 183.742C602.542 184.344 602.11 184.828 601.545 185.194C600.98 185.561 600.306 185.744 599.521 185.744Z" fill="black"/>
<path d="M84.1667 217.903C84.1667 220.849 86.5545 223.237 89.5 223.237C92.4455 223.237 94.8333 220.849 94.8333 217.903C94.8333 214.958 92.4455 212.57 89.5 212.57C86.5545 212.57 84.1667 214.958 84.1667 217.903ZM141.5 218.903C142.052 218.903 142.5 218.456 142.5 217.903C142.5 217.351 142.052 216.903 141.5 216.903L141.5 218.903ZM89.5 218.903L141.5 218.903L141.5 216.903L89.5 216.903L89.5 218.903Z" fill="black"/>
<path d="M84.6667 178.56C84.6667 181.505 87.0545 183.893 90 183.893C92.9455 183.893 95.3333 181.505 95.3333 178.56C95.3333 175.614 92.9455 173.226 90 173.226C87.0545 173.226 84.6667 175.614 84.6667 178.56ZM120 179.56C120.552 179.56 121 179.112 121 178.56C121 178.007 120.552 177.56 120 177.56V179.56ZM90 179.56H120V177.56H90V179.56Z" fill="black"/>
<path d="M84.6667 257.247C84.6667 260.193 87.0545 262.58 90 262.58C92.9455 262.58 95.3333 260.193 95.3333 257.247C95.3333 254.302 92.9455 251.914 90 251.914C87.0545 251.914 84.6667 254.302 84.6667 257.247ZM154 258.247C154.552 258.247 155 257.799 155 257.247C155 256.695 154.552 256.247 154 256.247L154 258.247ZM90 258.247L154 258.247L154 256.247L90 256.247L90 258.247Z" fill="black"/>
<path d="M148.5 200.754H141.5V235.054H148.5" stroke="black" stroke-width="2" stroke-linecap="round" stroke-linejoin="round" stroke-dasharray="4 4"/>
<path d="M309.294 224.824V211.008H317.698V212.482H311.01V217.08H317.236V218.554H311.01V224.824H309.294ZM324.014 225.088C323.068 225.088 322.225 224.879 321.484 224.461C320.751 224.043 320.172 223.424 319.746 222.602C319.321 221.781 319.108 220.769 319.108 219.566C319.108 218.356 319.321 217.344 319.746 216.53C320.172 215.709 320.751 215.089 321.484 214.671C322.225 214.253 323.068 214.044 324.014 214.044C324.953 214.044 325.789 214.253 326.522 214.671C327.263 215.089 327.842 215.709 328.26 216.53C328.686 217.344 328.898 218.356 328.898 219.566C328.898 220.769 328.686 221.781 328.26 222.602C327.842 223.424 327.263 224.043 326.522 224.461C325.789 224.879 324.953 225.088 324.014 225.088ZM323.97 223.592C324.652 223.592 325.232 223.431 325.708 223.108C326.185 222.778 326.544 222.313 326.786 221.711C327.036 221.11 327.16 220.395 327.16 219.566C327.16 218.312 326.9 217.326 326.379 216.607C325.859 215.881 325.085 215.518 324.058 215.518C323.369 215.518 322.786 215.683 322.309 216.013C321.84 216.336 321.481 216.802 321.231 217.41C320.989 218.012 320.868 218.73 320.868 219.566C320.868 220.806 321.129 221.788 321.649 222.514C322.177 223.233 322.951 223.592 323.97 223.592ZM330.414 214.308H332.372L335.672 223.35H335.43L338.73 214.308H340.688L336.486 224.824H334.616L330.414 214.308ZM346.956 225.088C346.047 225.088 345.233 224.857 344.514 224.395C343.803 223.926 343.238 223.277 342.82 222.448C342.409 221.62 342.204 220.666 342.204 219.588C342.204 218.437 342.409 217.447 342.82 216.618C343.231 215.79 343.792 215.155 344.503 214.715C345.222 214.268 346.039 214.044 346.956 214.044C347.755 214.044 348.437 214.206 349.002 214.528C349.567 214.851 350.021 215.287 350.366 215.837C350.711 216.387 350.949 217.011 351.081 217.707C351.22 218.397 351.261 219.112 351.202 219.852H343.59V218.796H350.069L349.563 219.126C349.585 218.694 349.559 218.261 349.486 217.828C349.42 217.396 349.292 217 349.101 216.64C348.91 216.274 348.643 215.98 348.298 215.76C347.953 215.54 347.513 215.43 346.978 215.43C346.303 215.43 345.739 215.603 345.284 215.947C344.829 216.292 344.488 216.747 344.261 217.311C344.034 217.869 343.92 218.474 343.92 219.126V219.83C343.92 220.564 344.03 221.22 344.25 221.799C344.477 222.379 344.815 222.837 345.262 223.174C345.709 223.512 346.274 223.68 346.956 223.68C347.638 223.68 348.199 223.515 348.639 223.185C349.079 222.855 349.347 222.368 349.442 221.722H351.224C351.114 222.419 350.865 223.02 350.476 223.526C350.087 224.025 349.592 224.41 348.991 224.681C348.39 224.953 347.711 225.088 346.956 225.088ZM361.117 224.824L360.897 222.514V218.004C360.897 217.058 360.695 216.38 360.292 215.969C359.888 215.551 359.283 215.342 358.477 215.342C358.022 215.342 357.608 215.408 357.234 215.54C356.867 215.672 356.574 215.878 356.354 216.156C356.141 216.428 356.035 216.78 356.035 217.212H354.121C354.121 216.45 354.308 215.837 354.682 215.375C355.056 214.906 355.569 214.569 356.222 214.363C356.882 214.151 357.633 214.044 358.477 214.044C359.283 214.044 359.998 214.18 360.622 214.451C361.245 214.723 361.733 215.155 362.085 215.749C362.437 216.336 362.613 217.102 362.613 218.048V224.824H361.117ZM357.531 225.088C356.665 225.088 355.95 224.934 355.386 224.626C354.821 224.318 354.399 223.919 354.121 223.427C353.842 222.936 353.703 222.419 353.703 221.876C353.703 221.165 353.879 220.586 354.231 220.138C354.59 219.691 355.078 219.365 355.694 219.159C356.31 218.947 357.003 218.84 357.773 218.84C358.323 218.84 358.873 218.895 359.423 219.005C359.98 219.115 360.523 219.266 361.051 219.456V220.534C360.611 220.358 360.112 220.219 359.555 220.116C359.005 220.014 358.499 219.962 358.037 219.962C357.333 219.962 356.739 220.109 356.255 220.402C355.771 220.688 355.529 221.18 355.529 221.876C355.529 222.39 355.712 222.83 356.079 223.196C356.453 223.563 357.047 223.746 357.861 223.746C358.433 223.746 358.946 223.614 359.401 223.35C359.863 223.079 360.226 222.742 360.49 222.338C360.761 221.935 360.897 221.532 360.897 221.128H361.315C361.315 221.832 361.161 222.485 360.853 223.086C360.552 223.688 360.119 224.172 359.555 224.538C358.99 224.905 358.315 225.088 357.531 225.088Z" fill="black"/>
<path d="M25.5882 225.833V212.017H30.0322C31.5502 212.017 32.7088 212.402 33.5082 213.172C34.3148 213.935 34.7182 214.972 34.7182 216.285C34.7182 217.583 34.3148 218.613 33.5082 219.376C32.7088 220.131 31.5502 220.509 30.0322 220.509H27.3262V225.833H25.5882ZM27.3262 219.013H30.0322C30.9928 219.013 31.7188 218.767 32.2102 218.276C32.7088 217.785 32.9582 217.121 32.9582 216.285C32.9582 215.434 32.7088 214.756 32.2102 214.25C31.7188 213.744 30.9928 213.491 30.0322 213.491H27.3262V219.013ZM44.9638 215.295H46.6798V225.833H44.9638V215.295ZM37.5058 215.295H39.2218V221.851C39.2218 222.731 39.4345 223.398 39.8598 223.853C40.2925 224.308 40.9085 224.535 41.7078 224.535C42.3678 224.535 42.9398 224.359 43.4238 224.007C43.9151 223.655 44.2928 223.171 44.5568 222.555C44.8281 221.932 44.9638 221.22 44.9638 220.421H45.6018C45.6018 221.602 45.4295 222.61 45.0848 223.446C44.7475 224.282 44.2671 224.924 43.6438 225.371C43.0278 225.811 42.3018 226.031 41.4658 226.031C40.6738 226.031 39.9808 225.884 39.3868 225.591C38.7928 225.298 38.3308 224.854 38.0008 224.26C37.6708 223.659 37.5058 222.9 37.5058 221.983V215.295ZM55.9081 226.097C55.1381 226.097 54.4671 225.921 53.8951 225.569C53.3304 225.217 52.8941 224.704 52.5861 224.029C52.2781 223.347 52.1241 222.518 52.1241 221.543H52.8501C52.8501 222.196 52.9858 222.746 53.2571 223.193C53.5284 223.64 53.8804 223.981 54.3131 224.216C54.7531 224.443 55.2188 224.557 55.7101 224.557C56.2381 224.557 56.7441 224.407 57.2281 224.106C57.7121 223.798 58.1081 223.347 58.4161 222.753C58.7241 222.159 58.8781 221.426 58.8781 220.553C58.8781 219.717 58.7351 219.002 58.4491 218.408C58.1704 217.814 57.7928 217.359 57.3161 217.044C56.8394 216.729 56.3114 216.571 55.7321 216.571C55.2334 216.571 54.7641 216.692 54.3241 216.934C53.8841 217.176 53.5284 217.532 53.2571 218.001C52.9858 218.463 52.8501 219.035 52.8501 219.717H52.1241C52.1241 218.698 52.2928 217.843 52.6301 217.154C52.9674 216.457 53.4258 215.933 54.0051 215.581C54.5844 215.229 55.2334 215.053 55.9521 215.053C56.7734 215.053 57.5398 215.273 58.2511 215.713C58.9624 216.153 59.5381 216.784 59.9781 217.605C60.4181 218.426 60.6381 219.409 60.6381 220.553C60.6381 221.712 60.4144 222.705 59.9671 223.534C59.5271 224.363 58.9478 224.997 58.2291 225.437C57.5104 225.877 56.7368 226.097 55.9081 226.097ZM51.1341 231.003V215.317H52.5641L52.8501 217.781V231.003H51.1341ZM64.9713 212.831C64.6193 212.831 64.3406 212.732 64.1353 212.534C63.9299 212.329 63.8273 212.061 63.8273 211.731C63.8273 211.408 63.9299 211.152 64.1353 210.961C64.3406 210.77 64.6193 210.675 64.9713 210.675C65.3233 210.675 65.6019 210.77 65.8073 210.961C66.0126 211.152 66.1153 211.408 66.1153 211.731C66.1153 212.061 66.0126 212.329 65.8073 212.534C65.6019 212.732 65.3233 212.831 64.9713 212.831ZM64.1133 225.833V215.295H65.8293V225.833H64.1133ZM70.556 225.833V210.829H72.272V225.833H70.556Z" fill="black"/>
<path d="M531.833 217.903C531.833 214.958 529.446 212.57 526.5 212.57C523.554 212.57 521.167 214.958 521.167 217.903C521.167 220.849 523.554 223.237 526.5 223.237C529.446 223.237 531.833 220.849 531.833 217.903ZM507.5 216.903C506.948 216.903 506.5 217.351 506.5 217.903C506.5 218.456 506.948 218.903 507.5 218.903V216.903ZM526.5 216.903H507.5V218.903H526.5V216.903Z" fill="black"/>
<path d="M529.924 252.787C527.474 251.152 524.178 251.824 522.563 254.287C520.949 256.751 521.626 260.073 524.076 261.708C526.526 263.342 529.822 262.67 531.437 260.207C533.051 257.743 532.374 254.421 529.924 252.787ZM485.168 319.239C484.865 319.701 484.992 320.323 485.452 320.63C485.911 320.936 486.529 320.81 486.832 320.349L485.168 319.239ZM526.168 256.692L485.168 319.239L486.832 320.349L527.832 257.802L526.168 256.692Z" fill="black"/>
<path d="M464.5 200.754H507.5V235.054H464.5" stroke="black" stroke-width="2" stroke-linecap="round" stroke-linejoin="round" stroke-dasharray="4 4"/>
<path d="M543.722 211.008H546.186L550.938 220.556H550.762L555.514 211.008H557.912V224.824H556.174V212.79H556.482L551.422 223.086H550.278L545.24 212.856H545.438V224.824H543.722V211.008ZM568.861 224.824L568.641 222.514V218.004C568.641 217.058 568.439 216.38 568.036 215.969C567.633 215.551 567.028 215.342 566.221 215.342C565.766 215.342 565.352 215.408 564.978 215.54C564.611 215.672 564.318 215.878 564.098 216.156C563.885 216.428 563.779 216.78 563.779 217.212H561.865C561.865 216.45 562.052 215.837 562.426 215.375C562.8 214.906 563.313 214.569 563.966 214.363C564.626 214.151 565.378 214.044 566.221 214.044C567.028 214.044 567.743 214.18 568.366 214.451C568.989 214.723 569.477 215.155 569.829 215.749C570.181 216.336 570.357 217.102 570.357 218.048V224.824H568.861ZM565.275 225.088C564.41 225.088 563.695 224.934 563.13 224.626C562.565 224.318 562.144 223.919 561.865 223.427C561.586 222.936 561.447 222.419 561.447 221.876C561.447 221.165 561.623 220.586 561.975 220.138C562.334 219.691 562.822 219.365 563.438 219.159C564.054 218.947 564.747 218.84 565.517 218.84C566.067 218.84 566.617 218.895 567.167 219.005C567.724 219.115 568.267 219.266 568.795 219.456V220.534C568.355 220.358 567.856 220.219 567.299 220.116C566.749 220.014 566.243 219.962 565.781 219.962C565.077 219.962 564.483 220.109 563.999 220.402C563.515 220.688 563.273 221.18 563.273 221.876C563.273 222.39 563.456 222.83 563.823 223.196C564.197 223.563 564.791 223.746 565.605 223.746C566.177 223.746 566.69 223.614 567.145 223.35C567.607 223.079 567.97 222.742 568.234 222.338C568.505 221.935 568.641 221.532 568.641 221.128H569.059C569.059 221.832 568.905 222.485 568.597 223.086C568.296 223.688 567.864 224.172 567.299 224.538C566.734 224.905 566.06 225.088 565.275 225.088ZM578.162 225.088C577.319 225.088 576.53 224.861 575.797 224.406C575.071 223.952 574.484 223.31 574.037 222.481C573.59 221.653 573.366 220.674 573.366 219.544C573.366 218.386 573.59 217.396 574.037 216.574C574.484 215.753 575.071 215.126 575.797 214.693C576.53 214.261 577.319 214.044 578.162 214.044C578.756 214.044 579.288 214.136 579.757 214.319C580.234 214.495 580.648 214.741 581 215.056C581.352 215.372 581.642 215.731 581.869 216.134C582.104 216.53 582.276 216.948 582.386 217.388L580.626 217.542C580.443 216.934 580.135 216.453 579.702 216.101C579.277 215.742 578.756 215.562 578.14 215.562C577.619 215.562 577.128 215.713 576.666 216.013C576.211 216.307 575.841 216.75 575.555 217.344C575.269 217.931 575.126 218.664 575.126 219.544C575.126 220.358 575.254 221.066 575.511 221.667C575.775 222.261 576.134 222.723 576.589 223.053C577.044 223.383 577.561 223.548 578.14 223.548C578.954 223.548 579.57 223.35 579.988 222.954C580.413 222.551 580.626 221.994 580.626 221.282H582.386C582.386 222.016 582.214 222.668 581.869 223.24C581.524 223.812 581.033 224.263 580.395 224.593C579.764 224.923 579.02 225.088 578.162 225.088ZM592.96 214.286H594.676V224.824H592.96V214.286ZM585.502 214.286H587.218V220.842C587.218 221.722 587.431 222.39 587.856 222.844C588.289 223.299 588.905 223.526 589.704 223.526C590.364 223.526 590.936 223.35 591.42 222.998C591.911 222.646 592.289 222.162 592.553 221.546C592.824 220.923 592.96 220.212 592.96 219.412H593.598C593.598 220.593 593.426 221.601 593.081 222.437C592.744 223.273 592.263 223.915 591.64 224.362C591.024 224.802 590.298 225.022 589.462 225.022C588.67 225.022 587.977 224.876 587.383 224.582C586.789 224.289 586.327 223.845 585.997 223.251C585.667 222.65 585.502 221.891 585.502 220.974V214.286ZM599.13 224.824V209.82H600.846V224.824H599.13ZM611.808 224.824L611.588 222.514V218.004C611.588 217.058 611.387 216.38 610.983 215.969C610.58 215.551 609.975 215.342 609.168 215.342C608.714 215.342 608.299 215.408 607.925 215.54C607.559 215.672 607.265 215.878 607.045 216.156C606.833 216.428 606.726 216.78 606.726 217.212H604.812C604.812 216.45 604.999 215.837 605.373 215.375C605.747 214.906 606.261 214.569 606.913 214.363C607.573 214.151 608.325 214.044 609.168 214.044C609.975 214.044 610.69 214.18 611.313 214.451C611.937 214.723 612.424 215.155 612.776 215.749C613.128 216.336 613.304 217.102 613.304 218.048V224.824H611.808ZM608.222 225.088C607.357 225.088 606.642 224.934 606.077 224.626C605.513 224.318 605.091 223.919 604.812 223.427C604.534 222.936 604.394 222.419 604.394 221.876C604.394 221.165 604.57 220.586 604.922 220.138C605.282 219.691 605.769 219.365 606.385 219.159C607.001 218.947 607.694 218.84 608.464 218.84C609.014 218.84 609.564 218.895 610.114 219.005C610.672 219.115 611.214 219.266 611.742 219.456V220.534C611.302 220.358 610.804 220.219 610.246 220.116C609.696 220.014 609.19 219.962 608.728 219.962C608.024 219.962 607.43 220.109 606.946 220.402C606.462 220.688 606.22 221.18 606.22 221.876C606.22 222.39 606.404 222.83 606.77 223.196C607.144 223.563 607.738 223.746 608.552 223.746C609.124 223.746 609.638 223.614 610.092 223.35C610.554 223.079 610.917 222.742 611.181 222.338C611.453 221.935 611.588 221.532 611.588 221.128H612.006C612.006 221.832 611.852 222.485 611.544 223.086C611.244 223.688 610.811 224.172 610.246 224.538C609.682 224.905 609.007 225.088 608.222 225.088Z" fill="black"/>
<path d="M548.606 264.432C547.462 264.432 546.439 264.168 545.537 263.64C544.635 263.112 543.924 262.32 543.403 261.264C542.882 260.201 542.622 258.873 542.622 257.282C542.622 255.669 542.882 254.334 543.403 253.278C543.924 252.215 544.635 251.423 545.537 250.902C546.439 250.374 547.462 250.11 548.606 250.11C549.75 250.11 550.773 250.374 551.675 250.902C552.577 251.43 553.288 252.226 553.809 253.289C554.33 254.352 554.59 255.683 554.59 257.282C554.59 258.888 554.33 260.223 553.809 261.286C553.288 262.342 552.577 263.13 551.675 263.651C550.773 264.172 549.75 264.432 548.606 264.432ZM548.606 262.848C549.904 262.848 550.927 262.375 551.675 261.429C552.43 260.483 552.808 259.093 552.808 257.26C552.808 255.463 552.43 254.081 551.675 253.113C550.927 252.138 549.904 251.65 548.606 251.65C547.323 251.65 546.3 252.138 545.537 253.113C544.782 254.088 544.404 255.478 544.404 257.282C544.404 259.108 544.782 260.494 545.537 261.44C546.3 262.379 547.323 262.848 548.606 262.848ZM562.697 264.432C561.927 264.432 561.256 264.256 560.684 263.904C560.12 263.552 559.683 263.039 559.375 262.364C559.067 261.682 558.913 260.853 558.913 259.878H559.639C559.639 260.531 559.775 261.081 560.046 261.528C560.318 261.975 560.67 262.316 561.102 262.551C561.542 262.778 562.008 262.892 562.499 262.892C563.027 262.892 563.533 262.742 564.017 262.441C564.501 262.133 564.897 261.682 565.205 261.088C565.513 260.494 565.667 259.761 565.667 258.888C565.667 258.052 565.524 257.337 565.238 256.743C564.96 256.149 564.582 255.694 564.105 255.379C563.629 255.064 563.101 254.906 562.521 254.906C562.023 254.906 561.553 255.027 561.113 255.269C560.673 255.511 560.318 255.867 560.046 256.336C559.775 256.798 559.639 257.37 559.639 258.052H558.913C558.913 257.033 559.082 256.178 559.419 255.489C559.757 254.792 560.215 254.268 560.794 253.916C561.374 253.564 562.023 253.388 562.741 253.388C563.563 253.388 564.329 253.608 565.04 254.048C565.752 254.488 566.327 255.119 566.767 255.94C567.207 256.761 567.427 257.744 567.427 258.888C567.427 260.047 567.204 261.04 566.756 261.869C566.316 262.698 565.737 263.332 565.018 263.772C564.3 264.212 563.526 264.432 562.697 264.432ZM557.923 269.338V253.652H559.353L559.639 256.116V269.338H557.923ZM574.026 264.432C573.454 264.432 572.941 264.322 572.486 264.102C572.032 263.882 571.672 263.552 571.408 263.112C571.144 262.672 571.012 262.122 571.012 261.462V250.726H572.706V261.418C572.706 262.503 573.212 263.046 574.224 263.046C574.525 263.046 574.815 263.013 575.093 262.947C575.379 262.881 575.698 262.782 576.05 262.65L576.292 263.882C575.918 264.043 575.544 264.175 575.17 264.278C574.804 264.381 574.422 264.432 574.026 264.432ZM569.318 254.84V253.652H576.028V254.84H569.318ZM580.032 251.166C579.68 251.166 579.401 251.067 579.196 250.869C578.99 250.664 578.888 250.396 578.888 250.066C578.888 249.743 578.99 249.487 579.196 249.296C579.401 249.105 579.68 249.01 580.032 249.01C580.384 249.01 580.662 249.105 580.868 249.296C581.073 249.487 581.176 249.743 581.176 250.066C581.176 250.396 581.073 250.664 580.868 250.869C580.662 251.067 580.384 251.166 580.032 251.166ZM579.174 264.168V253.63H580.89V264.168H579.174ZM589.313 264.432C588.469 264.432 587.681 264.205 586.948 263.75C586.222 263.295 585.635 262.654 585.188 261.825C584.74 260.996 584.517 260.017 584.517 258.888C584.517 257.729 584.74 256.739 585.188 255.918C585.635 255.097 586.222 254.47 586.948 254.037C587.681 253.604 588.469 253.388 589.313 253.388C589.907 253.388 590.438 253.48 590.908 253.663C591.384 253.839 591.799 254.085 592.151 254.4C592.503 254.715 592.792 255.075 593.02 255.478C593.254 255.874 593.427 256.292 593.537 256.732L591.777 256.886C591.593 256.277 591.285 255.797 590.853 255.445C590.427 255.086 589.907 254.906 589.291 254.906C588.77 254.906 588.279 255.056 587.817 255.357C587.362 255.65 586.992 256.094 586.706 256.688C586.42 257.275 586.277 258.008 586.277 258.888C586.277 259.702 586.405 260.41 586.662 261.011C586.926 261.605 587.285 262.067 587.74 262.397C588.194 262.727 588.711 262.892 589.291 262.892C590.105 262.892 590.721 262.694 591.139 262.298C591.564 261.895 591.777 261.337 591.777 260.626H593.537C593.537 261.359 593.364 262.012 593.02 262.584C592.675 263.156 592.184 263.607 591.546 263.937C590.915 264.267 590.171 264.432 589.313 264.432ZM609.661 264.168V257.986C609.661 256.981 609.419 256.219 608.935 255.698C608.458 255.17 607.806 254.906 606.977 254.906C606.346 254.906 605.8 255.078 605.338 255.423C604.876 255.768 604.52 256.263 604.271 256.908C604.022 257.546 603.897 258.309 603.897 259.196H603.237C603.237 257.971 603.398 256.926 603.721 256.061C604.044 255.196 604.513 254.536 605.129 254.081C605.752 253.619 606.508 253.388 607.395 253.388C608.224 253.388 608.931 253.575 609.518 253.949C610.112 254.316 610.567 254.844 610.882 255.533C611.197 256.222 611.355 257.04 611.355 257.986V264.168H609.661ZM602.181 264.168V253.652H603.655L603.897 256.072V264.168H602.181ZM619.11 264.432C618.201 264.432 617.387 264.201 616.668 263.739C615.957 263.27 615.392 262.621 614.974 261.792C614.564 260.963 614.358 260.01 614.358 258.932C614.358 257.781 614.564 256.791 614.974 255.962C615.385 255.133 615.946 254.499 616.657 254.059C617.376 253.612 618.194 253.388 619.11 253.388C619.91 253.388 620.592 253.549 621.156 253.872C621.721 254.195 622.176 254.631 622.52 255.181C622.865 255.731 623.103 256.354 623.235 257.051C623.375 257.74 623.415 258.455 623.356 259.196H615.744V258.14H622.223L621.717 258.47C621.739 258.037 621.714 257.605 621.64 257.172C621.574 256.739 621.446 256.343 621.255 255.984C621.065 255.617 620.797 255.324 620.452 255.104C620.108 254.884 619.668 254.774 619.132 254.774C618.458 254.774 617.893 254.946 617.438 255.291C616.984 255.636 616.643 256.09 616.415 256.655C616.188 257.212 616.074 257.817 616.074 258.47V259.174C616.074 259.907 616.184 260.564 616.404 261.143C616.632 261.722 616.969 262.181 617.416 262.518C617.864 262.855 618.428 263.024 619.11 263.024C619.792 263.024 620.353 262.859 620.793 262.529C621.233 262.199 621.501 261.711 621.596 261.066H623.378C623.268 261.763 623.019 262.364 622.63 262.87C622.242 263.369 621.747 263.754 621.145 264.025C620.544 264.296 619.866 264.432 619.11 264.432ZM626.759 264.168V253.63H628.475V264.168H626.759ZM627.947 259.416C627.947 258.081 628.075 256.974 628.332 256.094C628.589 255.207 628.963 254.547 629.454 254.114C629.953 253.674 630.558 253.454 631.269 253.454C631.504 253.454 631.716 253.472 631.907 253.509C632.105 253.538 632.303 253.586 632.501 253.652L632.391 255.346C632.186 255.28 631.962 255.225 631.72 255.181C631.478 255.13 631.262 255.104 631.071 255.104C630.448 255.104 629.945 255.284 629.564 255.643C629.183 255.995 628.904 256.494 628.728 257.139C628.559 257.784 628.475 258.543 628.475 259.416H627.947ZM632.882 253.652H634.84L638.14 262.694H637.898L641.198 253.652H643.156L638.954 264.168H637.084L632.882 253.652ZM649.425 264.432C648.515 264.432 647.701 264.201 646.983 263.739C646.271 263.27 645.707 262.621 645.289 261.792C644.878 260.963 644.673 260.01 644.673 258.932C644.673 257.781 644.878 256.791 645.289 255.962C645.699 255.133 646.26 254.499 646.972 254.059C647.69 253.612 648.508 253.388 649.425 253.388C650.224 253.388 650.906 253.549 651.471 253.872C652.035 254.195 652.49 254.631 652.835 255.181C653.179 255.731 653.418 256.354 653.55 257.051C653.689 257.74 653.729 258.455 653.671 259.196H646.059V258.14H652.538L652.032 258.47C652.054 258.037 652.028 257.605 651.955 257.172C651.889 256.739 651.76 256.343 651.57 255.984C651.379 255.617 651.111 255.324 650.767 255.104C650.422 254.884 649.982 254.774 649.447 254.774C648.772 254.774 648.207 254.946 647.753 255.291C647.298 255.636 646.957 256.09 646.73 256.655C646.502 257.212 646.389 257.817 646.389 258.47V259.174C646.389 259.907 646.499 260.564 646.719 261.143C646.946 261.722 647.283 262.181 647.731 262.518C648.178 262.855 648.743 263.024 649.425 263.024C650.107 263.024 650.668 262.859 651.108 262.529C651.548 262.199 651.815 261.711 651.911 261.066H653.693C653.583 261.763 653.333 262.364 652.945 262.87C652.556 263.369 652.061 263.754 651.46 264.025C650.858 264.296 650.18 264.432 649.425 264.432Z" fill="black"/>
<path d="M44.9954 265.177V251.361H46.7114V265.177H44.9954ZM51.1615 265.177V254.639H52.8775V265.177H51.1615ZM52.3495 260.425C52.3495 259.09 52.4778 257.983 52.7345 257.103C52.9911 256.215 53.3651 255.555 53.8565 255.123C54.3551 254.683 54.9601 254.463 55.6715 254.463C55.9061 254.463 56.1188 254.481 56.3095 254.518C56.5075 254.547 56.7055 254.595 56.9035 254.661L56.7935 256.355C56.5881 256.289 56.3645 256.234 56.1225 256.19C55.8805 256.138 55.6641 256.113 55.4735 256.113C54.8501 256.113 54.3478 256.292 53.9665 256.652C53.5851 257.004 53.3065 257.502 53.1305 258.148C52.9618 258.793 52.8775 259.552 52.8775 260.425H52.3495ZM60.0787 252.175C59.7267 252.175 59.448 252.076 59.2427 251.878C59.0373 251.672 58.9347 251.405 58.9347 251.075C58.9347 250.752 59.0373 250.495 59.2427 250.305C59.448 250.114 59.7267 250.019 60.0787 250.019C60.4307 250.019 60.7093 250.114 60.9147 250.305C61.12 250.495 61.2227 250.752 61.2227 251.075C61.2227 251.405 61.12 251.672 60.9147 251.878C60.7093 252.076 60.4307 252.175 60.0787 252.175ZM59.2207 265.177V254.639H60.9367V265.177H59.2207ZM69.4474 265.441C68.4281 265.441 67.5774 265.298 66.8954 265.012C66.2134 264.718 65.6964 264.319 65.3444 263.813C64.9924 263.299 64.8054 262.713 64.7834 262.053H66.4334C66.4701 262.72 66.7377 263.222 67.2364 263.56C67.7424 263.89 68.4281 264.055 69.2934 264.055C69.7481 264.055 70.1661 263.981 70.5474 263.835C70.9287 263.688 71.2331 263.486 71.4604 263.23C71.6877 262.973 71.8014 262.683 71.8014 262.361C71.8014 261.95 71.6511 261.627 71.3504 261.393C71.0497 261.158 70.5694 260.953 69.9094 260.777L67.8634 260.117C66.9761 259.838 66.2941 259.457 65.8174 258.973C65.3481 258.481 65.1134 257.895 65.1134 257.213C65.1134 256.362 65.4874 255.68 66.2354 255.167C66.9834 254.653 67.9661 254.397 69.1834 254.397C70.4741 254.397 71.4751 254.661 72.1864 255.189C72.8977 255.717 73.2681 256.377 73.2974 257.169H71.6034C71.5374 256.707 71.3027 256.358 70.8994 256.124C70.4961 255.882 69.9241 255.761 69.1834 255.761C68.4721 255.761 67.9147 255.922 67.5114 256.245C67.1154 256.56 66.9174 256.912 66.9174 257.301C66.9174 258.027 67.5407 258.562 68.7874 258.907L70.8774 259.611C71.7794 259.882 72.4687 260.238 72.9454 260.678C73.4294 261.118 73.6714 261.679 73.6714 262.361C73.6714 262.889 73.4991 263.387 73.1544 263.857C72.8097 264.326 72.3221 264.707 71.6914 265.001C71.0607 265.294 70.3127 265.441 69.4474 265.441Z" fill="black"/>
<path d="M11.85 186.752C10.6327 186.752 9.58403 186.448 8.70403 185.839C7.82403 185.223 7.1457 184.373 6.66903 183.287C6.19236 182.195 5.95403 180.93 5.95403 179.492C5.95403 177.96 6.2107 176.669 6.72403 175.62C7.2447 174.572 7.9487 173.78 8.83603 173.244C9.7307 172.702 10.7354 172.43 11.85 172.43C13.324 172.43 14.5084 172.801 15.403 173.541C16.305 174.275 16.9247 175.232 17.262 176.412L15.414 176.786C15.128 175.928 14.6697 175.246 14.039 174.74C13.4157 174.227 12.686 173.97 11.85 173.97C11.124 173.97 10.453 174.179 9.83703 174.597C9.22836 175.008 8.73703 175.624 8.36303 176.445C7.98903 177.267 7.80203 178.282 7.80203 179.492C7.80203 180.592 7.9487 181.571 8.24203 182.429C8.5427 183.287 8.99003 183.962 9.58403 184.453C10.1854 184.945 10.9407 185.19 11.85 185.19C12.9427 185.19 13.808 184.897 14.446 184.31C15.0914 183.724 15.414 182.954 15.414 182H17.284C17.284 182.99 17.0567 183.841 16.602 184.552C16.1474 185.256 15.5094 185.799 14.688 186.18C13.874 186.562 12.928 186.752 11.85 186.752ZM24.3522 186.752C23.4062 186.752 22.5629 186.543 21.8222 186.125C21.0889 185.707 20.5096 185.088 20.0842 184.266C19.6589 183.445 19.4462 182.433 19.4462 181.23C19.4462 180.02 19.6589 179.008 20.0842 178.194C20.5096 177.373 21.0889 176.753 21.8222 176.335C22.5629 175.917 23.4062 175.708 24.3522 175.708C25.2909 175.708 26.1269 175.917 26.8602 176.335C27.6009 176.753 28.1802 177.373 28.5982 178.194C29.0236 179.008 29.2362 180.02 29.2362 181.23C29.2362 182.433 29.0236 183.445 28.5982 184.266C28.1802 185.088 27.6009 185.707 26.8602 186.125C26.1269 186.543 25.2909 186.752 24.3522 186.752ZM24.3082 185.256C24.9902 185.256 25.5696 185.095 26.0462 184.772C26.5229 184.442 26.8822 183.977 27.1242 183.375C27.3736 182.774 27.4982 182.059 27.4982 181.23C27.4982 179.976 27.2379 178.99 26.7172 178.271C26.1966 177.545 25.4229 177.182 24.3962 177.182C23.7069 177.182 23.1239 177.347 22.6472 177.677C22.1779 178 21.8186 178.466 21.5692 179.074C21.3272 179.676 21.2062 180.394 21.2062 181.23C21.2062 182.47 21.4666 183.452 21.9872 184.178C22.5152 184.897 23.2889 185.256 24.3082 185.256ZM32.5775 186.488V175.95H34.2935V186.488H32.5775ZM33.7655 181.736C33.7655 180.402 33.8938 179.294 34.1505 178.414C34.4071 177.527 34.7811 176.867 35.2725 176.434C35.7711 175.994 36.3761 175.774 37.0875 175.774C37.3221 175.774 37.5348 175.793 37.7255 175.829C37.9235 175.859 38.1215 175.906 38.3195 175.972L38.2095 177.666C38.0041 177.6 37.7805 177.545 37.5385 177.501C37.2965 177.45 37.0801 177.424 36.8895 177.424C36.2661 177.424 35.7638 177.604 35.3825 177.963C35.0011 178.315 34.7225 178.814 34.5465 179.459C34.3778 180.105 34.2935 180.864 34.2935 181.736H33.7655ZM48.0067 186.488V180.306C48.0067 179.302 47.7647 178.539 47.2807 178.018C46.804 177.49 46.1514 177.226 45.3227 177.226C44.692 177.226 44.1457 177.399 43.6837 177.743C43.2217 178.088 42.866 178.583 42.6167 179.228C42.3674 179.866 42.2427 180.629 42.2427 181.516H41.5827C41.5827 180.292 41.744 179.247 42.0667 178.381C42.3894 177.516 42.8587 176.856 43.4747 176.401C44.098 175.939 44.8534 175.708 45.7407 175.708C46.5694 175.708 47.277 175.895 47.8637 176.269C48.4577 176.636 48.9124 177.164 49.2277 177.853C49.543 178.543 49.7007 179.36 49.7007 180.306V186.488H48.0067ZM40.5267 186.488V175.972H42.0007L42.2427 178.392V186.488H40.5267ZM57.456 186.752C56.5467 186.752 55.7327 186.521 55.014 186.059C54.3027 185.59 53.738 184.941 53.32 184.112C52.9094 183.284 52.704 182.33 52.704 181.252C52.704 180.101 52.9094 179.111 53.32 178.282C53.7307 177.454 54.2917 176.819 55.003 176.379C55.7217 175.932 56.5394 175.708 57.456 175.708C58.2554 175.708 58.9374 175.87 59.502 176.192C60.0667 176.515 60.5214 176.951 60.866 177.501C61.2107 178.051 61.449 178.675 61.581 179.371C61.7204 180.061 61.7607 180.776 61.702 181.516H54.09V180.46H60.569L60.063 180.79C60.085 180.358 60.0594 179.925 59.986 179.492C59.92 179.06 59.7917 178.664 59.601 178.304C59.4104 177.938 59.1427 177.644 58.798 177.424C58.4534 177.204 58.0134 177.094 57.478 177.094C56.8034 177.094 56.2387 177.267 55.784 177.611C55.3294 177.956 54.9884 178.411 54.761 178.975C54.5337 179.533 54.42 180.138 54.42 180.79V181.494C54.42 182.228 54.53 182.884 54.75 183.463C54.9774 184.043 55.3147 184.501 55.762 184.838C56.2094 185.176 56.774 185.344 57.456 185.344C58.138 185.344 58.699 185.179 59.139 184.849C59.579 184.519 59.8467 184.032 59.942 183.386H61.724C61.614 184.083 61.3647 184.684 60.976 185.19C60.5874 185.689 60.0924 186.074 59.491 186.345C58.8897 186.617 58.2114 186.752 57.456 186.752ZM71.6168 186.488L71.3968 184.178V179.668C71.3968 178.722 71.1951 178.044 70.7918 177.633C70.3885 177.215 69.7835 177.006 68.9768 177.006C68.5221 177.006 68.1078 177.072 67.7338 177.204C67.3671 177.336 67.0738 177.542 66.8538 177.82C66.6411 178.092 66.5348 178.444 66.5348 178.876H64.6208C64.6208 178.114 64.8078 177.501 65.1818 177.039C65.5558 176.57 66.0691 176.233 66.7218 176.027C67.3818 175.815 68.1335 175.708 68.9768 175.708C69.7835 175.708 70.4985 175.844 71.1218 176.115C71.7451 176.387 72.2328 176.819 72.5848 177.413C72.9368 178 73.1128 178.766 73.1128 179.712V186.488H71.6168ZM68.0308 186.752C67.1655 186.752 66.4505 186.598 65.8858 186.29C65.3211 185.982 64.8995 185.583 64.6208 185.091C64.3421 184.6 64.2028 184.083 64.2028 183.54C64.2028 182.829 64.3788 182.25 64.7308 181.802C65.0901 181.355 65.5778 181.029 66.1938 180.823C66.8098 180.611 67.5028 180.504 68.2728 180.504C68.8228 180.504 69.3728 180.559 69.9228 180.669C70.4801 180.779 71.0228 180.93 71.5508 181.12V182.198C71.1108 182.022 70.6121 181.883 70.0548 181.78C69.5048 181.678 68.9988 181.626 68.5368 181.626C67.8328 181.626 67.2388 181.773 66.7548 182.066C66.2708 182.352 66.0288 182.844 66.0288 183.54C66.0288 184.054 66.2121 184.494 66.5788 184.86C66.9528 185.227 67.5468 185.41 68.3608 185.41C68.9328 185.41 69.4461 185.278 69.9008 185.014C70.3628 184.743 70.7258 184.406 70.9898 184.002C71.2611 183.599 71.3968 183.196 71.3968 182.792H71.8148C71.8148 183.496 71.6608 184.149 71.3528 184.75C71.0521 185.352 70.6195 185.836 70.0548 186.202C69.4901 186.569 68.8155 186.752 68.0308 186.752Z" fill="black"/>
</svg>
