<svg width="78" height="51" viewBox="0 0 78 51" fill="none" xmlns="http://www.w3.org/2000/svg">
<path d="M0 0.710363C0 0.486041 0.224322 0.261719 0.448644 0.261719H2.0189C2.24322 0.261719 2.46754 0.486041 2.46754 0.710363V16.4877C2.46754 16.712 2.24322 16.9363 2.0189 16.9363H0.448644C0.224322 16.9363 0 16.712 0 16.4877V0.710363Z" fill="black"/>
<path d="M5.83237 0.8597C5.68282 0.560604 5.86976 0.224121 6.24363 0.224121H7.92604C8.11298 0.224121 8.29991 0.373669 8.3373 0.48583L13.5715 12.2627H13.721L18.9552 0.48583C18.9926 0.373669 19.1421 0.224121 19.3665 0.224121H21.0489C21.4227 0.224121 21.6097 0.523217 21.4601 0.8597L14.1697 16.8987C14.0949 17.0483 13.9453 17.1604 13.7584 17.1604H13.5341C13.3845 17.1604 13.1976 17.0483 13.1228 16.8987L5.83237 0.8597Z" fill="black"/>
<path d="M24.825 0.710363C24.825 0.486041 25.0119 0.261719 25.2736 0.261719H34.8073C35.069 0.261719 35.2559 0.486041 35.2559 0.710363V2.05629C35.2559 2.28062 35.069 2.50494 34.8073 2.50494H27.2925V7.36525H33.6483C33.8726 7.36525 34.0969 7.58957 34.0969 7.81389V9.15982C34.0969 9.42153 33.8726 9.60847 33.6483 9.60847H27.2925V14.7305H34.8073C35.069 14.7305 35.2559 14.9548 35.2559 15.1791V16.4877C35.2559 16.712 35.069 16.9363 34.8073 16.9363H25.2736C25.0119 16.9363 24.825 16.712 24.825 16.4877V0.710363Z" fill="black"/>
<path d="M39.8171 0.710363C39.8171 0.486041 40.0041 0.261719 40.2658 0.261719H46.7337C49.5752 0.261719 51.9305 2.54233 51.9305 5.34635C51.9305 7.55218 50.4724 9.34676 48.4162 10.1693L51.6688 16.226C51.8184 16.5251 51.6688 16.8989 51.2576 16.8989H49.3882C49.2013 16.8989 49.0517 16.7868 49.0143 16.6746L45.8364 10.3562H42.2473V16.4129C42.2473 16.6372 42.023 16.8615 41.7987 16.8615H40.2658C40.0041 16.8615 39.8171 16.6372 39.8171 16.4129V0.710363ZM46.5468 8.33731C48.0797 8.33731 49.463 7.02876 49.463 5.38374C49.463 3.85087 48.1171 2.54233 46.5468 2.54233H42.3221V8.33731H46.5468Z" fill="black"/>
<path d="M56.6039 0.710363C56.6039 0.486041 56.8282 0.261719 57.0525 0.261719H58.6228C58.8471 0.261719 59.0714 0.486041 59.0714 0.710363V16.4877C59.0714 16.712 58.8471 16.9363 58.6228 16.9363H57.0525C56.8282 16.9363 56.6039 16.712 56.6039 16.4877V0.710363Z" fill="black"/>
<path d="M72.0447 0C74.4375 0 76.1947 0.822514 77.8023 2.20583C78.0267 2.39277 78.0267 2.69186 77.8397 2.8788L76.7929 3.96302C76.6433 4.18734 76.419 4.18734 76.1947 3.96302C75.0731 2.99096 73.5402 2.35538 72.0821 2.35538C68.6799 2.35538 66.1002 5.19679 66.1002 8.56162C66.1002 11.9264 68.6799 14.7305 72.1195 14.7305C73.8767 14.7305 75.0731 14.0575 76.2321 13.1602C76.4564 13.0107 76.6433 13.0107 76.7929 13.1228L77.8771 14.2071C78.064 14.3566 78.0267 14.6931 77.8397 14.8426C76.2321 16.4129 74.1758 17.1606 72.0447 17.1606C67.2966 17.1606 63.4457 13.3845 63.4457 8.59901C63.4457 3.85086 67.2966 0 72.0447 0Z" fill="black"/>
<path d="M0 22.8061C0 22.5817 0.186935 22.3574 0.448644 22.3574H5.7576C8.71117 22.3574 10.7301 24.2642 10.7301 26.8065C10.7301 28.6758 9.4963 30.0218 8.37469 30.6947C9.64584 31.2181 11.2909 32.4145 11.2909 34.6577C11.2909 37.387 9.12243 39.3311 6.01931 39.3311H0.486032C0.224323 39.3311 0.0373878 39.1068 0.0373878 38.8825V22.8061H0ZM6.20624 37.6487C7.96343 37.6487 9.27197 36.3028 9.27197 34.583C9.27197 32.8632 7.70172 31.592 5.79498 31.592H1.79458V37.6487H6.20624ZM5.79498 29.947C7.66433 29.947 8.71117 28.601 8.71117 26.9186C8.71117 25.1614 7.66433 24.0024 5.79498 24.0024H1.83196V29.947H5.79498Z" fill="black"/>
<path d="M16.1138 22.8061C16.1138 22.5817 16.3381 22.3574 16.5624 22.3574H17.5345C17.7588 22.3574 17.9831 22.5817 17.9831 22.8061V38.8451C17.9831 39.0694 17.7588 39.2937 17.5345 39.2937H16.5624C16.3381 39.2937 16.1138 39.0694 16.1138 38.8451V22.8061Z" fill="black"/>
<path d="M30.8817 23.9278C30.919 23.9278 30.919 23.9278 30.9564 23.9278C33.2744 23.9278 35.4055 24.8999 37.0131 26.5823C38.5834 28.2273 39.4433 30.3957 39.4807 32.6763C39.6302 31.7791 39.6302 31.3678 39.5928 30.5453C39.2937 25.6102 35.1438 21.8341 30.3208 22.0958C25.4979 22.3575 21.834 26.5823 22.1331 31.5174C22.1705 31.8912 22.2079 32.2651 22.2826 32.639C22.3574 27.816 25.797 24.1147 30.8817 23.9278Z" fill="black"/>
<path d="M38.9199 32.0781C38.8451 32.4145 38.7703 32.7884 38.6208 33.1623C38.5834 33.2744 38.546 33.3492 38.5086 33.4614C38.4712 33.5361 38.4712 33.6109 38.4338 33.6483C37.9852 34.6578 37.2748 35.555 36.3775 36.228L36.3402 36.2654C36.2654 36.3402 36.1532 36.3776 36.0784 36.4523C36.0037 36.4897 35.9289 36.5645 35.8541 36.6019C35.8167 36.6019 35.7794 36.6393 35.7794 36.6393C34.8073 37.2375 33.6857 37.5739 32.4519 37.6487C32.2276 37.6487 31.9659 37.6487 31.7416 37.6487C31.7416 37.6487 31.7416 37.6487 31.7042 37.6487C31.4798 37.6487 31.2555 37.6113 31.0686 37.5739C30.919 37.5366 30.7695 37.5366 30.6199 37.4992C30.5452 37.4992 30.4704 37.4618 30.3956 37.4618C28.8628 37.0879 27.5542 36.228 26.6569 35.069C26.6195 35.0316 26.6195 35.0316 26.5822 34.9942C26.5448 34.9195 26.47 34.8447 26.4326 34.7699C25.7223 33.7979 25.311 32.6015 25.2362 31.3303C25.2362 31.0312 25.2362 30.6947 25.2736 30.3956C25.4979 28.3394 26.7317 26.5074 28.4889 25.4232C29.0871 25.0493 29.7974 24.7876 30.5078 24.6007C30.5826 24.6007 30.6573 24.5633 30.7695 24.5259C30.2461 24.5633 29.7227 24.638 29.1992 24.7502C29.1619 24.7502 29.0871 24.7502 29.0497 24.7876C28.8254 24.825 28.601 24.8998 28.3767 24.9745C28.3393 24.9745 28.302 25.0119 28.2646 25.0119C28.0402 25.0867 27.8159 25.1615 27.629 25.2736C27.5916 25.2736 27.5542 25.311 27.5168 25.311C27.3673 25.3858 27.2551 25.4232 27.1056 25.4979L27.0682 25.5353C24.5259 26.9186 22.8435 29.5731 22.9556 32.5267C23.1425 36.7514 26.8439 40.0415 31.2555 39.8545C35.4429 39.6676 38.7329 36.5271 38.9199 32.6015C38.9199 32.4519 38.9199 32.265 38.9199 32.0781Z" fill="black"/>
<path d="M1.08422 47.3768L0.598191 48.8349H0L1.57025 44.2363H2.28061L3.85086 48.8349H3.21528L2.72925 47.3768H1.08422ZM2.5797 46.9282L2.13106 45.6197C2.0189 45.3206 1.94412 45.0588 1.90674 44.7971C1.83196 45.0588 1.75719 45.3579 1.68241 45.6197L1.23377 46.9656H2.5797V46.9282Z" fill="black"/>
<path d="M4.48644 46.4423C4.48644 46.1058 4.48644 45.8067 4.44905 45.545H4.97247L5.00986 46.1058C5.1594 45.8067 5.57066 45.4702 6.09408 45.4702C6.54272 45.4702 7.25308 45.7319 7.25308 46.8909V48.8724H6.65488V46.9657C6.65488 46.4423 6.46795 45.9936 5.90714 45.9936C5.49589 45.9936 5.19679 46.2927 5.08463 46.5918C5.04724 46.6666 5.04724 46.7788 5.04724 46.8909V48.8724H4.44905V46.4423H4.48644Z" fill="black"/>
<path d="M10.4684 47.3768L9.98233 48.8349H9.38414L10.9544 44.2363H11.6647L13.235 48.8349H12.5994L12.1134 47.3768H10.4684ZM12.0012 46.9282L11.5526 45.6197C11.4404 45.3206 11.3656 45.0588 11.3283 44.7971C11.2535 45.0588 11.1787 45.3579 11.1039 45.6197L10.6553 46.9656H12.0012V46.9282Z" fill="black"/>
<path d="M13.7958 48.2369C13.9827 48.349 14.2818 48.4612 14.5809 48.4612C15.0296 48.4612 15.2165 48.2369 15.2165 47.9751C15.2165 47.676 15.0296 47.5265 14.6183 47.377C14.0201 47.1526 13.7584 46.8535 13.7584 46.4423C13.7584 45.9189 14.2071 45.4702 14.9174 45.4702C15.2539 45.4702 15.553 45.5824 15.7399 45.6571L15.5904 46.1058C15.4782 46.031 15.2165 45.9189 14.9174 45.9189C14.5435 45.9189 14.3566 46.1058 14.3566 46.3675C14.3566 46.6292 14.5435 46.7788 14.9922 46.9283C15.553 47.1526 15.8521 47.4517 15.8521 47.9378C15.8521 48.5359 15.4034 48.9472 14.6183 48.9472C14.2444 48.9472 13.908 48.8724 13.6836 48.7229L13.7958 48.2369Z" fill="black"/>
<path d="M17.3102 44.5728V45.5074H18.1701V45.9561H17.3102V47.7506C17.3102 48.1619 17.4223 48.3862 17.7588 48.3862C17.9084 48.3862 18.0205 48.3488 18.0953 48.3488L18.1327 48.7975C18.0205 48.8349 17.8336 48.8723 17.6093 48.8723C17.3102 48.8723 17.0859 48.7975 16.9737 48.6105C16.7868 48.4236 16.7494 48.1245 16.7494 47.7506V45.9561H16.226V45.5074H16.7494V44.7223L17.3102 44.5728Z" fill="black"/>
<path d="M19.1421 47.302C19.1421 48.1245 19.6656 48.461 20.2637 48.461C20.7124 48.461 20.9367 48.3862 21.1984 48.274L21.3106 48.7227C21.0863 48.8348 20.7498 48.9096 20.2264 48.9096C19.2169 48.9096 18.5813 48.2366 18.5813 47.2272C18.5813 46.2177 19.1795 45.4326 20.1516 45.4326C21.2358 45.4326 21.5349 46.3673 21.5349 47.0029C21.5349 47.115 21.5349 47.2272 21.4975 47.302H19.1421ZM20.8993 46.8533C20.8993 46.4794 20.7498 45.8813 20.0768 45.8813C19.4786 45.8813 19.2169 46.4421 19.1421 46.8533H20.8993Z" fill="black"/>
<path d="M22.2079 43.9746H22.8061V48.8349H22.2079V43.9746Z" fill="black"/>
<path d="M23.8529 43.9746H24.4511V48.8349H23.8529V43.9746Z" fill="black"/>
<path d="M27.2925 48.835L27.2551 48.4238H27.2177C27.0308 48.6855 26.6943 48.9098 26.2083 48.9098C25.5353 48.9098 25.1988 48.4238 25.1988 47.9751C25.1988 47.19 25.9092 46.7414 27.1803 46.7414V46.6666C27.1803 46.4049 27.1056 45.9189 26.4326 45.9189C26.1335 45.9189 25.797 46.031 25.5727 46.1806L25.4231 45.7693C25.6849 45.5824 26.0961 45.4702 26.5074 45.4702C27.5168 45.4702 27.7785 46.1432 27.7785 46.8161V48.0499C27.7785 48.349 27.7785 48.6107 27.8159 48.835H27.2925ZM27.1803 47.1526C26.5074 47.1526 25.7596 47.2648 25.7596 47.9004C25.7596 48.2742 26.0213 48.4612 26.3204 48.4612C26.7691 48.4612 27.0308 48.1995 27.1056 47.9004C27.143 47.8256 27.143 47.7882 27.143 47.7134V47.1526H27.1803Z" fill="black"/>
<path d="M28.6758 48.2369C28.8628 48.349 29.1619 48.4612 29.4609 48.4612C29.9096 48.4612 30.0965 48.2369 30.0965 47.9751C30.0965 47.676 29.9096 47.5265 29.4983 47.377C28.9001 47.1526 28.6384 46.8535 28.6384 46.4423C28.6384 45.9189 29.0871 45.4702 29.7974 45.4702C30.1339 45.4702 30.433 45.5824 30.6199 45.6571L30.4704 46.1058C30.3582 46.031 30.0965 45.9189 29.7974 45.9189C29.4236 45.9189 29.2366 46.1058 29.2366 46.3675C29.2366 46.6292 29.4236 46.7788 29.8722 46.9283C30.433 47.1526 30.7321 47.4517 30.7321 47.9378C30.7321 48.5359 30.2835 48.9472 29.4983 48.9472C29.1245 48.9472 28.788 48.8724 28.5637 48.7229L28.6758 48.2369Z" fill="black"/>
<path d="M36.1532 48.6854C35.9289 48.7976 35.4803 48.9098 34.9195 48.9098C33.6109 48.9098 32.6388 48.0873 32.6388 46.5918C32.6388 45.1337 33.6109 44.1616 35.0316 44.1616C35.5924 44.1616 35.9663 44.2738 36.1158 44.3486L35.9663 44.8346C35.742 44.7224 35.4055 44.6477 35.0316 44.6477C33.9474 44.6477 33.237 45.3206 33.237 46.5544C33.237 47.676 33.8726 48.4237 34.9942 48.4237C35.3681 48.4237 35.742 48.349 35.9663 48.2368L36.1532 48.6854Z" fill="black"/>
<path d="M39.7798 47.1524C39.7798 48.3862 38.9199 48.9096 38.1347 48.9096C37.2374 48.9096 36.5645 48.2366 36.5645 47.1898C36.5645 46.0682 37.2748 45.4326 38.2095 45.4326C39.1442 45.47 39.7798 46.143 39.7798 47.1524ZM37.1627 47.1898C37.1627 47.9002 37.5739 48.461 38.1721 48.461C38.7329 48.461 39.1816 47.9375 39.1816 47.1898C39.1816 46.629 38.8825 45.9186 38.1721 45.9186C37.4618 45.9186 37.1627 46.5542 37.1627 47.1898Z" fill="black"/>
<path d="M40.5649 46.4423C40.5649 46.1058 40.5649 45.8067 40.5275 45.545H41.0509L41.0883 46.0684H41.1257C41.3126 45.7693 41.6117 45.4702 42.1725 45.4702C42.6212 45.4702 42.9577 45.7319 43.1072 46.1432C43.2194 45.9562 43.3315 45.8067 43.4811 45.6945C43.668 45.545 43.8923 45.4702 44.2288 45.4702C44.6775 45.4702 45.313 45.7693 45.313 46.8909V48.835H44.7148V46.9657C44.7148 46.3301 44.4905 45.9562 44.0045 45.9562C43.668 45.9562 43.4063 46.218 43.2941 46.5171C43.2567 46.5918 43.2567 46.704 43.2567 46.8161V48.8724H42.6586V46.8909C42.6586 46.3675 42.4342 45.9936 41.9856 45.9936C41.6117 45.9936 41.35 46.2927 41.2379 46.5918C41.2005 46.6666 41.2005 46.7788 41.2005 46.8909V48.8724H40.6023V46.4423H40.5649Z" fill="black"/>
<path d="M46.2477 46.5916C46.2477 46.1804 46.2477 45.8439 46.2103 45.5074H46.7337L46.7711 46.0682C47.0328 45.6569 47.4067 45.4326 47.9301 45.4326C48.7152 45.4326 49.3508 46.1056 49.3508 47.115C49.3508 48.3114 48.6405 48.9096 47.8553 48.9096C47.4067 48.9096 47.0328 48.7227 46.8459 48.3862V50.1808H46.2477V46.5916ZM46.8459 47.4889C46.8459 47.5637 46.8459 47.6758 46.8833 47.7506C46.9954 48.1619 47.3693 48.461 47.7806 48.461C48.4162 48.461 48.79 47.9375 48.79 47.1898C48.79 46.5168 48.4535 45.956 47.818 45.956C47.4067 45.956 47.0328 46.2551 46.9207 46.7038C46.8833 46.7785 46.8833 46.8533 46.8833 46.9655V47.4889H46.8459Z" fill="black"/>
<path d="M52.0053 48.835L51.9679 48.4238H51.9305C51.7436 48.6855 51.4071 48.9098 50.9211 48.9098C50.2481 48.9098 49.9116 48.4238 49.9116 47.9751C49.9116 47.19 50.622 46.7414 51.8931 46.7414V46.6666C51.8931 46.4049 51.8184 45.9189 51.1454 45.9189C50.8463 45.9189 50.5098 46.031 50.2855 46.1806L50.136 45.7693C50.3977 45.5824 50.8089 45.4702 51.2202 45.4702C52.2296 45.4702 52.4913 46.1432 52.4913 46.8161V48.0499C52.4913 48.349 52.4913 48.6107 52.5287 48.835H52.0053ZM51.8931 47.1526C51.2202 47.1526 50.4724 47.2648 50.4724 47.9004C50.4724 48.2742 50.7341 48.4612 51.0332 48.4612C51.4819 48.4612 51.7436 48.1995 51.8184 47.9004C51.8558 47.8256 51.8558 47.7882 51.8558 47.7134V47.1526H51.8931Z" fill="black"/>
<path d="M53.4634 46.4423C53.4634 46.1058 53.4634 45.8067 53.426 45.545H53.9494L53.9868 46.1058C54.1364 45.8067 54.5476 45.4702 55.071 45.4702C55.5197 45.4702 56.23 45.7319 56.23 46.8909V48.8724H55.6318V46.9657C55.6318 46.4423 55.4449 45.9936 54.8841 45.9936C54.4728 45.9936 54.1737 46.2927 54.0616 46.5918C54.0242 46.6666 54.0242 46.7788 54.0242 46.8909V48.8724H53.426V46.4423H53.4634Z" fill="black"/>
<path d="M57.389 45.545L58.0994 47.4891C58.1742 47.7134 58.2489 47.9751 58.3237 48.1621C58.3985 47.9751 58.4359 47.7134 58.548 47.4891L59.221 45.545H59.8566L58.9593 47.9004C58.5106 49.022 58.2489 49.6202 57.8377 49.9567C57.5386 50.2184 57.2395 50.3305 57.0899 50.3305L56.9404 49.8071C57.0899 49.7697 57.2769 49.6576 57.4638 49.508C57.6134 49.3958 57.8377 49.1341 57.9872 48.835C58.0246 48.7603 58.0246 48.7229 58.0246 48.6855C58.0246 48.6481 58.0246 48.6107 57.9872 48.5359L56.7535 45.4702H57.389V45.545Z" fill="black"/>
</svg>
