<svg width="95" height="48" viewBox="0 0 95 48" fill="none" xmlns="http://www.w3.org/2000/svg">
<g clip-path="url(#clip0_619_3034)">
<path d="M0.548275 0.285645H2.44678C2.74956 0.285645 2.99505 0.530459 2.99505 0.832397V19.8259C2.99505 20.1279 2.74956 20.3727 2.44678 20.3727H0.548275C0.245496 20.3727 0 20.1279 0 19.8259V0.832397C0 0.530459 0.245496 0.285645 0.548275 0.285645Z" fill="black"/>
<path d="M7.04977 1.03233C6.87792 0.661027 7.10705 0.285645 7.54076 0.285645H9.58247C9.8116 0.285645 10.0121 0.457015 10.0694 0.599823L16.3991 14.8032H16.5709L22.9047 0.603904C22.962 0.461095 23.1339 0.289725 23.3957 0.289725H25.4374C25.8671 0.289725 26.1003 0.661027 25.9284 1.03641L17.0947 20.3482C17.0087 20.5196 16.8369 20.6624 16.6037 20.6624H16.3173C16.1168 20.6624 15.9163 20.5196 15.8263 20.3482L7.04977 1.03233Z" fill="black"/>
<path d="M29.9833 0.832397C29.9833 0.54678 30.2124 0.285645 30.5316 0.285645H42.0412C42.3563 0.285645 42.5895 0.5427 42.5895 0.832397V2.44001C42.5895 2.72563 42.3604 2.98269 42.0412 2.98269H32.9497V8.83784H40.6337C40.9201 8.83784 41.1779 9.09489 41.1779 9.38459V10.9922C41.1779 11.3064 40.9201 11.5349 40.6337 11.5349H32.9497V17.7042H42.0412C42.3563 17.7042 42.5895 17.9613 42.5895 18.2469V19.8259C42.5895 20.1116 42.3604 20.3727 42.0412 20.3727H30.5316C30.2124 20.3727 29.9833 20.1156 29.9833 19.8259V0.832397Z" fill="black"/>
<path d="M48.0845 0.832467C48.0845 0.54685 48.3136 0.289795 48.6327 0.289795H56.46C59.9133 0.289795 62.7324 3.0154 62.7324 6.43056C62.7324 9.07048 60.9771 11.2534 58.4731 12.2572L62.4174 19.5445C62.6178 19.9199 62.4174 20.3768 61.9264 20.3768H59.6842C59.4509 20.3768 59.2791 20.234 59.2218 20.1157L55.3962 12.5101H51.0509V19.826C51.0509 20.1116 50.7931 20.3728 50.5026 20.3728H48.6327C48.3177 20.3728 48.0845 20.1116 48.0845 19.826V0.832467ZM56.2268 10.0457C58.0966 10.0457 59.7374 8.46661 59.7374 6.48769C59.7374 4.62301 58.0966 3.07252 56.2268 3.07252H51.1041V10.0457H56.2268Z" fill="black"/>
<path d="M68.919 0.285645H70.8175C71.1203 0.285645 71.3658 0.530459 71.3658 0.832397V19.8259C71.3658 20.1279 71.1203 20.3727 70.8175 20.3727H68.919C68.6162 20.3727 68.3707 20.1279 68.3707 19.8259V0.832397C68.3707 0.530459 68.6162 0.285645 68.919 0.285645Z" fill="black"/>
<path d="M87.0202 0C89.9253 0 92.0283 0.975179 93.9841 2.66848C94.2419 2.89697 94.2419 3.24379 94.0128 3.47229L92.7485 4.76573C92.548 5.02278 92.2861 5.02278 92.0283 4.76573C90.674 3.59062 88.8328 2.84393 87.0489 2.84393C82.9368 2.84393 79.8272 6.28766 79.8272 10.3026C79.8272 14.3176 82.9655 17.7368 87.0775 17.7368C89.1765 17.7368 90.6454 16.9045 92.0283 15.8436C92.2861 15.6437 92.548 15.6722 92.7198 15.815L94.0455 17.1085C94.2746 17.3084 94.2174 17.6838 94.0169 17.8837C92.0611 19.7769 89.5857 20.6664 87.0243 20.6664C81.2715 20.6664 76.6357 16.1047 76.6357 10.3638C76.6357 4.62292 81.2633 0 87.0202 0Z" fill="black"/>
<path d="M0 27.4397C0 27.15 0.233221 26.8848 0.556458 26.8848H6.96391C10.5359 26.8848 12.9622 29.1901 12.9622 32.2544C12.9622 34.5026 11.4688 36.1388 10.094 36.9262C11.6447 37.5668 13.6046 38.999 13.6046 41.6838C13.6046 44.9521 11.0023 47.3146 7.22577 47.3146H0.556458C0.233221 47.3146 0 47.0493 0 46.7596V27.4397ZM7.46308 45.356C9.5989 45.356 11.1496 43.7525 11.1496 41.6512C11.1496 39.5498 9.24702 38.0646 6.96391 38.0646H2.13582V45.3601H7.46308V45.356ZM6.96391 36.0449C9.21838 36.0449 10.4745 34.4373 10.4745 32.3972C10.4745 30.3571 9.21429 28.8963 6.96391 28.8963H2.1931V36.0449H6.96391Z" fill="black"/>
<path d="M20.0162 26.8847H21.1864C21.4932 26.8847 21.7428 27.1336 21.7428 27.4396V46.7555C21.7428 47.0615 21.4932 47.3104 21.1864 47.3104H20.0162C19.7093 47.3104 19.4597 47.0615 19.4597 46.7555V27.4355C19.4597 27.1295 19.7093 26.8806 20.0162 26.8806V26.8847Z" fill="black"/>
<path d="M37.4791 28.7779C37.5077 28.7779 37.5323 28.7779 37.5609 28.7779C40.3391 28.7983 42.9454 29.9327 44.893 31.9728C46.7915 33.9558 47.8349 36.559 47.8717 39.3335C48.0681 38.2441 48.0477 37.7422 47.9904 36.763C47.6467 30.8221 42.614 26.2645 36.808 26.5991C31.0021 26.9337 26.5749 32.0217 26.9145 37.9626C26.9432 38.4236 27.0005 38.8643 27.0782 39.2968C27.1805 33.4743 31.3417 28.9983 37.4791 28.7861" fill="black"/>
<path d="M47.1925 38.5623V38.5297C47.1148 38.9826 46.9961 39.4232 46.8447 39.8517C46.7997 39.9741 46.7465 40.0924 46.6974 40.2107C46.6647 40.2923 46.636 40.3739 46.5992 40.4515C46.0428 41.651 45.1794 42.7282 44.0992 43.5606C44.0788 43.5769 44.0624 43.5892 44.042 43.6055C43.9315 43.6871 43.821 43.7605 43.7065 43.8381C43.6123 43.9033 43.5182 43.9727 43.42 44.0298C43.3832 44.0502 43.3464 44.0706 43.3137 44.0951C42.1394 44.7969 40.7728 45.2335 39.2957 45.2947C39.0093 45.3069 38.7229 45.3029 38.4447 45.2865C38.4365 45.2865 38.4283 45.2865 38.416 45.2865C38.1541 45.2702 37.8964 45.2417 37.6386 45.2049C37.4586 45.1764 37.2826 45.1397 37.1108 45.0988C37.0249 45.0784 36.9348 45.0662 36.8489 45.0458C35.02 44.5888 33.4324 43.5524 32.3195 42.157C32.295 42.1284 32.2704 42.0999 32.2459 42.0713C32.1845 41.9897 32.1272 41.8999 32.0699 41.8143C31.223 40.6269 30.6992 39.2111 30.6338 37.6687C30.6174 37.2933 30.6379 36.9261 30.6747 36.563C30.9447 34.0781 32.4423 31.8585 34.5494 30.5773C35.29 30.1366 36.1083 29.8061 36.9839 29.6021C37.0821 29.5817 37.1803 29.5531 37.2826 29.5327C36.6362 29.5613 36.0142 29.6551 35.4046 29.7857C35.3432 29.7979 35.2818 29.8102 35.2246 29.8224C34.9504 29.8877 34.6886 29.9693 34.4226 30.055C34.3776 30.0713 34.3326 30.0835 34.2876 30.0999C34.0216 30.1896 33.7639 30.2957 33.5102 30.4059C33.4652 30.4263 33.4243 30.4467 33.3833 30.4671C33.2197 30.5405 33.0519 30.6099 32.8923 30.6956C32.876 30.7119 32.8596 30.7282 32.8432 30.7405C29.7745 32.397 27.7451 35.5837 27.8924 39.1662C28.1011 44.2542 32.5896 48.2039 37.9168 47.9877C42.9618 47.7837 46.947 43.9768 47.1761 39.2478C47.1925 39.0193 47.1966 38.7908 47.1925 38.5582" fill="black"/>
</g>
<defs>
<clipPath id="clip0_619_3034">
<rect width="94.1887" height="48" fill="white"/>
</clipPath>
</defs>
</svg>
