<svg width="214" height="64" viewBox="0 0 214 64" fill="none" xmlns="http://www.w3.org/2000/svg">
<g clip-path="url(#clip0_10_1704)">
<path d="M65.2303 52.312C67.3464 52.312 68.4291 53.4685 68.4291 53.4685L67.9615 54.1082C67.9615 54.1082 66.9281 53.124 65.2549 53.124C63.1634 53.124 61.6624 54.748 61.6624 56.8395C61.6624 58.9802 63.1634 60.7026 65.2795 60.7026C67.0757 60.7026 68.1584 59.5215 68.1584 59.5215L68.6751 60.1367C68.6751 60.1367 67.4694 61.5146 65.2549 61.5146C62.6221 61.5146 60.752 59.4477 60.752 56.8395C60.752 54.2805 62.6713 52.312 65.2303 52.312ZM70.1023 54.994H70.9635V58.8326C70.9635 59.8414 71.1111 60.7272 72.3414 60.7272C73.7931 60.7272 74.7036 59.4477 74.7036 58.0698V55.0187H75.5648V61.3916H74.7282V60.432C74.7282 60.1613 74.7528 59.9152 74.7528 59.9152H74.7282C74.4821 60.5304 73.6455 61.5146 72.243 61.5146C70.742 61.5146 70.1269 60.7026 70.1269 59.054V54.994H70.1023ZM77.5086 54.994H78.3698V56.1259C78.3698 56.3966 78.3452 56.6426 78.3452 56.6426H78.3698C78.6651 55.683 79.3787 54.9448 80.3875 54.9448C80.5598 54.9448 80.732 54.994 80.732 54.994V55.8553C80.732 55.8553 80.5844 55.8306 80.4121 55.8306C79.5017 55.8306 78.8374 56.5442 78.5667 57.4792C78.4437 57.8729 78.3945 58.3158 78.3945 58.7095V61.3916H77.5332V54.994H77.5086ZM84.5213 54.8464C86.293 54.8464 87.1788 56.1997 87.1788 57.7745C87.1788 57.9222 87.1542 58.2174 87.1542 58.2174H82.2576C82.3068 59.8414 83.4141 60.7272 84.7182 60.7272C85.8747 60.7272 86.662 59.9644 86.662 59.9644L87.0557 60.6288C87.0557 60.6288 86.1207 61.5146 84.6936 61.5146C82.7989 61.5146 81.3718 60.1367 81.3718 58.1928C81.3964 56.1013 82.7989 54.8464 84.5213 54.8464ZM86.3176 57.5285C86.2684 56.1997 85.4564 55.5846 84.4967 55.5846C83.4387 55.5846 82.5036 56.249 82.3068 57.5285H86.3176ZM91.9769 52.4596H92.8873V53.5423H91.9769V52.4596ZM92.0015 54.994H92.8627V61.367H92.0015V54.994ZM94.8066 54.994H95.6678V55.9537C95.6678 56.2243 95.6432 56.4704 95.6432 56.4704H95.6678C95.8893 55.8799 96.7013 54.871 98.2022 54.871C99.777 54.871 100.343 55.7814 100.343 57.3316V61.3916H99.4817V57.5531C99.4817 56.5442 99.3341 55.6584 98.1038 55.6584C97.0211 55.6584 96.0861 56.3966 95.7908 57.4546C95.717 57.7253 95.6924 58.0206 95.6924 58.3158V61.367H94.8312V54.994H94.8066ZM106.15 52.4596H107.06L109.398 57.7007C109.595 58.1682 109.841 58.7834 109.841 58.7834H109.865C109.865 58.7834 110.111 58.1436 110.308 57.7007L112.646 52.4596H113.556L114.27 61.367H113.384L112.892 55.1417C112.843 54.6496 112.867 53.9114 112.867 53.9114H112.843C112.843 53.9114 112.572 54.6988 112.375 55.1417L110.284 59.7184H109.472L107.38 55.1417C107.183 54.6988 106.888 53.8622 106.888 53.8622H106.839C106.839 53.8622 106.839 54.6496 106.814 55.1417L106.322 61.367H105.436L106.15 52.4596ZM116.14 52.4596H117.05V53.5423H116.14V52.4596ZM116.165 54.994H117.026V61.367H116.165V54.994ZM118.994 54.994H119.831V55.9537C119.831 56.2243 119.806 56.4704 119.806 56.4704H119.831C120.052 55.8799 120.864 54.871 122.39 54.871C123.965 54.871 124.531 55.7814 124.531 57.3316V61.3916H123.669V57.5531C123.669 56.5442 123.522 55.6584 122.291 55.6584C121.209 55.6584 120.274 56.3966 119.978 57.4546C119.905 57.7253 119.88 58.0206 119.88 58.3158V61.367H119.019V54.994H118.994ZM128.812 54.8464C130.362 54.8464 130.903 56.0521 130.903 56.0521H130.928C130.928 56.0521 130.903 55.8307 130.903 55.56V52.4596H131.765V61.367H130.928V60.7026C130.928 60.432 130.953 60.2351 130.953 60.2351H130.928C130.928 60.2351 130.411 61.5146 128.738 61.5146C127.016 61.5146 125.958 60.1367 125.958 58.1682C125.958 56.1751 127.139 54.8464 128.812 54.8464ZM128.861 60.7518C129.919 60.7518 130.928 59.989 130.928 58.1682C130.928 56.8641 130.264 55.6092 128.91 55.6092C127.779 55.6092 126.868 56.5688 126.868 58.1682C126.844 59.7676 127.68 60.7518 128.861 60.7518ZM133.733 60.3581H134.742V61.367H133.733V60.3581ZM144.141 52.312C146.282 52.312 147.34 53.4685 147.34 53.4685L146.873 54.1082C146.873 54.1082 145.839 53.124 144.166 53.124C142.075 53.124 140.574 54.748 140.574 56.8395C140.574 58.9802 142.075 60.7026 144.191 60.7026C145.987 60.7026 147.07 59.5215 147.07 59.5215L147.586 60.1367C147.586 60.1367 146.381 61.5146 144.166 61.5146C141.533 61.5146 139.663 59.4477 139.663 56.8395C139.663 54.2805 141.582 52.312 144.141 52.312ZM149.013 54.994H149.875V58.8326C149.875 59.8414 150.022 60.7272 151.253 60.7272C152.704 60.7272 153.615 59.4477 153.615 58.0698V55.0187H154.476V61.3916H153.639V60.432C153.639 60.1613 153.664 59.9152 153.664 59.9152H153.639C153.393 60.5304 152.557 61.5146 151.154 61.5146C149.653 61.5146 149.013 60.7026 149.013 59.054V54.994ZM156.42 54.994H157.281V56.1259C157.281 56.3966 157.256 56.6426 157.256 56.6426H157.281C157.576 55.683 158.29 54.9448 159.299 54.9448C159.471 54.9448 159.643 54.994 159.643 54.994V55.8553C159.643 55.8553 159.496 55.8306 159.323 55.8306C158.413 55.8306 157.749 56.5442 157.478 57.4792C157.355 57.8729 157.306 58.3158 157.306 58.7095V61.3916H156.444V54.994H156.42ZM163.433 54.8464C165.204 54.8464 166.09 56.1997 166.09 57.7745C166.09 57.9222 166.065 58.2174 166.065 58.2174H161.169C161.218 59.8414 162.325 60.7272 163.629 60.7272C164.786 60.7272 165.573 59.9644 165.573 59.9644L165.967 60.6288C165.967 60.6288 165.032 61.5146 163.605 61.5146C161.71 61.5146 160.283 60.1367 160.283 58.1928C160.283 56.1013 161.71 54.8464 163.433 54.8464ZM165.229 57.5285C165.18 56.1997 164.368 55.5846 163.408 55.5846C162.35 55.5846 161.415 56.249 161.218 57.5285H165.229ZM170.864 52.4596H171.774V53.5423H170.864V52.4596ZM170.888 54.994H171.749V61.367H170.888V54.994ZM173.718 54.994H174.554V55.9537C174.554 56.2243 174.53 56.4704 174.53 56.4704H174.554C174.776 55.8799 175.588 54.871 177.113 54.871C178.688 54.871 179.23 55.7814 179.23 57.3316V61.3916H178.368V57.5531C178.368 56.5442 178.221 55.6584 176.99 55.6584C175.908 55.6584 174.973 56.3966 174.677 57.4546C174.604 57.7253 174.579 58.0206 174.579 58.3158V61.367H173.718V54.994ZM184.495 59.7184C184.495 59.7184 185.43 60.7026 186.833 60.7026C187.817 60.7026 188.604 60.1121 188.604 59.1524C188.604 56.9133 184.151 57.4792 184.151 54.7234C184.151 53.4439 185.283 52.3366 186.931 52.3366C188.481 52.3366 189.318 53.1978 189.318 53.1978L188.9 53.936C188.9 53.936 188.112 53.1732 186.956 53.1732C185.824 53.1732 185.086 53.9114 185.086 54.6988C185.086 56.8149 189.539 56.1997 189.539 59.1278C189.539 60.4566 188.506 61.5392 186.833 61.5392C185.012 61.5392 184.003 60.4073 184.003 60.4073L184.495 59.7184ZM191.04 52.4596H191.951V53.5423H191.04V52.4596ZM191.065 54.994H191.926V61.367H191.065V54.994ZM196.085 63.2616C197.315 63.2616 198.324 62.6711 198.324 61.2686V60.678C198.324 60.432 198.348 60.2105 198.348 60.2105H198.324C197.955 60.9241 197.29 61.3178 196.306 61.3178C194.584 61.3178 193.476 59.9644 193.476 58.0452C193.476 56.1259 194.534 54.8218 196.232 54.8218C197.905 54.8218 198.348 55.8799 198.348 55.8799H198.373C198.373 55.8799 198.373 55.806 198.373 55.6584V54.9694H199.21V61.1947C199.21 63.2124 197.709 63.9998 196.158 63.9998C195.42 63.9998 194.682 63.803 194.067 63.4831L194.387 62.7695C194.362 62.8187 195.15 63.2616 196.085 63.2616ZM198.324 58.0698C198.324 56.1997 197.438 55.6338 196.306 55.6338C195.076 55.6338 194.338 56.5442 194.338 58.0452C194.338 59.5707 195.15 60.555 196.429 60.555C197.438 60.5796 198.324 59.9398 198.324 58.0698ZM201.129 52.4596H201.99V55.9045C201.99 56.1997 201.965 56.4212 201.965 56.4212H201.99C202.236 55.806 203.073 54.8464 204.524 54.8464C206.099 54.8464 206.641 55.7568 206.641 57.307V61.367H205.779V57.5285C205.779 56.5196 205.632 55.6338 204.401 55.6338C203.319 55.6338 202.384 56.372 202.088 57.4546C202.015 57.7007 201.99 57.996 201.99 58.2912V61.3424H201.129V52.4596ZM208.757 55.806H207.92V55.0925H208.781V53.247H209.618V55.0925H211.217V55.806H209.618V58.9802C209.618 60.4812 210.577 60.678 211.045 60.678C211.217 60.678 211.34 60.6534 211.34 60.6534V61.4162C211.34 61.4162 211.193 61.4408 210.971 61.4408C210.233 61.4408 208.757 61.1947 208.757 59.0786V55.806ZM212.669 60.3581H213.678V61.367H212.669V60.3581ZM61.1949 22.0713H62.8927V11.786H61.1949V9.79297H67.7155C68.7735 9.79297 69.5117 9.86679 70.2499 10.1621C71.5294 10.6542 72.4152 11.8353 72.4152 13.4593C72.4152 14.8126 71.8001 15.9198 70.6682 16.5104V16.5596C72.243 17.0517 72.9565 18.4296 72.9565 19.9306C72.9565 21.9237 71.677 23.3262 70.1515 23.7937C69.4625 24.0152 68.8228 24.0398 68.0354 24.0398H61.2195V22.0713H61.1949ZM68.0108 15.6246C69.118 15.6246 69.7578 14.8618 69.7578 13.7545C69.7578 13.0656 69.4871 12.4258 68.9458 12.1305C68.6505 11.9829 68.2322 11.9091 67.7401 11.9091H65.5502V15.6246H68.0108ZM68.1584 21.9237C68.5029 21.9237 68.872 21.8991 69.1672 21.7514C69.8808 21.4562 70.2991 20.6442 70.2991 19.7584C70.2991 18.5281 69.5363 17.6915 68.2568 17.6915H65.5256V21.9237H68.1584ZM74.6051 22.1451H76.0815V16.1659C76.0815 15.8706 75.9339 15.723 75.6386 15.723H74.5067V13.8037H77.1642C78.05 13.8037 78.5175 14.222 78.5175 15.0586V15.6492C78.5175 15.8214 78.5175 15.9691 78.4929 16.1167C78.4683 16.1659 78.4683 16.2397 78.4683 16.2889H78.5175C78.985 14.8372 80.1661 13.6561 81.7409 13.6561C81.8885 13.6561 81.9869 13.6561 82.0607 13.6807C82.1099 13.7053 82.1592 13.7053 82.2084 13.7053V16.2151C82.1592 16.2151 82.0853 16.2151 82.0361 16.1905C81.8885 16.1659 81.7655 16.1659 81.5932 16.1659C79.5509 16.1659 78.6159 17.9621 78.6159 19.906V22.1205H80.0677V24.0152H74.6051V22.1451ZM83.6601 22.1451H85.1365V15.723H83.5617V13.8037H87.6709V22.1205H89.1226V24.0152H83.6601V22.1451ZM85.1365 9.79297H87.6955V12.0567H85.1365V9.79297ZM91.8293 25.4915C92.0753 25.6146 92.346 25.7376 92.6413 25.836C93.1826 26.0083 93.847 26.1805 94.6344 26.1805C96.1845 26.1805 97.5133 25.4915 97.5133 23.6215V22.9817C97.5133 22.8341 97.5133 22.7111 97.5379 22.6127C97.5625 22.5634 97.5625 22.4896 97.5625 22.4404H97.5133C96.8981 23.3508 96.0369 23.8676 94.6836 23.8676C91.7555 23.8676 90.1069 21.5054 90.1069 18.7003C90.1069 15.8952 91.657 13.6069 94.6098 13.6069C95.8154 13.6069 97.218 14.099 97.7593 15.1571H97.8085C97.8085 15.1325 97.8085 15.1078 97.7839 15.0586C97.7593 15.0094 97.7593 14.9356 97.7593 14.8126C97.7593 14.2712 98.1284 13.8529 98.9158 13.8529H101.45V15.7476H100.466C100.171 15.7476 100.023 15.8952 100.023 16.1413V23.4493C100.023 26.9679 97.2918 28.272 94.659 28.272C93.3795 28.272 92.0507 27.9275 91.0173 27.3862L91.8293 25.4915ZM97.5871 18.6757C97.5871 16.3381 96.4306 15.723 95.0773 15.723C93.5271 15.723 92.6905 16.8303 92.6905 18.5773C92.6905 20.3735 93.5763 21.6776 95.2495 21.6776C96.4306 21.7022 97.5871 20.9887 97.5871 18.6757ZM102.459 22.1451H103.935V11.7122H102.361V9.81758H106.47V14.788C106.47 15.034 106.47 15.2555 106.445 15.4031L106.396 15.6492H106.445C106.913 14.6649 108.217 13.5823 109.964 13.5823C112.228 13.5823 113.507 14.7388 113.507 17.47V22.1451H114.983V24.0398H110.973V17.9867C110.973 16.7318 110.653 15.8952 109.373 15.8952C107.552 15.8952 106.47 17.47 106.47 19.3401V22.1205H107.922V24.0152H102.459V22.1451ZM116.977 15.723H115.426V13.8037H117.05V11.0233H119.511V13.8037H121.824V15.6984H119.511V20.0044C119.511 21.7761 120.84 21.9975 121.553 21.9975C121.701 21.9975 121.824 21.9729 121.898 21.9729H122.021V24.0644L121.799 24.1136C121.652 24.1382 121.479 24.1382 121.233 24.1382C119.806 24.1382 116.977 23.7199 116.977 20.2997V15.723ZM123.817 22.0713H125.515V11.786H123.817V9.79297H133.905V13.4839H131.691V12.0321H128.123V16.1167H132.724V18.2328H128.123V22.0713H129.993V24.0398H123.817V22.0713ZM140.131 13.5823C143.231 13.5823 145.741 15.7968 145.741 18.9464C145.741 22.0959 143.256 24.2859 140.155 24.2859C137.055 24.2859 134.545 22.0713 134.545 18.9464C134.545 15.7968 137.03 13.5823 140.131 13.5823ZM140.155 22.1205C141.804 22.1205 143.157 20.841 143.157 18.9464C143.157 17.0517 141.804 15.7476 140.155 15.7476C138.507 15.7476 137.129 17.0517 137.129 18.9464C137.104 20.841 138.482 22.1205 140.155 22.1205ZM152.532 13.5823C154.23 13.5823 156.69 14.222 156.69 16.0183V17.4208H154.501V16.7318C154.501 16.0183 153.467 15.723 152.606 15.723C150.76 15.723 149.604 17.0025 149.604 18.8726C149.604 20.9887 151.056 22.1205 152.803 22.1205C154.23 22.1205 155.411 21.3085 155.977 20.8656L156.863 22.6619C156.174 23.3262 154.599 24.2366 152.655 24.2366C149.678 24.2366 147.045 22.1944 147.045 18.8972C147.07 15.8952 149.407 13.5823 152.532 13.5823ZM159.569 15.723H157.995V13.8037H162.104V19.9552C162.104 21.1855 162.424 22.0221 163.703 22.0221C165.45 22.0221 166.508 20.2259 166.508 18.3804V15.723H164.958V13.8037H169.043V21.7022C169.043 21.9975 169.19 22.1451 169.486 22.1451H170.47V24.0398H167.96C167.074 24.0398 166.656 23.6215 166.656 22.9079V22.5142C166.656 22.3666 166.681 22.2436 166.681 22.1697V22.0221H166.631C166.508 22.3666 165.45 24.2613 162.916 24.2613C160.898 24.2613 159.594 23.154 159.594 20.3735V15.723H159.569ZM171.799 20.6196H173.939V21.2101C173.939 21.8991 174.874 22.2682 175.932 22.2682C176.941 22.2682 177.655 21.9237 177.655 21.2347C177.655 20.3981 176.695 20.1275 175.342 19.6599C173.865 19.1186 172.118 18.4543 172.118 16.4858C172.118 14.3205 174.284 13.5577 176.129 13.5577C177.606 13.5577 179.795 14.1482 179.795 15.6738V16.9779H177.63V16.3874C177.63 15.846 177.04 15.5508 176.129 15.5508C175.342 15.5508 174.653 15.8214 174.653 16.4858C174.653 17.3224 175.637 17.6915 176.794 18.0113C178.344 18.5035 180.189 19.1432 180.189 21.1609C180.189 23.2524 178.245 24.2613 175.908 24.2613C174.062 24.2613 171.774 23.4493 171.774 21.8007V20.6196H171.799ZM61.1949 40.9441H62.8927V30.6588H61.1949V28.6657H71.308V32.3566H69.0688V30.9048H65.501V34.9894H70.1023V37.1055H65.501V40.9441H67.371V42.9125H61.1949V40.9441ZM77.3118 32.455C80.4121 32.455 82.9219 34.6696 82.9219 37.8191C82.9219 40.9687 80.4367 43.1832 77.3364 43.1832C74.2361 43.1832 71.7262 40.9687 71.7262 37.8191C71.7262 34.6696 74.2114 32.455 77.3118 32.455ZM77.3364 40.9933C78.985 40.9933 80.3383 39.7138 80.3383 37.7945C80.3383 35.8999 78.985 34.6203 77.3364 34.6203C75.6878 34.6203 74.3099 35.9245 74.3099 37.7945C74.3099 39.7138 75.6878 40.9933 77.3364 40.9933ZM85.0873 34.5957H83.5125V32.7011H87.6217V38.828C87.6217 40.0583 87.9416 40.8949 89.2211 40.8949C90.9681 40.8949 92.0261 39.0986 92.0261 37.2532V34.5957H90.476V32.7011H94.5605V40.5996C94.5605 40.8949 94.7082 41.0425 95.0035 41.0425H95.9877V42.9371H93.4779C92.5921 42.9371 92.1492 42.5188 92.1492 41.8053V41.4116C92.1492 41.2639 92.1738 41.1409 92.1738 41.0671V40.9195H92.1246C92.0015 41.2639 90.9435 43.1586 88.4091 43.1586C86.3914 43.1586 85.0873 42.0513 85.0873 39.2709V34.5957ZM97.5625 41.0179H99.0388V35.0386C99.0388 34.7434 98.8912 34.5957 98.5959 34.5957H97.464V32.7011H100.146C101.032 32.7011 101.45 33.1194 101.45 33.833V34.3005C101.45 34.3989 101.45 34.5219 101.426 34.5957C101.401 34.6449 101.401 34.6942 101.401 34.7434H101.45C101.549 34.4235 102.656 32.455 105.19 32.455C107.356 32.455 108.611 33.6115 108.611 36.3428V41.0179H110.087V42.9125H106.101V36.8595C106.101 35.6046 105.756 34.768 104.477 34.768C102.631 34.768 101.573 36.5396 101.573 38.3112V40.9933H103.025V42.8879H97.5625V41.0179ZM115.5 32.455C116.607 32.455 117.321 32.7995 117.764 33.1686C118.035 33.3901 118.231 33.6361 118.428 33.8822H118.477C118.477 33.833 118.478 33.7345 118.453 33.6853C118.428 33.5377 118.428 33.3901 118.428 33.1686V30.585H116.854V28.6903H120.938V40.575C120.938 40.8702 121.086 41.0179 121.381 41.0179H122.291V42.9125H119.905C118.97 42.9125 118.601 42.4204 118.601 41.8299V41.7068C118.601 41.5838 118.625 41.4608 118.65 41.3624C118.674 41.3132 118.674 41.2639 118.674 41.2393H118.625C118.453 41.5838 118.207 41.9037 117.912 42.1744C117.37 42.6665 116.583 43.134 115.303 43.134C112.597 43.134 110.85 40.9195 110.85 37.7699C110.85 34.5465 112.744 32.455 115.5 32.455ZM115.918 41.0179C117.272 41.0179 118.502 40.0582 118.502 37.8683C118.502 36.1951 117.69 34.645 116.017 34.645C114.59 34.645 113.433 35.7768 113.433 37.8191C113.409 39.7384 114.418 41.0179 115.918 41.0179ZM129.255 36.5888H129.895V36.2443C129.895 34.9402 129.083 34.4727 128.025 34.4727C127.237 34.4727 126.573 34.7188 126.032 34.9648C125.712 35.1125 125.416 35.2847 125.146 35.4569L124.211 33.6853C124.531 33.4393 124.9 33.2178 125.318 33.0456C126.007 32.7257 127.04 32.4304 128.246 32.4304C130.977 32.4304 132.429 33.833 132.429 36.4658V40.5504C132.429 40.8456 132.577 40.9933 132.872 40.9933H133.782V42.8879H131.396C130.461 42.8879 130.091 42.3958 130.091 41.8053V41.6822C130.091 41.51 130.116 41.4116 130.141 41.2886C130.165 41.2393 130.165 41.1901 130.165 41.1409H130.116C129.944 41.51 129.698 41.8299 129.403 42.1252C128.861 42.6173 128.098 43.1094 126.917 43.1094C125.17 43.1094 123.546 42.0759 123.546 40.009C123.546 36.9087 127.631 36.5888 129.255 36.5888ZM127.557 41.2393C128.935 41.2393 129.919 39.763 129.919 38.4835V38.139H129.501C128.492 38.139 126.081 38.2866 126.081 39.8368C126.081 40.6242 126.622 41.2393 127.557 41.2393ZM135.308 34.5957H133.758V32.7011H135.382V29.9206H137.842V32.7011H140.155V34.5957H137.842V38.9018C137.842 40.6734 139.171 40.8949 139.885 40.8949C140.032 40.8949 140.155 40.8702 140.229 40.8702H140.352V42.9618L140.131 43.011C139.983 43.0356 139.811 43.0356 139.565 43.0356C138.138 43.0356 135.308 42.6173 135.308 39.197V34.5957ZM142.296 41.0179H143.772V34.5957H142.198V32.7011H146.307V41.0179H147.759V42.9125H142.296V41.0179ZM143.748 28.6903H146.307V30.9541H143.748V28.6903ZM154.181 32.455C157.281 32.455 159.791 34.6696 159.791 37.8191C159.791 40.9687 157.306 43.1832 154.205 43.1832C151.105 43.1832 148.595 40.9687 148.595 37.8191C148.595 34.6696 151.08 32.455 154.181 32.455ZM154.205 40.9933C155.854 40.9933 157.207 39.7138 157.207 37.7945C157.207 35.8999 155.854 34.6203 154.205 34.6203C152.557 34.6203 151.179 35.9245 151.179 37.7945C151.179 39.7138 152.532 40.9933 154.205 40.9933ZM161.046 41.0179H162.522V35.0386C162.522 34.7434 162.374 34.5957 162.079 34.5957H160.947V32.7011H163.629C164.515 32.7011 164.958 33.1194 164.958 33.833V34.3005C164.958 34.3989 164.958 34.5219 164.933 34.5957C164.909 34.6449 164.909 34.6942 164.909 34.7434H164.958C165.057 34.4235 166.164 32.455 168.698 32.455C170.864 32.455 172.118 33.6115 172.118 36.3428V41.0179H173.595V42.9125H169.584V36.8595C169.584 35.6046 169.24 34.768 167.96 34.768C166.115 34.768 165.057 36.5396 165.057 38.3112V40.9933H166.508V42.8879H161.046V41.0179Z" fill="#1C175C"/>
<path d="M33.5133 45.6194H5.88082L19.6847 21.6779C20.6198 20.0539 20.0784 17.987 18.4544 17.0273L17.6178 18.5037L0 49.015H35.2111H36.9089C36.9089 47.145 35.3833 45.6194 33.5133 45.6194Z" fill="#2C5697"/>
<path d="M34.5221 10.9492C32.8981 11.8842 32.3568 13.9511 33.2918 15.5997L47.1204 39.5413H19.4633C17.5933 39.5413 16.0677 41.0423 16.0677 42.9369H17.7655H52.9766L35.3587 12.4502L34.5221 10.9492Z" fill="#00A1E1"/>
<path d="M38.5328 30.4867L20.915 0L3.32177 30.4867L2.48517 31.9631C4.10916 32.8981 6.17606 32.3322 7.11108 30.7082L20.9396 6.76663L34.7681 30.7082C35.7032 32.3322 37.7701 32.8981 39.394 31.9631L38.5328 30.4867Z" fill="#F00000"/>
<path d="M185.504 9.79297C187.153 9.79297 188.481 11.1463 188.481 12.8195C188.481 14.5173 187.153 15.846 185.504 15.846C183.88 15.846 182.551 14.5173 182.551 12.8195C182.551 11.1463 183.855 9.79297 185.504 9.79297ZM185.504 15.4277C186.931 15.4277 188.014 14.2959 188.014 12.8441C188.014 11.3924 186.931 10.2605 185.504 10.2605C184.126 10.2605 183.043 11.3924 183.043 12.8441C183.043 14.2959 184.102 15.4277 185.504 15.4277ZM184.52 11.1955H185.676C186.242 11.1955 186.661 11.5646 186.661 12.1551C186.661 12.6473 186.341 12.9425 186.045 13.0163V13.0409L186.07 13.0902C186.095 13.1148 186.119 13.164 186.144 13.2378L186.759 14.4681H186.242L185.602 13.1394H184.987V14.4681H184.52V11.1955ZM185.578 12.7703C185.947 12.7703 186.144 12.5488 186.144 12.1797C186.144 11.8107 185.922 11.6138 185.578 11.6138H184.963V12.7949H185.578V12.7703Z" fill="#1C175C"/>
</g>
<defs>
<clipPath id="clip0_10_1704">
<rect width="214" height="64" fill="white"/>
</clipPath>
</defs>
</svg>
