<svg width="215" height="64" viewBox="0 0 215 64" fill="none" xmlns="http://www.w3.org/2000/svg">
<g clip-path="url(#clip0_790_1854)">
<path d="M65.9452 52.1694C68.0684 52.1694 69.13 53.322 69.13 53.322L68.6751 53.9589C68.6751 53.9589 67.6438 52.9883 65.9755 52.9883C63.8826 52.9883 62.3964 54.5959 62.3964 56.6888C62.3964 58.812 63.8826 60.5409 66.0059 60.5409C67.7954 60.5409 68.8874 59.358 68.8874 59.358L69.403 59.9646C69.403 59.9646 68.1898 61.3295 66.0059 61.3295C63.367 61.3295 61.5168 59.267 61.5168 56.6585C61.4561 54.1409 63.3973 52.1694 65.9452 52.1694ZM70.7983 54.8386H71.6476V58.6604C71.6476 59.6613 71.7992 60.5409 73.0125 60.5409C74.4684 60.5409 75.3784 59.267 75.3784 57.9021V54.8689H76.2277V61.2386H75.3784V60.2679C75.3784 59.9949 75.4087 59.7523 75.4087 59.7523H75.3784C75.1357 60.3589 74.2864 61.3599 72.8912 61.3599C71.4049 61.3599 70.768 60.5409 70.768 58.903L70.7983 54.8386ZM78.1689 54.8386H79.0182V55.9608C79.0182 56.2338 78.9879 56.4765 78.9879 56.4765H79.0182C79.3215 55.5059 80.0191 54.7779 81.0201 54.7779C81.2021 54.7779 81.3537 54.8386 81.3537 54.8386V55.6878C81.3537 55.6878 81.2021 55.6575 81.0201 55.6575C80.1101 55.6575 79.4428 56.3551 79.1698 57.2954C79.0485 57.6897 78.9879 58.1447 78.9879 58.5087V61.1779H78.1386L78.1689 54.8386ZM85.1755 54.6869C86.9348 54.6869 87.8144 56.0518 87.8144 57.5987C87.8144 57.7504 87.7841 58.0537 87.7841 58.0537H82.9007C82.9613 59.6613 84.0533 60.5713 85.3575 60.5713C86.5101 60.5713 87.2988 59.813 87.2988 59.813L87.6931 60.4803C87.6931 60.4803 86.7528 61.3599 85.3272 61.3599C83.4466 61.3599 82.021 59.9949 82.021 58.0537C82.0514 55.9608 83.4466 54.6869 85.1755 54.6869ZM86.9651 57.3864C86.9044 56.0518 86.1158 55.4452 85.1452 55.4452C84.0836 55.4452 83.1433 56.1125 82.9613 57.3864H86.9651ZM92.6068 52.321H93.5168V53.413H92.6068V52.321ZM92.6371 54.8386H93.4864V61.2082H92.6371V54.8386ZM95.4277 54.8386H96.277V55.8092C96.277 56.0822 96.2466 56.3248 96.2466 56.3248H96.277C96.4893 55.7485 97.3082 54.7172 98.7945 54.7172C100.372 54.7172 100.918 55.6272 100.918 57.1741V61.2386H100.068V57.3864C100.068 56.3855 99.9168 55.5059 98.7035 55.5059C97.6116 55.5059 96.7016 56.2338 96.3983 57.2954C96.3376 57.5684 96.3073 57.8717 96.3073 58.1447V61.1779H95.458L95.4277 54.8386ZM106.741 52.321H107.651L109.987 57.5381C110.169 57.9931 110.442 58.63 110.442 58.63H110.472C110.472 58.63 110.715 57.9931 110.927 57.5381L113.263 52.321H114.173L114.87 61.2082H113.96L113.475 54.9902C113.414 54.5049 113.445 53.7769 113.445 53.7769H113.414C113.414 53.7769 113.141 54.5656 112.959 54.9902L110.867 59.5703H110.048L107.955 54.9902C107.773 54.5352 107.469 53.7163 107.469 53.7163H107.409C107.409 53.7163 107.409 54.5049 107.378 54.9902L106.893 61.2082H106.013L106.741 52.321ZM116.721 52.321H117.631V53.413H116.721V52.321ZM116.751 54.8386H117.6V61.2082H116.751V54.8386ZM119.572 54.8386H120.421V55.8092C120.421 56.0822 120.391 56.3248 120.391 56.3248H120.421C120.633 55.7485 121.452 54.7172 122.969 54.7172C124.546 54.7172 125.092 55.6272 125.092 57.1741V61.2386H124.243V57.3864C124.243 56.3855 124.091 55.5059 122.878 55.5059C121.786 55.5059 120.876 56.2338 120.573 57.2954C120.512 57.5684 120.482 57.8717 120.482 58.1447V61.1779H119.632L119.572 54.8386ZM129.369 54.6869C130.916 54.6869 131.462 55.9002 131.462 55.9002H131.492C131.492 55.9002 131.462 55.6878 131.462 55.4149V52.321H132.311V61.2082H131.462V60.5409C131.462 60.2679 131.492 60.0859 131.492 60.0859H131.462C131.462 60.0859 130.946 61.3599 129.278 61.3599C127.549 61.3599 126.518 59.995 126.518 58.0234C126.518 56.0215 127.701 54.6869 129.369 54.6869ZM129.399 60.6016C130.461 60.6016 131.462 59.8433 131.462 58.0234C131.462 56.7191 130.794 55.4755 129.46 55.4755C128.338 55.4755 127.428 56.4461 127.428 58.0234C127.397 59.6006 128.216 60.6016 129.399 60.6016ZM134.252 60.2073H135.253V61.2082H134.252V60.2073ZM144.656 52.1694C146.779 52.1694 147.841 53.322 147.841 53.322L147.386 53.9589C147.386 53.9589 146.355 52.9883 144.686 52.9883C142.594 52.9883 141.107 54.5959 141.107 56.6888C141.107 58.812 142.594 60.5409 144.717 60.5409C146.506 60.5409 147.598 59.358 147.598 59.358L148.114 59.9646C148.114 59.9646 146.901 61.3295 144.717 61.3295C142.078 61.3295 140.228 59.267 140.228 56.6585C140.167 54.1409 142.108 52.1694 144.656 52.1694ZM149.509 54.8386H150.358V58.6604C150.358 59.6613 150.51 60.5409 151.723 60.5409C153.179 60.5409 154.089 59.267 154.089 57.9021V54.8689H154.939V61.2386H154.089V60.2679C154.089 59.9949 154.12 59.7523 154.12 59.7523H154.089C153.847 60.3589 152.997 61.3599 151.602 61.3599C150.116 61.3599 149.479 60.5409 149.479 58.903L149.509 54.8386ZM156.88 54.8386H157.729V55.9608C157.729 56.2338 157.699 56.4765 157.699 56.4765H157.729C158.032 55.5059 158.73 54.7779 159.731 54.7779C159.913 54.7779 160.065 54.8386 160.065 54.8386V55.6878C160.065 55.6878 159.913 55.6575 159.731 55.6575C158.821 55.6575 158.154 56.3551 157.881 57.2954C157.759 57.6897 157.699 58.1447 157.699 58.5087V61.1779H156.849L156.88 54.8386ZM163.886 54.6869C165.646 54.6869 166.525 56.0518 166.525 57.5987C166.525 57.7504 166.495 58.0537 166.495 58.0537H161.612C161.672 59.6613 162.764 60.5713 164.068 60.5713C165.221 60.5713 166.01 59.813 166.01 59.813L166.404 60.4803C166.404 60.4803 165.464 61.3599 164.038 61.3599C162.158 61.3599 160.732 59.9949 160.732 58.0537C160.762 55.9608 162.158 54.6869 163.886 54.6869ZM165.676 57.3864C165.615 56.0518 164.827 55.4452 163.856 55.4452C162.794 55.4452 161.854 56.1125 161.672 57.3864H165.676ZM171.287 52.321H172.197V53.413H171.287V52.321ZM171.318 54.8386H172.167V61.2082H171.318V54.8386ZM174.139 54.8386H174.988V55.8092C174.988 56.0822 174.958 56.3248 174.958 56.3248H174.988C175.2 55.7485 176.019 54.7172 177.536 54.7172C179.113 54.7172 179.659 55.6272 179.659 57.1741V61.2386H178.81V57.3864C178.81 56.3855 178.658 55.5059 177.445 55.5059C176.353 55.5059 175.443 56.2338 175.14 57.2954C175.079 57.5684 175.049 57.8717 175.049 58.1447V61.1779H174.199V54.8386H174.139ZM184.906 59.5703C184.906 59.5703 185.847 60.5409 187.242 60.5409C188.213 60.5409 189.001 59.9646 189.001 58.994C189.001 56.7495 184.573 57.3258 184.573 54.5656C184.573 53.2916 185.695 52.1997 187.333 52.1997C188.88 52.1997 189.699 53.049 189.699 53.049L189.274 53.7769C189.274 53.7769 188.485 53.0187 187.333 53.0187C186.211 53.0187 185.483 53.7466 185.483 54.5352C185.483 56.6585 189.911 56.0215 189.911 58.9637C189.911 60.2983 188.88 61.3599 187.212 61.3599C185.392 61.3599 184.391 60.2376 184.391 60.2376L184.906 59.5703ZM191.428 52.321H192.338V53.413H191.428V52.321ZM191.458 54.8386H192.307V61.2082H191.458V54.8386ZM196.463 63.0888C197.676 63.0888 198.707 62.5125 198.707 61.0869V60.5106C198.707 60.2679 198.738 60.0556 198.738 60.0556H198.707C198.343 60.7532 197.676 61.1476 196.705 61.1476C194.976 61.1476 193.885 59.7826 193.885 57.8717C193.885 55.9608 194.946 54.6566 196.645 54.6566C198.313 54.6566 198.768 55.7182 198.768 55.7182H198.798C198.798 55.7182 198.798 55.6575 198.798 55.5059V54.8082H199.648V61.0262C199.648 63.0281 198.161 63.8167 196.614 63.8167C195.886 63.8167 195.128 63.6348 194.522 63.3011L194.855 62.6035C194.734 62.6338 195.522 63.0888 196.463 63.0888ZM198.677 57.9021C198.677 56.0518 197.797 55.4755 196.675 55.4755C195.462 55.4755 194.704 56.3855 194.704 57.8717C194.704 59.3883 195.522 60.3893 196.796 60.3893C197.797 60.4196 198.677 59.7826 198.677 57.9021ZM201.498 52.321H202.347V55.7485C202.347 56.0518 202.317 56.2641 202.317 56.2641H202.347C202.59 55.6575 203.439 54.6869 204.865 54.6869C206.442 54.6869 206.988 55.5968 206.988 57.1438V61.2082H206.139V57.3864C206.139 56.3855 205.987 55.5059 204.774 55.5059C203.682 55.5059 202.772 56.2338 202.468 57.3258C202.408 57.5684 202.377 57.8717 202.377 58.175V61.2082H201.528L201.498 52.321ZM209.111 55.6575H208.262V54.9599H209.111V53.1096H209.96V54.9599H211.568V55.6575H209.96V58.812C209.96 60.2983 210.931 60.5106 211.386 60.5106C211.568 60.5106 211.689 60.4803 211.689 60.4803V61.2386C211.689 61.2386 211.538 61.2689 211.325 61.2689C210.597 61.2689 209.111 61.0262 209.111 58.903V55.6575ZM212.994 60.2073H213.994V61.2082H212.994V60.2073ZM61.9111 22.0197H63.6097V11.7372H61.9111V9.76562H68.4021C69.4637 9.76562 70.1917 9.82629 70.9196 10.1296C72.1935 10.6149 73.0732 11.7979 73.0732 13.4054C73.0732 14.7704 72.4665 15.8623 71.3443 16.4386V16.4993C72.9215 16.9846 73.6191 18.3495 73.6191 19.8661C73.6191 21.868 72.3452 23.2633 70.8286 23.7182C70.131 23.9306 69.494 23.9609 68.7054 23.9609H61.9111V22.0197ZM68.7054 15.559C69.7973 15.559 70.4343 14.8007 70.4343 13.7088C70.4343 13.0111 70.1613 12.3742 69.6153 12.1012C69.312 11.9495 68.9177 11.8888 68.4021 11.8888H66.2182V15.5893H68.7054V15.559ZM68.8571 21.868C69.1907 21.868 69.5547 21.8377 69.858 21.686C70.5556 21.3827 70.9803 20.5941 70.9803 19.6841C70.9803 18.4708 70.222 17.6216 68.948 17.6216H66.2182V21.8377H68.8571V21.868ZM75.2874 22.0803H76.7736V16.105C76.7736 15.8016 76.622 15.65 76.3187 15.65H75.1964V13.7391H77.8353C78.7149 13.7391 79.2002 14.1637 79.2002 14.9827V15.559C79.2002 15.741 79.2002 15.8926 79.1698 16.014C79.1395 16.0746 79.1395 16.1353 79.1395 16.196H79.2002C79.6552 14.74 80.8381 13.5571 82.4153 13.5571C82.567 13.5571 82.658 13.5571 82.749 13.5874C82.8097 13.6178 82.84 13.6178 82.9007 13.6178V16.1353C82.84 16.1353 82.7793 16.1353 82.7187 16.105C82.567 16.0746 82.4457 16.0746 82.2637 16.0746C80.2315 16.0746 79.2912 17.8642 79.2912 19.8054V22.0197H80.7471V23.9002H75.2874V22.0803ZM84.3262 22.0803H85.8125V15.6803H84.2353V13.7694H88.33V22.05H89.786V23.9306H84.3262V22.0803ZM85.7822 9.76562H88.33V12.0102H85.7822V9.76562ZM92.4552 25.4168C92.6978 25.5381 92.9708 25.6595 93.2741 25.7505C93.8201 25.9325 94.4874 26.0841 95.276 26.0841C96.8229 26.0841 98.1575 25.3865 98.1575 23.5362V22.8993C98.1575 22.7476 98.1575 22.6263 98.1879 22.5353C98.2182 22.4746 98.2182 22.414 98.2182 22.3533H98.1575C97.5509 23.2633 96.6713 23.7789 95.3367 23.7789C92.4248 23.7789 90.7566 21.413 90.7566 18.6225C90.7566 15.832 92.3035 13.5571 95.2457 13.5571C96.459 13.5571 97.8542 14.0424 98.4002 15.104H98.4608C98.4608 15.0737 98.4608 15.0434 98.4305 15.013C98.4002 14.9524 98.4002 14.8917 98.4002 14.7704C98.4002 14.2244 98.7642 13.7997 99.5528 13.7997H102.07V15.6803H101.1C100.796 15.6803 100.645 15.832 100.645 16.0746V23.3543C100.645 26.8727 97.9149 28.177 95.3063 28.177C94.0324 28.177 92.6978 27.8434 91.6665 27.2974L92.4552 25.4168ZM98.2182 18.6225C98.2182 16.287 97.0656 15.6803 95.7007 15.6803C94.1537 15.6803 93.3348 16.7723 93.3348 18.5315C93.3348 20.3211 94.2144 21.6253 95.8826 21.6253C97.0656 21.6253 98.2182 20.9277 98.2182 18.6225ZM103.071 22.0803H104.558V11.6765H102.98V9.79596H107.075V14.74C107.075 14.9827 107.075 15.195 107.045 15.3467L106.984 15.5893H107.045C107.5 14.6187 108.804 13.5268 110.563 13.5268C112.808 13.5268 114.112 14.6794 114.112 17.4092V22.0803H115.598V23.9609H111.594V17.9249C111.594 16.6813 111.261 15.832 109.987 15.832C108.167 15.832 107.105 17.4092 107.105 19.2595V22.0197H108.561V23.9002H103.102V22.0803H103.071ZM117.54 15.6803H115.993V13.7694H117.6V10.9789H120.057V13.7391H122.362V15.6197H120.057V19.9268C120.057 21.686 121.392 21.9287 122.089 21.9287C122.241 21.9287 122.362 21.8983 122.423 21.8983H122.544V23.9912L122.332 24.0519C122.18 24.0822 121.998 24.0822 121.756 24.0822C120.33 24.0822 117.509 23.6576 117.509 20.2604V15.6803H117.54ZM124.364 22.0197H126.063V11.7372H124.364V9.76562H134.434V13.4358H132.22V11.9798H128.671V16.0443H133.251V18.1675H128.671V21.9893H130.522V23.9609H124.364V22.0197ZM140.652 13.5268C143.746 13.5268 146.233 15.741 146.233 18.8652C146.233 21.9893 143.746 24.2035 140.652 24.2035C137.558 24.2035 135.071 21.9893 135.071 18.8652C135.071 15.741 137.558 13.5268 140.652 13.5268ZM140.683 22.05C142.321 22.05 143.685 20.7761 143.685 18.8955C143.685 17.0149 142.321 15.7106 140.683 15.7106C139.045 15.7106 137.649 17.0149 137.649 18.8955C137.619 20.7761 139.014 22.05 140.683 22.05ZM153.028 13.5268C154.726 13.5268 157.183 14.1637 157.183 15.9533V17.3486H154.999V16.6509C154.999 15.9533 153.968 15.65 153.119 15.65C151.268 15.65 150.116 16.9239 150.116 18.8045C150.116 20.9277 151.572 22.05 153.301 22.05C154.726 22.05 155.909 21.231 156.455 20.8064L157.335 22.596C156.637 23.2633 155.09 24.1732 153.149 24.1732C150.176 24.1732 147.568 22.141 147.568 18.8348C147.568 15.832 149.903 13.5268 153.028 13.5268ZM160.034 15.6803H158.457V13.7694H162.552V19.8964C162.552 21.1097 162.885 21.959 164.159 21.959C165.888 21.959 166.95 20.1694 166.95 18.3192V15.6803H165.403V13.7694H169.467V21.6557C169.467 21.959 169.619 22.1106 169.922 22.1106H170.893V23.9912H168.376C167.496 23.9912 167.071 23.5666 167.071 22.8689V22.4746C167.071 22.323 167.102 22.2016 167.102 22.141V21.9893H167.041C166.92 22.323 165.858 24.2339 163.34 24.2339C161.339 24.2339 160.034 23.1419 160.034 20.3514V15.6803ZM172.228 20.5637H174.351V21.14C174.351 21.8377 175.291 22.2016 176.353 22.2016C177.354 22.2016 178.082 21.868 178.082 21.1704C178.082 20.3211 177.111 20.0784 175.776 19.5931C174.29 19.0471 172.561 18.3798 172.561 16.4386C172.561 14.2851 174.715 13.5268 176.565 13.5268C178.051 13.5268 180.235 14.1031 180.235 15.65V16.9543H178.082V16.3779C178.082 15.832 177.505 15.5287 176.595 15.5287C175.807 15.5287 175.109 15.8016 175.109 16.4689C175.109 17.3182 176.08 17.6822 177.232 17.9855C178.779 18.4708 180.63 19.1078 180.63 21.14C180.63 23.2329 178.688 24.2339 176.353 24.2339C174.503 24.2339 172.228 23.4149 172.228 21.777V20.5637ZM61.9111 40.8253H63.6097V30.5732H61.9111V28.5713H72.0116V32.2414H69.767V30.7855H66.2182V34.8499H70.7983V36.9731H66.2182V40.795H68.0684V42.7665H61.9111V40.8253ZM77.9869 32.3627C81.0808 32.3627 83.568 34.5769 83.568 37.7011C83.568 40.8556 81.0808 43.0395 77.9869 43.0395C74.8931 43.0395 72.4059 40.8253 72.4059 37.7011C72.4059 34.5769 74.8931 32.3627 77.9869 32.3627ZM78.0172 40.8859C79.6552 40.8859 81.0201 39.612 81.0201 37.7011C81.0201 35.8205 79.6552 34.5466 78.0172 34.5466C76.3793 34.5466 74.9841 35.8509 74.9841 37.7011C74.9841 39.612 76.3793 40.8859 78.0172 40.8859ZM85.7518 34.4859H84.1746V32.6054H88.2694V38.7021C88.2694 39.9153 88.603 40.7646 89.877 40.7646C91.6059 40.7646 92.6675 38.975 92.6675 37.1248V34.4859H91.1206V32.6054H95.185V40.4916C95.185 40.795 95.3367 40.9466 95.64 40.9466H96.6106V42.8272H94.0931C93.2135 42.8272 92.7585 42.4025 92.7585 41.7049V41.3106C92.7585 41.1589 92.7888 41.0376 92.7888 40.9769V40.8253H92.7281C92.6068 41.1589 91.5452 43.0698 89.0277 43.0698C87.0258 43.0698 85.7215 41.9779 85.7215 39.1874V34.4859H85.7518ZM98.1879 40.9163H99.6741V34.9409C99.6741 34.6376 99.5225 34.4859 99.2191 34.4859H98.0969V32.6054H100.766C101.646 32.6054 102.07 33.03 102.07 33.7277V34.1826C102.07 34.2736 102.07 34.3949 102.04 34.4859C102.01 34.5466 102.01 34.5769 102.01 34.6376H102.07C102.161 34.304 103.284 32.3627 105.801 32.3627C107.955 32.3627 109.198 33.5153 109.198 36.2452V40.9163H110.685V42.7968H106.711V36.7608C106.711 35.5172 106.377 34.6679 105.104 34.6679C103.253 34.6679 102.222 36.4272 102.222 38.2168V40.8859H103.678V42.7665H98.2182V40.9163H98.1879ZM116.084 32.3627C117.176 32.3627 117.903 32.6964 118.328 33.0604C118.601 33.2727 118.783 33.5153 118.995 33.758H119.056C119.056 33.6973 119.056 33.6063 119.026 33.576C118.995 33.4243 118.995 33.2727 118.995 33.0604V30.4822H117.418V28.6016H121.483V40.4613C121.483 40.7646 121.634 40.9163 121.938 40.9163H122.848V42.7968H120.482C119.541 42.7968 119.177 42.3115 119.177 41.7049V41.5836C119.177 41.4623 119.208 41.3409 119.238 41.2499C119.268 41.1893 119.268 41.1589 119.268 41.1286H119.208C119.026 41.4623 118.783 41.7959 118.51 42.0689C117.964 42.5542 117.176 43.0395 115.902 43.0395C113.202 43.0395 111.473 40.8253 111.473 37.7011C111.443 34.4556 113.323 32.3627 116.084 32.3627ZM116.508 40.9163C117.873 40.9163 119.086 39.9457 119.086 37.7618C119.086 36.0935 118.267 34.5466 116.599 34.5466C115.174 34.5466 114.021 35.6689 114.021 37.7011C113.991 39.612 114.992 40.9163 116.508 40.9163ZM129.794 36.4878H130.431V36.1542C130.431 34.8499 129.612 34.3949 128.58 34.3949C127.792 34.3949 127.124 34.6376 126.578 34.8803C126.245 35.0319 125.972 35.2139 125.699 35.3656L124.758 33.6063C125.092 33.3637 125.456 33.1513 125.85 32.9694C126.548 32.6357 127.579 32.3627 128.762 32.3627C131.492 32.3627 132.948 33.758 132.948 36.3968V40.4613C132.948 40.7646 133.1 40.9163 133.403 40.9163H134.313V42.7968H131.947C131.007 42.7968 130.643 42.3115 130.643 41.7049V41.5836C130.643 41.4016 130.673 41.3106 130.703 41.1893C130.734 41.1286 130.734 41.0983 130.734 41.0376H130.643C130.461 41.4016 130.218 41.7352 129.945 42.0082C129.399 42.4935 128.641 42.9788 127.458 42.9788C125.729 42.9788 124.091 41.9476 124.091 39.885C124.091 36.7912 128.186 36.4878 129.794 36.4878ZM128.095 41.1286C129.46 41.1286 130.461 39.6423 130.461 38.3684V38.0348H130.036C129.035 38.0348 126.639 38.1864 126.639 39.7333C126.639 40.522 127.185 41.1286 128.095 41.1286ZM135.83 34.4859H134.283V32.6054H135.89V29.8452H138.347V32.6054H140.652V34.4859H138.347V38.7931C138.347 40.5523 139.682 40.795 140.379 40.795C140.531 40.795 140.652 40.7646 140.713 40.7646H140.834V42.8575L140.622 42.9182C140.47 42.9485 140.288 42.9485 140.046 42.9485C138.62 42.9485 135.799 42.5239 135.799 39.1267V34.4859H135.83ZM142.806 40.9163H144.292V34.5163H142.715V32.6357H146.81V40.9163H148.266V42.7968H142.806V40.9163ZM144.262 28.6016H146.81V30.8461H144.262V28.6016ZM154.666 32.3627C157.759 32.3627 160.247 34.5769 160.247 37.7011C160.247 40.8556 157.759 43.0395 154.666 43.0395C151.572 43.0395 149.085 40.8253 149.085 37.7011C149.085 34.5769 151.572 32.3627 154.666 32.3627ZM154.696 40.8859C156.334 40.8859 157.699 39.612 157.699 37.7011C157.699 35.8205 156.334 34.5466 154.696 34.5466C153.058 34.5466 151.663 35.8509 151.663 37.7011C151.663 39.612 153.028 40.8859 154.696 40.8859ZM161.521 40.9163H163.007V34.9409C163.007 34.6376 162.855 34.4859 162.552 34.4859H161.43V32.6054H164.099C164.978 32.6054 165.433 33.03 165.433 33.7277V34.1826C165.433 34.2736 165.433 34.3949 165.403 34.4859C165.373 34.5466 165.373 34.5769 165.373 34.6376H165.433C165.524 34.304 166.647 32.3627 169.164 32.3627C171.318 32.3627 172.561 33.5153 172.561 36.2452V40.9163H174.048V42.7968H170.044V36.7608C170.044 35.5172 169.71 34.6679 168.436 34.6679C166.586 34.6679 165.555 36.4272 165.555 38.2168V40.8859H167.011V42.7665H161.551L161.521 40.9163Z" fill="#1C175C"/>
<path d="M34.3095 45.4962H6.73792L20.5085 21.6251C21.4488 20.0176 20.9028 17.955 19.2953 16.9844L18.446 18.4706L0.883888 48.8934H36.0081H37.7066C37.6763 47.0128 36.1597 45.4962 34.3095 45.4962Z" fill="#2C5697"/>
<path d="M35.3107 10.918C33.7031 11.8583 33.1572 13.9208 34.0975 15.5587L47.8984 39.4298H20.2965C18.4159 39.4298 16.8993 40.9161 16.8993 42.827H18.5979H53.7221L36.1297 12.4042L35.3107 10.918Z" fill="#00A1E1"/>
<path d="M39.3142 30.3924L21.7217 0L4.18993 30.3924L3.34064 31.8787C4.94822 32.819 7.01078 32.2427 7.95106 30.6351L21.752 6.73365L35.5531 30.6047C36.4934 32.2123 38.5559 32.7886 40.1635 31.8483L39.3142 30.3924Z" fill="#F00000"/>
<path d="M185.908 9.76562C187.546 9.76562 188.88 11.1306 188.88 12.7988C188.88 14.4974 187.546 15.832 185.908 15.832C184.3 15.832 182.966 14.4974 182.966 12.7988C182.966 11.1002 184.27 9.76562 185.908 9.76562ZM185.908 15.377C187.333 15.377 188.425 14.2547 188.425 12.7988C188.425 11.3429 187.333 10.2206 185.908 10.2206C184.543 10.2206 183.451 11.3429 183.451 12.7988C183.451 14.2547 184.513 15.377 185.908 15.377ZM184.937 11.1609H186.09C186.666 11.1609 187.06 11.5249 187.06 12.1315C187.06 12.6168 186.727 12.9201 186.454 12.9808V13.0111L186.484 13.0718C186.515 13.1021 186.545 13.1325 186.545 13.2234L187.151 14.4367H186.636L185.999 13.1021H185.392V14.4367H184.937V11.1609ZM185.969 12.7381C186.333 12.7381 186.545 12.5258 186.545 12.1618C186.545 11.7979 186.333 11.5855 185.969 11.5855H185.362V12.7685L185.969 12.7381Z" fill="#1C175C"/>
</g>
<defs>
<clipPath id="clip0_790_1854">
<rect width="213.232" height="64" fill="white" transform="translate(0.883888)"/>
</clipPath>
</defs>
</svg>
