<svg width="159" height="64" viewBox="0 0 159 64" fill="none" xmlns="http://www.w3.org/2000/svg">
<g clip-path="url(#clip0_790_1863)">
<path d="M130.652 6.81741C130.718 7.27784 130.761 7.69442 130.761 8.111H135.366C135.322 6.99281 135.146 5.96232 134.861 5.01953L130.411 5.89654C130.52 6.2035 130.608 6.48853 130.652 6.81741Z" fill="#01C1D7"/>
<path d="M120.413 22.9773C120.566 23.9639 120.785 24.819 121.048 25.5206C121.334 26.2441 121.706 26.88 122.211 27.45C122.824 28.1736 123.57 28.7655 124.469 29.2479C125.368 29.7303 126.508 29.9714 127.889 29.9714C128.985 29.9714 129.994 29.796 130.915 29.4671C131.836 29.1163 132.625 28.6121 133.283 27.9324C133.941 27.2527 134.467 26.3976 134.818 25.389C135.19 24.3805 135.366 23.1965 135.366 21.8591V13.7467H127.495V17.5398H130.739V22.1002C130.739 23.1088 130.52 23.9858 130.06 24.7313C129.599 25.4767 128.876 25.8495 127.867 25.8495C127.319 25.8495 126.881 25.7398 126.53 25.5425C126.179 25.3452 125.894 25.0602 125.697 24.7313C125.236 24.0077 124.951 22.8896 124.842 21.3548C124.732 19.82 124.666 17.7152 124.666 15.0184C124.666 12.3216 124.732 10.2167 124.842 8.68195C124.885 8.06804 124.951 7.49798 125.061 7.01562L120.303 7.95841C120.215 8.70387 120.171 9.53704 120.128 10.4579C120.084 11.7515 120.062 13.2863 120.062 14.9964C120.062 16.7066 120.084 18.2414 120.128 19.5569C120.171 20.8286 120.259 21.9906 120.413 22.9773Z" fill="#01C1D7"/>
<path d="M112.848 9.42868V17.7384L109.362 10.1084L100.746 11.8405V29.6438H105.372V12.2351L113.397 29.6438H117.475V8.50781L112.848 9.42868Z" fill="#01C1D7"/>
<path d="M93.0279 13.374V29.6426H97.6542V12.4531L93.0279 13.374Z" fill="#01C1D7"/>
<path d="M80.7936 15.8091V29.644H85.3979V14.9102L80.7936 15.8091Z" fill="#01C1D7"/>
<path d="M63.4068 19.293L58.7806 20.2138V29.6417H63.4068V19.293Z" fill="#01C1D7"/>
<path d="M68.3839 18.3061V29.6415H72.9882V17.3633L68.3839 18.3061Z" fill="#01C1D7"/>
<path d="M51.4356 21.6832V22.0779C51.4356 23.0864 51.2163 23.9634 50.7559 24.7089C50.2955 25.4544 49.5719 25.8271 48.5634 25.8271C48.0152 25.8271 47.5767 25.7175 47.2259 25.5201C46.8751 25.3228 46.5901 25.0378 46.3928 24.7089C46.0858 24.2485 45.8666 23.6346 45.7131 22.8453L41.2403 23.7442C41.3719 24.4239 41.5473 25.0159 41.7446 25.5421C42.0296 26.2656 42.4024 26.9014 42.9066 27.4715C43.5206 28.195 44.266 28.787 45.1649 29.2694C46.0639 29.7517 47.204 29.9929 48.5853 29.9929C49.6816 29.9929 50.6901 29.8175 51.611 29.4886C52.5319 29.1378 53.3212 28.6335 53.9789 27.9539C54.6367 27.2742 55.1629 26.4191 55.5137 25.4105C55.8864 24.402 56.0618 23.218 56.0618 21.8805V20.8281L51.4356 21.6832Z" fill="#01C1D7"/>
<path d="M33.4349 25.2802V29.6434H38.0392V24.3594L33.4349 25.2802Z" fill="#01C1D7"/>
<path d="M26.945 34.8174C26.0461 34.5324 24.906 34.3789 23.5247 34.3789H16.2016V35.5848L30.6504 38.457C30.3654 37.6019 29.9049 36.8565 29.2252 36.1768C28.6113 35.5629 27.8659 35.1024 26.945 34.8174Z" fill="#01C1D7"/>
<path d="M33.4349 39.0271L38.0392 39.9479V34.3789H33.4349V39.0271Z" fill="#01C1D7"/>
<path d="M48.4757 42.0308L53.08 42.9517V34.3789H48.4757V42.0308Z" fill="#01C1D7"/>
<path d="M68.2962 45.9993L72.9005 46.9202V34.3789H68.2962V45.9993Z" fill="#01C1D7"/>
<path d="M56.1934 43.5875L65.3582 45.4073L60.3153 34.3789H56.1934V43.5875Z" fill="#01C1D7"/>
<path d="M90.3969 41.1977C90.2653 40.233 90.0461 39.3779 89.761 38.6763C89.476 37.9747 89.0814 37.3607 88.5771 36.8126C87.9632 36.1329 87.2177 35.5409 86.3407 35.0805C85.4418 34.6201 84.3016 34.3789 82.8984 34.3789H75.4438V47.4245L80.0481 48.3453V38.5447H82.7669C83.315 38.5447 83.7974 38.6543 84.192 38.8736C84.5867 39.0928 84.8936 39.3779 85.1129 39.7287C85.5733 40.4084 85.8583 41.4827 85.946 42.9298C86.0337 44.3769 86.0995 46.394 86.0995 48.9812V49.5293L90.7038 50.4502V48.9812C90.7038 47.3148 90.6819 45.8239 90.6381 44.5523C90.6381 43.3025 90.5504 42.1624 90.3969 41.1977Z" fill="#01C1D7"/>
<path d="M105.131 51.7876L97.1499 34.3789H93.0279V50.9325L97.6542 51.8534V46.2844L100.483 52.4234L109.757 54.2652V34.3789H105.131V51.7876Z" fill="#01C1D7"/>
<path d="M112.476 54.8133L117.102 55.7342V50.8887H123.723V46.7229H117.102V38.5447H124.798V34.3789H112.476V54.8133Z" fill="#01C1D7"/>
<path d="M140.584 50.1422C140.255 49.5064 139.795 48.9802 139.225 48.5417C138.655 48.1031 137.931 47.7085 137.032 47.3577L133.568 45.9545C133.042 45.7571 132.625 45.5598 132.318 45.3406C132.011 45.1213 131.748 44.8582 131.573 44.5732C131.397 44.2881 131.288 43.9373 131.222 43.5208C131.156 43.1042 131.134 42.5999 131.134 41.986C131.134 40.6705 131.397 39.7057 131.923 39.1138C132.143 38.8726 132.406 38.6753 132.735 38.5218C133.042 38.3683 133.436 38.3025 133.919 38.3025C134.861 38.3025 135.541 38.5876 135.98 39.1576C136.287 39.5523 136.484 39.9908 136.55 40.517C136.637 41.0432 136.681 41.6352 136.681 42.2929H141.286C141.286 40.8897 141.132 39.6619 140.825 38.6095C140.518 37.5571 139.992 36.6581 139.225 35.9127C137.997 34.7287 136.243 34.1367 133.963 34.1367C132.91 34.1367 131.989 34.2902 131.134 34.6191C130.301 34.926 129.556 35.3645 128.942 35.9127C128.152 36.6362 127.538 37.5132 127.144 38.5656C126.749 39.618 126.552 40.802 126.552 42.1175C126.552 43.2357 126.618 44.2004 126.771 44.9898C126.924 45.7791 127.166 46.4587 127.473 47.0288C127.78 47.5989 128.196 48.0593 128.722 48.454C129.249 48.8486 129.884 49.1775 130.608 49.4844L134.116 50.9315C134.686 51.1508 135.168 51.3919 135.519 51.6331C135.87 51.8743 136.155 52.1813 136.374 52.5101C136.572 52.8609 136.725 53.2775 136.791 53.8037C136.857 54.3299 136.9 54.9658 136.9 55.7332C136.9 56.5005 136.835 57.1802 136.725 57.6845C136.615 58.1888 136.418 58.6273 136.111 58.9781C135.958 59.1535 135.804 59.2851 135.607 59.3947L140.759 60.4252C140.913 60.0963 141.044 59.7455 141.132 59.3947C141.395 58.3423 141.527 57.0706 141.527 55.5578C141.527 54.3299 141.461 53.2556 141.329 52.3786C141.132 51.5235 140.913 50.778 140.584 50.1422Z" fill="#01C1D7"/>
<path d="M131.068 57.7092C130.959 57.2049 130.893 56.5471 130.893 55.7578H126.289C126.289 56.4375 126.311 57.0295 126.376 57.5995L131.419 58.6081C131.244 58.3231 131.134 58.038 131.068 57.7092Z" fill="#01C1D7"/>
<path d="M157.488 50.1422C157.159 49.5064 156.699 48.9802 156.129 48.5417C155.559 48.1031 154.835 47.7085 153.936 47.3577L150.472 45.9545C149.946 45.7571 149.529 45.5598 149.223 45.3406C148.916 45.1213 148.652 44.8582 148.477 44.5732C148.302 44.2881 148.192 43.9373 148.126 43.5208C148.06 43.1042 148.039 42.5999 148.039 41.986C148.039 40.6705 148.302 39.7057 148.828 39.1138C149.047 38.8726 149.31 38.6753 149.639 38.5218C149.946 38.3683 150.341 38.3025 150.823 38.3025C151.766 38.3025 152.446 38.5876 152.884 39.1576C153.191 39.5523 153.388 39.9908 153.454 40.517C153.542 41.0432 153.586 41.6352 153.586 42.2929H158.19C158.19 40.8897 158.036 39.6619 157.73 38.6095C157.423 37.5571 156.896 36.6581 156.129 35.9127C154.901 34.7287 153.147 34.1367 150.867 34.1367C149.814 34.1367 148.894 34.2902 148.039 34.6191C147.205 34.926 146.46 35.3645 145.846 35.9127C145.057 36.6362 144.443 37.5132 144.048 38.5656C143.653 39.618 143.456 40.802 143.456 42.1175C143.456 43.2357 143.522 44.2004 143.675 44.9898C143.829 45.7791 144.07 46.4587 144.377 47.0288C144.684 47.5989 145.101 48.0593 145.627 48.454C146.153 48.8486 146.789 49.1775 147.512 49.4844L151.02 50.9315C151.59 51.1508 152.073 51.3919 152.424 51.6331C152.774 51.8743 153.059 52.1813 153.257 52.5101C153.454 52.8609 153.608 53.2775 153.673 53.8037C153.739 54.3299 153.783 54.9658 153.783 55.7332C153.783 56.5005 153.717 57.1802 153.608 57.6845C153.498 58.1888 153.301 58.6273 152.994 58.9781C152.533 59.5262 151.788 59.8113 150.779 59.8113C150.253 59.8113 149.814 59.7455 149.486 59.592C149.135 59.4385 148.872 59.2631 148.652 59.0439C148.324 58.6492 148.104 58.2107 147.995 57.7064C147.885 57.2022 147.841 56.5444 147.841 55.7551H143.237C143.237 57.3118 143.368 58.5834 143.653 59.5482C143.829 60.1401 144.07 60.6883 144.421 61.1926L154.704 63.2535C155.427 62.9247 156.041 62.53 156.524 62.0696C157.269 61.346 157.773 60.469 158.036 59.4385C158.3 58.3861 158.431 57.1145 158.431 55.6016C158.431 54.3738 158.365 53.2994 158.234 52.4224C158.058 51.5235 157.817 50.778 157.488 50.1422Z" fill="#01C1D7"/>
<path d="M16.2016 28.7216V29.6425H20.8278V27.8008L16.2016 28.7216Z" fill="#01C1D7"/>
<path d="M2.21325 59.1562V62.0065H5.26087V59.5509H6.79565V62.0065H11.4657V63.6948H0.678482V59.1562H2.21325Z" fill="#003865"/>
<path d="M11.5754 55.1847C11.5754 55.689 11.4877 56.1056 11.3123 56.4345C11.1369 56.7633 10.9176 57.0484 10.6545 57.2676C10.4352 57.443 10.1941 57.5965 9.93097 57.6842C9.66786 57.7938 9.33898 57.8596 8.98818 57.9254C8.63737 57.9912 8.19887 58.0131 7.73843 58.035C7.25608 58.0569 6.70794 58.0569 6.07211 58.0569C5.43628 58.0569 4.88814 58.0569 4.40579 58.035C3.92343 58.0131 3.50685 57.9912 3.15604 57.9254C2.80524 57.8596 2.47636 57.7938 2.21325 57.6842C1.95015 57.5746 1.70897 57.443 1.48972 57.2676C1.22661 57.0484 1.00736 56.7633 0.831959 56.4345C0.656557 56.1056 0.568855 55.689 0.568855 55.1847C0.568855 54.6804 0.656557 54.2639 0.831959 53.935C1.00736 53.6061 1.22661 53.3211 1.48972 53.1018C1.70897 52.9264 1.95015 52.7729 2.19133 52.6633C2.45443 52.5537 2.76139 52.4879 3.13412 52.4221C3.50685 52.3783 3.92343 52.3344 4.40579 52.3344C4.88814 52.3125 5.43628 52.3125 6.07211 52.3125C6.70794 52.3125 7.278 52.3125 7.73843 52.3344C8.22079 52.3563 8.63737 52.3783 9.0101 52.4221C9.38283 52.466 9.68979 52.5537 9.95289 52.6633C10.216 52.7729 10.4572 52.9045 10.6545 53.1018C10.9176 53.3211 11.1369 53.6061 11.3123 53.935C11.4877 54.2639 11.5754 54.6804 11.5754 55.1847ZM10.0625 55.1847C10.0625 54.9874 10.0187 54.812 9.95289 54.6804C9.88712 54.5489 9.77749 54.4393 9.66786 54.3735C9.40476 54.22 8.98818 54.1104 8.41812 54.0665C7.84806 54.0227 7.08068 54.0007 6.09404 54.0007C5.1074 54.0007 4.31808 54.0227 3.76995 54.0665C3.19989 54.1104 2.78331 54.1981 2.52021 54.3735C2.38866 54.4612 2.30096 54.5708 2.23518 54.6804C2.1694 54.812 2.12555 54.9874 2.12555 55.1847C2.12555 55.382 2.1694 55.5574 2.23518 55.6671C2.30096 55.7986 2.41058 55.9083 2.52021 55.974C2.78331 56.1275 3.19989 56.2371 3.76995 56.281C4.34001 56.3248 5.1074 56.3468 6.09404 56.3468C7.08068 56.3468 7.86999 56.3248 8.41812 56.281C8.98818 56.2371 9.40476 56.1275 9.66786 55.974C9.79941 55.8863 9.88712 55.7986 9.95289 55.6671C10.0187 55.5574 10.0625 55.404 10.0625 55.1847Z" fill="#003865"/>
<path d="M8.79085 45.2109C9.62401 45.2109 10.2818 45.4521 10.7861 45.9564C11.3123 46.4607 11.5973 47.1404 11.5973 47.9516C11.5973 48.7628 11.3342 49.4425 10.7861 49.9687C10.2818 50.473 9.62401 50.7142 8.79085 50.7142H0.678482V49.0259H8.747C9.20743 49.0259 9.53631 48.9382 9.75556 48.7628C9.97482 48.5874 10.0625 48.3243 10.0625 47.9735C10.0625 47.6446 9.95289 47.3815 9.75556 47.2061C9.53631 47.0307 9.20743 46.943 8.747 46.943H0.678482V45.2548H8.79085V45.2109Z" fill="#003865"/>
<path d="M11.4657 37.8438V39.3347L5.06355 41.8999H11.4657V43.5882H0.678482V42.0753L7.08067 39.532H0.678482V37.8438H11.4657Z" fill="#003865"/>
<path d="M0.678482 33.3473C0.678482 32.843 0.766183 32.4045 0.941586 32.0756C1.11699 31.7467 1.33624 31.4617 1.57742 31.2424C1.77475 31.067 2.01593 30.9136 2.2571 30.8039C2.52021 30.6943 2.82716 30.6285 3.17797 30.5628C3.52877 30.5189 3.94535 30.4751 4.42771 30.4751C4.88814 30.4531 5.43628 30.4531 6.05018 30.4531C6.66409 30.4531 7.23415 30.4531 7.69458 30.4751C8.15501 30.497 8.5716 30.5189 8.94433 30.5628C9.29513 30.6066 9.60209 30.6943 9.86519 30.8039C10.1283 30.9136 10.3695 31.0451 10.5668 31.2424C10.8299 31.4617 11.0272 31.7467 11.2026 32.0756C11.378 32.4045 11.4657 32.8211 11.4657 33.3473V36.0879H0.678482V33.3473ZM2.21325 34.3778H9.93097V33.3692C9.93097 33.1719 9.88711 32.9965 9.79941 32.843C9.71171 32.6895 9.60209 32.5799 9.49246 32.4922C9.22936 32.3168 8.8347 32.2072 8.28657 32.1852C7.73843 32.1414 6.99297 32.1414 6.05018 32.1414C5.1074 32.1414 4.36194 32.1633 3.8138 32.1852C3.26567 32.2072 2.89294 32.3168 2.62984 32.4922C2.49828 32.5799 2.38866 32.6895 2.32288 32.843C2.23518 32.9965 2.19133 33.1719 2.19133 33.3692V34.3778H2.21325Z" fill="#003865"/>
<path d="M11.4657 23.0234V24.7994L9.33898 25.2379V27.7374L11.4657 28.154V29.9518L0.678482 27.2989V25.6326L11.4657 23.0234ZM7.80421 27.4085V25.5668L3.28759 26.4876L7.80421 27.4085Z" fill="#003865"/>
<path d="M2.21325 17.8047V19.6245H11.4657V21.3347H2.21325V23.1325H0.678482V17.8047H2.21325Z" fill="#003865"/>
<path d="M11.4657 14.7773H0.678482V16.4656H11.4657V14.7773Z" fill="#003865"/>
<path d="M11.5754 10.3917C11.5754 10.896 11.4877 11.3126 11.3123 11.6415C11.1369 11.9704 10.9176 12.2554 10.6545 12.4747C10.4352 12.6501 10.1941 12.8035 9.93097 12.8912C9.66786 13.0009 9.33898 13.0666 8.98818 13.1324C8.63737 13.1982 8.19887 13.2201 7.73843 13.242C7.25608 13.264 6.70794 13.264 6.07211 13.264C5.43628 13.264 4.88814 13.264 4.40579 13.242C3.92343 13.2201 3.50685 13.1982 3.15604 13.1324C2.80524 13.0666 2.47636 13.0009 2.21325 12.8912C1.95015 12.7816 1.70897 12.6501 1.48972 12.4747C1.22661 12.2554 1.00736 11.9704 0.831959 11.6415C0.656557 11.3126 0.568855 10.896 0.568855 10.3917C0.568855 9.88747 0.656557 9.47088 0.831959 9.14201C1.00736 8.81313 1.22661 8.5281 1.48972 8.30884C1.70897 8.13344 1.95015 7.97996 2.19133 7.87034C2.45443 7.76071 2.76139 7.69493 3.13412 7.62916C3.50685 7.58531 3.92343 7.54146 4.40579 7.54146C4.88814 7.51953 5.43628 7.51953 6.07211 7.51953C6.70794 7.51953 7.278 7.51953 7.73843 7.54146C8.22079 7.56338 8.63737 7.58531 9.0101 7.62916C9.38283 7.67301 9.68979 7.76071 9.95289 7.87034C10.216 7.97996 10.4572 8.11152 10.6545 8.30884C10.9176 8.5281 11.1369 8.81313 11.3123 9.14201C11.4877 9.47088 11.5754 9.88747 11.5754 10.3917ZM10.0625 10.3917C10.0625 10.1944 10.0187 10.019 9.95289 9.88747C9.88712 9.75591 9.77749 9.64629 9.66786 9.58051C9.40476 9.42703 8.98818 9.31741 8.41812 9.27356C7.84806 9.22971 7.08068 9.20778 6.09404 9.20778C5.1074 9.20778 4.31808 9.22971 3.76995 9.27356C3.19989 9.31741 2.78331 9.40511 2.52021 9.58051C2.38866 9.66821 2.30096 9.77784 2.23518 9.88747C2.1694 10.019 2.12555 10.1944 2.12555 10.3917C2.12555 10.5891 2.1694 10.7645 2.23518 10.8741C2.30096 11.0057 2.41058 11.1153 2.52021 11.1811C2.78331 11.3345 3.19989 11.4442 3.76995 11.488C4.34001 11.5319 5.1074 11.5538 6.09404 11.5538C7.08068 11.5538 7.86999 11.5319 8.41812 11.488C8.98818 11.4442 9.40476 11.3345 9.66786 11.1811C9.79941 11.0934 9.88712 11.0057 9.95289 10.8741C10.0187 10.7645 10.0625 10.5891 10.0625 10.3917Z" fill="#003865"/>
<path d="M11.4657 0.328125V1.81905L5.06355 4.36238H11.4657V6.07256H0.678482V4.55971L7.08067 2.01637H0.678482V0.328125H11.4657Z" fill="#003865"/>
<path d="M2.21325 59.1562V62.0065H5.26087V59.5509H6.79565V62.0065H11.4657V63.6948H0.678482V59.1562H2.21325Z" fill="#003865"/>
<path d="M11.5754 55.1847C11.5754 55.689 11.4877 56.1056 11.3123 56.4345C11.1369 56.7633 10.9176 57.0484 10.6545 57.2676C10.4352 57.443 10.1941 57.5965 9.93097 57.6842C9.66786 57.7938 9.33898 57.8596 8.98818 57.9254C8.63737 57.9912 8.19887 58.0131 7.73843 58.035C7.25608 58.0569 6.70794 58.0569 6.07211 58.0569C5.43628 58.0569 4.88814 58.0569 4.40579 58.035C3.92343 58.0131 3.50685 57.9912 3.15604 57.9254C2.80524 57.8596 2.47636 57.7938 2.21325 57.6842C1.95015 57.5746 1.70897 57.443 1.48972 57.2676C1.22661 57.0484 1.00736 56.7633 0.831959 56.4345C0.656557 56.1056 0.568855 55.689 0.568855 55.1847C0.568855 54.6804 0.656557 54.2639 0.831959 53.935C1.00736 53.6061 1.22661 53.3211 1.48972 53.1018C1.70897 52.9264 1.95015 52.7729 2.19133 52.6633C2.45443 52.5537 2.76139 52.4879 3.13412 52.4221C3.50685 52.3783 3.92343 52.3344 4.40579 52.3344C4.88814 52.3125 5.43628 52.3125 6.07211 52.3125C6.70794 52.3125 7.278 52.3125 7.73843 52.3344C8.22079 52.3563 8.63737 52.3783 9.0101 52.4221C9.38283 52.466 9.68979 52.5537 9.95289 52.6633C10.216 52.7729 10.4572 52.9045 10.6545 53.1018C10.9176 53.3211 11.1369 53.6061 11.3123 53.935C11.4877 54.2639 11.5754 54.6804 11.5754 55.1847ZM10.0625 55.1847C10.0625 54.9874 10.0187 54.812 9.95289 54.6804C9.88712 54.5489 9.77749 54.4393 9.66786 54.3735C9.40476 54.22 8.98818 54.1104 8.41812 54.0665C7.84806 54.0227 7.08068 54.0007 6.09404 54.0007C5.1074 54.0007 4.31808 54.0227 3.76995 54.0665C3.19989 54.1104 2.78331 54.1981 2.52021 54.3735C2.38866 54.4612 2.30096 54.5708 2.23518 54.6804C2.1694 54.812 2.12555 54.9874 2.12555 55.1847C2.12555 55.382 2.1694 55.5574 2.23518 55.6671C2.30096 55.7986 2.41058 55.9083 2.52021 55.974C2.78331 56.1275 3.19989 56.2371 3.76995 56.281C4.34001 56.3248 5.1074 56.3468 6.09404 56.3468C7.08068 56.3468 7.86999 56.3248 8.41812 56.281C8.98818 56.2371 9.40476 56.1275 9.66786 55.974C9.79941 55.8863 9.88712 55.7986 9.95289 55.6671C10.0187 55.5574 10.0625 55.404 10.0625 55.1847Z" fill="#003865"/>
<path d="M8.79085 45.2109C9.62401 45.2109 10.2818 45.4521 10.7861 45.9564C11.3123 46.4607 11.5973 47.1404 11.5973 47.9516C11.5973 48.7628 11.3342 49.4425 10.7861 49.9687C10.2818 50.473 9.62401 50.7142 8.79085 50.7142H0.678482V49.0259H8.747C9.20743 49.0259 9.53631 48.9382 9.75556 48.7628C9.97482 48.5874 10.0625 48.3243 10.0625 47.9735C10.0625 47.6446 9.95289 47.3815 9.75556 47.2061C9.53631 47.0307 9.20743 46.943 8.747 46.943H0.678482V45.2548H8.79085V45.2109Z" fill="#003865"/>
<path d="M11.4657 37.8438V39.3347L5.06355 41.8999H11.4657V43.5882H0.678482V42.0753L7.08067 39.532H0.678482V37.8438H11.4657Z" fill="#003865"/>
<path d="M0.678482 33.3473C0.678482 32.843 0.766183 32.4045 0.941586 32.0756C1.11699 31.7467 1.33624 31.4617 1.57742 31.2424C1.77475 31.067 2.01593 30.9136 2.2571 30.8039C2.52021 30.6943 2.82716 30.6285 3.17797 30.5628C3.52877 30.5189 3.94535 30.4751 4.42771 30.4751C4.88814 30.4531 5.43628 30.4531 6.05018 30.4531C6.66409 30.4531 7.23415 30.4531 7.69458 30.4751C8.15501 30.497 8.5716 30.5189 8.94433 30.5628C9.29513 30.6066 9.60209 30.6943 9.86519 30.8039C10.1283 30.9136 10.3695 31.0451 10.5668 31.2424C10.8299 31.4617 11.0272 31.7467 11.2026 32.0756C11.378 32.4045 11.4657 32.8211 11.4657 33.3473V36.0879H0.678482V33.3473ZM2.21325 34.3778H9.93097V33.3692C9.93097 33.1719 9.88711 32.9965 9.79941 32.843C9.71171 32.6895 9.60209 32.5799 9.49246 32.4922C9.22936 32.3168 8.8347 32.2072 8.28657 32.1852C7.73843 32.1414 6.99297 32.1414 6.05018 32.1414C5.1074 32.1414 4.36194 32.1633 3.8138 32.1852C3.26567 32.2072 2.89294 32.3168 2.62984 32.4922C2.49828 32.5799 2.38866 32.6895 2.32288 32.843C2.23518 32.9965 2.19133 33.1719 2.19133 33.3692V34.3778H2.21325Z" fill="#003865"/>
<path d="M11.4657 23.0234V24.7994L9.33898 25.2379V27.7374L11.4657 28.154V29.9518L0.678482 27.2989V25.6326L11.4657 23.0234ZM7.80421 27.4085V25.5668L3.28759 26.4876L7.80421 27.4085Z" fill="#003865"/>
<path d="M2.21325 17.8047V19.6245H11.4657V21.3347H2.21325V23.1325H0.678482V17.8047H2.21325Z" fill="#003865"/>
<path d="M11.4657 14.7773H0.678482V16.4656H11.4657V14.7773Z" fill="#003865"/>
<path d="M11.5754 10.3917C11.5754 10.896 11.4877 11.3126 11.3123 11.6415C11.1369 11.9704 10.9176 12.2554 10.6545 12.4747C10.4352 12.6501 10.1941 12.8035 9.93097 12.8912C9.66786 13.0009 9.33898 13.0666 8.98818 13.1324C8.63737 13.1982 8.19887 13.2201 7.73843 13.242C7.25608 13.264 6.70794 13.264 6.07211 13.264C5.43628 13.264 4.88814 13.264 4.40579 13.242C3.92343 13.2201 3.50685 13.1982 3.15604 13.1324C2.80524 13.0666 2.47636 13.0009 2.21325 12.8912C1.95015 12.7816 1.70897 12.6501 1.48972 12.4747C1.22661 12.2554 1.00736 11.9704 0.831959 11.6415C0.656557 11.3126 0.568855 10.896 0.568855 10.3917C0.568855 9.88747 0.656557 9.47088 0.831959 9.14201C1.00736 8.81313 1.22661 8.5281 1.48972 8.30884C1.70897 8.13344 1.95015 7.97996 2.19133 7.87034C2.45443 7.76071 2.76139 7.69493 3.13412 7.62916C3.50685 7.58531 3.92343 7.54146 4.40579 7.54146C4.88814 7.51953 5.43628 7.51953 6.07211 7.51953C6.70794 7.51953 7.278 7.51953 7.73843 7.54146C8.22079 7.56338 8.63737 7.58531 9.0101 7.62916C9.38283 7.67301 9.68979 7.76071 9.95289 7.87034C10.216 7.97996 10.4572 8.11152 10.6545 8.30884C10.9176 8.5281 11.1369 8.81313 11.3123 9.14201C11.4877 9.47088 11.5754 9.88747 11.5754 10.3917ZM10.0625 10.3917C10.0625 10.1944 10.0187 10.019 9.95289 9.88747C9.88712 9.75591 9.77749 9.64629 9.66786 9.58051C9.40476 9.42703 8.98818 9.31741 8.41812 9.27356C7.84806 9.22971 7.08068 9.20778 6.09404 9.20778C5.1074 9.20778 4.31808 9.22971 3.76995 9.27356C3.19989 9.31741 2.78331 9.40511 2.52021 9.58051C2.38866 9.66821 2.30096 9.77784 2.23518 9.88747C2.1694 10.019 2.12555 10.1944 2.12555 10.3917C2.12555 10.5891 2.1694 10.7645 2.23518 10.8741C2.30096 11.0057 2.41058 11.1153 2.52021 11.1811C2.78331 11.3345 3.19989 11.4442 3.76995 11.488C4.34001 11.5319 5.1074 11.5538 6.09404 11.5538C7.08068 11.5538 7.86999 11.5319 8.41812 11.488C8.98818 11.4442 9.40476 11.3345 9.66786 11.1811C9.79941 11.0934 9.88712 11.0057 9.95289 10.8741C10.0187 10.7645 10.0625 10.5891 10.0625 10.3917Z" fill="#003865"/>
<path d="M11.4657 0.328125V1.81905L5.06355 4.36238H11.4657V6.07256H0.678482V4.55971L7.08067 2.01637H0.678482V0.328125H11.4657Z" fill="#003865"/>
<path d="M125.061 6.97225C125.214 6.24871 125.434 5.67866 125.697 5.26208C125.916 4.9332 126.201 4.67009 126.552 4.45084C126.903 4.25351 127.341 4.14388 127.889 4.14388C128.525 4.14388 129.029 4.27544 129.402 4.53854C129.775 4.80164 130.06 5.13052 130.257 5.52518C130.323 5.65673 130.367 5.76636 130.433 5.89791L134.883 5.0209C134.839 4.88935 134.796 4.75779 134.752 4.64817C134.379 3.59575 133.831 2.71874 133.129 1.97328C132.493 1.33744 131.748 0.855087 130.915 0.504282C130.06 0.153477 129.073 0 127.911 0C126.53 0 125.39 0.241178 124.491 0.723535C123.592 1.20589 122.824 1.79788 122.232 2.52141C121.728 3.09147 121.355 3.74923 121.07 4.45084C120.785 5.17437 120.588 6.00754 120.435 6.99418C120.391 7.30113 120.347 7.60809 120.303 7.93696L125.061 6.97225Z" fill="#003865"/>
<path d="M117.475 8.50627V0.328125H112.848V9.42713L117.475 8.50627Z" fill="#003865"/>
<path d="M109.362 10.1068L104.868 0.328125H100.746V11.8389L109.362 10.1068Z" fill="#003865"/>
<path d="M97.6542 12.4528V0.328125H93.0279V13.3737L97.6542 12.4528Z" fill="#003865"/>
<path d="M80.7936 15.8098L85.3979 14.8889V4.4744H90.7258C90.7258 4.4744 90.7477 0.308594 90.7258 0.308594H75.4438V4.4744H80.7936V15.8098Z" fill="#003865"/>
<path d="M63.4068 19.2935V16.8379H68.3839V18.3069L72.9882 17.386V0.328125H68.3839V12.6721H63.4068V0.328125H58.7806V20.2144L63.4068 19.2935Z" fill="#003865"/>
<path d="M41.0868 22.9777C41.1307 23.2408 41.1745 23.482 41.2184 23.7232L45.6912 22.8243C45.6035 22.3857 45.5377 21.8815 45.4938 21.3333C45.3842 19.7986 45.3404 17.6937 45.3404 14.9969C45.3404 12.3001 45.3842 10.1953 45.4938 8.6605C45.6035 7.12573 45.8885 6.00754 46.3489 5.284C46.5682 4.95512 46.8532 4.69202 47.1821 4.47276C47.5329 4.27544 47.9714 4.16581 48.5195 4.16581C49.1554 4.16581 49.6596 4.29736 50.0324 4.56047C50.4051 4.82357 50.6901 5.15245 50.8875 5.5471C51.0848 5.94176 51.2383 6.38027 51.304 6.81877C51.3698 7.2792 51.4137 7.69579 51.4137 8.11237H56.018C55.9522 6.8407 55.7549 5.70058 55.3822 4.64817C55.0094 3.59575 54.4613 2.71874 53.7597 1.97328C53.1238 1.33744 52.3784 0.855087 51.5452 0.504282C50.6901 0.153477 49.6816 0 48.5415 0C47.1602 0 46.02 0.241178 45.1211 0.723535C44.2222 1.20589 43.4548 1.79788 42.8628 2.52141C42.3585 3.09147 41.9858 3.74923 41.7008 4.45084C41.4157 5.17437 41.2184 6.00754 41.0649 6.99418C40.9114 7.98081 40.8237 9.12093 40.7799 10.4365C40.736 11.73 40.7141 13.2648 40.7141 14.975C40.7141 16.6852 40.736 18.2199 40.7799 19.5355C40.8457 20.8291 40.9334 21.9911 41.0868 22.9777Z" fill="#003865"/>
<path d="M48.366 13.7031V17.4962H51.4356V21.6839L56.0618 20.7631V13.7031H48.366Z" fill="#003865"/>
<path d="M38.0392 24.3583V0.328125H33.4349V25.2791L38.0392 24.3583Z" fill="#003865"/>
<path d="M20.8278 27.8005V16.9694H29.2252V12.8036H20.8278V4.47201H31.067V0.328125H16.2016V28.7214L20.8278 27.8005Z" fill="#003865"/>
<path d="M29.4664 49.3989C29.0498 48.9823 28.5236 48.6315 27.8659 48.3245C28.1728 48.193 28.4359 48.0395 28.699 47.8641C28.9402 47.7106 29.1814 47.5133 29.4006 47.2941C30.0803 46.5705 30.5408 45.8031 30.76 44.9919C30.9793 44.1587 31.0889 43.2379 31.0889 42.1855C31.0889 40.5849 30.9573 39.3571 30.6723 38.502C30.6723 38.4874 30.665 38.4728 30.6504 38.4582L16.2235 35.5859V63.6942H23.5027C24.906 63.6942 26.0461 63.5407 26.9669 63.2338C27.8659 62.9268 28.6333 62.4664 29.2691 61.8305C29.9926 61.107 30.475 60.2738 30.76 59.3091C31.045 58.3444 31.1766 57.007 31.1766 55.2749C31.1766 53.8936 31.067 52.7535 30.8477 51.8326C30.6065 50.9337 30.1461 50.1224 29.4664 49.3989ZM20.8278 38.5459H23.13C24.3359 38.5459 25.191 38.8309 25.6953 39.4229C26.1995 40.0149 26.4627 41.0453 26.4627 42.4924C26.4627 43.9395 26.1995 44.9042 25.6953 45.54C25.191 46.1759 24.3359 46.4828 23.13 46.4828H20.8278V38.5459ZM25.7172 58.5198C25.1691 59.1995 24.2701 59.5284 23.0423 59.5284H20.8278V50.3855H23.0423C24.2701 50.3855 25.1691 50.7363 25.7172 51.4379C26.2653 52.1396 26.5504 53.3016 26.5504 54.9679C26.5504 56.6342 26.2653 57.8621 25.7172 58.5198Z" fill="#003865"/>
<path d="M38.0392 39.9482L33.4349 39.0273V63.6933H45.735V59.5275H38.0392V39.9482Z" fill="#003865"/>
<path d="M48.4757 42.0312V63.6935H53.08V42.9521L48.4757 42.0312Z" fill="#003865"/>
<path d="M68.2962 45.9977V51.786L65.3582 45.4057L56.1934 43.5859V63.6915H60.7977V46.2828L68.8224 63.6915H72.9005V46.9186L68.2962 45.9977Z" fill="#003865"/>
<path d="M86.1214 49.551C86.1214 51.8751 86.0776 53.7168 85.968 55.0981C85.8803 56.5891 85.5952 57.6634 85.1348 58.3431C84.9156 58.6939 84.6086 58.9789 84.2139 59.1982C83.8193 59.4174 83.3369 59.527 82.7888 59.527H80.0701V48.3232L75.4657 47.4023V63.6709H82.9203C84.3236 63.6709 85.4637 63.4298 86.3626 62.9693C87.2616 62.5089 88.007 61.9169 88.599 61.2372C89.1033 60.6891 89.476 60.0533 89.783 59.3516C90.068 58.6281 90.2872 57.7949 90.4188 56.8302C90.5504 55.8655 90.6381 54.7254 90.6819 53.4537C90.7038 52.5548 90.7258 51.5682 90.7477 50.4719L86.1214 49.551Z" fill="#003865"/>
<path d="M93.0279 50.9336V63.6941H97.6542V51.8545L93.0279 50.9336Z" fill="#003865"/>
<path d="M100.483 52.4219L105.679 63.6915H109.757V54.2636L100.483 52.4219Z" fill="#003865"/>
<path d="M117.102 55.7334L112.476 54.8125V63.6923H124.798V59.5264H117.102V55.7334Z" fill="#003865"/>
<path d="M135.585 59.4175C135.146 59.6806 134.576 59.8121 133.875 59.8121C133.349 59.8121 132.91 59.7463 132.581 59.5929C132.23 59.4394 131.967 59.264 131.748 59.0447C131.616 58.9132 131.529 58.7597 131.419 58.6062L126.376 57.5977C126.442 58.3431 126.552 59.0009 126.705 59.549C126.99 60.5137 127.473 61.3469 128.196 62.0704C129.49 63.364 131.375 63.9998 133.875 63.9998C135.19 63.9998 136.33 63.8244 137.273 63.4736C138.216 63.1228 139.005 62.6405 139.597 62.0704C140.08 61.61 140.452 61.0838 140.737 60.4699L135.585 59.4175Z" fill="#003865"/>
<path d="M144.377 61.1953C144.574 61.5023 144.816 61.7873 145.101 62.0504C146.394 63.344 148.28 63.9798 150.779 63.9798C152.095 63.9798 153.235 63.8044 154.178 63.4536C154.353 63.3878 154.507 63.3221 154.682 63.2563L144.377 61.1953Z" fill="#003865"/>
</g>
<defs>
<clipPath id="clip0_790_1863">
<rect width="157.862" height="64" fill="white" transform="translate(0.568855)"/>
</clipPath>
</defs>
</svg>
