<svg width="214" height="64" viewBox="0 0 214 64" fill="none" xmlns="http://www.w3.org/2000/svg">
<g clip-path="url(#clip0_10_1704)">
<path d="M158.06 6.81741C158.126 7.27784 158.17 7.69442 158.17 8.111H162.773C162.729 6.99281 162.554 5.96232 162.269 5.01953L157.819 5.89654C157.929 6.2035 158.016 6.48853 158.06 6.81741Z" fill="#01C1D7"/>
<path d="M147.823 22.9773C147.976 23.9639 148.195 24.819 148.458 25.5206C148.743 26.2441 149.116 26.88 149.62 27.45C150.234 28.1736 150.979 28.7655 151.878 29.2479C152.777 29.7303 153.917 29.9714 155.298 29.9714C156.394 29.9714 157.402 29.796 158.323 29.4672C159.244 29.1163 160.033 28.6121 160.691 27.9324C161.348 27.2527 161.874 26.3976 162.225 25.389C162.598 24.3805 162.773 23.1965 162.773 21.8591V13.7467H154.903V17.5398H158.148V22.1002C158.148 23.1088 157.929 23.9858 157.468 24.7313C157.008 25.4767 156.284 25.8495 155.276 25.8495C154.728 25.8495 154.29 25.7398 153.939 25.5425C153.588 25.3452 153.303 25.0602 153.106 24.7313C152.645 24.0077 152.36 22.8896 152.251 21.3548C152.141 19.82 152.075 17.7152 152.075 15.0184C152.075 12.3216 152.141 10.2167 152.251 8.68195C152.295 8.06804 152.36 7.49798 152.47 7.01562L147.713 7.95841C147.625 8.70387 147.582 9.53704 147.538 10.4579C147.494 11.7515 147.472 13.2863 147.472 14.9964C147.472 16.7066 147.494 18.2414 147.538 19.5569C147.582 20.8286 147.669 21.9906 147.823 22.9773Z" fill="#01C1D7"/>
<path d="M140.26 9.42868V17.7384L136.774 10.1084L128.159 11.8405V29.6438H132.785V12.2351L140.808 29.6438H144.885V8.50781L140.26 9.42868Z" fill="#01C1D7"/>
<path d="M120.443 13.374V29.6426H125.068V12.4531L120.443 13.374Z" fill="#01C1D7"/>
<path d="M108.211 15.8091V29.644H112.814V14.9102L108.211 15.8091Z" fill="#01C1D7"/>
<path d="M90.8269 19.293L86.2015 20.2138V29.6417H90.8269V19.293Z" fill="#01C1D7"/>
<path d="M95.8031 18.3061V29.6415H100.407V17.3633L95.8031 18.3061Z" fill="#01C1D7"/>
<path d="M78.8578 21.6832V22.0779C78.8578 23.0864 78.6386 23.9634 78.1782 24.7089C77.7179 25.4544 76.9945 25.8271 75.9861 25.8271C75.438 25.8271 74.9996 25.7175 74.6489 25.5201C74.2981 25.3228 74.0131 25.0378 73.8159 24.7089C73.509 24.2485 73.2897 23.6346 73.1363 22.8453L68.6643 23.7442C68.7958 24.4239 68.9712 25.0159 69.1685 25.5421C69.4535 26.2656 69.8261 26.9014 70.3303 27.4715C70.9441 28.195 71.6895 28.787 72.5882 29.2694C73.487 29.7517 74.6269 29.9929 76.008 29.9929C77.1041 29.9929 78.1125 29.8175 79.0332 29.4886C79.9539 29.1378 80.743 28.6335 81.4007 27.9539C82.0583 27.2742 82.5844 26.4191 82.9352 25.4105C83.3079 24.402 83.4832 23.218 83.4832 21.8805V20.8281L78.8578 21.6832Z" fill="#01C1D7"/>
<path d="M60.8603 25.2802V29.6434H65.4638V24.3594L60.8603 25.2802Z" fill="#01C1D7"/>
<path d="M54.3715 34.8174C53.4727 34.5324 52.3328 34.3789 50.9518 34.3789H43.63V35.5848L58.0763 38.457C57.7913 37.6019 57.3309 36.8565 56.6514 36.1768C56.0376 35.5629 55.2922 35.1024 54.3715 34.8174Z" fill="#01C1D7"/>
<path d="M60.8603 39.0271L65.4638 39.9479V34.3789H60.8603V39.0271Z" fill="#01C1D7"/>
<path d="M75.8984 42.0308L80.5019 42.9517V34.3789H75.8984V42.0308Z" fill="#01C1D7"/>
<path d="M95.7154 45.9993L100.319 46.9202V34.3789H95.7154V45.9993Z" fill="#01C1D7"/>
<path d="M83.6147 43.5875L92.7779 45.4073L87.736 34.3789H83.6147V43.5875Z" fill="#01C1D7"/>
<path d="M117.812 41.1977C117.681 40.233 117.462 39.3779 117.177 38.6763C116.892 37.9747 116.497 37.3607 115.993 36.8126C115.379 36.1329 114.634 35.5409 113.757 35.0805C112.858 34.6201 111.718 34.3789 110.315 34.3789H102.862V47.4245L107.465 48.3453V38.5447H110.184C110.732 38.5447 111.214 38.6543 111.608 38.8736C112.003 39.0928 112.31 39.3779 112.529 39.7287C112.99 40.4084 113.275 41.4827 113.362 42.9298C113.45 44.3769 113.516 46.394 113.516 48.9812V49.5293L118.119 50.4502V48.9812C118.119 47.3148 118.097 45.8239 118.053 44.5523C118.053 43.3025 117.966 42.1624 117.812 41.1977Z" fill="#01C1D7"/>
<path d="M132.544 51.7876L124.564 34.3789H120.443V50.9325L125.068 51.8534V46.2844L127.896 52.4234L137.169 54.2652V34.3789H132.544V51.7876Z" fill="#01C1D7"/>
<path d="M139.887 54.8133L144.513 55.7342V50.8887H151.133V46.7229H144.513V38.5447H152.207V34.3789H139.887V54.8133Z" fill="#01C1D7"/>
<path d="M167.99 50.1422C167.662 49.5064 167.201 48.9802 166.631 48.5417C166.061 48.1031 165.338 47.7085 164.439 47.3577L160.976 45.9545C160.45 45.7571 160.033 45.5598 159.726 45.3406C159.419 45.1213 159.156 44.8582 158.981 44.5732C158.805 44.2881 158.696 43.9373 158.63 43.5208C158.564 43.1042 158.542 42.5999 158.542 41.986C158.542 40.6705 158.805 39.7057 159.332 39.1138C159.551 38.8726 159.814 38.6753 160.143 38.5218C160.45 38.3683 160.844 38.3025 161.326 38.3025C162.269 38.3025 162.949 38.5876 163.387 39.1576C163.694 39.5523 163.891 39.9908 163.957 40.517C164.045 41.0432 164.088 41.6352 164.088 42.2929H168.692C168.692 40.8897 168.539 39.6619 168.232 38.6095C167.925 37.5571 167.399 36.6581 166.631 35.9127C165.404 34.7287 163.65 34.1367 161.37 34.1367C160.318 34.1367 159.397 34.2902 158.542 34.6191C157.709 34.926 156.964 35.3645 156.35 35.9127C155.561 36.6362 154.947 37.5132 154.553 38.5656C154.158 39.618 153.961 40.802 153.961 42.1175C153.961 43.2357 154.027 44.2004 154.18 44.9898C154.333 45.7791 154.575 46.4587 154.881 47.0288C155.188 47.5989 155.605 48.0593 156.131 48.454C156.657 48.8486 157.293 49.1775 158.016 49.4844L161.524 50.9315C162.094 51.1508 162.576 51.3919 162.927 51.6331C163.277 51.8743 163.562 52.1813 163.782 52.5101C163.979 52.8609 164.132 53.2775 164.198 53.8037C164.264 54.3299 164.308 54.9658 164.308 55.7332C164.308 56.5005 164.242 57.1802 164.132 57.6845C164.023 58.1888 163.825 58.6273 163.519 58.9781C163.365 59.1535 163.212 59.2851 163.014 59.3947L168.166 60.4252C168.319 60.0963 168.451 59.7455 168.539 59.3947C168.802 58.3423 168.933 57.0706 168.933 55.5578C168.933 54.3299 168.867 53.2556 168.736 52.3786C168.539 51.5235 168.319 50.778 167.99 50.1422Z" fill="#01C1D7"/>
<path d="M158.477 57.7092C158.367 57.2049 158.301 56.5471 158.301 55.7578H153.698C153.698 56.4375 153.72 57.0295 153.785 57.5995L158.827 58.6081C158.652 58.3231 158.542 58.038 158.477 57.7092Z" fill="#01C1D7"/>
<path d="M184.892 50.1422C184.563 49.5064 184.103 48.9802 183.533 48.5417C182.963 48.1031 182.239 47.7085 181.341 47.3577L177.877 45.9545C177.351 45.7571 176.934 45.5598 176.628 45.3406C176.321 45.1213 176.058 44.8582 175.882 44.5732C175.707 44.2881 175.597 43.9373 175.531 43.5208C175.466 43.1042 175.444 42.5999 175.444 41.986C175.444 40.6705 175.707 39.7057 176.233 39.1138C176.452 38.8726 176.715 38.6753 177.044 38.5218C177.351 38.3683 177.746 38.3025 178.228 38.3025C179.17 38.3025 179.85 38.5876 180.288 39.1576C180.595 39.5523 180.793 39.9908 180.858 40.517C180.946 41.0432 180.99 41.6352 180.99 42.2929H185.593C185.593 40.8897 185.44 39.6619 185.133 38.6095C184.826 37.5571 184.3 36.6581 183.533 35.9127C182.305 34.7287 180.552 34.1367 178.272 34.1367C177.219 34.1367 176.299 34.2902 175.444 34.6191C174.611 34.926 173.865 35.3645 173.252 35.9127C172.462 36.6362 171.849 37.5132 171.454 38.5656C171.06 39.618 170.862 40.802 170.862 42.1175C170.862 43.2357 170.928 44.2004 171.081 44.9898C171.235 45.7791 171.476 46.4587 171.783 47.0288C172.09 47.5989 172.506 48.0593 173.032 48.454C173.559 48.8486 174.194 49.1775 174.918 49.4844L178.425 50.9315C178.995 51.1508 179.477 51.3919 179.828 51.6331C180.179 51.8743 180.464 52.1813 180.661 52.5101C180.858 52.8609 181.012 53.2775 181.078 53.8037C181.143 54.3299 181.187 54.9658 181.187 55.7332C181.187 56.5005 181.121 57.1802 181.012 57.6845C180.902 58.1888 180.705 58.6273 180.398 58.9781C179.938 59.5262 179.192 59.8113 178.184 59.8113C177.658 59.8113 177.219 59.7455 176.891 59.592C176.54 59.4385 176.277 59.2631 176.058 59.0439C175.729 58.6492 175.51 58.2107 175.4 57.7064C175.29 57.2022 175.247 56.5444 175.247 55.7551H170.643C170.643 57.3118 170.775 58.5834 171.06 59.5482C171.235 60.1401 171.476 60.6883 171.827 61.1926L182.108 63.2535C182.831 62.9247 183.445 62.53 183.927 62.0696C184.673 61.346 185.177 60.469 185.44 59.4385C185.703 58.3861 185.835 57.1145 185.835 55.6016C185.835 54.3738 185.769 53.2994 185.637 52.4224C185.462 51.5235 185.221 50.778 184.892 50.1422Z" fill="#01C1D7"/>
<path d="M43.63 28.7216V29.6425H48.2554V27.8008L43.63 28.7216Z" fill="#01C1D7"/>
<path d="M29.6441 59.1562V62.0065H32.6912V59.5509H34.2257V62.0065H38.895V63.6948H28.1096V59.1562H29.6441Z" fill="#003865"/>
<path d="M39.0046 55.1847C39.0046 55.689 38.9169 56.1056 38.7415 56.4345C38.5661 56.7633 38.3469 57.0484 38.0839 57.2676C37.8647 57.443 37.6235 57.5965 37.3605 57.6842C37.0974 57.7938 36.7686 57.8596 36.4178 57.9254C36.0671 57.9912 35.6287 58.0131 35.1683 58.035C34.686 58.0569 34.138 58.0569 33.5023 58.0569C32.8666 58.0569 32.3185 58.0569 31.8363 58.035C31.354 58.0131 30.9375 57.9912 30.5867 57.9254C30.236 57.8596 29.9072 57.7938 29.6441 57.6842C29.3811 57.5746 29.1399 57.443 28.9207 57.2676C28.6576 57.0484 28.4384 56.7633 28.2631 56.4345C28.0877 56.1056 28 55.689 28 55.1847C28 54.6804 28.0877 54.2639 28.2631 53.935C28.4384 53.6061 28.6576 53.3211 28.9207 53.1018C29.1399 52.9264 29.3811 52.7729 29.6222 52.6633C29.8852 52.5537 30.1921 52.4879 30.5648 52.4221C30.9375 52.3783 31.354 52.3344 31.8363 52.3344C32.3185 52.3125 32.8666 52.3125 33.5023 52.3125C34.138 52.3125 34.708 52.3125 35.1683 52.3344C35.6506 52.3563 36.0671 52.3783 36.4398 52.4221C36.8124 52.466 37.1193 52.5537 37.3824 52.6633C37.6454 52.7729 37.8866 52.9045 38.0839 53.1018C38.3469 53.3211 38.5661 53.6061 38.7415 53.935C38.9169 54.2639 39.0046 54.6804 39.0046 55.1847ZM37.492 55.1847C37.492 54.9874 37.4482 54.812 37.3824 54.6804C37.3166 54.5489 37.207 54.4393 37.0974 54.3735C36.8344 54.22 36.4178 54.1104 35.8479 54.0665C35.2779 54.0227 34.5107 54.0007 33.5242 54.0007C32.5377 54.0007 31.7486 54.0227 31.2005 54.0665C30.6306 54.1104 30.2141 54.1981 29.951 54.3735C29.8195 54.4612 29.7318 54.5708 29.666 54.6804C29.6003 54.812 29.5564 54.9874 29.5564 55.1847C29.5564 55.382 29.6003 55.5574 29.666 55.6671C29.7318 55.7986 29.8414 55.9083 29.951 55.974C30.2141 56.1275 30.6306 56.2371 31.2005 56.281C31.7705 56.3248 32.5377 56.3468 33.5242 56.3468C34.5107 56.3468 35.2998 56.3248 35.8479 56.281C36.4178 56.2371 36.8344 56.1275 37.0974 55.974C37.2289 55.8863 37.3166 55.7986 37.3824 55.6671C37.4482 55.5574 37.492 55.404 37.492 55.1847Z" fill="#003865"/>
<path d="M36.2206 45.2109C37.0536 45.2109 37.7112 45.4521 38.2154 45.9564C38.7415 46.4607 39.0265 47.1404 39.0265 47.9516C39.0265 48.7628 38.7635 49.4425 38.2154 49.9687C37.7112 50.473 37.0536 50.7142 36.2206 50.7142H28.1096V49.0259H36.1767C36.6371 49.0259 36.9659 48.9382 37.1851 48.7628C37.4043 48.5874 37.492 48.3243 37.492 47.9735C37.492 47.6446 37.3824 47.3815 37.1851 47.2061C36.9659 47.0307 36.6371 46.943 36.1767 46.943H28.1096V45.2548H36.2206V45.2109Z" fill="#003865"/>
<path d="M38.895 37.8438V39.3347L32.4939 41.8999H38.895V43.5882H28.1096V42.0753L34.5107 39.532H28.1096V37.8438H38.895Z" fill="#003865"/>
<path d="M28.1096 33.3473C28.1096 32.843 28.1973 32.4045 28.3727 32.0756C28.548 31.7467 28.7673 31.4617 29.0084 31.2424C29.2057 31.067 29.4468 30.9136 29.688 30.8039C29.951 30.6943 30.2579 30.6285 30.6087 30.5628C30.9594 30.5189 31.3759 30.4751 31.8582 30.4751C32.3185 30.4531 32.8666 30.4531 33.4804 30.4531C34.0942 30.4531 34.6641 30.4531 35.1245 30.4751C35.5848 30.497 36.0013 30.5189 36.374 30.5628C36.7248 30.6066 37.0317 30.6943 37.2947 30.8039C37.5578 30.9136 37.7989 31.0451 37.9962 31.2424C38.2593 31.4617 38.4566 31.7467 38.6319 32.0756C38.8073 32.4045 38.895 32.8211 38.895 33.3473V36.0879H28.1096V33.3473ZM29.6441 34.3778H37.3605V33.3692C37.3605 33.1719 37.3166 32.9965 37.229 32.843C37.1413 32.6895 37.0317 32.5799 36.922 32.4922C36.659 32.3168 36.2644 32.2072 35.7164 32.1852C35.1683 32.1414 34.423 32.1414 33.4804 32.1414C32.5378 32.1414 31.7924 32.1633 31.2444 32.1852C30.6964 32.2072 30.3237 32.3168 30.0606 32.4922C29.9291 32.5799 29.8195 32.6895 29.7537 32.843C29.666 32.9965 29.6222 33.1719 29.6222 33.3692V34.3778H29.6441Z" fill="#003865"/>
<path d="M38.895 23.0234V24.7994L36.7686 25.2379V27.7374L38.895 28.154V29.9518L28.1096 27.2989V25.6326L38.895 23.0234ZM35.2341 27.4085V25.5668L30.7183 26.4876L35.2341 27.4085Z" fill="#003865"/>
<path d="M29.6441 17.8047V19.6245H38.895V21.3347H29.6441V23.1325H28.1096V17.8047H29.6441Z" fill="#003865"/>
<path d="M38.895 14.7773H28.1096V16.4656H38.895V14.7773Z" fill="#003865"/>
<path d="M39.0046 10.3917C39.0046 10.896 38.9169 11.3126 38.7415 11.6415C38.5661 11.9704 38.3469 12.2554 38.0839 12.4747C37.8647 12.6501 37.6235 12.8035 37.3605 12.8912C37.0974 13.0009 36.7686 13.0666 36.4178 13.1324C36.0671 13.1982 35.6287 13.2201 35.1683 13.242C34.686 13.264 34.138 13.264 33.5023 13.264C32.8666 13.264 32.3185 13.264 31.8363 13.242C31.354 13.2201 30.9375 13.1982 30.5867 13.1324C30.236 13.0666 29.9072 13.0009 29.6441 12.8912C29.3811 12.7816 29.1399 12.6501 28.9207 12.4747C28.6576 12.2554 28.4384 11.9704 28.2631 11.6415C28.0877 11.3126 28 10.896 28 10.3917C28 9.88747 28.0877 9.47088 28.2631 9.14201C28.4384 8.81313 28.6576 8.5281 28.9207 8.30884C29.1399 8.13344 29.3811 7.97996 29.6222 7.87034C29.8852 7.76071 30.1921 7.69493 30.5648 7.62916C30.9375 7.58531 31.354 7.54146 31.8363 7.54146C32.3185 7.51953 32.8666 7.51953 33.5023 7.51953C34.138 7.51953 34.708 7.51953 35.1683 7.54146C35.6506 7.56338 36.0671 7.58531 36.4398 7.62916C36.8124 7.67301 37.1193 7.76071 37.3824 7.87034C37.6454 7.97996 37.8866 8.11152 38.0839 8.30884C38.3469 8.5281 38.5661 8.81313 38.7415 9.14201C38.9169 9.47088 39.0046 9.88747 39.0046 10.3917ZM37.492 10.3917C37.492 10.1944 37.4482 10.019 37.3824 9.88747C37.3166 9.75591 37.207 9.64629 37.0974 9.58051C36.8344 9.42703 36.4178 9.31741 35.8479 9.27356C35.2779 9.22971 34.5107 9.20778 33.5242 9.20778C32.5377 9.20778 31.7486 9.22971 31.2005 9.27356C30.6306 9.31741 30.2141 9.40511 29.951 9.58051C29.8195 9.66821 29.7318 9.77784 29.666 9.88747C29.6003 10.019 29.5564 10.1944 29.5564 10.3917C29.5564 10.5891 29.6003 10.7645 29.666 10.8741C29.7318 11.0057 29.8414 11.1153 29.951 11.1811C30.2141 11.3345 30.6306 11.4442 31.2005 11.488C31.7705 11.5319 32.5377 11.5538 33.5242 11.5538C34.5107 11.5538 35.2998 11.5319 35.8479 11.488C36.4178 11.4442 36.8344 11.3345 37.0974 11.1811C37.2289 11.0934 37.3166 11.0057 37.3824 10.8741C37.4482 10.7645 37.492 10.5891 37.492 10.3917Z" fill="#003865"/>
<path d="M38.895 0.328125V1.81905L32.4939 4.36238H38.895V6.07256H28.1096V4.55971L34.5107 2.01637H28.1096V0.328125H38.895Z" fill="#003865"/>
<path d="M29.6441 59.1562V62.0065H32.6912V59.5509H34.2257V62.0065H38.895V63.6948H28.1096V59.1562H29.6441Z" fill="#003865"/>
<path d="M39.0046 55.1847C39.0046 55.689 38.9169 56.1056 38.7415 56.4345C38.5661 56.7633 38.3469 57.0484 38.0839 57.2676C37.8647 57.443 37.6235 57.5965 37.3605 57.6842C37.0974 57.7938 36.7686 57.8596 36.4178 57.9254C36.0671 57.9912 35.6287 58.0131 35.1683 58.035C34.686 58.0569 34.138 58.0569 33.5023 58.0569C32.8666 58.0569 32.3185 58.0569 31.8363 58.035C31.354 58.0131 30.9375 57.9912 30.5867 57.9254C30.236 57.8596 29.9072 57.7938 29.6441 57.6842C29.3811 57.5746 29.1399 57.443 28.9207 57.2676C28.6576 57.0484 28.4384 56.7633 28.2631 56.4345C28.0877 56.1056 28 55.689 28 55.1847C28 54.6804 28.0877 54.2639 28.2631 53.935C28.4384 53.6061 28.6576 53.3211 28.9207 53.1018C29.1399 52.9264 29.3811 52.7729 29.6222 52.6633C29.8852 52.5537 30.1921 52.4879 30.5648 52.4221C30.9375 52.3783 31.354 52.3344 31.8363 52.3344C32.3185 52.3125 32.8666 52.3125 33.5023 52.3125C34.138 52.3125 34.708 52.3125 35.1683 52.3344C35.6506 52.3563 36.0671 52.3783 36.4398 52.4221C36.8124 52.466 37.1193 52.5537 37.3824 52.6633C37.6454 52.7729 37.8866 52.9045 38.0839 53.1018C38.3469 53.3211 38.5661 53.6061 38.7415 53.935C38.9169 54.2639 39.0046 54.6804 39.0046 55.1847ZM37.492 55.1847C37.492 54.9874 37.4482 54.812 37.3824 54.6804C37.3166 54.5489 37.207 54.4393 37.0974 54.3735C36.8344 54.22 36.4178 54.1104 35.8479 54.0665C35.2779 54.0227 34.5107 54.0007 33.5242 54.0007C32.5377 54.0007 31.7486 54.0227 31.2005 54.0665C30.6306 54.1104 30.2141 54.1981 29.951 54.3735C29.8195 54.4612 29.7318 54.5708 29.666 54.6804C29.6003 54.812 29.5564 54.9874 29.5564 55.1847C29.5564 55.382 29.6003 55.5574 29.666 55.6671C29.7318 55.7986 29.8414 55.9083 29.951 55.974C30.2141 56.1275 30.6306 56.2371 31.2005 56.281C31.7705 56.3248 32.5377 56.3468 33.5242 56.3468C34.5107 56.3468 35.2998 56.3248 35.8479 56.281C36.4178 56.2371 36.8344 56.1275 37.0974 55.974C37.2289 55.8863 37.3166 55.7986 37.3824 55.6671C37.4482 55.5574 37.492 55.404 37.492 55.1847Z" fill="#003865"/>
<path d="M36.2206 45.2109C37.0536 45.2109 37.7112 45.4521 38.2154 45.9564C38.7415 46.4607 39.0265 47.1404 39.0265 47.9516C39.0265 48.7628 38.7635 49.4425 38.2154 49.9687C37.7112 50.473 37.0536 50.7142 36.2206 50.7142H28.1096V49.0259H36.1767C36.6371 49.0259 36.9659 48.9382 37.1851 48.7628C37.4043 48.5874 37.492 48.3243 37.492 47.9735C37.492 47.6446 37.3824 47.3815 37.1851 47.2061C36.9659 47.0307 36.6371 46.943 36.1767 46.943H28.1096V45.2548H36.2206V45.2109Z" fill="#003865"/>
<path d="M38.895 37.8438V39.3347L32.4939 41.8999H38.895V43.5882H28.1096V42.0753L34.5107 39.532H28.1096V37.8438H38.895Z" fill="#003865"/>
<path d="M28.1096 33.3473C28.1096 32.843 28.1973 32.4045 28.3727 32.0756C28.548 31.7467 28.7673 31.4617 29.0084 31.2424C29.2057 31.067 29.4468 30.9136 29.688 30.8039C29.951 30.6943 30.2579 30.6285 30.6087 30.5628C30.9594 30.5189 31.3759 30.4751 31.8582 30.4751C32.3185 30.4531 32.8666 30.4531 33.4804 30.4531C34.0942 30.4531 34.6641 30.4531 35.1245 30.4751C35.5848 30.497 36.0013 30.5189 36.374 30.5628C36.7248 30.6066 37.0317 30.6943 37.2947 30.8039C37.5578 30.9136 37.7989 31.0451 37.9962 31.2424C38.2593 31.4617 38.4566 31.7467 38.6319 32.0756C38.8073 32.4045 38.895 32.8211 38.895 33.3473V36.0879H28.1096V33.3473ZM29.6441 34.3778H37.3605V33.3692C37.3605 33.1719 37.3166 32.9965 37.229 32.843C37.1413 32.6895 37.0317 32.5799 36.922 32.4922C36.659 32.3168 36.2644 32.2072 35.7164 32.1852C35.1683 32.1414 34.423 32.1414 33.4804 32.1414C32.5378 32.1414 31.7924 32.1633 31.2444 32.1852C30.6964 32.2072 30.3237 32.3168 30.0606 32.4922C29.9291 32.5799 29.8195 32.6895 29.7537 32.843C29.666 32.9965 29.6222 33.1719 29.6222 33.3692V34.3778H29.6441Z" fill="#003865"/>
<path d="M38.895 23.0234V24.7994L36.7686 25.2379V27.7374L38.895 28.154V29.9518L28.1096 27.2989V25.6326L38.895 23.0234ZM35.2341 27.4085V25.5668L30.7183 26.4876L35.2341 27.4085Z" fill="#003865"/>
<path d="M29.6441 17.8047V19.6245H38.895V21.3347H29.6441V23.1325H28.1096V17.8047H29.6441Z" fill="#003865"/>
<path d="M38.895 14.7773H28.1096V16.4656H38.895V14.7773Z" fill="#003865"/>
<path d="M39.0046 10.3917C39.0046 10.896 38.9169 11.3126 38.7415 11.6415C38.5661 11.9704 38.3469 12.2554 38.0839 12.4747C37.8647 12.6501 37.6235 12.8035 37.3605 12.8912C37.0974 13.0009 36.7686 13.0666 36.4178 13.1324C36.0671 13.1982 35.6287 13.2201 35.1683 13.242C34.686 13.264 34.138 13.264 33.5023 13.264C32.8666 13.264 32.3185 13.264 31.8363 13.242C31.354 13.2201 30.9375 13.1982 30.5867 13.1324C30.236 13.0666 29.9072 13.0009 29.6441 12.8912C29.3811 12.7816 29.1399 12.6501 28.9207 12.4747C28.6576 12.2554 28.4384 11.9704 28.2631 11.6415C28.0877 11.3126 28 10.896 28 10.3917C28 9.88747 28.0877 9.47088 28.2631 9.14201C28.4384 8.81313 28.6576 8.5281 28.9207 8.30884C29.1399 8.13344 29.3811 7.97996 29.6222 7.87034C29.8852 7.76071 30.1921 7.69493 30.5648 7.62916C30.9375 7.58531 31.354 7.54146 31.8363 7.54146C32.3185 7.51953 32.8666 7.51953 33.5023 7.51953C34.138 7.51953 34.708 7.51953 35.1683 7.54146C35.6506 7.56338 36.0671 7.58531 36.4398 7.62916C36.8124 7.67301 37.1193 7.76071 37.3824 7.87034C37.6454 7.97996 37.8866 8.11152 38.0839 8.30884C38.3469 8.5281 38.5661 8.81313 38.7415 9.14201C38.9169 9.47088 39.0046 9.88747 39.0046 10.3917ZM37.492 10.3917C37.492 10.1944 37.4482 10.019 37.3824 9.88747C37.3166 9.75591 37.207 9.64629 37.0974 9.58051C36.8344 9.42703 36.4178 9.31741 35.8479 9.27356C35.2779 9.22971 34.5107 9.20778 33.5242 9.20778C32.5377 9.20778 31.7486 9.22971 31.2005 9.27356C30.6306 9.31741 30.2141 9.40511 29.951 9.58051C29.8195 9.66821 29.7318 9.77784 29.666 9.88747C29.6003 10.019 29.5564 10.1944 29.5564 10.3917C29.5564 10.5891 29.6003 10.7645 29.666 10.8741C29.7318 11.0057 29.8414 11.1153 29.951 11.1811C30.2141 11.3345 30.6306 11.4442 31.2005 11.488C31.7705 11.5319 32.5377 11.5538 33.5242 11.5538C34.5107 11.5538 35.2998 11.5319 35.8479 11.488C36.4178 11.4442 36.8344 11.3345 37.0974 11.1811C37.2289 11.0934 37.3166 11.0057 37.3824 10.8741C37.4482 10.7645 37.492 10.5891 37.492 10.3917Z" fill="#003865"/>
<path d="M38.895 0.328125V1.81905L32.4939 4.36238H38.895V6.07256H28.1096V4.55971L34.5107 2.01637H28.1096V0.328125H38.895Z" fill="#003865"/>
<path d="M152.47 6.97225C152.624 6.24872 152.843 5.67866 153.106 5.26208C153.325 4.9332 153.61 4.67009 153.961 4.45084C154.311 4.25351 154.75 4.14388 155.298 4.14388C155.934 4.14388 156.438 4.27544 156.811 4.53854C157.183 4.80164 157.468 5.13052 157.665 5.52518C157.731 5.65673 157.775 5.76636 157.841 5.89791L162.291 5.0209C162.247 4.88935 162.203 4.75779 162.159 4.64817C161.787 3.59575 161.239 2.71874 160.537 1.97328C159.901 1.33744 159.156 0.855087 158.323 0.504282C157.468 0.153477 156.482 0 155.32 0C153.939 0 152.799 0.241178 151.9 0.723535C151.001 1.20589 150.234 1.79788 149.642 2.52141C149.138 3.09147 148.765 3.74923 148.48 4.45084C148.195 5.17437 147.998 6.00754 147.845 6.99418C147.801 7.30113 147.757 7.60809 147.713 7.93696L152.47 6.97225Z" fill="#003865"/>
<path d="M144.885 8.50627V0.328125H140.26V9.42713L144.885 8.50627Z" fill="#003865"/>
<path d="M136.774 10.1068L132.28 0.328125H128.159V11.8389L136.774 10.1068Z" fill="#003865"/>
<path d="M125.068 12.4528V0.328125H120.443V13.3737L125.068 12.4528Z" fill="#003865"/>
<path d="M108.211 15.8098L112.814 14.8889V4.4744H118.141C118.141 4.4744 118.163 0.308594 118.141 0.308594H102.862V4.4744H108.211V15.8098Z" fill="#003865"/>
<path d="M90.8269 19.2935V16.8379H95.8031V18.3069L100.407 17.386V0.328125H95.8031V12.6721H90.8269V0.328125H86.2015V20.2144L90.8269 19.2935Z" fill="#003865"/>
<path d="M68.5108 22.9777C68.5547 23.2408 68.5985 23.482 68.6424 23.7232L73.1144 22.8243C73.0267 22.3857 72.9609 21.8815 72.9171 21.3333C72.8075 19.7986 72.7636 17.6937 72.7636 14.9969C72.7636 12.3001 72.8075 10.1953 72.9171 8.6605C73.0267 7.12573 73.3116 6.00754 73.772 5.284C73.9912 4.95512 74.2762 4.69202 74.605 4.47276C74.9558 4.27544 75.3942 4.16581 75.9422 4.16581C76.5779 4.16581 77.0821 4.29736 77.4548 4.56047C77.8275 4.82357 78.1125 5.15245 78.3097 5.54711C78.507 5.94176 78.6605 6.38027 78.7263 6.81877C78.792 7.27921 78.8359 7.69579 78.8359 8.11237H83.4394C83.3736 6.8407 83.1763 5.70058 82.8036 4.64817C82.431 3.59575 81.8829 2.71874 81.1815 1.97328C80.5457 1.33744 79.8004 0.855087 78.9674 0.504282C78.1125 0.153477 77.1041 0 75.9641 0C74.5831 0 73.4432 0.241178 72.5444 0.723535C71.6456 1.20589 70.8784 1.79788 70.2865 2.52141C69.7823 3.09147 69.4096 3.74923 69.1246 4.45084C68.8397 5.17437 68.6424 6.00754 68.4889 6.99418C68.3355 7.98082 68.2478 9.12093 68.2039 10.4365C68.1601 11.73 68.1382 13.2648 68.1382 14.975C68.1382 16.6852 68.1601 18.2199 68.2039 19.5355C68.2697 20.8291 68.3574 21.9911 68.5108 22.9777Z" fill="#003865"/>
<path d="M75.7888 13.7031V17.4962H78.8578V21.6839L83.4833 20.7631V13.7031H75.7888Z" fill="#003865"/>
<path d="M65.4638 24.3583V0.328125H60.8603V25.2791L65.4638 24.3583Z" fill="#003865"/>
<path d="M48.2554 27.8005V16.9694H56.6514V12.8036H48.2554V4.47201H58.4928V0.328125H43.63V28.7214L48.2554 27.8005Z" fill="#003865"/>
<path d="M56.8925 49.3989C56.476 48.9823 55.9499 48.6315 55.2922 48.3245C55.5991 48.193 55.8622 48.0395 56.1252 47.8641C56.3664 47.7106 56.6075 47.5133 56.8267 47.2941C57.5063 46.5705 57.9666 45.8031 58.1858 44.9919C58.4051 44.1587 58.5147 43.2379 58.5147 42.1855C58.5147 40.5849 58.3831 39.3571 58.0982 38.502C58.0982 38.4874 58.0909 38.4728 58.0762 38.4582L43.6519 35.5859V63.6942H50.9298C52.3328 63.6942 53.4727 63.5407 54.3934 63.2338C55.2922 62.9268 56.0595 62.4664 56.6952 61.8305C57.4186 61.107 57.9009 60.2738 58.1858 59.3091C58.4708 58.3444 58.6024 57.007 58.6024 55.2749C58.6024 53.8936 58.4928 52.7535 58.2735 51.8326C58.0324 50.9337 57.572 50.1224 56.8925 49.3989ZM48.2554 38.5459H50.5572C51.7629 38.5459 52.6178 38.8309 53.122 39.4229C53.6262 40.0149 53.8892 41.0453 53.8892 42.4924C53.8892 43.9395 53.6262 44.9042 53.122 45.54C52.6178 46.1759 51.7629 46.4828 50.5572 46.4828H48.2554V38.5459ZM53.1439 58.5198C52.5959 59.1995 51.6971 59.5284 50.4695 59.5284H48.2554V50.3855H50.4695C51.6971 50.3855 52.5959 50.7363 53.1439 51.4379C53.6919 52.1396 53.9769 53.3016 53.9769 54.9679C53.9769 56.6342 53.6919 57.8621 53.1439 58.5198Z" fill="#003865"/>
<path d="M65.4638 39.9482L60.8603 39.0273V63.6933H73.1582V59.5275H65.4638V39.9482Z" fill="#003865"/>
<path d="M75.8984 42.0312V63.6935H80.5019V42.9521L75.8984 42.0312Z" fill="#003865"/>
<path d="M95.7154 45.9977V51.786L92.7779 45.4057L83.6147 43.5859V63.6915H88.2183V46.2828L96.2415 63.6915H100.319V46.9186L95.7154 45.9977Z" fill="#003865"/>
<path d="M113.538 49.551C113.538 51.8751 113.494 53.7168 113.384 55.0981C113.296 56.5891 113.011 57.6634 112.551 58.3431C112.332 58.6939 112.025 58.9789 111.63 59.1982C111.236 59.4174 110.754 59.527 110.205 59.527H107.487V48.3232L102.884 47.4023V63.6709H110.337C111.74 63.6709 112.88 63.4298 113.779 62.9693C114.677 62.5089 115.423 61.9169 116.015 61.2372C116.519 60.6891 116.892 60.0533 117.198 59.3516C117.483 58.6281 117.703 57.7949 117.834 56.8302C117.966 55.8655 118.053 54.7254 118.097 53.4537C118.119 52.5548 118.141 51.5682 118.163 50.4719L113.538 49.551Z" fill="#003865"/>
<path d="M120.443 50.9336V63.6941H125.068V51.8545L120.443 50.9336Z" fill="#003865"/>
<path d="M127.896 52.4219L133.092 63.6915H137.169V54.2636L127.896 52.4219Z" fill="#003865"/>
<path d="M144.513 55.7334L139.887 54.8125V63.6923H152.207V59.5264H144.513V55.7334Z" fill="#003865"/>
<path d="M162.992 59.4175C162.554 59.6806 161.984 59.8121 161.283 59.8121C160.756 59.8121 160.318 59.7463 159.989 59.5929C159.638 59.4394 159.375 59.264 159.156 59.0447C159.025 58.9132 158.937 58.7597 158.827 58.6062L153.785 57.5977C153.851 58.3431 153.961 59.0009 154.114 59.549C154.399 60.5137 154.881 61.3469 155.605 62.0704C156.898 63.364 158.783 63.9998 161.283 63.9998C162.598 63.9998 163.738 63.8244 164.68 63.4736C165.623 63.1228 166.412 62.6405 167.004 62.0704C167.486 61.61 167.859 61.0838 168.144 60.4699L162.992 59.4175Z" fill="#003865"/>
<path d="M171.783 61.1953C171.98 61.5023 172.221 61.7873 172.506 62.0504C173.8 63.344 175.685 63.9798 178.184 63.9798C179.499 63.9798 180.639 63.8044 181.582 63.4536C181.757 63.3878 181.911 63.3221 182.086 63.2563L171.783 61.1953Z" fill="#003865"/>
</g>
<defs>
<clipPath id="clip0_10_1704">
<rect width="157.835" height="64" fill="white" transform="translate(28)"/>
</clipPath>
</defs>
</svg>
