<svg width="209" height="64" viewBox="0 0 209 64" fill="none" xmlns="http://www.w3.org/2000/svg">
<g clip-path="url(#clip0_790_1981)">
<path d="M75.4396 25.157H82.9843V28.9033H70.7306V8.55859H75.4396V25.157Z" fill="#4C4D4F"/>
<path d="M89.7748 10.4598C89.7748 10.798 89.6968 11.1362 89.5667 11.4224C89.4366 11.7345 89.2285 11.9947 88.9943 12.2289C88.7602 12.463 88.474 12.6451 88.1618 12.7752C87.8496 12.9053 87.4854 12.9833 87.1472 12.9833C86.7829 12.9833 86.4707 12.9053 86.1585 12.7752C85.8463 12.6451 85.5862 12.463 85.352 12.2289C85.1179 11.9947 84.9358 11.7345 84.8057 11.4224C84.6756 11.1102 84.5976 10.798 84.5976 10.4598C84.5976 10.0955 84.6756 9.78333 84.8057 9.47113C84.9358 9.15894 85.1179 8.89877 85.352 8.66463C85.5862 8.43048 85.8724 8.24837 86.1585 8.11829C86.4707 7.9882 86.8089 7.91016 87.1472 7.91016C87.5114 7.91016 87.8496 7.9882 88.1618 8.11829C88.474 8.24837 88.7602 8.43048 88.9943 8.66463C89.2285 8.89877 89.4366 9.15894 89.5667 9.47113C89.6968 9.78333 89.7748 10.1215 89.7748 10.4598ZM89.2805 28.9313H84.9618V14.4402H89.2805V28.9313Z" fill="#4C4D4F"/>
<path d="M97.8921 14.1797C98.5165 14.1797 99.0889 14.2317 99.6352 14.3618C100.182 14.4919 100.676 14.648 101.144 14.8821H105.515V16.4691C105.515 16.7033 105.437 16.9114 105.307 17.0415C105.177 17.1716 104.943 17.2756 104.604 17.3537L103.538 17.5878C103.668 18.0041 103.746 18.4464 103.746 18.8886C103.746 19.6171 103.59 20.2675 103.304 20.8398C102.991 21.4122 102.575 21.9065 102.055 22.3228C101.534 22.739 100.91 23.0512 100.182 23.2594C99.4531 23.4675 98.6986 23.5976 97.8661 23.5976C97.3978 23.5976 96.9816 23.5716 96.5913 23.5195C96.2791 23.7016 96.123 23.9358 96.123 24.1699C96.123 24.4041 96.2531 24.5862 96.5133 24.6903C96.7734 24.7943 97.1116 24.8724 97.5279 24.9244C97.9442 24.9764 98.4385 24.9764 98.9588 24.9764C99.5051 24.9764 100.051 25.0025 100.598 25.0545C101.144 25.1065 101.717 25.1846 102.237 25.3146C102.783 25.4447 103.251 25.6268 103.668 25.913C104.084 26.1732 104.422 26.5374 104.682 27.0057C104.943 27.448 105.073 28.0464 105.073 28.7228C105.073 29.3732 104.917 30.0236 104.604 30.648C104.292 31.2724 103.824 31.8187 103.199 32.313C102.575 32.8073 101.821 33.1976 100.936 33.4838C100.051 33.7699 99.0108 33.926 97.8661 33.926C96.7214 33.926 95.7588 33.822 94.9263 33.6138C94.0937 33.4057 93.4173 33.1195 92.871 32.7553C92.3246 32.4171 91.9344 32.0008 91.6742 31.5585C91.4141 31.0903 91.284 30.622 91.284 30.1277C91.284 29.4772 91.4921 28.9309 91.8824 28.4886C92.2726 28.0464 92.8189 27.7081 93.4954 27.448C93.1572 27.2399 92.897 26.9537 92.7149 26.6155C92.5068 26.2772 92.4287 25.861 92.4287 25.3407C92.4287 25.1325 92.4547 24.8984 92.5328 24.6642C92.6108 24.4301 92.7149 24.1959 92.871 23.9618C93.0271 23.7277 93.2352 23.5195 93.4694 23.3114C93.7035 23.1033 93.9897 22.9212 94.3279 22.7651C93.5734 22.3748 92.9751 21.8285 92.5588 21.1781C92.1165 20.5277 91.9084 19.7472 91.9084 18.8626C91.9084 18.1342 92.0645 17.4838 92.3767 16.9114C92.6889 16.339 93.1051 15.8447 93.6515 15.4285C94.1978 15.0122 94.8222 14.7 95.5507 14.4919C96.2531 14.2838 97.0336 14.1797 97.8921 14.1797ZM101.092 29.4252C101.092 29.1911 101.014 29.009 100.884 28.8529C100.728 28.7228 100.546 28.5927 100.286 28.5146C100.051 28.4366 99.7393 28.3585 99.4271 28.3325C99.0889 28.3065 98.7507 28.2805 98.3604 28.2805H97.1637C96.7474 28.2805 96.3572 28.2285 95.9409 28.1504C95.6807 28.3325 95.4466 28.5407 95.2645 28.7748C95.0824 29.009 95.0043 29.2691 95.0043 29.5553C95.0043 29.7634 95.0564 29.9455 95.1344 30.1277C95.2124 30.2838 95.3685 30.4398 95.6027 30.5699C95.8368 30.7 96.123 30.7781 96.5133 30.8561C96.9035 30.9342 97.3718 30.9602 97.9442 30.9602C98.5685 30.9602 99.0889 30.9342 99.4791 30.8561C99.8694 30.7781 100.208 30.674 100.442 30.5439C100.676 30.4138 100.858 30.2577 100.936 30.0756C101.066 29.8415 101.092 29.6333 101.092 29.4252ZM97.8921 20.9179C98.6206 20.9179 99.1149 20.7358 99.4531 20.3716C99.7653 20.0073 99.9474 19.539 99.9474 18.9927C99.9474 18.3943 99.7913 17.952 99.4531 17.6138C99.1409 17.2756 98.6206 17.1195 97.8921 17.1195C97.1637 17.1195 96.6433 17.2756 96.3312 17.6138C96.019 17.952 95.8368 18.4203 95.8368 18.9927C95.8368 19.2789 95.8889 19.539 95.9669 19.7732C96.045 20.0073 96.1751 20.2155 96.3312 20.3716C96.4872 20.5537 96.7214 20.6838 96.9555 20.7878C97.2157 20.8659 97.5279 20.9179 97.8921 20.9179Z" fill="#4C4D4F"/>
<path d="M107.492 28.9054V7.98828H111.811V15.6891C112.331 15.2468 112.903 14.8826 113.502 14.5964C114.1 14.3102 114.828 14.1802 115.687 14.1802C116.467 14.1802 117.17 14.3102 117.794 14.5964C118.393 14.8826 118.913 15.2468 119.329 15.7411C119.746 16.2354 120.058 16.8078 120.292 17.4842C120.5 18.1606 120.604 18.8891 120.604 19.6956V28.9054H116.285V19.6956C116.285 18.9932 116.129 18.4468 115.791 18.0306C115.453 17.6403 114.985 17.4322 114.36 17.4322C113.892 17.4322 113.45 17.5362 113.007 17.7444C112.591 17.9525 112.175 18.2127 111.811 18.5769V28.9054H107.492Z" fill="#4C4D4F"/>
<path d="M128.461 29.1365C127.785 29.1365 127.16 29.0325 126.64 28.8243C126.12 28.6162 125.677 28.33 125.313 27.9658C124.949 27.6016 124.689 27.1593 124.507 26.639C124.324 26.1186 124.22 25.5462 124.22 24.8958V17.4031H122.998C122.763 17.4031 122.581 17.3251 122.425 17.195C122.269 17.0389 122.191 16.8308 122.191 16.5706V14.8796L124.507 14.4373L125.365 10.8991C125.469 10.4568 125.781 10.2227 126.328 10.2227H128.591V14.4633H132.103V17.4292H128.565V24.6357C128.565 24.9739 128.643 25.2601 128.799 25.4682C128.955 25.6763 129.189 25.8064 129.502 25.8064C129.658 25.8064 129.788 25.7804 129.892 25.7544C129.996 25.7283 130.1 25.6763 130.178 25.6503C130.256 25.5983 130.334 25.5722 130.412 25.5462C130.49 25.5202 130.568 25.4942 130.646 25.4942C130.776 25.4942 130.88 25.5202 130.959 25.5722C131.037 25.6243 131.115 25.7283 131.193 25.8584L132.494 27.9138C131.947 28.33 131.297 28.6422 130.62 28.8504C129.944 29.0325 129.215 29.1365 128.461 29.1365Z" fill="#4C4D4F"/>
<path d="M134.393 28.9054V7.98828H138.711V15.6891C139.232 15.2468 139.804 14.8826 140.402 14.5964C141.001 14.3102 141.729 14.1802 142.588 14.1802C143.368 14.1802 144.071 14.3102 144.695 14.5964C145.293 14.8826 145.814 15.2468 146.23 15.7411C146.646 16.2354 146.959 16.8078 147.193 17.4842C147.401 18.1606 147.505 18.8891 147.505 19.6956V28.9054H143.186V19.6956C143.186 18.9932 143.03 18.4468 142.692 18.0306C142.354 17.6403 141.885 17.4322 141.261 17.4322C140.793 17.4322 140.35 17.5362 139.908 17.7444C139.492 17.9525 139.076 18.2127 138.711 18.5769V28.9054H134.393Z" fill="#4C4D4F"/>
<path d="M157.131 14.2031C158.224 14.2031 159.238 14.3852 160.123 14.7235C161.034 15.0617 161.814 15.556 162.438 16.2064C163.089 16.8568 163.583 17.6373 163.947 18.5478C164.312 19.4584 164.494 20.4991 164.494 21.6438C164.494 22.7885 164.312 23.8291 163.947 24.7657C163.583 25.7023 163.089 26.4828 162.438 27.1332C161.788 27.7836 161.008 28.2779 160.123 28.6162C159.212 28.9544 158.224 29.1365 157.131 29.1365C156.012 29.1365 155.024 28.9544 154.113 28.6162C153.203 28.2779 152.422 27.7576 151.772 27.1332C151.121 26.4828 150.601 25.7023 150.237 24.7657C149.873 23.8291 149.69 22.7885 149.69 21.6438C149.69 20.4991 149.873 19.4584 150.237 18.5478C150.601 17.6373 151.095 16.8568 151.772 16.2064C152.422 15.556 153.203 15.0617 154.113 14.7235C155.024 14.3852 156.012 14.2031 157.131 14.2031ZM157.131 25.9365C158.12 25.9365 158.848 25.5982 159.343 24.8698C159.811 24.1674 160.045 23.1007 160.045 21.6698C160.045 20.2389 159.811 19.1722 159.343 18.4698C158.874 17.7673 158.146 17.4291 157.131 17.4291C156.117 17.4291 155.362 17.7673 154.894 18.4698C154.425 19.1722 154.191 20.2389 154.191 21.6698C154.191 23.1007 154.425 24.1674 154.894 24.8698C155.362 25.5722 156.117 25.9365 157.131 25.9365Z" fill="#4C4D4F"/>
<path d="M170.998 14.4375V23.6212C170.998 24.3497 171.154 24.896 171.492 25.2863C171.83 25.6765 172.298 25.8847 172.923 25.8847C173.391 25.8847 173.833 25.7806 174.25 25.5985C174.666 25.3903 175.056 25.1302 175.446 24.766V14.4375H179.765V28.9286H177.085C176.539 28.9286 176.201 28.6944 176.019 28.2001L175.759 27.3676C175.472 27.6277 175.186 27.8879 174.9 28.096C174.614 28.3042 174.276 28.5123 173.937 28.6424C173.599 28.7985 173.235 28.9286 172.845 29.0066C172.454 29.0847 172.012 29.1367 171.57 29.1367C170.789 29.1367 170.087 29.0066 169.463 28.7204C168.864 28.4342 168.344 28.07 167.928 27.5757C167.511 27.0814 167.199 26.509 166.991 25.8326C166.783 25.1562 166.679 24.4277 166.679 23.6212V14.4375H170.998Z" fill="#4C4D4F"/>
<path d="M192.097 17.6138C191.993 17.7959 191.863 17.926 191.733 17.9781C191.602 18.0561 191.446 18.0821 191.238 18.0821C191.03 18.0821 190.822 18.0301 190.614 17.952C190.406 17.874 190.198 17.7699 189.963 17.6659C189.729 17.5618 189.469 17.4577 189.157 17.3797C188.871 17.3016 188.506 17.2496 188.142 17.2496C187.596 17.2496 187.18 17.3537 186.867 17.5618C186.581 17.7699 186.425 18.0561 186.425 18.4464C186.425 18.7065 186.529 18.9407 186.711 19.1228C186.893 19.3049 187.154 19.461 187.466 19.5911C187.778 19.7212 188.142 19.8512 188.533 19.9813C188.923 20.1114 189.339 20.2415 189.755 20.3976C190.172 20.5537 190.588 20.7098 190.978 20.9179C191.368 21.126 191.733 21.3602 192.045 21.6464C192.357 21.9325 192.617 22.2968 192.799 22.713C192.981 23.1293 193.085 23.6236 193.085 24.222C193.085 24.9504 192.955 25.6008 192.695 26.1992C192.435 26.7976 192.045 27.3179 191.524 27.7602C191.004 28.2025 190.38 28.5407 189.599 28.7748C188.845 29.009 187.96 29.139 186.972 29.139C186.477 29.139 185.983 29.087 185.489 29.009C184.994 28.9049 184.526 28.8008 184.058 28.6187C183.589 28.4626 183.173 28.2805 182.783 28.0464C182.393 27.8382 182.054 27.6041 181.768 27.3439L182.783 25.7569C182.913 25.5748 183.043 25.4187 183.225 25.3146C183.381 25.2106 183.615 25.1585 183.876 25.1585C184.136 25.1585 184.344 25.2106 184.552 25.3146C184.76 25.4187 184.968 25.5488 185.202 25.6789C185.437 25.809 185.697 25.939 186.009 26.0431C186.321 26.1472 186.711 26.1992 187.18 26.1992C187.518 26.1992 187.804 26.1732 188.038 26.0951C188.272 26.0171 188.454 25.939 188.585 25.809C188.715 25.6789 188.819 25.5488 188.897 25.3927C188.975 25.2366 189.001 25.0805 189.001 24.9244C189.001 24.6382 188.897 24.4041 188.715 24.222C188.506 24.0398 188.272 23.8838 187.934 23.7277C187.622 23.5976 187.258 23.4675 186.841 23.3374C186.425 23.2333 186.035 23.0772 185.593 22.9472C185.176 22.7911 184.76 22.609 184.37 22.4008C183.954 22.1927 183.615 21.9325 183.277 21.5943C182.965 21.2821 182.705 20.8919 182.497 20.4236C182.289 19.9553 182.211 19.3829 182.211 18.7325C182.211 18.1081 182.341 17.5358 182.575 16.9894C182.809 16.4431 183.173 15.9488 183.641 15.5325C184.11 15.1163 184.708 14.7781 185.437 14.5439C186.165 14.3098 186.998 14.1797 187.96 14.1797C188.48 14.1797 188.975 14.2317 189.469 14.3098C189.963 14.4138 190.406 14.5439 190.848 14.7C191.264 14.8561 191.68 15.0642 192.019 15.2984C192.383 15.5325 192.695 15.7667 192.955 16.0529L192.097 17.6138Z" fill="#4C4D4F"/>
<path d="M201.801 14.2031C202.764 14.2031 203.648 14.3592 204.429 14.6454C205.235 14.9316 205.912 15.3739 206.484 15.9462C207.056 16.5186 207.499 17.221 207.837 18.0275C208.149 18.86 208.331 19.7966 208.331 20.8373C208.331 21.1755 208.305 21.4356 208.279 21.6438C208.253 21.8519 208.201 22.008 208.123 22.1381C208.045 22.2682 207.941 22.3462 207.811 22.3982C207.681 22.4503 207.525 22.4763 207.317 22.4763H198.965C199.095 23.6991 199.46 24.5576 200.058 25.1039C200.656 25.6503 201.411 25.9104 202.373 25.9104C202.868 25.9104 203.31 25.8584 203.674 25.7283C204.038 25.5982 204.351 25.4682 204.637 25.3121C204.923 25.156 205.183 25.0259 205.417 24.8958C205.652 24.7657 205.912 24.7137 206.172 24.7137C206.51 24.7137 206.77 24.8438 206.952 25.1039L208.201 26.6649C207.759 27.1853 207.265 27.6015 206.744 27.9137C206.224 28.2259 205.704 28.4861 205.157 28.6682C204.611 28.8503 204.065 28.9804 203.518 29.0584C202.972 29.1365 202.452 29.1625 201.957 29.1625C200.943 29.1625 199.98 29.0064 199.095 28.6682C198.211 28.33 197.43 27.8357 196.754 27.1853C196.078 26.5349 195.557 25.7283 195.167 24.7657C194.777 23.8031 194.595 22.6584 194.595 21.3836C194.595 20.421 194.751 19.5104 195.089 18.6259C195.427 17.7674 195.895 17.0129 196.52 16.3365C197.144 15.6861 197.899 15.1657 198.757 14.7755C199.694 14.3852 200.682 14.2031 201.801 14.2031ZM201.879 17.195C201.047 17.195 200.396 17.4291 199.928 17.8974C199.46 18.3657 199.147 19.0421 199.017 19.9267H204.429C204.429 19.5885 204.377 19.2503 204.299 18.9121C204.221 18.5739 204.065 18.2877 203.856 18.0275C203.648 17.7674 203.388 17.5592 203.076 17.4031C202.738 17.273 202.347 17.195 201.879 17.195Z" fill="#4C4D4F"/>
<path d="M80.3051 52.3973C80.9555 52.3973 81.5279 52.3453 82.0482 52.2412C82.5425 52.1371 83.0368 51.981 83.4791 51.7989V48.703H81.4759C81.1897 48.703 80.9555 48.6249 80.7734 48.4688C80.6173 48.3127 80.5133 48.1046 80.5133 47.8705V45.2688H87.7458V53.8542C87.2255 54.2444 86.6791 54.5566 86.1068 54.8428C85.5344 55.129 84.936 55.3371 84.3116 55.5192C83.6612 55.7014 82.9848 55.8314 82.2824 55.9095C81.5539 55.9875 80.7734 56.0396 79.9669 56.0396C78.484 56.0396 77.1051 55.7794 75.8303 55.2591C74.5555 54.7388 73.4629 54.0103 72.5523 53.0737C71.6157 52.1371 70.8873 51.0444 70.3669 49.7697C69.8466 48.4949 69.5864 47.116 69.5864 45.6331C69.5864 44.1241 69.8466 42.7192 70.3409 41.4444C70.8352 40.1697 71.5637 39.077 72.5003 38.1664C73.4369 37.2558 74.5555 36.5274 75.8824 36.0071C77.2092 35.4867 78.6921 35.2266 80.3312 35.2266C81.1897 35.2266 81.9702 35.3046 82.7247 35.4347C83.4791 35.5648 84.1555 35.7729 84.7799 36.0071C85.4043 36.2412 85.9767 36.5274 86.497 36.8656C87.0173 37.2038 87.4856 37.568 87.9019 37.9583L86.523 40.0396C86.3929 40.2477 86.2369 40.3778 86.0547 40.5079C85.8726 40.6119 85.6645 40.664 85.4564 40.664C85.1702 40.664 84.884 40.5599 84.5978 40.3778C84.2336 40.1436 83.8694 39.9615 83.5312 39.8054C83.1929 39.6493 82.8547 39.5192 82.5165 39.4152C82.1783 39.3111 81.8141 39.2331 81.4238 39.181C81.0336 39.129 80.6173 39.103 80.149 39.103C79.2645 39.103 78.458 39.2591 77.7555 39.5713C77.0531 39.8835 76.4547 40.3257 75.9344 40.8981C75.4401 41.4705 75.0499 42.1469 74.7897 42.9534C74.5295 43.7599 74.3734 44.6444 74.3734 45.6071C74.3734 46.6997 74.5295 47.6363 74.8157 48.4949C75.1019 49.3274 75.5181 50.0298 76.0645 50.6282C76.5848 51.2005 77.2092 51.6428 77.9377 51.955C78.6661 52.2412 79.4466 52.3973 80.3051 52.3973Z" fill="#4C4D4F"/>
<path d="M94.8225 41.3125V50.4962C94.8225 51.2247 94.9786 51.771 95.3168 52.1613C95.655 52.5515 96.1233 52.7597 96.7477 52.7597C97.216 52.7597 97.6582 52.6556 98.0745 52.4735C98.4908 52.2653 98.881 52.0052 99.2713 51.641V41.3125H103.59V55.8036H100.91C100.364 55.8036 100.026 55.5694 99.8436 55.0751L99.5834 54.2426C99.2973 54.5027 99.0111 54.7629 98.7249 54.971C98.4387 55.1792 98.1005 55.3873 97.7623 55.5174C97.4241 55.6735 97.0599 55.8036 96.6696 55.8816C96.2794 55.9597 95.8371 56.0117 95.3948 56.0117C94.6143 56.0117 93.9119 55.8816 93.2875 55.5954C92.6891 55.3092 92.1688 54.945 91.7526 54.4507C91.3363 53.9564 91.0241 53.384 90.79 52.7076C90.5818 52.0312 90.4778 51.3027 90.4778 50.4962V41.3125H94.8225Z" fill="#4C4D4F"/>
<path d="M111.811 37.3595C111.811 37.6977 111.733 38.0359 111.603 38.3221C111.473 38.6343 111.264 38.8945 111.03 39.1286C110.796 39.3628 110.51 39.5449 110.198 39.675C109.886 39.805 109.547 39.8831 109.183 39.8831C108.819 39.8831 108.507 39.805 108.195 39.675C107.882 39.5449 107.622 39.3628 107.388 39.1286C107.154 38.8945 106.972 38.6343 106.842 38.3221C106.712 38.0099 106.634 37.6977 106.634 37.3595C106.634 36.9953 106.712 36.6831 106.842 36.3709C106.972 36.0587 107.154 35.7985 107.388 35.5644C107.622 35.3302 107.908 35.1481 108.195 35.0181C108.507 34.888 108.845 34.8359 109.183 34.8359C109.547 34.8359 109.886 34.914 110.198 35.0181C110.51 35.1481 110.796 35.3302 111.03 35.5644C111.264 35.7985 111.473 36.0587 111.603 36.3709C111.733 36.6571 111.811 36.9953 111.811 37.3595ZM111.291 55.805H106.972V41.314H111.291V55.805Z" fill="#4C4D4F"/>
<path d="M119.043 34.8867H114.725V55.8038H119.043V34.8867Z" fill="#4C4D4F"/>
<path d="M132.753 55.8051C132.493 55.8051 132.259 55.7531 132.077 55.623C131.895 55.4929 131.765 55.3108 131.687 55.0767L131.349 53.984C131.062 54.2962 130.75 54.5824 130.438 54.8165C130.126 55.0767 129.788 55.2848 129.423 55.4669C129.059 55.649 128.669 55.7791 128.227 55.8832C127.81 55.9872 127.342 56.0393 126.848 56.0393C126.093 56.0393 125.391 55.8832 124.74 55.545C124.09 55.2067 123.544 54.7124 123.075 54.088C122.607 53.4637 122.243 52.6832 121.983 51.7726C121.723 50.862 121.592 49.8214 121.592 48.6246C121.592 47.5319 121.749 46.5433 122.035 45.6067C122.321 44.6702 122.763 43.8897 123.31 43.2133C123.856 42.5368 124.506 42.0165 125.261 41.6263C126.015 41.236 126.874 41.0539 127.784 41.0539C128.539 41.0539 129.163 41.158 129.683 41.3921C130.204 41.6002 130.672 41.8864 131.088 42.2506V34.9141H135.407V55.8311H132.753V55.8051ZM128.357 52.7092C128.669 52.7092 128.955 52.6832 129.215 52.6311C129.475 52.5791 129.71 52.475 129.918 52.371C130.126 52.2669 130.334 52.1108 130.516 51.9547C130.698 51.7986 130.906 51.5905 131.088 51.3563V45.1905C130.75 44.8263 130.386 44.5661 130.022 44.436C129.631 44.2799 129.241 44.2279 128.825 44.2279C128.435 44.2279 128.044 44.3059 127.732 44.462C127.394 44.6181 127.108 44.8783 126.848 45.2165C126.614 45.5547 126.405 46.023 126.275 46.5693C126.145 47.1157 126.067 47.7921 126.067 48.5986C126.067 49.3531 126.119 50.0035 126.223 50.5238C126.327 51.0441 126.483 51.4604 126.692 51.7986C126.9 52.1108 127.134 52.345 127.42 52.5011C127.706 52.6311 128.018 52.7092 128.357 52.7092Z" fill="#4C4D4F"/>
<path d="M28.2203 31.974L0.434959 15.922L28.0382 0L55.8236 16.026L28.2203 31.974Z" fill="#74C7A0"/>
<path d="M28.2206 31.9753V63.8452L55.8238 47.9233V16.0273L28.2206 31.9753Z" fill="#37236A"/>
</g>
<defs>
<clipPath id="clip0_790_1981">
<rect width="208.13" height="64" fill="white" transform="translate(0.434959)"/>
</clipPath>
</defs>
</svg>
