<svg width="214" height="64" viewBox="0 0 214 64" fill="none" xmlns="http://www.w3.org/2000/svg">
<path d="M92.4392 26.2774H98.8207V29.4461H88.4564V12.2383H92.4392V26.2774Z" fill="#4C4D4F"/>
<path d="M104.567 13.8479C104.567 14.1339 104.501 14.42 104.391 14.6621C104.281 14.9261 104.105 15.1462 103.907 15.3442C103.709 15.5423 103.467 15.6963 103.203 15.8063C102.939 15.9163 102.63 15.9824 102.344 15.9824C102.036 15.9824 101.772 15.9163 101.508 15.8063C101.244 15.6963 101.024 15.5423 100.826 15.3442C100.628 15.1462 100.474 14.9261 100.364 14.6621C100.254 14.398 100.188 14.1339 100.188 13.8479C100.188 13.5398 100.254 13.2758 100.364 13.0117C100.474 12.7476 100.628 12.5276 100.826 12.3296C101.024 12.1315 101.266 11.9775 101.508 11.8674C101.772 11.7574 102.058 11.6914 102.344 11.6914C102.652 11.6914 102.939 11.7574 103.203 11.8674C103.467 11.9775 103.709 12.1315 103.907 12.3296C104.105 12.5276 104.281 12.7476 104.391 13.0117C104.501 13.2758 104.567 13.5618 104.567 13.8479ZM104.149 29.4714H100.496V17.2146H104.149V29.4714Z" fill="#4C4D4F"/>
<path d="M111.431 16.9961C111.959 16.9961 112.444 17.0401 112.906 17.1501C113.368 17.2602 113.786 17.3922 114.182 17.5902H117.879V18.9325C117.879 19.1306 117.813 19.3066 117.703 19.4166C117.593 19.5267 117.395 19.6147 117.109 19.6807L116.206 19.8787C116.316 20.2308 116.382 20.6049 116.382 20.979C116.382 21.5951 116.25 22.1452 116.008 22.6293C115.744 23.1135 115.392 23.5315 114.952 23.8836C114.512 24.2357 113.984 24.4998 113.368 24.6758C112.752 24.8518 112.113 24.9619 111.409 24.9619C111.013 24.9619 110.661 24.9399 110.331 24.8959C110.067 25.0499 109.935 25.2479 109.935 25.446C109.935 25.644 110.045 25.7981 110.265 25.8861C110.485 25.9741 110.771 26.0401 111.123 26.0841C111.475 26.1281 111.893 26.1281 112.333 26.1281C112.796 26.1281 113.258 26.1501 113.72 26.1941C114.182 26.2381 114.666 26.3042 115.106 26.4142C115.568 26.5242 115.964 26.6782 116.316 26.9203C116.668 27.1403 116.955 27.4484 117.175 27.8445C117.395 28.2186 117.505 28.7247 117.505 29.2968C117.505 29.847 117.373 30.3971 117.109 30.9252C116.844 31.4533 116.448 31.9154 115.92 32.3335C115.392 32.7516 114.754 33.0817 114.006 33.3237C113.258 33.5658 112.377 33.6978 111.409 33.6978C110.441 33.6978 109.627 33.6098 108.923 33.4337C108.219 33.2577 107.646 33.0157 107.184 32.7076C106.722 32.4215 106.392 32.0694 106.172 31.6954C105.952 31.2993 105.842 30.9032 105.842 30.4851C105.842 29.935 106.018 29.4729 106.348 29.0988C106.678 28.7247 107.14 28.4386 107.712 28.2186C107.426 28.0425 107.206 27.8005 107.052 27.5144C106.876 27.2284 106.81 26.8763 106.81 26.4362C106.81 26.2602 106.832 26.0621 106.898 25.8641C106.964 25.666 107.052 25.468 107.184 25.2699C107.316 25.0719 107.492 24.8958 107.69 24.7198C107.888 24.5438 108.131 24.3897 108.417 24.2577C107.778 23.9276 107.272 23.4655 106.92 22.9154C106.546 22.3653 106.37 21.7051 106.37 20.957C106.37 20.3408 106.502 19.7907 106.766 19.3066C107.03 18.8225 107.382 18.4044 107.844 18.0523C108.307 17.7003 108.835 17.4362 109.451 17.2602C110.045 17.0841 110.705 16.9961 111.431 16.9961ZM114.138 29.891C114.138 29.6929 114.072 29.5389 113.962 29.4069C113.83 29.2968 113.676 29.1868 113.456 29.1208C113.258 29.0548 112.994 28.9888 112.73 28.9668C112.444 28.9448 112.157 28.9227 111.827 28.9227H110.815C110.463 28.9227 110.133 28.8787 109.781 28.8127C109.561 28.9668 109.363 29.1428 109.209 29.3408C109.055 29.5389 108.989 29.7589 108.989 30.001C108.989 30.177 109.033 30.3311 109.099 30.4851C109.165 30.6171 109.297 30.7491 109.495 30.8592C109.693 30.9692 109.935 31.0352 110.265 31.1012C110.595 31.1672 110.991 31.1892 111.475 31.1892C112.003 31.1892 112.444 31.1672 112.774 31.1012C113.104 31.0352 113.39 30.9472 113.588 30.8372C113.786 30.7271 113.94 30.5951 114.006 30.4411C114.116 30.243 114.138 30.067 114.138 29.891ZM111.431 22.6954C112.047 22.6954 112.466 22.5413 112.752 22.2333C113.016 21.9252 113.17 21.5291 113.17 21.067C113.17 20.5609 113.038 20.1868 112.752 19.9007C112.488 19.6147 112.047 19.4826 111.431 19.4826C110.815 19.4826 110.375 19.6147 110.111 19.9007C109.847 20.1868 109.693 20.5829 109.693 21.067C109.693 21.309 109.737 21.5291 109.803 21.7271C109.869 21.9252 109.979 22.1012 110.111 22.2333C110.243 22.3873 110.441 22.4973 110.639 22.5853C110.859 22.6514 111.123 22.6954 111.431 22.6954Z" fill="#4C4D4F"/>
<path d="M119.551 29.4497V11.7578H123.204V18.2713C123.644 17.8972 124.128 17.5891 124.634 17.3471C125.141 17.105 125.757 16.995 126.483 16.995C127.143 16.995 127.737 17.105 128.265 17.3471C128.771 17.5891 129.211 17.8972 129.564 18.3153C129.916 18.7334 130.18 19.2175 130.378 19.7896C130.554 20.3617 130.642 20.9779 130.642 21.66V29.4497H126.989V21.66C126.989 21.0659 126.857 20.6038 126.571 20.2517C126.285 19.9216 125.889 19.7456 125.361 19.7456C124.965 19.7456 124.59 19.8336 124.216 20.0096C123.864 20.1857 123.512 20.4057 123.204 20.7138V29.4497H119.551Z" fill="#4C4D4F"/>
<path d="M137.288 29.646C136.716 29.646 136.188 29.558 135.748 29.3819C135.308 29.2059 134.934 28.9638 134.626 28.6558C134.318 28.3477 134.098 27.9736 133.944 27.5335C133.79 27.0934 133.701 26.6093 133.701 26.0592V19.7218H132.667C132.469 19.7218 132.315 19.6558 132.183 19.5457C132.051 19.4137 131.985 19.2377 131.985 19.0176V17.5873L133.944 17.2132L134.67 14.2206C134.758 13.8465 135.022 13.6484 135.484 13.6484H137.398V17.2352H140.369V19.7438H137.376V25.8391C137.376 26.1252 137.442 26.3673 137.574 26.5433C137.706 26.7193 137.904 26.8294 138.168 26.8294C138.301 26.8294 138.411 26.8074 138.499 26.7854C138.587 26.7633 138.675 26.7193 138.741 26.6973C138.807 26.6533 138.873 26.6313 138.939 26.6093C139.005 26.5873 139.071 26.5653 139.137 26.5653C139.247 26.5653 139.335 26.5873 139.401 26.6313C139.467 26.6753 139.533 26.7634 139.599 26.8734L140.699 28.6118C140.237 28.9638 139.687 29.2279 139.115 29.4039C138.543 29.558 137.926 29.646 137.288 29.646Z" fill="#4C4D4F"/>
<path d="M142.305 29.4497V11.7578H145.957V18.2713C146.397 17.8972 146.882 17.5891 147.388 17.3471C147.894 17.105 148.51 16.995 149.236 16.995C149.896 16.995 150.49 17.105 151.018 17.3471C151.525 17.5891 151.965 17.8972 152.317 18.3153C152.669 18.7334 152.933 19.2175 153.131 19.7896C153.307 20.3617 153.395 20.9779 153.395 21.66V29.4497H149.742V21.66C149.742 21.0659 149.61 20.6038 149.324 20.2517C149.038 19.9216 148.642 19.7456 148.114 19.7456C147.718 19.7456 147.344 19.8336 146.97 20.0096C146.618 20.1857 146.265 20.4057 145.957 20.7138V29.4497H142.305Z" fill="#4C4D4F"/>
<path d="M161.538 17.0156C162.462 17.0156 163.32 17.1697 164.068 17.4557C164.838 17.7418 165.499 18.1599 166.027 18.71C166.577 19.2601 166.995 19.9203 167.303 20.6904C167.611 21.4606 167.765 22.3408 167.765 23.309C167.765 24.2772 167.611 25.1574 167.303 25.9496C166.995 26.7418 166.577 27.4019 166.027 27.9521C165.477 28.5022 164.816 28.9203 164.068 29.2063C163.298 29.4924 162.462 29.6464 161.538 29.6464C160.591 29.6464 159.755 29.4924 158.985 29.2063C158.215 28.9203 157.555 28.4802 157.005 27.9521C156.455 27.4019 156.014 26.7418 155.706 25.9496C155.398 25.1574 155.244 24.2772 155.244 23.309C155.244 22.3408 155.398 21.4606 155.706 20.6904C156.014 19.9203 156.433 19.2601 157.005 18.71C157.555 18.1599 158.215 17.7418 158.985 17.4557C159.755 17.1697 160.591 17.0156 161.538 17.0156ZM161.538 26.9398C162.374 26.9398 162.99 26.6538 163.408 26.0376C163.804 25.4435 164.002 24.5413 164.002 23.331C164.002 22.1208 163.804 21.2186 163.408 20.6244C163.012 20.0303 162.396 19.7442 161.538 19.7442C160.679 19.7442 160.041 20.0303 159.645 20.6244C159.249 21.2186 159.051 22.1208 159.051 23.331C159.051 24.5413 159.249 25.4435 159.645 26.0376C160.041 26.6318 160.679 26.9398 161.538 26.9398Z" fill="#4C4D4F"/>
<path d="M173.266 17.2148V24.9826C173.266 25.5987 173.398 26.0608 173.684 26.3909C173.97 26.721 174.366 26.897 174.894 26.897C175.29 26.897 175.664 26.809 176.016 26.6549C176.368 26.4789 176.698 26.2589 177.028 25.9508V17.2148H180.681V29.4716H178.415C177.953 29.4716 177.667 29.2735 177.512 28.8554L177.292 28.1513C177.05 28.3713 176.808 28.5914 176.566 28.7674C176.324 28.9434 176.038 29.1195 175.752 29.2295C175.466 29.3615 175.158 29.4716 174.828 29.5376C174.498 29.6036 174.124 29.6476 173.75 29.6476C173.09 29.6476 172.495 29.5376 171.967 29.2955C171.461 29.0535 171.021 28.7454 170.669 28.3273C170.317 27.9092 170.053 27.4251 169.877 26.853C169.701 26.2809 169.613 25.6647 169.613 24.9826V17.2148H173.266Z" fill="#4C4D4F"/>
<path d="M191.112 19.9007C191.024 20.0548 190.914 20.1648 190.804 20.2088C190.694 20.2748 190.562 20.2968 190.386 20.2968C190.21 20.2968 190.034 20.2528 189.858 20.1868C189.682 20.1208 189.506 20.0328 189.308 19.9448C189.11 19.8567 188.89 19.7687 188.625 19.7027C188.383 19.6367 188.075 19.5927 187.767 19.5927C187.305 19.5927 186.953 19.6807 186.689 19.8567C186.447 20.0328 186.315 20.2748 186.315 20.6049C186.315 20.8249 186.403 21.023 186.557 21.177C186.711 21.3311 186.931 21.4631 187.195 21.5731C187.459 21.6831 187.767 21.7932 188.097 21.9032C188.427 22.0132 188.78 22.1232 189.132 22.2553C189.484 22.3873 189.836 22.5193 190.166 22.6954C190.496 22.8714 190.804 23.0694 191.068 23.3115C191.332 23.5535 191.552 23.8616 191.706 24.2137C191.86 24.5658 191.948 24.9839 191.948 25.49C191.948 26.1061 191.838 26.6562 191.618 27.1624C191.398 27.6685 191.068 28.1086 190.628 28.4826C190.188 28.8567 189.66 29.1428 189 29.3408C188.361 29.5389 187.613 29.6489 186.777 29.6489C186.359 29.6489 185.941 29.6049 185.523 29.5389C185.105 29.4509 184.709 29.3628 184.313 29.2088C183.916 29.0768 183.564 28.9227 183.234 28.7247C182.904 28.5487 182.618 28.3506 182.376 28.1306L183.234 26.7883C183.344 26.6342 183.454 26.5022 183.608 26.4142C183.74 26.3262 183.938 26.2822 184.158 26.2822C184.379 26.2822 184.555 26.3262 184.731 26.4142C184.907 26.5022 185.083 26.6122 185.281 26.7223C185.479 26.8323 185.699 26.9423 185.963 27.0303C186.227 27.1183 186.557 27.1624 186.953 27.1624C187.239 27.1624 187.481 27.1403 187.679 27.0743C187.877 27.0083 188.031 26.9423 188.141 26.8323C188.251 26.7223 188.339 26.6122 188.405 26.4802C188.471 26.3482 188.493 26.2161 188.493 26.0841C188.493 25.8421 188.405 25.644 188.251 25.49C188.075 25.3359 187.877 25.2039 187.591 25.0719C187.327 24.9619 187.019 24.8518 186.667 24.7418C186.315 24.6538 185.985 24.5218 185.611 24.4117C185.259 24.2797 184.907 24.1257 184.577 23.9496C184.225 23.7736 183.938 23.5535 183.652 23.2675C183.388 23.0034 183.168 22.6734 182.992 22.2773C182.816 21.8812 182.75 21.3971 182.75 20.8469C182.75 20.3188 182.86 19.8347 183.058 19.3726C183.256 18.9105 183.564 18.4924 183.96 18.1403C184.357 17.7883 184.863 17.5022 185.479 17.3042C186.095 17.1061 186.799 16.9961 187.613 16.9961C188.053 16.9961 188.471 17.0401 188.89 17.1061C189.308 17.1941 189.682 17.3042 190.056 17.4362C190.408 17.5682 190.76 17.7443 191.046 17.9423C191.354 18.1403 191.618 18.3384 191.838 18.5804L191.112 19.9007Z" fill="#4C4D4F"/>
<path d="M199.32 17.0156C200.134 17.0156 200.882 17.1477 201.542 17.3897C202.225 17.6318 202.797 18.0058 203.281 18.49C203.765 18.9741 204.139 19.5682 204.425 20.2503C204.689 20.9545 204.843 21.7467 204.843 22.6269C204.843 22.9129 204.821 23.133 204.799 23.309C204.777 23.4851 204.733 23.6171 204.667 23.7271C204.601 23.8371 204.513 23.9032 204.403 23.9472C204.293 23.9912 204.161 24.0132 203.985 24.0132H196.921C197.031 25.0474 197.339 25.7736 197.846 26.2357C198.352 26.6978 198.99 26.9178 199.804 26.9178C200.222 26.9178 200.596 26.8738 200.904 26.7638C201.212 26.6538 201.476 26.5437 201.718 26.4117C201.96 26.2797 202.181 26.1697 202.379 26.0596C202.577 25.9496 202.797 25.9056 203.017 25.9056C203.303 25.9056 203.523 26.0156 203.677 26.2357L204.733 27.556C204.359 27.9961 203.941 28.3481 203.501 28.6122C203.061 28.8763 202.621 29.0963 202.159 29.2503C201.696 29.4044 201.234 29.5144 200.772 29.5804C200.31 29.6464 199.87 29.6684 199.452 29.6684C198.594 29.6684 197.78 29.5364 197.031 29.2503C196.283 28.9643 195.623 28.5462 195.051 27.9961C194.479 27.4459 194.039 26.7638 193.709 25.9496C193.379 25.1354 193.225 24.1672 193.225 23.089C193.225 22.2748 193.357 21.5046 193.643 20.7565C193.929 20.0303 194.325 19.3922 194.853 18.82C195.381 18.2699 196.019 17.8298 196.745 17.4997C197.538 17.1697 198.374 17.0156 199.32 17.0156ZM199.386 19.5462C198.682 19.5462 198.132 19.7442 197.736 20.1403C197.339 20.5364 197.075 21.1085 196.965 21.8567H201.542C201.542 21.5706 201.498 21.2846 201.432 20.9985C201.366 20.7124 201.234 20.4704 201.058 20.2503C200.882 20.0303 200.662 19.8543 200.398 19.7222C200.112 19.6122 199.782 19.5462 199.386 19.5462Z" fill="#4C4D4F"/>
<path d="M96.5565 49.3201C97.1066 49.3201 97.5907 49.2761 98.0308 49.1881C98.4489 49.1001 98.867 48.968 99.2411 48.814V46.1954H97.5467C97.3047 46.1954 97.1066 46.1294 96.9526 45.9974C96.8206 45.8653 96.7325 45.6893 96.7325 45.4912V43.2908H102.85V50.5524C102.41 50.8824 101.948 51.1465 101.464 51.3886C100.979 51.6306 100.473 51.8067 99.9452 51.9607C99.3951 52.1147 98.823 52.2247 98.2289 52.2908C97.6127 52.3568 96.9526 52.4008 96.2704 52.4008C95.0162 52.4008 93.8499 52.1807 92.7717 51.7406C91.6934 51.3005 90.7692 50.6844 89.999 49.8922C89.2069 49.1 88.5907 48.1758 88.1506 47.0976C87.7105 46.0194 87.4905 44.8531 87.4905 43.5988C87.4905 42.3225 87.7105 41.1343 88.1286 40.056C88.5467 38.9778 89.1629 38.0536 89.955 37.2834C90.7472 36.5133 91.6934 35.8971 92.8157 35.457C93.9379 35.0169 95.1922 34.7969 96.5785 34.7969C97.3047 34.7969 97.9648 34.8629 98.6029 34.9729C99.2411 35.0829 99.8132 35.259 100.341 35.457C100.869 35.6551 101.354 35.8971 101.794 36.1832C102.234 36.4692 102.63 36.7773 102.982 37.1074L101.816 38.8678C101.706 39.0438 101.574 39.1538 101.42 39.2639C101.266 39.3519 101.089 39.3959 100.913 39.3959C100.671 39.3959 100.429 39.3079 100.187 39.1538C99.8792 38.9558 99.5712 38.8018 99.2851 38.6697C98.999 38.5377 98.713 38.4277 98.4269 38.3397C98.1408 38.2516 97.8328 38.1856 97.5027 38.1416C97.1726 38.0976 96.8206 38.0756 96.4245 38.0756C95.6763 38.0756 94.9942 38.2076 94.4 38.4717C93.8059 38.7357 93.2998 39.1098 92.8597 39.5939C92.4416 40.078 92.1115 40.6502 91.8915 41.3323C91.6714 42.0145 91.5394 42.7626 91.5394 43.5768C91.5394 44.501 91.6714 45.2932 91.9135 46.0194C92.1555 46.7235 92.5076 47.3177 92.9697 47.8238C93.4098 48.3079 93.9379 48.682 94.554 48.946C95.1702 49.1881 95.8303 49.3201 96.5565 49.3201Z" fill="#4C4D4F"/>
<path d="M108.836 39.9453V47.713C108.836 48.3292 108.968 48.7913 109.254 49.1213C109.54 49.4514 109.937 49.6275 110.465 49.6275C110.861 49.6275 111.235 49.5394 111.587 49.3854C111.939 49.2094 112.269 48.9893 112.599 48.6812V39.9453H116.252V52.202H113.985C113.523 52.202 113.237 52.004 113.083 51.5859L112.863 50.8817C112.621 51.1018 112.379 51.3218 112.137 51.4979C111.895 51.6739 111.609 51.85 111.323 51.96C111.037 52.092 110.729 52.202 110.399 52.2681C110.069 52.3341 109.694 52.3781 109.32 52.3781C108.66 52.3781 108.066 52.268 107.538 52.026C107.032 51.7839 106.592 51.4759 106.24 51.0578C105.888 50.6397 105.624 50.1556 105.425 49.5835C105.249 49.0113 105.161 48.3952 105.161 47.713V39.9453H108.836Z" fill="#4C4D4F"/>
<path d="M123.205 36.5993C123.205 36.8854 123.139 37.1714 123.029 37.4135C122.919 37.6776 122.743 37.8976 122.545 38.0957C122.347 38.2937 122.105 38.4477 121.841 38.5577C121.577 38.6678 121.291 38.7338 120.983 38.7338C120.675 38.7338 120.411 38.6678 120.147 38.5577C119.882 38.4477 119.662 38.2937 119.464 38.0957C119.266 37.8976 119.112 37.6776 119.002 37.4135C118.892 37.1494 118.826 36.8854 118.826 36.5993C118.826 36.2912 118.892 36.0272 119.002 35.7631C119.112 35.4991 119.266 35.279 119.464 35.081C119.662 34.8829 119.904 34.7289 120.147 34.6189C120.411 34.5088 120.697 34.4648 120.983 34.4648C121.291 34.4648 121.577 34.5309 121.841 34.6189C122.105 34.7289 122.347 34.8829 122.545 35.081C122.743 35.279 122.919 35.4991 123.029 35.7631C123.139 36.0052 123.205 36.2912 123.205 36.5993ZM122.765 52.2008H119.112V39.9441H122.765V52.2008Z" fill="#4C4D4F"/>
<path d="M129.321 34.5117H125.669V52.2036H129.321V34.5117Z" fill="#4C4D4F"/>
<path d="M140.916 52.2012C140.696 52.2012 140.498 52.1572 140.344 52.0471C140.19 51.9371 140.08 51.7831 140.014 51.585L139.728 50.6608C139.486 50.9249 139.222 51.1669 138.958 51.365C138.694 51.585 138.408 51.7611 138.1 51.9151C137.791 52.0691 137.461 52.1792 137.087 52.2672C136.735 52.3552 136.339 52.3992 135.921 52.3992C135.283 52.3992 134.689 52.2672 134.139 51.9811C133.589 51.6951 133.126 51.277 132.73 50.7489C132.334 50.2207 132.026 49.5606 131.806 48.7904C131.586 48.0202 131.476 47.1401 131.476 46.1278C131.476 45.2036 131.608 44.3674 131.85 43.5753C132.092 42.7831 132.466 42.1229 132.928 41.5508C133.39 40.9787 133.941 40.5386 134.579 40.2085C135.217 39.8784 135.943 39.7244 136.713 39.7244C137.351 39.7244 137.879 39.8124 138.32 40.0105C138.76 40.1865 139.156 40.4286 139.508 40.7366V34.5312H143.161V52.2232H140.916V52.2012ZM137.197 49.5826C137.461 49.5826 137.703 49.5606 137.924 49.5166C138.144 49.4726 138.342 49.3846 138.518 49.2965C138.694 49.2085 138.87 49.0765 139.024 48.9445C139.178 48.8124 139.354 48.6364 139.508 48.4383V43.2232C139.222 42.9151 138.914 42.6951 138.606 42.585C138.276 42.453 137.946 42.409 137.593 42.409C137.263 42.409 136.933 42.475 136.669 42.607C136.383 42.7391 136.141 42.9591 135.921 43.2452C135.723 43.5313 135.547 43.9273 135.437 44.3894C135.327 44.8515 135.261 45.4237 135.261 46.1058C135.261 46.744 135.305 47.2941 135.393 47.7342C135.481 48.1743 135.613 48.5264 135.789 48.8124C135.965 49.0765 136.163 49.2745 136.405 49.4066C136.647 49.5166 136.911 49.5826 137.197 49.5826Z" fill="#4C4D4F"/>
<path d="M52.5012 32.044L29 18.467L52.3472 5L75.8484 18.555L52.5012 32.044Z" fill="#74C7A0"/>
<path d="M52.5003 32.0437V58.9997L75.8475 45.5327V18.5547L52.5003 32.0437Z" fill="#37236A"/>
</svg>
