<svg width="191" height="64" viewBox="0 0 191 64" fill="none" xmlns="http://www.w3.org/2000/svg">
<g clip-path="url(#clip0_790_1928)">
<path d="M89.5978 15.4564C89.5978 17.8267 88.9341 19.6282 87.6067 20.8845C86.2793 22.1408 84.383 22.7571 81.9178 22.7571H80.1163V30.5793H75.9207V8.55859H82.2496C84.6437 8.55859 86.4689 9.12748 87.7252 10.289C88.9815 11.4504 89.5978 13.1571 89.5978 15.4564ZM80.1163 18.9408H81.4911C82.7948 18.9408 83.743 18.6564 84.383 18.0875C85.023 17.5186 85.3548 16.689 85.3548 15.6223C85.3548 14.5319 85.0941 13.726 84.5489 13.2045C84.0037 12.683 83.1741 12.4223 82.0126 12.4223H80.1163V18.9408Z" fill="#231F20"/>
<path d="M100.43 13.4414C100.999 13.4414 101.45 13.4888 101.829 13.5836L101.521 17.8977C101.189 17.8029 100.786 17.7555 100.312 17.7555C98.9844 17.7555 97.9652 18.1347 97.2304 18.8933C96.4956 19.6518 96.1163 20.6947 96.1163 22.0458V30.6029H91.9681V13.7732H95.097L95.7133 16.594H95.9267C96.4007 15.6459 97.0407 14.8873 97.823 14.3184C98.6289 13.7258 99.4822 13.4414 100.43 13.4414Z" fill="#231F20"/>
<path d="M110.599 30.8873C108.158 30.8873 106.261 30.1288 104.887 28.6355C103.512 27.1421 102.824 25.0325 102.824 22.2829C102.824 19.4621 103.464 17.2814 104.721 15.7406C105.977 14.1999 107.755 13.4414 109.983 13.4414C112.116 13.4414 113.799 14.1288 114.984 15.4799C116.17 16.831 116.762 18.7036 116.762 21.0977V23.3259H106.996C107.044 24.6296 107.399 25.6488 108.039 26.3836C108.679 27.1184 109.604 27.474 110.789 27.474C111.69 27.474 112.567 27.3792 113.373 27.1658C114.179 26.9525 115.032 26.6207 115.909 26.1466V29.7021C115.198 30.1051 114.416 30.4133 113.586 30.6029C112.78 30.7925 111.784 30.8873 110.599 30.8873ZM110.007 16.7125C109.13 16.7125 108.442 17.0206 107.944 17.6369C107.447 18.2532 107.162 19.1303 107.091 20.268H112.899C112.875 19.1303 112.614 18.2532 112.093 17.6369C111.595 17.0206 110.884 16.7125 110.007 16.7125Z" fill="#231F20"/>
<path d="M123.044 30.603L117.26 13.7734H121.598L124.537 23.3734C124.869 24.5823 125.059 25.7438 125.154 26.8342H125.225C125.272 25.8623 125.485 24.7245 125.841 23.3734L128.757 13.7734H133.071L127.287 30.603H123.044Z" fill="#231F20"/>
<path d="M141.248 30.8873C138.806 30.8873 136.91 30.1288 135.535 28.6355C134.161 27.1421 133.473 25.0325 133.473 22.2829C133.473 19.4621 134.113 17.2814 135.369 15.7406C136.626 14.1999 138.38 13.4414 140.632 13.4414C142.765 13.4414 144.448 14.1288 145.633 15.4799C146.818 16.831 147.411 18.7036 147.411 21.0977V23.3259H137.645C137.692 24.6296 138.048 25.6488 138.688 26.3836C139.352 27.1184 140.252 27.474 141.414 27.474C142.338 27.474 143.192 27.3792 143.998 27.1658C144.803 26.9525 145.657 26.6207 146.534 26.1466V29.7021C145.823 30.1051 145.041 30.4133 144.211 30.6029C143.429 30.7925 142.433 30.8873 141.248 30.8873ZM140.655 16.7125C139.778 16.7125 139.091 17.0206 138.593 17.6369C138.095 18.2532 137.811 19.1303 137.74 20.268H143.547C143.523 19.1303 143.263 18.2532 142.741 17.6369C142.243 17.0206 141.532 16.7125 140.655 16.7125Z" fill="#231F20"/>
<path d="M163.932 30.6026H159.808V20.7656C159.808 19.5567 159.618 18.6323 159.215 18.0397C158.836 17.4234 158.22 17.1389 157.366 17.1389C156.205 17.1389 155.375 17.5656 154.854 18.4189C154.332 19.2723 154.072 20.6945 154.072 22.6856V30.6026H149.947V13.773H153.123L153.669 15.93H153.906C154.356 15.1241 154.996 14.5078 155.802 14.0811C156.608 13.6545 157.532 13.4648 158.552 13.4648C160.306 13.4648 161.657 13.9863 162.558 15.053C163.458 16.1197 163.932 17.6367 163.932 19.6278V30.6026Z" fill="#231F20"/>
<path d="M173.746 27.2347C174.457 27.2347 175.334 27.0687 176.354 26.7132V30.1265C175.334 30.648 174.054 30.885 172.561 30.885C170.902 30.885 169.693 30.411 168.958 29.4865C168.199 28.5621 167.82 27.1635 167.82 25.3147V17.208H165.853V15.2643L168.128 13.7235L169.314 10.168H171.945V13.7472H176.188V17.1843H171.945V25.291C171.945 25.9547 172.111 26.4287 172.442 26.7369C172.774 27.0687 173.201 27.2347 173.746 27.2347Z" fill="#231F20"/>
<path d="M76.1338 33.207H81.7279C84.359 33.207 86.2553 33.6337 87.4405 34.5107C88.6257 35.3878 89.1946 36.7626 89.1946 38.6589C89.1946 39.9626 88.8627 41.0293 88.2227 41.8826C87.559 42.7359 86.6109 43.2811 85.3546 43.5181V43.6604C88.365 44.2293 89.8583 45.9833 89.8583 48.9226C89.8583 50.89 89.2657 52.4307 88.0568 53.5211C86.8716 54.6352 85.1887 55.1804 83.0316 55.1804H76.1101V33.207H76.1338ZM78.4568 42.6411H82.2494C83.885 42.6411 85.0464 42.3567 85.7575 41.7878C86.4687 41.2189 86.8242 40.2707 86.8242 38.9196C86.8242 37.687 86.4212 36.7863 85.639 36.2411C84.8331 35.6959 83.5768 35.4115 81.8464 35.4115H78.4568V42.6411ZM78.4568 44.7981V53.0233H82.5812C84.1694 53.0233 85.3783 52.6915 86.1842 52.0041C86.9901 51.3167 87.3931 50.25 87.3931 48.7804C87.3931 47.4055 86.9901 46.41 86.1605 45.77C85.3309 45.13 84.0746 44.7981 82.3916 44.7981H78.4568Z" fill="#231F20"/>
<path d="M95.1916 32.8516H92.9398V55.2279H95.1916V32.8516Z" fill="#231F20"/>
<path d="M98.937 34.253C98.937 33.6841 99.0555 33.2575 99.3163 32.9967C99.577 32.736 99.8852 32.5938 100.264 32.5938C100.62 32.5938 100.928 32.736 101.189 32.9967C101.45 33.2575 101.592 33.6841 101.592 34.253C101.592 34.8219 101.45 35.2249 101.189 35.5093C100.928 35.7938 100.62 35.936 100.264 35.936C99.8852 35.936 99.577 35.7938 99.3163 35.5093C99.0793 35.2249 98.937 34.8219 98.937 34.253ZM101.379 55.2308H99.1267V38.733H101.379V55.2308Z" fill="#231F20"/>
<path d="M115.482 55.2278V44.5611C115.482 43.21 115.198 42.2145 114.653 41.5508C114.107 40.8871 113.23 40.5552 112.069 40.5552C110.504 40.5552 109.39 41.0293 108.656 41.9537C107.944 42.8782 107.565 44.4189 107.565 46.5759V55.2278H105.313V38.73H107.139L107.494 40.9819H107.613C108.063 40.1759 108.727 39.5359 109.556 39.0856C110.386 38.6352 111.31 38.4219 112.33 38.4219C114.107 38.4219 115.459 38.8959 116.359 39.8678C117.26 40.8159 117.71 42.3567 117.71 44.4663V55.2278H115.482Z" fill="#231F20"/>
<path d="M131.625 52.9997H131.506C130.463 54.6827 128.922 55.5123 126.837 55.5123C124.893 55.5123 123.376 54.7775 122.309 53.3079C121.219 51.8382 120.697 49.7286 120.697 47.0027C120.697 44.2767 121.242 42.1671 122.333 40.6738C123.423 39.1567 124.917 38.4219 126.86 38.4219C128.875 38.4219 130.416 39.2279 131.506 40.8634H131.672L131.577 39.6782L131.53 38.5167V32.8516H133.782V55.2279H131.957L131.625 52.9997ZM127.121 53.4264C128.662 53.4264 129.776 52.9523 130.463 52.0279C131.151 51.1034 131.506 49.6101 131.506 47.5242V47.0027C131.506 44.656 131.151 42.9967 130.463 42.0012C129.752 41.0056 128.638 40.5079 127.097 40.5079C125.77 40.5079 124.774 41.0767 124.063 42.2145C123.376 43.3523 123.02 44.9642 123.02 47.0501C123.02 49.1597 123.376 50.7479 124.063 51.8145C124.774 52.8812 125.794 53.4264 127.121 53.4264Z" fill="#231F20"/>
<path d="M147.861 55.2278V44.5611C147.861 43.21 147.577 42.2145 147.032 41.5508C146.487 40.8871 145.61 40.5552 144.448 40.5552C142.907 40.5552 141.77 41.0293 141.035 41.9537C140.324 42.8782 139.944 44.4189 139.944 46.5759V55.2278H137.693V38.73H139.518L139.873 40.9819H139.992C140.442 40.1759 141.106 39.5359 141.936 39.0856C142.765 38.6352 143.69 38.4219 144.709 38.4219C146.51 38.4219 147.838 38.8959 148.739 39.8678C149.639 40.8159 150.09 42.3567 150.09 44.4663V55.2278H147.861Z" fill="#231F20"/>
<path d="M160.164 55.5122C157.959 55.5122 156.229 54.7774 154.973 53.2841C153.693 51.7908 153.076 49.7285 153.076 47.0974C153.076 44.4426 153.669 42.333 154.854 40.7685C156.039 39.2041 157.627 38.4219 159.595 38.4219C161.467 38.4219 162.937 39.1093 164.004 40.4604C165.094 41.8115 165.639 43.613 165.639 45.8411V47.4293H155.399C155.447 49.373 155.897 50.8426 156.727 51.8382C157.556 52.8337 158.741 53.3315 160.259 53.3315C161.847 53.3315 163.435 52.9522 164.999 52.2174V54.4456C164.193 54.8248 163.459 55.1093 162.747 55.2752C162.013 55.4411 161.159 55.5122 160.164 55.5122ZM159.547 40.5078C158.362 40.5078 157.414 40.9345 156.703 41.8115C155.992 42.6648 155.589 43.8737 155.447 45.3908H163.221C163.221 43.8263 162.913 42.6174 162.273 41.7641C161.633 40.9345 160.733 40.5078 159.547 40.5078Z" fill="#231F20"/>
<path d="M178.202 50.7272C178.202 52.2679 177.681 53.4531 176.661 54.2828C175.642 55.1124 174.173 55.5391 172.324 55.5391C170.356 55.5391 168.816 55.1835 167.725 54.4961V52.1731C168.436 52.5761 169.195 52.8842 170.024 53.1213C170.83 53.3583 171.636 53.4768 172.395 53.4768C173.58 53.4768 174.481 53.2635 175.097 52.8605C175.737 52.4339 176.045 51.8176 176.045 50.9642C176.045 50.3242 175.784 49.7791 175.287 49.3287C174.789 48.8783 173.817 48.3331 172.347 47.7168C170.973 47.1479 169.977 46.6502 169.408 46.2235C168.816 45.7968 168.389 45.2991 168.104 44.7776C167.82 44.2324 167.678 43.5924 167.678 42.8339C167.678 41.4828 168.176 40.4398 169.147 39.6576C170.119 38.8754 171.47 38.4961 173.201 38.4961C174.789 38.4961 176.353 38.8517 177.894 39.5865L177.088 41.625C175.595 40.9376 174.244 40.6057 173.035 40.6057C171.968 40.6057 171.162 40.7954 170.617 41.1746C170.072 41.5539 169.811 42.0517 169.811 42.7154C169.811 43.1657 169.906 43.545 170.119 43.8531C170.309 44.1613 170.641 44.4694 171.091 44.7302C171.541 45.0146 172.419 45.4176 173.699 45.9391C175.453 46.6502 176.661 47.3613 177.278 48.0961C177.894 48.7124 178.202 49.6368 178.202 50.7272Z" fill="#231F20"/>
<path d="M190.149 50.7272C190.149 52.2679 189.627 53.4531 188.608 54.2828C187.589 55.1124 186.119 55.5391 184.27 55.5391C182.303 55.5391 180.762 55.1835 179.672 54.4961V52.1731C180.383 52.5761 181.141 52.8842 181.971 53.1213C182.801 53.3583 183.583 53.4768 184.341 53.4768C185.527 53.4768 186.427 53.2635 187.044 52.8605C187.684 52.4339 187.992 51.8176 187.992 50.9642C187.992 50.3242 187.731 49.7791 187.233 49.3287C186.736 48.8783 185.764 48.3331 184.294 47.7168C182.919 47.1479 181.924 46.6502 181.355 46.2235C180.762 45.7968 180.336 45.2991 180.051 44.7776C179.767 44.2324 179.624 43.5924 179.624 42.8339C179.624 41.4828 180.122 40.4398 181.094 39.6576C182.09 38.8754 183.441 38.4961 185.147 38.4961C186.736 38.4961 188.3 38.8517 189.841 39.5865L189.035 41.625C187.541 40.9376 186.19 40.6057 184.981 40.6057C183.915 40.6057 183.109 40.7954 182.564 41.1746C182.019 41.5539 181.758 42.0517 181.758 42.7154C181.758 43.1657 181.853 43.545 182.066 43.8531C182.279 44.1613 182.587 44.4694 183.038 44.7302C183.488 45.0146 184.365 45.4176 185.645 45.9391C187.399 46.6502 188.608 47.3613 189.224 48.0961C189.841 48.7124 190.149 49.6368 190.149 50.7272Z" fill="#231F20"/>
<path d="M89.5978 15.4564C89.5978 17.8267 88.9341 19.6282 87.6067 20.8845C86.2793 22.1408 84.383 22.7571 81.9178 22.7571H80.1163V30.5793H75.9207V8.55859H82.2496C84.6437 8.55859 86.4689 9.12748 87.7252 10.289C88.9815 11.4504 89.5978 13.1571 89.5978 15.4564ZM80.1163 18.9408H81.4911C82.7948 18.9408 83.743 18.6564 84.383 18.0875C85.023 17.5186 85.3548 16.689 85.3548 15.6223C85.3548 14.5319 85.0941 13.726 84.5489 13.2045C84.0037 12.683 83.1741 12.4223 82.0126 12.4223H80.1163V18.9408Z" fill="#231F20"/>
<path d="M100.43 13.4414C100.999 13.4414 101.45 13.4888 101.829 13.5836L101.521 17.8977C101.189 17.8029 100.786 17.7555 100.312 17.7555C98.9844 17.7555 97.9652 18.1347 97.2304 18.8933C96.4956 19.6518 96.1163 20.6947 96.1163 22.0458V30.6029H91.9681V13.7732H95.097L95.7133 16.594H95.9267C96.4007 15.6459 97.0407 14.8873 97.823 14.3184C98.6289 13.7258 99.4822 13.4414 100.43 13.4414Z" fill="#231F20"/>
<path d="M110.599 30.8873C108.158 30.8873 106.261 30.1288 104.887 28.6355C103.512 27.1421 102.824 25.0325 102.824 22.2829C102.824 19.4621 103.464 17.2814 104.721 15.7406C105.977 14.1999 107.755 13.4414 109.983 13.4414C112.116 13.4414 113.799 14.1288 114.984 15.4799C116.17 16.831 116.762 18.7036 116.762 21.0977V23.3259H106.996C107.044 24.6296 107.399 25.6488 108.039 26.3836C108.679 27.1184 109.604 27.474 110.789 27.474C111.69 27.474 112.567 27.3792 113.373 27.1658C114.179 26.9525 115.032 26.6207 115.909 26.1466V29.7021C115.198 30.1051 114.416 30.4133 113.586 30.6029C112.78 30.7925 111.784 30.8873 110.599 30.8873ZM110.007 16.7125C109.13 16.7125 108.442 17.0206 107.944 17.6369C107.447 18.2532 107.162 19.1303 107.091 20.268H112.899C112.875 19.1303 112.614 18.2532 112.093 17.6369C111.595 17.0206 110.884 16.7125 110.007 16.7125Z" fill="#231F20"/>
<path d="M123.044 30.603L117.26 13.7734H121.598L124.537 23.3734C124.869 24.5823 125.059 25.7438 125.154 26.8342H125.225C125.272 25.8623 125.485 24.7245 125.841 23.3734L128.757 13.7734H133.071L127.287 30.603H123.044Z" fill="#231F20"/>
<path d="M141.248 30.8873C138.806 30.8873 136.91 30.1288 135.535 28.6355C134.161 27.1421 133.473 25.0325 133.473 22.2829C133.473 19.4621 134.113 17.2814 135.369 15.7406C136.626 14.1999 138.38 13.4414 140.632 13.4414C142.765 13.4414 144.448 14.1288 145.633 15.4799C146.818 16.831 147.411 18.7036 147.411 21.0977V23.3259H137.645C137.692 24.6296 138.048 25.6488 138.688 26.3836C139.352 27.1184 140.252 27.474 141.414 27.474C142.338 27.474 143.192 27.3792 143.998 27.1658C144.803 26.9525 145.657 26.6207 146.534 26.1466V29.7021C145.823 30.1051 145.041 30.4133 144.211 30.6029C143.429 30.7925 142.433 30.8873 141.248 30.8873ZM140.655 16.7125C139.778 16.7125 139.091 17.0206 138.593 17.6369C138.095 18.2532 137.811 19.1303 137.74 20.268H143.547C143.523 19.1303 143.263 18.2532 142.741 17.6369C142.243 17.0206 141.532 16.7125 140.655 16.7125Z" fill="#231F20"/>
<path d="M163.932 30.6026H159.808V20.7656C159.808 19.5567 159.618 18.6323 159.215 18.0397C158.836 17.4234 158.22 17.1389 157.366 17.1389C156.205 17.1389 155.375 17.5656 154.854 18.4189C154.332 19.2723 154.072 20.6945 154.072 22.6856V30.6026H149.947V13.773H153.123L153.669 15.93H153.906C154.356 15.1241 154.996 14.5078 155.802 14.0811C156.608 13.6545 157.532 13.4648 158.552 13.4648C160.306 13.4648 161.657 13.9863 162.558 15.053C163.458 16.1197 163.932 17.6367 163.932 19.6278V30.6026Z" fill="#231F20"/>
<path d="M173.746 27.2347C174.457 27.2347 175.334 27.0687 176.354 26.7132V30.1265C175.334 30.648 174.054 30.885 172.561 30.885C170.902 30.885 169.693 30.411 168.958 29.4865C168.199 28.5621 167.82 27.1635 167.82 25.3147V17.208H165.853V15.2643L168.128 13.7235L169.314 10.168H171.945V13.7472H176.188V17.1843H171.945V25.291C171.945 25.9547 172.111 26.4287 172.442 26.7369C172.774 27.0687 173.201 27.2347 173.746 27.2347Z" fill="#231F20"/>
<path d="M76.1338 33.207H81.7279C84.359 33.207 86.2553 33.6337 87.4405 34.5107C88.6257 35.3878 89.1946 36.7626 89.1946 38.6589C89.1946 39.9626 88.8627 41.0293 88.2227 41.8826C87.559 42.7359 86.6109 43.2811 85.3546 43.5181V43.6604C88.365 44.2293 89.8583 45.9833 89.8583 48.9226C89.8583 50.89 89.2657 52.4307 88.0568 53.5211C86.8716 54.6352 85.1887 55.1804 83.0316 55.1804H76.1101V33.207H76.1338ZM78.4568 42.6411H82.2494C83.885 42.6411 85.0464 42.3567 85.7575 41.7878C86.4687 41.2189 86.8242 40.2707 86.8242 38.9196C86.8242 37.687 86.4212 36.7863 85.639 36.2411C84.8331 35.6959 83.5768 35.4115 81.8464 35.4115H78.4568V42.6411ZM78.4568 44.7981V53.0233H82.5812C84.1694 53.0233 85.3783 52.6915 86.1842 52.0041C86.9901 51.3167 87.3931 50.25 87.3931 48.7804C87.3931 47.4055 86.9901 46.41 86.1605 45.77C85.3309 45.13 84.0746 44.7981 82.3916 44.7981H78.4568Z" fill="#231F20"/>
<path d="M95.1916 32.8516H92.9398V55.2279H95.1916V32.8516Z" fill="#231F20"/>
<path d="M98.937 34.253C98.937 33.6841 99.0555 33.2575 99.3163 32.9967C99.577 32.736 99.8852 32.5938 100.264 32.5938C100.62 32.5938 100.928 32.736 101.189 32.9967C101.45 33.2575 101.592 33.6841 101.592 34.253C101.592 34.8219 101.45 35.2249 101.189 35.5093C100.928 35.7938 100.62 35.936 100.264 35.936C99.8852 35.936 99.577 35.7938 99.3163 35.5093C99.0793 35.2249 98.937 34.8219 98.937 34.253ZM101.379 55.2308H99.1267V38.733H101.379V55.2308Z" fill="#231F20"/>
<path d="M115.482 55.2278V44.5611C115.482 43.21 115.198 42.2145 114.653 41.5508C114.107 40.8871 113.23 40.5552 112.069 40.5552C110.504 40.5552 109.39 41.0293 108.656 41.9537C107.944 42.8782 107.565 44.4189 107.565 46.5759V55.2278H105.313V38.73H107.139L107.494 40.9819H107.613C108.063 40.1759 108.727 39.5359 109.556 39.0856C110.386 38.6352 111.31 38.4219 112.33 38.4219C114.107 38.4219 115.459 38.8959 116.359 39.8678C117.26 40.8159 117.71 42.3567 117.71 44.4663V55.2278H115.482Z" fill="#231F20"/>
<path d="M131.625 52.9997H131.506C130.463 54.6827 128.922 55.5123 126.837 55.5123C124.893 55.5123 123.376 54.7775 122.309 53.3079C121.219 51.8382 120.697 49.7286 120.697 47.0027C120.697 44.2767 121.242 42.1671 122.333 40.6738C123.423 39.1567 124.917 38.4219 126.86 38.4219C128.875 38.4219 130.416 39.2279 131.506 40.8634H131.672L131.577 39.6782L131.53 38.5167V32.8516H133.782V55.2279H131.957L131.625 52.9997ZM127.121 53.4264C128.662 53.4264 129.776 52.9523 130.463 52.0279C131.151 51.1034 131.506 49.6101 131.506 47.5242V47.0027C131.506 44.656 131.151 42.9967 130.463 42.0012C129.752 41.0056 128.638 40.5079 127.097 40.5079C125.77 40.5079 124.774 41.0767 124.063 42.2145C123.376 43.3523 123.02 44.9642 123.02 47.0501C123.02 49.1597 123.376 50.7479 124.063 51.8145C124.774 52.8812 125.794 53.4264 127.121 53.4264Z" fill="#231F20"/>
<path d="M147.861 55.2278V44.5611C147.861 43.21 147.577 42.2145 147.032 41.5508C146.487 40.8871 145.61 40.5552 144.448 40.5552C142.907 40.5552 141.77 41.0293 141.035 41.9537C140.324 42.8782 139.944 44.4189 139.944 46.5759V55.2278H137.693V38.73H139.518L139.873 40.9819H139.992C140.442 40.1759 141.106 39.5359 141.936 39.0856C142.765 38.6352 143.69 38.4219 144.709 38.4219C146.51 38.4219 147.838 38.8959 148.739 39.8678C149.639 40.8159 150.09 42.3567 150.09 44.4663V55.2278H147.861Z" fill="#231F20"/>
<path d="M160.164 55.5122C157.959 55.5122 156.229 54.7774 154.973 53.2841C153.693 51.7908 153.076 49.7285 153.076 47.0974C153.076 44.4426 153.669 42.333 154.854 40.7685C156.039 39.2041 157.627 38.4219 159.595 38.4219C161.467 38.4219 162.937 39.1093 164.004 40.4604C165.094 41.8115 165.639 43.613 165.639 45.8411V47.4293H155.399C155.447 49.373 155.897 50.8426 156.727 51.8382C157.556 52.8337 158.741 53.3315 160.259 53.3315C161.847 53.3315 163.435 52.9522 164.999 52.2174V54.4456C164.193 54.8248 163.459 55.1093 162.747 55.2752C162.013 55.4411 161.159 55.5122 160.164 55.5122ZM159.547 40.5078C158.362 40.5078 157.414 40.9345 156.703 41.8115C155.992 42.6648 155.589 43.8737 155.447 45.3908H163.221C163.221 43.8263 162.913 42.6174 162.273 41.7641C161.633 40.9345 160.733 40.5078 159.547 40.5078Z" fill="#231F20"/>
<path d="M178.202 50.7272C178.202 52.2679 177.681 53.4531 176.661 54.2828C175.642 55.1124 174.173 55.5391 172.324 55.5391C170.356 55.5391 168.816 55.1835 167.725 54.4961V52.1731C168.436 52.5761 169.195 52.8842 170.024 53.1213C170.83 53.3583 171.636 53.4768 172.395 53.4768C173.58 53.4768 174.481 53.2635 175.097 52.8605C175.737 52.4339 176.045 51.8176 176.045 50.9642C176.045 50.3242 175.784 49.7791 175.287 49.3287C174.789 48.8783 173.817 48.3331 172.347 47.7168C170.973 47.1479 169.977 46.6502 169.408 46.2235C168.816 45.7968 168.389 45.2991 168.104 44.7776C167.82 44.2324 167.678 43.5924 167.678 42.8339C167.678 41.4828 168.176 40.4398 169.147 39.6576C170.119 38.8754 171.47 38.4961 173.201 38.4961C174.789 38.4961 176.353 38.8517 177.894 39.5865L177.088 41.625C175.595 40.9376 174.244 40.6057 173.035 40.6057C171.968 40.6057 171.162 40.7954 170.617 41.1746C170.072 41.5539 169.811 42.0517 169.811 42.7154C169.811 43.1657 169.906 43.545 170.119 43.8531C170.309 44.1613 170.641 44.4694 171.091 44.7302C171.541 45.0146 172.419 45.4176 173.699 45.9391C175.453 46.6502 176.661 47.3613 177.278 48.0961C177.894 48.7124 178.202 49.6368 178.202 50.7272Z" fill="#231F20"/>
<path d="M190.149 50.7272C190.149 52.2679 189.627 53.4531 188.608 54.2828C187.589 55.1124 186.119 55.5391 184.27 55.5391C182.303 55.5391 180.762 55.1835 179.672 54.4961V52.1731C180.383 52.5761 181.141 52.8842 181.971 53.1213C182.801 53.3583 183.583 53.4768 184.341 53.4768C185.527 53.4768 186.427 53.2635 187.044 52.8605C187.684 52.4339 187.992 51.8176 187.992 50.9642C187.992 50.3242 187.731 49.7791 187.233 49.3287C186.736 48.8783 185.764 48.3331 184.294 47.7168C182.919 47.1479 181.924 46.6502 181.355 46.2235C180.762 45.7968 180.336 45.2991 180.051 44.7776C179.767 44.2324 179.624 43.5924 179.624 42.8339C179.624 41.4828 180.122 40.4398 181.094 39.6576C182.09 38.8754 183.441 38.4961 185.147 38.4961C186.736 38.4961 188.3 38.8517 189.841 39.5865L189.035 41.625C187.541 40.9376 186.19 40.6057 184.981 40.6057C183.915 40.6057 183.109 40.7954 182.564 41.1746C182.019 41.5539 181.758 42.0517 181.758 42.7154C181.758 43.1657 181.853 43.545 182.066 43.8531C182.279 44.1613 182.587 44.4694 183.038 44.7302C183.488 45.0146 184.365 45.4176 185.645 45.9391C187.399 46.6502 188.608 47.3613 189.224 48.0961C189.841 48.7124 190.149 49.6368 190.149 50.7272Z" fill="#231F20"/>
<path d="M24.697 9.71968L22.6585 1.63672C16.1163 3.81746 10.4985 8.06042 6.61111 13.6071L14.1963 17.3286C16.8985 13.8915 20.5252 11.2367 24.697 9.71968Z" fill="#00ACA1"/>
<path d="M25.6212 13.418C22.5161 14.6032 19.8139 16.5469 17.6806 19.0357L28.3472 24.2742L25.6212 13.418Z" fill="#00ACA1"/>
<path d="M32.7561 0C29.2242 0 25.8346 0.59259 22.6583 1.63555L24.6968 9.71852C27.2094 8.79407 29.9353 8.2963 32.7561 8.2963C39.2746 8.2963 45.1768 10.9274 49.4435 15.1941L57.5027 11.7333C51.6479 4.57481 42.7353 0 32.7561 0Z" fill="#4676AE"/>
<path d="M34.5338 21.595C33.159 19.6039 32.3531 17.2098 32.3531 14.6024C32.3531 13.7491 32.4479 12.8958 32.6138 12.0898C30.1487 12.1135 27.7783 12.5876 25.6212 13.4173L28.3472 24.2735L34.5338 21.595Z" fill="#5E84B7"/>
<path d="M56.3889 31.9296C56.3889 33.2096 56.2941 34.4422 56.0807 35.6748L63.903 38.8985C64.4007 36.6704 64.6615 34.3237 64.6615 31.9296C64.6615 24.2733 61.9593 17.2571 57.4793 11.7578L49.42 15.2186C53.7341 19.4852 56.3889 25.3874 56.3889 31.9296Z" fill="#005596"/>
<path d="M52.4775 34.1804C52.5724 33.4456 52.6198 32.6871 52.6198 31.9285C52.6198 29.4871 52.1694 27.1641 51.3635 25.0071C49.4435 26.2397 47.1679 26.9508 44.7027 26.9508C40.4835 26.9508 36.762 24.8174 34.5338 21.5938L28.3472 24.2485L52.4775 34.1804Z" fill="#005596"/>
<path d="M32.7565 55.5632C31.6662 55.5632 30.5995 55.4921 29.5565 55.3499L29.8884 63.741C30.8365 63.8358 31.7847 63.8832 32.7565 63.8832C47.998 63.8832 60.7506 53.1928 63.9269 38.8995L56.1047 35.6758C54.3032 46.935 44.5373 55.5632 32.7565 55.5632Z" fill="#A5D7E9"/>
<path d="M14.1961 17.3035L6.61092 13.582C3.55314 17.9435 1.53833 23.0872 0.969444 28.6813L9.57388 27.2828C10.3324 23.585 11.9443 20.1954 14.1961 17.3035Z" fill="#8DC63F"/>
<path d="M28.3474 24.2502L17.6806 19.0117C15.8081 21.1925 14.4095 23.7762 13.6273 26.6443L28.3474 24.2502Z" fill="#009AC7"/>
<path d="M9.1237 31.9308C9.1237 30.3427 9.28963 28.8019 9.57407 27.3086L0.969629 28.7071C0.874814 29.7738 0.803703 30.8404 0.803703 31.9308C0.803703 34.0167 1.01704 36.0316 1.3963 37.999L10.8304 40.7723C9.74 38.0464 9.1237 35.0597 9.1237 31.9308Z" fill="#AED476"/>
<path d="M28.3474 24.25L13.6273 26.6441C13.1769 28.327 12.9162 30.1048 12.9162 31.93C12.9162 35.6989 13.9592 39.2307 15.8081 42.2411L29.1296 46.1522L28.3474 24.25Z" fill="#40BFB9"/>
<path d="M10.854 40.7931L1.41991 37.9961C2.98435 46.0791 7.58287 53.0716 13.9829 57.7413L20.9755 52.4079C16.4243 49.7768 12.8451 45.6998 10.854 40.7931Z" fill="#EBE72A"/>
<path d="M15.8083 42.2383C17.8232 45.5331 20.7624 48.2116 24.2706 49.8709L29.1299 46.1494L15.8083 42.2383Z" fill="#8DC63F"/>
<path d="M20.9755 52.4102L13.9829 57.7435C18.534 61.062 23.9858 63.1953 29.8881 63.7168L29.5563 55.3257C26.4985 54.9227 23.5592 53.9035 20.9755 52.4102Z" fill="#8DC63F"/>
<path d="M24.2704 49.8736C25.8585 50.6321 27.5652 51.1773 29.343 51.4854L29.1059 46.1758L24.2704 49.8736Z" fill="#00ACA1"/>
<path d="M52.4775 34.1819L28.3472 24.25L29.1057 46.1522L52.4538 34.2056C52.4775 34.2056 52.4775 34.2056 52.4775 34.1819Z" fill="#009AC7"/>
<path d="M32.7563 51.7673C42.9489 51.7673 51.34 44.0873 52.4778 34.2266L29.1296 46.1495L29.3667 51.4592C30.4333 51.6725 31.6185 51.7673 32.7563 51.7673Z" fill="#46B9D9"/>
</g>
<defs>
<clipPath id="clip0_790_1928">
<rect width="189.393" height="64" fill="white" transform="translate(0.803703)"/>
</clipPath>
</defs>
</svg>
