<svg width="214" height="64" viewBox="0 0 214 64" fill="none" xmlns="http://www.w3.org/2000/svg">
<path d="M102.059 18.0652C102.059 20.0689 101.498 21.5917 100.375 22.6537C99.2533 23.7156 97.6504 24.2366 95.5665 24.2366H94.0437V30.8488H90.4971V12.2344H95.847C97.8708 12.2344 99.4136 12.7153 100.476 13.6971C101.538 14.6789 102.059 16.1216 102.059 18.0652ZM94.0437 21.0106H95.2059C96.3079 21.0106 97.1094 20.7702 97.6504 20.2893C98.1914 19.8084 98.4719 19.1071 98.4719 18.2054C98.4719 17.2837 98.2515 16.6025 97.7906 16.1616C97.3298 15.7208 96.6285 15.5004 95.6467 15.5004H94.0437V21.0106Z" fill="#231F20"/>
<path d="M111.216 16.3594C111.697 16.3594 112.078 16.3995 112.398 16.4796L112.138 20.1264C111.857 20.0462 111.517 20.0061 111.116 20.0061C109.994 20.0061 109.132 20.3267 108.511 20.9679C107.89 21.6091 107.57 22.4907 107.57 23.6328V30.8662H104.063V16.6399H106.708L107.229 19.0243H107.409C107.81 18.2228 108.351 17.5816 109.012 17.1007C109.693 16.5998 110.415 16.3594 111.216 16.3594Z" fill="#231F20"/>
<path d="M119.813 31.1067C117.749 31.1067 116.146 30.4655 114.984 29.2032C113.822 27.9408 113.24 26.1575 113.24 23.8332C113.24 21.4488 113.781 19.6054 114.843 18.303C115.905 17.0006 117.408 16.3594 119.292 16.3594C121.095 16.3594 122.518 16.9405 123.52 18.0826C124.521 19.2247 125.022 20.8076 125.022 22.8314V24.7149H116.767C116.807 25.8169 117.108 26.6785 117.649 27.2996C118.19 27.9208 118.971 28.2213 119.973 28.2213C120.734 28.2213 121.476 28.1412 122.157 27.9609C122.838 27.7805 123.56 27.5 124.301 27.0993V30.1048C123.7 30.4455 123.039 30.7059 122.337 30.8662C121.656 31.0265 120.815 31.1067 119.813 31.1067ZM119.312 19.1245C118.57 19.1245 117.989 19.385 117.569 19.9059C117.148 20.4269 116.907 21.1683 116.847 22.1301H121.756C121.736 21.1683 121.516 20.4269 121.075 19.9059C120.654 19.385 120.053 19.1245 119.312 19.1245Z" fill="#231F20"/>
<path d="M130.331 30.867L125.442 16.6406H129.109L131.593 24.7557C131.874 25.7775 132.034 26.7594 132.114 27.6811H132.174C132.214 26.8596 132.395 25.8978 132.695 24.7557L135.16 16.6406H138.807L133.918 30.867H130.331Z" fill="#231F20"/>
<path d="M145.72 31.1067C143.656 31.1067 142.053 30.4655 140.891 29.2032C139.729 27.9408 139.148 26.1575 139.148 23.8332C139.148 21.4488 139.689 19.6054 140.751 18.303C141.813 17.0006 143.296 16.3594 145.199 16.3594C147.002 16.3594 148.425 16.9405 149.427 18.0826C150.429 19.2247 150.93 20.8076 150.93 22.8314V24.7149H142.674C142.715 25.8169 143.015 26.6785 143.556 27.2996C144.117 27.9208 144.879 28.2213 145.86 28.2213C146.642 28.2213 147.363 28.1412 148.044 27.9609C148.726 27.7805 149.447 27.5 150.188 27.0993V30.1048C149.587 30.4455 148.926 30.7059 148.225 30.8662C147.563 31.0265 146.722 31.1067 145.72 31.1067ZM145.219 19.1245C144.478 19.1245 143.897 19.385 143.476 19.9059C143.055 20.4269 142.815 21.1683 142.755 22.1301H147.664C147.644 21.1683 147.423 20.4269 146.982 19.9059C146.562 19.385 145.961 19.1245 145.219 19.1245Z" fill="#231F20"/>
<path d="M164.895 30.8696H161.409V22.5542C161.409 21.5323 161.248 20.7509 160.908 20.25C160.587 19.729 160.066 19.4886 159.345 19.4886C158.363 19.4886 157.662 19.8492 157.221 20.5706C156.78 21.2919 156.56 22.4941 156.56 24.1772V30.8696H153.073V16.6433H155.758L156.219 18.4667H156.419C156.8 17.7854 157.341 17.2644 158.022 16.9038C158.703 16.5431 159.485 16.3828 160.347 16.3828C161.829 16.3828 162.971 16.8236 163.733 17.7253C164.494 18.627 164.895 19.9093 164.895 21.5925V30.8696Z" fill="#231F20"/>
<path d="M173.191 28.0244C173.792 28.0244 174.534 27.8841 175.395 27.5836V30.4689C174.534 30.9097 173.452 31.1101 172.189 31.1101C170.787 31.1101 169.765 30.7093 169.144 29.9279C168.502 29.1465 168.182 27.9643 168.182 26.4014V19.5487H166.519V17.9056L168.442 16.6032L169.444 13.5977H171.668V16.6233H175.255V19.5286H171.668V26.3813C171.668 26.9424 171.808 27.3431 172.089 27.6036C172.37 27.8841 172.73 28.0244 173.191 28.0244Z" fill="#231F20"/>
<path d="M90.677 33.0703H95.4058C97.6299 33.0703 99.2329 33.431 100.235 34.1724C101.237 34.9137 101.717 36.0759 101.717 37.6788C101.717 38.7809 101.437 39.6826 100.896 40.4039C100.335 41.1252 99.5334 41.5861 98.4715 41.7865V41.9067C101.016 42.3876 102.279 43.8703 102.279 46.3549C102.279 48.018 101.778 49.3204 100.756 50.2421C99.7538 51.1839 98.3312 51.6447 96.5078 51.6447H90.657V33.0703H90.677ZM92.6407 41.0451H95.8466C97.2292 41.0451 98.211 40.8046 98.8121 40.3237C99.4132 39.8429 99.7138 39.0414 99.7138 37.8993C99.7138 36.8573 99.3731 36.0959 98.7119 35.6351C98.0306 35.1742 96.9687 34.9338 95.506 34.9338H92.6407V41.0451ZM92.6407 42.8685V49.8213H96.1271C97.4696 49.8213 98.4915 49.5408 99.1728 48.9597C99.854 48.3787 100.195 47.477 100.195 46.2347C100.195 45.0725 99.854 44.231 99.1527 43.69C98.4514 43.149 97.3894 42.8685 95.9668 42.8685H92.6407Z" fill="#231F20"/>
<path d="M106.787 32.7695H104.884V51.6846H106.787V32.7695Z" fill="#231F20"/>
<path d="M109.953 33.9534C109.953 33.4725 110.053 33.1118 110.273 32.8914C110.494 32.671 110.754 32.5508 111.075 32.5508C111.375 32.5508 111.636 32.671 111.856 32.8914C112.077 33.1118 112.197 33.4725 112.197 33.9534C112.197 34.4343 112.077 34.7749 111.856 35.0153C111.636 35.2558 111.375 35.376 111.075 35.376C110.754 35.376 110.494 35.2558 110.273 35.0153C110.073 34.7749 109.953 34.4343 109.953 33.9534ZM112.017 51.6862H110.113V37.7404H112.017V51.6862Z" fill="#231F20"/>
<path d="M123.939 51.6868V42.6701C123.939 41.528 123.699 40.6864 123.238 40.1254C122.777 39.5643 122.036 39.2838 121.054 39.2838C119.731 39.2838 118.79 39.6845 118.169 40.466C117.567 41.2474 117.247 42.5499 117.247 44.3732V51.6868H115.343V37.741H116.886L117.187 39.6445H117.287C117.668 38.9632 118.229 38.4222 118.93 38.0415C119.631 37.6608 120.413 37.4805 121.274 37.4805C122.777 37.4805 123.919 37.8812 124.681 38.7027C125.442 39.5042 125.823 40.8066 125.823 42.5899V51.6868H123.939Z" fill="#231F20"/>
<path d="M137.584 49.8011H137.484C136.603 51.2237 135.3 51.925 133.537 51.925C131.894 51.925 130.611 51.3039 129.71 50.0616C128.788 48.8193 128.347 47.036 128.347 44.7317C128.347 42.4274 128.808 40.6441 129.73 39.3818C130.651 38.0994 131.914 37.4783 133.557 37.4783C135.26 37.4783 136.562 38.1595 137.484 39.5421H137.624L137.544 38.5402L137.504 37.5584V32.7695H139.408V51.6846H137.865L137.584 49.8011ZM133.777 50.1617C135.08 50.1617 136.021 49.761 136.603 48.9795C137.184 48.1981 137.484 46.9358 137.484 45.1725V44.7317C137.484 42.748 137.184 41.3454 136.603 40.5039C136.001 39.6623 135.06 39.2415 133.757 39.2415C132.635 39.2415 131.794 39.7224 131.193 40.6842C130.611 41.646 130.311 43.0085 130.311 44.7718C130.311 46.5551 130.611 47.8975 131.193 48.7992C131.794 49.7009 132.655 50.1617 133.777 50.1617Z" fill="#231F20"/>
<path d="M151.31 51.6868V42.6701C151.31 41.528 151.07 40.6864 150.609 40.1254C150.148 39.5643 149.406 39.2838 148.425 39.2838C147.122 39.2838 146.16 39.6845 145.539 40.466C144.938 41.2474 144.618 42.5499 144.618 44.3732V51.6868H142.714V37.741H144.257L144.557 39.6445H144.658C145.038 38.9632 145.599 38.4222 146.301 38.0415C147.002 37.6608 147.783 37.4805 148.645 37.4805C150.168 37.4805 151.29 37.8812 152.051 38.7027C152.813 39.5042 153.193 40.8066 153.193 42.5899V51.6868H151.31Z" fill="#231F20"/>
<path d="M161.709 51.9272C159.846 51.9272 158.383 51.3061 157.321 50.0437C156.239 48.7814 155.718 47.0382 155.718 44.8141C155.718 42.5699 156.219 40.7866 157.221 39.4641C158.223 38.1417 159.565 37.4805 161.228 37.4805C162.811 37.4805 164.053 38.0615 164.955 39.2037C165.877 40.3458 166.338 41.8686 166.338 43.7521V45.0946H157.682C157.722 46.7376 158.102 47.9799 158.804 48.8215C159.505 49.663 160.507 50.0838 161.789 50.0838C163.132 50.0838 164.474 49.7632 165.797 49.1421V51.0256C165.115 51.3461 164.494 51.5866 163.893 51.7269C163.272 51.8671 162.551 51.9272 161.709 51.9272ZM161.188 39.2437C160.186 39.2437 159.385 39.6044 158.784 40.3458C158.183 41.0671 157.842 42.089 157.722 43.3714H164.294C164.294 42.0489 164.033 41.027 163.492 40.3057C162.951 39.6044 162.19 39.2437 161.188 39.2437Z" fill="#231F20"/>
<path d="M176.958 47.8782C176.958 49.1806 176.517 50.1825 175.655 50.8838C174.794 51.5851 173.551 51.9457 171.988 51.9457C170.325 51.9457 169.023 51.6452 168.101 51.0641V49.1005C168.702 49.4411 169.344 49.7016 170.045 49.902C170.726 50.1023 171.407 50.2025 172.049 50.2025C173.05 50.2025 173.812 50.0222 174.333 49.6815C174.874 49.3209 175.134 48.7999 175.134 48.0786C175.134 47.5376 174.914 47.0767 174.493 46.696C174.072 46.3153 173.251 45.8545 172.008 45.3335C170.846 44.8526 170.005 44.4318 169.524 44.0712C169.023 43.7105 168.662 43.2897 168.422 42.8489C168.181 42.388 168.061 41.847 168.061 41.2059C168.061 40.0637 168.482 39.1821 169.303 38.5209C170.125 37.8597 171.267 37.5391 172.73 37.5391C174.072 37.5391 175.395 37.8396 176.697 38.4608L176.016 40.184C174.754 39.6029 173.611 39.3224 172.59 39.3224C171.688 39.3224 171.007 39.4827 170.546 39.8033C170.085 40.1238 169.864 40.5446 169.864 41.1057C169.864 41.4864 169.945 41.807 170.125 42.0674C170.285 42.3279 170.566 42.5884 170.946 42.8088C171.327 43.0493 172.069 43.3899 173.151 43.8307C174.633 44.4318 175.655 45.0329 176.176 45.6541C176.697 46.1751 176.958 46.9565 176.958 47.8782Z" fill="#231F20"/>
<path d="M187.056 47.8782C187.056 49.1806 186.615 50.1825 185.754 50.8838C184.892 51.5851 183.65 51.9457 182.087 51.9457C180.424 51.9457 179.122 51.6452 178.2 51.0641V49.1005C178.801 49.4411 179.442 49.7016 180.143 49.902C180.845 50.1023 181.506 50.2025 182.147 50.2025C183.149 50.2025 183.91 50.0222 184.431 49.6815C184.972 49.3209 185.233 48.7999 185.233 48.0786C185.233 47.5376 185.012 47.0767 184.592 46.696C184.171 46.3153 183.349 45.8545 182.107 45.3335C180.945 44.8526 180.103 44.4318 179.622 44.0712C179.122 43.7105 178.761 43.2897 178.52 42.8489C178.28 42.388 178.16 41.847 178.16 41.2059C178.16 40.0637 178.581 39.1821 179.402 38.5209C180.244 37.8597 181.386 37.5391 182.828 37.5391C184.171 37.5391 185.493 37.8396 186.796 38.4608L186.115 40.184C184.852 39.6029 183.71 39.3224 182.688 39.3224C181.787 39.3224 181.105 39.4827 180.644 39.8033C180.184 40.1238 179.963 40.5446 179.963 41.1057C179.963 41.4864 180.043 41.807 180.224 42.0674C180.404 42.3279 180.664 42.5884 181.045 42.8088C181.426 43.0493 182.167 43.3899 183.249 43.8307C184.732 44.4318 185.754 45.0329 186.275 45.6541C186.796 46.1751 187.056 46.9565 187.056 47.8782Z" fill="#231F20"/>
<path d="M102.059 18.0652C102.059 20.0689 101.498 21.5917 100.375 22.6537C99.2533 23.7156 97.6504 24.2366 95.5665 24.2366H94.0437V30.8488H90.4971V12.2344H95.847C97.8708 12.2344 99.4136 12.7153 100.476 13.6971C101.538 14.6789 102.059 16.1216 102.059 18.0652ZM94.0437 21.0106H95.2059C96.3079 21.0106 97.1094 20.7702 97.6504 20.2893C98.1914 19.8084 98.4719 19.1071 98.4719 18.2054C98.4719 17.2837 98.2515 16.6025 97.7906 16.1616C97.3298 15.7208 96.6285 15.5004 95.6467 15.5004H94.0437V21.0106Z" fill="#231F20"/>
<path d="M111.216 16.3594C111.697 16.3594 112.078 16.3995 112.398 16.4796L112.138 20.1264C111.857 20.0462 111.517 20.0061 111.116 20.0061C109.994 20.0061 109.132 20.3267 108.511 20.9679C107.89 21.6091 107.57 22.4907 107.57 23.6328V30.8662H104.063V16.6399H106.708L107.229 19.0243H107.409C107.81 18.2228 108.351 17.5816 109.012 17.1007C109.693 16.5998 110.415 16.3594 111.216 16.3594Z" fill="#231F20"/>
<path d="M119.813 31.1067C117.749 31.1067 116.146 30.4655 114.984 29.2032C113.822 27.9408 113.24 26.1575 113.24 23.8332C113.24 21.4488 113.781 19.6054 114.843 18.303C115.905 17.0006 117.408 16.3594 119.292 16.3594C121.095 16.3594 122.518 16.9405 123.52 18.0826C124.521 19.2247 125.022 20.8076 125.022 22.8314V24.7149H116.767C116.807 25.8169 117.108 26.6785 117.649 27.2996C118.19 27.9208 118.971 28.2213 119.973 28.2213C120.734 28.2213 121.476 28.1412 122.157 27.9609C122.838 27.7805 123.56 27.5 124.301 27.0993V30.1048C123.7 30.4455 123.039 30.7059 122.337 30.8662C121.656 31.0265 120.815 31.1067 119.813 31.1067ZM119.312 19.1245C118.57 19.1245 117.989 19.385 117.569 19.9059C117.148 20.4269 116.907 21.1683 116.847 22.1301H121.756C121.736 21.1683 121.516 20.4269 121.075 19.9059C120.654 19.385 120.053 19.1245 119.312 19.1245Z" fill="#231F20"/>
<path d="M130.331 30.867L125.442 16.6406H129.109L131.593 24.7557C131.874 25.7775 132.034 26.7594 132.114 27.6811H132.174C132.214 26.8596 132.395 25.8978 132.695 24.7557L135.16 16.6406H138.807L133.918 30.867H130.331Z" fill="#231F20"/>
<path d="M145.72 31.1067C143.656 31.1067 142.053 30.4655 140.891 29.2032C139.729 27.9408 139.148 26.1575 139.148 23.8332C139.148 21.4488 139.689 19.6054 140.751 18.303C141.813 17.0006 143.296 16.3594 145.199 16.3594C147.002 16.3594 148.425 16.9405 149.427 18.0826C150.429 19.2247 150.93 20.8076 150.93 22.8314V24.7149H142.674C142.715 25.8169 143.015 26.6785 143.556 27.2996C144.117 27.9208 144.879 28.2213 145.86 28.2213C146.642 28.2213 147.363 28.1412 148.044 27.9609C148.726 27.7805 149.447 27.5 150.188 27.0993V30.1048C149.587 30.4455 148.926 30.7059 148.225 30.8662C147.563 31.0265 146.722 31.1067 145.72 31.1067ZM145.219 19.1245C144.478 19.1245 143.897 19.385 143.476 19.9059C143.055 20.4269 142.815 21.1683 142.755 22.1301H147.664C147.644 21.1683 147.423 20.4269 146.982 19.9059C146.562 19.385 145.961 19.1245 145.219 19.1245Z" fill="#231F20"/>
<path d="M164.895 30.8696H161.409V22.5542C161.409 21.5323 161.248 20.7509 160.908 20.25C160.587 19.729 160.066 19.4886 159.345 19.4886C158.363 19.4886 157.662 19.8492 157.221 20.5706C156.78 21.2919 156.56 22.4941 156.56 24.1772V30.8696H153.073V16.6433H155.758L156.219 18.4667H156.419C156.8 17.7854 157.341 17.2644 158.022 16.9038C158.703 16.5431 159.485 16.3828 160.347 16.3828C161.829 16.3828 162.971 16.8236 163.733 17.7253C164.494 18.627 164.895 19.9093 164.895 21.5925V30.8696Z" fill="#231F20"/>
<path d="M173.191 28.0244C173.792 28.0244 174.534 27.8841 175.395 27.5836V30.4689C174.534 30.9097 173.452 31.1101 172.189 31.1101C170.787 31.1101 169.765 30.7093 169.144 29.9279C168.502 29.1465 168.182 27.9643 168.182 26.4014V19.5487H166.519V17.9056L168.442 16.6032L169.444 13.5977H171.668V16.6233H175.255V19.5286H171.668V26.3813C171.668 26.9424 171.808 27.3431 172.089 27.6036C172.37 27.8841 172.73 28.0244 173.191 28.0244Z" fill="#231F20"/>
<path d="M90.677 33.0703H95.4058C97.6299 33.0703 99.2329 33.431 100.235 34.1724C101.237 34.9137 101.717 36.0759 101.717 37.6788C101.717 38.7809 101.437 39.6826 100.896 40.4039C100.335 41.1252 99.5334 41.5861 98.4715 41.7865V41.9067C101.016 42.3876 102.279 43.8703 102.279 46.3549C102.279 48.018 101.778 49.3204 100.756 50.2421C99.7538 51.1839 98.3312 51.6447 96.5078 51.6447H90.657V33.0703H90.677ZM92.6407 41.0451H95.8466C97.2292 41.0451 98.211 40.8046 98.8121 40.3237C99.4132 39.8429 99.7138 39.0414 99.7138 37.8993C99.7138 36.8573 99.3731 36.0959 98.7119 35.6351C98.0306 35.1742 96.9687 34.9338 95.506 34.9338H92.6407V41.0451ZM92.6407 42.8685V49.8213H96.1271C97.4696 49.8213 98.4915 49.5408 99.1728 48.9597C99.854 48.3787 100.195 47.477 100.195 46.2347C100.195 45.0725 99.854 44.231 99.1527 43.69C98.4514 43.149 97.3894 42.8685 95.9668 42.8685H92.6407Z" fill="#231F20"/>
<path d="M106.787 32.7695H104.884V51.6846H106.787V32.7695Z" fill="#231F20"/>
<path d="M109.953 33.9534C109.953 33.4725 110.053 33.1118 110.273 32.8914C110.494 32.671 110.754 32.5508 111.075 32.5508C111.375 32.5508 111.636 32.671 111.856 32.8914C112.077 33.1118 112.197 33.4725 112.197 33.9534C112.197 34.4343 112.077 34.7749 111.856 35.0153C111.636 35.2558 111.375 35.376 111.075 35.376C110.754 35.376 110.494 35.2558 110.273 35.0153C110.073 34.7749 109.953 34.4343 109.953 33.9534ZM112.017 51.6862H110.113V37.7404H112.017V51.6862Z" fill="#231F20"/>
<path d="M123.939 51.6868V42.6701C123.939 41.528 123.699 40.6864 123.238 40.1254C122.777 39.5643 122.036 39.2838 121.054 39.2838C119.731 39.2838 118.79 39.6845 118.169 40.466C117.567 41.2474 117.247 42.5499 117.247 44.3732V51.6868H115.343V37.741H116.886L117.187 39.6445H117.287C117.668 38.9632 118.229 38.4222 118.93 38.0415C119.631 37.6608 120.413 37.4805 121.274 37.4805C122.777 37.4805 123.919 37.8812 124.681 38.7027C125.442 39.5042 125.823 40.8066 125.823 42.5899V51.6868H123.939Z" fill="#231F20"/>
<path d="M137.584 49.8011H137.484C136.603 51.2237 135.3 51.925 133.537 51.925C131.894 51.925 130.611 51.3039 129.71 50.0616C128.788 48.8193 128.347 47.036 128.347 44.7317C128.347 42.4274 128.808 40.6441 129.73 39.3818C130.651 38.0994 131.914 37.4783 133.557 37.4783C135.26 37.4783 136.562 38.1595 137.484 39.5421H137.624L137.544 38.5402L137.504 37.5584V32.7695H139.408V51.6846H137.865L137.584 49.8011ZM133.777 50.1617C135.08 50.1617 136.021 49.761 136.603 48.9795C137.184 48.1981 137.484 46.9358 137.484 45.1725V44.7317C137.484 42.748 137.184 41.3454 136.603 40.5039C136.001 39.6623 135.06 39.2415 133.757 39.2415C132.635 39.2415 131.794 39.7224 131.193 40.6842C130.611 41.646 130.311 43.0085 130.311 44.7718C130.311 46.5551 130.611 47.8975 131.193 48.7992C131.794 49.7009 132.655 50.1617 133.777 50.1617Z" fill="#231F20"/>
<path d="M151.31 51.6868V42.6701C151.31 41.528 151.07 40.6864 150.609 40.1254C150.148 39.5643 149.406 39.2838 148.425 39.2838C147.122 39.2838 146.16 39.6845 145.539 40.466C144.938 41.2474 144.618 42.5499 144.618 44.3732V51.6868H142.714V37.741H144.257L144.557 39.6445H144.658C145.038 38.9632 145.599 38.4222 146.301 38.0415C147.002 37.6608 147.783 37.4805 148.645 37.4805C150.168 37.4805 151.29 37.8812 152.051 38.7027C152.813 39.5042 153.193 40.8066 153.193 42.5899V51.6868H151.31Z" fill="#231F20"/>
<path d="M161.709 51.9272C159.846 51.9272 158.383 51.3061 157.321 50.0437C156.239 48.7814 155.718 47.0382 155.718 44.8141C155.718 42.5699 156.219 40.7866 157.221 39.4641C158.223 38.1417 159.565 37.4805 161.228 37.4805C162.811 37.4805 164.053 38.0615 164.955 39.2037C165.877 40.3458 166.338 41.8686 166.338 43.7521V45.0946H157.682C157.722 46.7376 158.102 47.9799 158.804 48.8215C159.505 49.663 160.507 50.0838 161.789 50.0838C163.132 50.0838 164.474 49.7632 165.797 49.1421V51.0256C165.115 51.3461 164.494 51.5866 163.893 51.7269C163.272 51.8671 162.551 51.9272 161.709 51.9272ZM161.188 39.2437C160.186 39.2437 159.385 39.6044 158.784 40.3458C158.183 41.0671 157.842 42.089 157.722 43.3714H164.294C164.294 42.0489 164.033 41.027 163.492 40.3057C162.951 39.6044 162.19 39.2437 161.188 39.2437Z" fill="#231F20"/>
<path d="M176.958 47.8782C176.958 49.1806 176.517 50.1825 175.655 50.8838C174.794 51.5851 173.551 51.9457 171.988 51.9457C170.325 51.9457 169.023 51.6452 168.101 51.0641V49.1005C168.702 49.4411 169.344 49.7016 170.045 49.902C170.726 50.1023 171.407 50.2025 172.049 50.2025C173.05 50.2025 173.812 50.0222 174.333 49.6815C174.874 49.3209 175.134 48.7999 175.134 48.0786C175.134 47.5376 174.914 47.0767 174.493 46.696C174.072 46.3153 173.251 45.8545 172.008 45.3335C170.846 44.8526 170.005 44.4318 169.524 44.0712C169.023 43.7105 168.662 43.2897 168.422 42.8489C168.181 42.388 168.061 41.847 168.061 41.2059C168.061 40.0637 168.482 39.1821 169.303 38.5209C170.125 37.8597 171.267 37.5391 172.73 37.5391C174.072 37.5391 175.395 37.8396 176.697 38.4608L176.016 40.184C174.754 39.6029 173.611 39.3224 172.59 39.3224C171.688 39.3224 171.007 39.4827 170.546 39.8033C170.085 40.1238 169.864 40.5446 169.864 41.1057C169.864 41.4864 169.945 41.807 170.125 42.0674C170.285 42.3279 170.566 42.5884 170.946 42.8088C171.327 43.0493 172.069 43.3899 173.151 43.8307C174.633 44.4318 175.655 45.0329 176.176 45.6541C176.697 46.1751 176.958 46.9565 176.958 47.8782Z" fill="#231F20"/>
<path d="M187.056 47.8782C187.056 49.1806 186.615 50.1825 185.754 50.8838C184.892 51.5851 183.65 51.9457 182.087 51.9457C180.424 51.9457 179.122 51.6452 178.2 51.0641V49.1005C178.801 49.4411 179.442 49.7016 180.143 49.902C180.845 50.1023 181.506 50.2025 182.147 50.2025C183.149 50.2025 183.91 50.0222 184.431 49.6815C184.972 49.3209 185.233 48.7999 185.233 48.0786C185.233 47.5376 185.012 47.0767 184.592 46.696C184.171 46.3153 183.349 45.8545 182.107 45.3335C180.945 44.8526 180.103 44.4318 179.622 44.0712C179.122 43.7105 178.761 43.2897 178.52 42.8489C178.28 42.388 178.16 41.847 178.16 41.2059C178.16 40.0637 178.581 39.1821 179.402 38.5209C180.244 37.8597 181.386 37.5391 182.828 37.5391C184.171 37.5391 185.493 37.8396 186.796 38.4608L186.115 40.184C184.852 39.6029 183.71 39.3224 182.688 39.3224C181.787 39.3224 181.105 39.4827 180.644 39.8033C180.184 40.1238 179.963 40.5446 179.963 41.1057C179.963 41.4864 180.043 41.807 180.224 42.0674C180.404 42.3279 180.664 42.5884 181.045 42.8088C181.426 43.0493 182.167 43.3899 183.249 43.8307C184.732 44.4318 185.754 45.0329 186.275 45.6541C186.796 46.1751 187.056 46.9565 187.056 47.8782Z" fill="#231F20"/>
<path d="M47.1976 13.2155L45.4744 6.38281C39.9441 8.22623 35.1953 11.8129 31.9092 16.5016L38.3211 19.6474C40.6053 16.742 43.671 14.4978 47.1976 13.2155Z" fill="#00ACA1"/>
<path d="M47.9787 16.3398C45.3539 17.3417 43.0696 18.9847 41.2663 21.0886L50.283 25.5168L47.9787 16.3398Z" fill="#00ACA1"/>
<path d="M54.0093 5C51.0238 5 48.1585 5.50093 45.4735 6.38256L47.1967 13.2152C49.3206 12.4338 51.6249 12.013 54.0093 12.013C59.5195 12.013 64.5088 14.2371 68.1154 17.8438L74.9281 14.9184C69.9789 8.86716 62.4449 5 54.0093 5Z" fill="#4676AE"/>
<path d="M55.5123 23.2536C54.3502 21.5705 53.6689 19.5468 53.6689 17.3427C53.6689 16.6213 53.7491 15.9 53.8893 15.2188C51.8055 15.2388 49.8018 15.6395 47.9784 16.3408L50.2827 25.5178L55.5123 23.2536Z" fill="#5E84B7"/>
<path d="M73.9875 31.9891C73.9875 33.0711 73.9073 34.113 73.727 35.1549L80.3392 37.88C80.76 35.9965 80.9804 34.0128 80.9804 31.9891C80.9804 25.5171 78.6962 19.5861 74.9092 14.9375L68.0966 17.8629C71.7433 21.4696 73.9875 26.4588 73.9875 31.9891Z" fill="#005596"/>
<path d="M70.68 33.8936C70.7601 33.2725 70.8002 32.6313 70.8002 31.9901C70.8002 29.9263 70.4195 27.9626 69.7383 26.1392C68.1153 27.1812 66.1917 27.7823 64.1078 27.7823C60.5412 27.7823 57.3954 25.979 55.5119 23.2539L50.2822 25.4981L70.68 33.8936Z" fill="#005596"/>
<path d="M54.0106 51.9674C53.0889 51.9674 52.1872 51.9073 51.3056 51.787L51.5861 58.8802C52.3876 58.9603 53.1891 59.0004 54.0106 59.0004C66.8945 59.0004 77.6744 49.9637 80.3594 37.8813L73.7472 35.1562C72.2243 44.6739 63.9691 51.9674 54.0106 51.9674Z" fill="#A5D7E9"/>
<path d="M38.3208 19.6263L31.9089 16.4805C29.3241 20.1673 27.621 24.5153 27.1401 29.2441L34.4135 28.0619C35.0547 24.9361 36.4173 22.0708 38.3208 19.6263Z" fill="#8DC63F"/>
<path d="M50.2833 25.4985L41.2666 21.0703C39.6836 22.9137 38.5014 25.0978 37.8402 27.5223L50.2833 25.4985Z" fill="#009AC7"/>
<path d="M34.033 31.9893C34.033 30.6468 34.1733 29.3444 34.4137 28.082L27.1403 29.2642C27.0601 30.1659 27 31.0676 27 31.9893C27 33.7525 27.1803 35.4557 27.5009 37.1188L35.4757 39.4631C34.554 37.1588 34.033 34.6342 34.033 31.9893Z" fill="#AED476"/>
<path d="M50.2829 25.4961L37.8398 27.5198C37.4591 28.9425 37.2387 30.4453 37.2387 31.9881C37.2387 35.174 38.1203 38.1595 39.6832 40.7043L50.9441 44.0104L50.2829 25.4961Z" fill="#40BFB9"/>
<path d="M35.4955 39.4855L27.5208 37.1211C28.8432 43.9537 32.7304 49.8647 38.1404 53.812L44.0514 49.3037C40.2042 47.0795 37.1786 43.6332 35.4955 39.4855Z" fill="#EBE72A"/>
<path d="M39.6843 40.707C41.3874 43.4922 43.872 45.7564 46.8375 47.159L50.9451 44.0132L39.6843 40.707Z" fill="#8DC63F"/>
<path d="M44.0511 49.3008L38.1401 53.8091C41.9873 56.6143 46.5958 58.4177 51.585 58.8585L51.3045 51.7653C48.7197 51.4247 46.2351 50.5631 44.0511 49.3008Z" fill="#8DC63F"/>
<path d="M46.8364 47.157C48.1789 47.7982 49.6215 48.2591 51.1243 48.5196L50.9239 44.0312L46.8364 47.157Z" fill="#00ACA1"/>
<path d="M70.68 33.8916L50.2822 25.4961L50.9234 44.0104L70.66 33.9117C70.68 33.9117 70.68 33.9117 70.68 33.8916Z" fill="#009AC7"/>
<path d="M54.0104 48.7611C62.6263 48.7611 69.7195 42.269 70.6813 33.9336L50.9447 44.0123L51.1451 48.5006C52.0467 48.6809 53.0486 48.7611 54.0104 48.7611Z" fill="#46B9D9"/>
</svg>
